<svg width="471" height="534" viewBox="0 0 471 534" fill="none" xmlns="http://www.w3.org/2000/svg">
<path d="M343.941 506.172C335.604 509.597 327.086 513.022 318.568 516.067C290.296 526.343 235.563 545.182 208.922 521.966C201.491 515.496 194.061 488.094 208.016 484.288C177.749 492.661 147.483 498.179 116.674 504.459C89.6698 509.978 66.1094 515.306 38.5618 507.884C21.5258 503.317 3.03992 492.28 1.04635 473.821C-2.21586 443.945 24.4255 420.158 45.6299 407.028C83.3266 383.812 123.742 359.834 167.419 361.166C177.931 361.547 189.53 364.021 196.054 372.774C202.579 381.528 199.135 397.893 188.624 399.035C243.356 378.103 298.451 348.987 358.44 362.308C385.987 368.398 398.493 393.326 375.113 412.927C396.136 405.505 416.253 396.561 438.545 394.468C445.795 393.707 453.225 393.707 459.75 396.942C466.274 400.177 471.53 407.218 470.805 414.83C470.261 421.109 465.73 426.247 461.381 430.624C428.034 464.307 386.894 488.284 343.76 506.172H343.941Z" fill="#98D4FF"/>
<path d="M178.658 133.33C181.211 127.522 184.615 122.608 188.444 119.034C192.273 115.46 196.528 112.333 200.782 110.1C205.037 107.866 209.717 106.079 213.972 104.292C218.652 102.952 222.481 101.611 226.736 100.271C230.565 98.931 234.394 97.1441 237.373 95.3571C240.351 93.5701 242.478 91.3364 243.755 88.2093C245.882 83.7419 245.456 79.2745 242.904 75.2538C240.351 70.7864 236.096 67.6592 230.991 64.9788C225.034 61.8516 218.652 60.5114 211.419 61.4049C204.612 62.2983 198.23 64.9788 192.273 69.8929L153.556 17.6243C167.171 7.34932 182.913 1.5417 201.633 0.201482C219.928 -1.13874 240.776 4.22214 263.326 15.8374C278.217 23.432 290.556 32.3668 300.342 42.6418C310.127 52.9168 316.509 63.6386 319.488 75.7005C322.466 87.3158 321.19 99.3778 316.084 111.886C312.68 119.481 308.851 125.289 304.171 129.756C299.491 134.223 294.385 137.797 288.854 140.031C283.323 142.265 278.217 144.499 272.686 145.839C267.155 147.626 262.05 148.966 257.37 149.859C252.689 151.2 248.435 152.54 244.606 154.774C241.202 157.007 238.224 159.688 236.947 163.262L178.658 133.33ZM171.425 229.826C160.363 224.018 153.13 215.977 149.301 205.702C145.472 194.98 145.472 185.152 149.726 175.324C153.981 165.495 161.214 159.241 171.425 156.114C181.211 152.987 191.848 154.327 202.91 160.134C213.972 165.942 221.63 173.983 225.46 184.258C229.289 194.533 229.289 204.362 224.609 214.19C220.354 223.572 213.121 230.273 203.335 233.847C193.124 237.42 182.913 236.08 171.425 230.273V229.826Z" fill="url(#paint0_linear_286_1242)"/>
<path d="M50.8857 392.375C13.189 325.581 12.6453 268.683 76.4397 223.202" stroke="#1A69B2" stroke-width="16.3252" stroke-miterlimit="10" stroke-linecap="round" stroke-linejoin="round"/>
<path d="M108.699 292.089C69.9153 312.451 39.1055 332.241 28.7752 368.778C15.5451 415.21 38.9243 449.464 52.3356 476.866" stroke="#1A69B2" stroke-width="16.3252" stroke-miterlimit="10" stroke-linecap="round" stroke-linejoin="round"/>
<path d="M40.9178 496.847C48.7109 494.564 56.3227 492.09 64.1158 489.806C65.3844 489.426 60.3099 477.818 59.9474 476.866C58.4975 473.441 57.4101 472.299 53.6042 471.918C50.342 471.538 47.0798 472.489 44.3613 474.202C40.1929 476.676 36.7494 480.482 33.6685 484.478C29.6813 489.426 26.0566 494.373 22.432 499.511C21.8883 500.273 21.3445 501.034 21.5258 501.985C21.5258 501.985 38.5618 497.608 40.9178 496.847Z" fill="#1A69B2"/>
<path d="M44.7238 473.821C48.3484 472.489 53.9667 472.109 57.5914 473.631" stroke="#1E1B1E" stroke-width="1.30602" stroke-miterlimit="10" stroke-linecap="round" stroke-linejoin="round"/>
<path d="M37.6556 478.959C39.1055 480.291 40.7366 481.624 42.1865 482.956" stroke="#1E1B1E" stroke-width="1.30602" stroke-miterlimit="10" stroke-linecap="round" stroke-linejoin="round"/>
<path d="M35.8433 481.433C37.6556 482.956 39.2867 484.288 41.2803 485.62" stroke="#1E1B1E" stroke-width="1.30602" stroke-miterlimit="10" stroke-linecap="round" stroke-linejoin="round"/>
<path d="M33.8497 483.717C35.662 484.859 37.2931 486 38.9243 487.332" stroke="#1E1B1E" stroke-width="1.30602" stroke-miterlimit="10" stroke-linecap="round" stroke-linejoin="round"/>
<path d="M64.1158 489.806L21.5258 501.985" stroke="#1E1B1E" stroke-width="1.30602" stroke-miterlimit="10" stroke-linecap="round" stroke-linejoin="round"/>
<path d="M100.725 328.816H99.2752C76.2585 328.816 57.7726 309.216 57.7726 285.238V246.037C57.7726 221.87 76.4397 202.46 99.2752 202.46H100.725C123.742 202.46 142.228 222.06 142.228 246.037V285.238C142.228 309.406 123.561 328.816 100.725 328.816Z" fill="#10B091"/>
<path d="M91.3009 310.928C76.2585 310.928 63.9346 297.988 63.9346 282.194V258.978C63.9346 243.183 76.2585 230.243 91.3009 230.243C106.343 230.243 118.667 243.183 118.667 258.978V282.194C118.667 297.988 106.343 310.928 91.3009 310.928Z" stroke="#1E1B1E" stroke-width="1.30602" stroke-miterlimit="10" stroke-linecap="round" stroke-linejoin="round"/>
<path d="M140.415 235.952C140.778 243.183 135.341 249.463 128.454 249.843C121.567 250.224 115.586 244.515 115.224 237.284C114.861 230.053 120.298 223.773 127.185 223.392C134.072 223.012 140.053 228.721 140.415 235.952Z" fill="#1A69B2"/>
<path d="M136.066 236.332C136.247 240.709 132.985 244.325 128.816 244.515C124.648 244.705 121.205 241.28 121.023 236.903C120.842 232.526 124.104 228.911 128.273 228.72C132.441 228.53 135.884 231.956 136.066 236.332Z" stroke="#1E1B1E" stroke-width="1.30602" stroke-miterlimit="10" stroke-linecap="round" stroke-linejoin="round"/>
<path d="M136.791 312.641C139.328 318.73 136.428 325.962 130.629 328.435C124.829 331.1 117.942 328.055 115.586 321.965C113.049 315.876 115.949 308.645 121.748 306.171C127.548 303.507 134.435 306.551 136.791 312.641Z" fill="#1A69B2"/>
<path d="M126.641 315.305C115.042 419.968 181.918 444.326 198.954 396.561" stroke="#1A69B2" stroke-width="16.3252" stroke-miterlimit="10" stroke-linecap="round" stroke-linejoin="round"/>
<path d="M216.534 386.856C208.559 385.714 200.585 384.573 192.611 383.431C191.342 383.241 191.523 395.99 191.523 396.942C191.704 400.558 192.067 402.27 195.329 404.173C198.048 405.696 201.491 406.266 204.572 406.076C209.465 405.696 213.996 403.412 218.346 401.319C223.783 398.464 229.22 395.42 234.476 392.375C235.201 391.994 235.926 391.423 236.107 390.472C236.107 390.472 218.89 387.237 216.352 386.856H216.534Z" fill="#1A69B2"/>
<path d="M204.21 406.457C200.223 406.076 195.148 404.173 192.429 401.319" stroke="#1E1B1E" stroke-width="1.30602" stroke-miterlimit="10" stroke-linecap="round" stroke-linejoin="round"/>
<path d="M212.728 404.554C211.821 402.651 211.097 400.748 210.19 398.845" stroke="#1E1B1E" stroke-width="1.30602" stroke-miterlimit="10" stroke-linecap="round" stroke-linejoin="round"/>
<path d="M215.446 403.222C214.359 401.128 213.271 399.035 212.184 397.132" stroke="#1E1B1E" stroke-width="1.30602" stroke-miterlimit="10" stroke-linecap="round" stroke-linejoin="round"/>
<path d="M217.983 402.08C216.896 400.367 215.809 398.464 214.721 396.752" stroke="#1E1B1E" stroke-width="1.30602" stroke-miterlimit="10" stroke-linecap="round" stroke-linejoin="round"/>
<path d="M192.611 383.621L236.288 390.472" stroke="#1E1B1E" stroke-width="1.30602" stroke-miterlimit="10" stroke-linecap="round" stroke-linejoin="round"/>
<path d="M59.5849 403.412C65.2032 404.363 70.8214 404.363 75.1711 399.796C77.5271 397.323 74.4461 392.946 71.5464 394.849C68.8279 396.752 65.5657 397.703 62.4847 397.513C62.4847 397.323 62.4847 397.132 62.6659 396.942C67.0155 395.99 70.459 392.565 73.1775 388.379C75.3523 384.953 70.2777 381.909 67.9217 385.144C66.4718 387.237 64.6595 388.569 62.4847 389.52C61.941 386.285 60.4911 383.241 58.3163 380.957C54.6916 377.151 46.8986 374.868 42.7302 378.864C37.4744 384.192 37.2931 393.136 41.0991 399.225C43.0926 402.461 45.9924 404.934 49.4358 405.886C49.6171 406.266 49.7983 406.837 50.342 407.218C52.1543 408.74 53.9667 410.072 55.9603 411.214C58.86 413.307 62.3034 414.639 66.1094 414.83C69.3716 415.02 70.2777 409.311 66.8343 408.55C63.9345 407.979 61.3973 407.028 58.86 405.696C58.4975 405.315 57.9538 405.125 57.5914 404.744C58.3163 404.363 59.0412 403.793 59.5849 403.222V403.412Z" fill="#1A69B2"/>
<path d="M62.4847 389.52C63.5721 393.707 62.8471 398.655 60.3099 402.08C57.5914 405.505 53.0605 407.218 48.8921 405.886" stroke="#1E1B1E" stroke-width="1.30602" stroke-miterlimit="10" stroke-linecap="round" stroke-linejoin="round"/>
<path d="M49.0734 376.771C45.4487 376.771 42.0052 379.054 40.1929 382.289" stroke="#1E1B1E" stroke-width="1.30602" stroke-miterlimit="10" stroke-linecap="round" stroke-linejoin="round"/>
<path d="M128.454 236.523C123.742 310.167 167.963 336.047 205.478 281.432" stroke="#1A69B2" stroke-width="16.3252" stroke-miterlimit="10" stroke-linecap="round" stroke-linejoin="round"/>
<path d="M219.433 287.522C223.602 283.526 226.864 278.578 226.139 272.298C225.776 268.873 220.521 268.683 220.158 272.298C219.977 275.724 218.708 278.959 216.534 281.432C216.352 281.242 216.352 281.242 216.171 281.052C217.983 276.865 217.44 271.918 216.171 266.97C215.084 263.164 209.465 265.448 210.553 269.254C211.278 271.727 211.097 274.201 210.553 276.485C207.653 274.962 204.572 274.391 201.491 274.772C196.417 275.533 189.892 280.481 190.436 286.57C191.161 294.182 197.866 299.891 204.935 300.462C207.109 300.652 209.284 300.462 211.278 299.701C212.184 299.32 213.09 298.749 213.815 298.369C214.721 297.988 215.627 297.988 216.534 297.798C218.89 297.227 221.064 296.466 223.058 295.514C226.32 294.373 229.401 292.47 231.938 289.235C234.113 286.57 230.307 282.384 227.77 284.858C225.595 286.951 223.239 288.473 220.702 289.805C220.158 289.996 219.615 290.186 219.252 290.186C219.433 289.235 219.433 288.473 219.252 287.522H219.433Z" fill="#1A69B2"/>
<path d="M213.453 298.559C217.802 296.085 218.89 292.089 219.252 290.376" stroke="#1E1B1E" stroke-width="1.30602" stroke-miterlimit="10" stroke-linecap="round" stroke-linejoin="round"/>
<path d="M219.433 287.712C218.165 284.287 215.809 281.242 212.909 279.339" stroke="#1E1B1E" stroke-width="1.30602" stroke-miterlimit="10" stroke-linecap="round" stroke-linejoin="round"/>
<path d="M200.404 299.13C197.323 297.037 194.604 294.373 192.429 291.328" stroke="#1E1B1E" stroke-width="1.30602" stroke-miterlimit="10" stroke-linecap="round" stroke-linejoin="round"/>
<path d="M132.622 314.924C132.26 319.111 132.079 323.298 131.716 327.484" stroke="#1E1B1E" stroke-width="1.30602" stroke-miterlimit="10" stroke-linecap="round" stroke-linejoin="round"/>
<path d="M120.661 314.924C120.298 319.111 120.117 323.298 119.755 327.484" stroke="#1E1B1E" stroke-width="1.30602" stroke-miterlimit="10" stroke-linecap="round" stroke-linejoin="round"/>
<path d="M112.324 199.605C112.324 207.217 106.525 213.307 99.2752 213.307C92.0258 213.307 86.2263 207.217 86.2263 199.605C86.2263 191.993 92.0258 185.904 99.2752 185.904C106.525 185.904 112.324 191.993 112.324 199.605Z" fill="#1A69B2"/>
<path d="M102.537 119.491C88.9448 118.349 74.8086 124.248 66.2906 136.237C61.5785 142.897 58.86 150.89 58.86 159.263C58.86 177.531 66.8343 188.758 84.2327 193.135C95.8317 195.99 108.518 196.18 119.755 191.803C125.373 189.71 130.629 186.285 134.616 181.337C139.69 175.057 139.872 167.255 139.872 159.263C139.872 147.464 133.71 136.617 125.373 129.196C118.848 123.297 110.874 120.062 102.537 119.491Z" fill="#10B091"/>
<path d="M138.241 161.736C138.241 141.565 120.842 125.2 99.2752 125.2C77.7083 125.2 60.3099 141.565 60.3099 161.736" stroke="#1E1B1E" stroke-width="1.30602" stroke-miterlimit="10" stroke-linecap="round" stroke-linejoin="round"/>
<path d="M88.5824 169.158H80.0644C74.4461 169.158 69.734 164.21 69.734 158.311C69.734 152.412 74.4461 147.464 80.0644 147.464H118.667C124.285 147.464 128.998 152.412 128.998 158.311C128.998 164.21 124.285 169.158 118.667 169.158H88.5824Z" fill="#ADDCE9"/>
<path d="M106.162 147.464H118.667C124.285 147.464 128.998 152.412 128.998 158.311C128.998 164.21 124.285 169.158 118.667 169.158H88.5824" stroke="#1E1B1E" stroke-width="1.30602" stroke-miterlimit="10" stroke-linecap="round" stroke-linejoin="round"/>
<path d="M70.459 154.125C72.0901 150.319 75.7148 147.464 80.0644 147.464H98.1878" stroke="#1E1B1E" stroke-width="1.30602" stroke-miterlimit="10" stroke-linecap="round" stroke-linejoin="round"/>
<path d="M80.0644 169.158C74.4461 169.158 69.734 164.21 69.734 158.311" stroke="#1E1B1E" stroke-width="1.30602" stroke-miterlimit="10" stroke-linecap="round" stroke-linejoin="round"/>
<path d="M82.6017 158.692C82.6017 160.785 80.9705 162.498 78.977 162.498C76.9834 162.498 75.3523 160.785 75.3523 158.692C75.3523 156.598 76.9834 154.886 78.977 154.886C80.9705 154.886 82.6017 156.598 82.6017 158.692Z" fill="#1E1B1E"/>
<path d="M123.379 158.692C123.379 160.785 121.748 162.498 119.755 162.498C117.761 162.498 116.13 160.785 116.13 158.692C116.13 156.598 117.761 154.886 119.755 154.886C121.748 154.886 123.379 156.598 123.379 158.692Z" fill="#1E1B1E"/>
<path d="M144.584 167.445C144.584 174.867 142.046 180.766 139.147 180.766C136.066 180.766 133.71 174.867 133.71 167.445C133.71 160.024 136.247 154.125 139.147 154.125C142.228 154.125 144.584 160.024 144.584 167.445Z" fill="#1E1B1E"/>
<path d="M65.2032 167.445C65.2032 174.867 62.6659 180.766 59.7662 180.766C56.6852 180.766 54.3291 174.867 54.3291 167.445C54.3291 160.024 56.8664 154.125 59.7662 154.125C62.8471 154.125 65.2032 160.024 65.2032 167.445Z" fill="#1E1B1E"/>
<path d="M114.68 175.057C108.156 178.673 92.0258 180.005 84.5952 175.057" stroke="#1E1B1E" stroke-width="1.30602" stroke-miterlimit="10" stroke-linecap="round" stroke-linejoin="round"/>
<path d="M142.59 167.445C142.59 174.867 140.053 180.766 137.153 180.766C134.072 180.766 131.716 174.867 131.716 167.445C131.716 160.024 134.253 154.125 137.153 154.125C140.234 154.125 142.59 160.024 142.59 167.445Z" stroke="#1E1B1E" stroke-width="1.30602" stroke-miterlimit="10" stroke-linecap="round" stroke-linejoin="round"/>
<path d="M67.1968 167.445C67.1968 174.867 64.6595 180.766 61.7597 180.766C58.6788 180.766 56.3227 174.867 56.3227 167.445C56.3227 160.024 58.86 154.125 61.7597 154.125C64.8407 154.125 67.1968 160.024 67.1968 167.445Z" stroke="#1E1B1E" stroke-width="1.30602" stroke-miterlimit="10" stroke-linecap="round" stroke-linejoin="round"/>
<path d="M146.034 166.684C146.034 169.919 142.953 172.583 140.053 172.583C137.153 172.583 136.428 169.919 136.428 166.684C136.428 163.449 137.153 160.785 140.053 160.785C142.953 160.785 146.034 163.449 146.034 166.684Z" fill="#F9BA03"/>
<path d="M52.698 166.684C52.698 169.919 55.779 172.583 58.6788 172.583C61.5785 172.583 62.3034 169.919 62.3034 166.684C62.3034 163.449 61.5785 160.785 58.6788 160.785C55.779 160.785 52.698 163.449 52.698 166.684Z" fill="#F9BA03"/>
<path d="M91.4821 299.32H91.1196C81.5142 299.32 73.5399 291.138 73.5399 280.862V260.119C73.5399 250.034 81.333 241.661 91.1196 241.661H91.4821C101.088 241.661 109.062 249.843 109.062 260.119V280.862C109.062 290.947 101.269 299.32 91.4821 299.32Z" fill="#ADDCE9"/>
<path d="M42.0052 354.506C38.5618 360.405 35.8433 366.685 34.0309 373.155" stroke="#1E1B1E" stroke-width="1.30602" stroke-miterlimit="10" stroke-linecap="round" stroke-linejoin="round"/>
<path d="M36.9307 336.999C32.2186 342.327 28.5939 348.607 26.2379 355.457" stroke="#1E1B1E" stroke-width="1.30602" stroke-miterlimit="10" stroke-linecap="round" stroke-linejoin="round"/>
<path d="M87.1325 204.743C86.5888 203.031 86.2263 201.318 86.2263 199.605" stroke="#1E1B1E" stroke-width="1.30602" stroke-miterlimit="10" stroke-linecap="round" stroke-linejoin="round"/>
<path d="M111.418 204.553C108.337 212.736 98.369 215.4 91.6634 210.452" stroke="#1E1B1E" stroke-width="1.30602" stroke-miterlimit="10" stroke-linecap="round" stroke-linejoin="round"/>
<path d="M91.4821 299.32H91.1196C81.5142 299.32 73.5399 291.137 73.5399 280.862" stroke="#1E1B1E" stroke-width="1.30602" stroke-miterlimit="10" stroke-linecap="round" stroke-linejoin="round"/>
<path d="M255.499 485.62C255.318 485.81 254.955 486.191 254.774 486.381C253.324 487.903 251.693 489.616 250.968 491.519C250.062 493.612 249.881 496.086 250.968 497.989C252.78 501.224 257.13 501.605 260.755 501.605C270.36 501.414 279.965 501.034 289.208 498.37C294.283 496.847 298.995 494.754 303.526 492.09C306.063 490.567 308.6 488.855 309.869 486C310.594 484.478 310.775 482.956 310.956 481.433C311.681 475.534 311.319 469.445 309.869 463.736C309.144 460.691 307.694 457.456 304.976 456.124C301.532 454.411 298.633 456.504 295.37 457.266C291.927 458.027 289.027 458.217 285.946 460.31C282.321 462.594 279.784 466.4 277.247 469.825C274.71 473.25 271.991 474.773 268.366 476.676C263.654 479.15 259.305 482.194 255.318 486L255.499 485.62Z" fill="#1E1B1E"/>
<path d="M448.513 345.562C448.876 345.752 449.238 345.752 449.601 345.943C451.594 346.514 453.769 347.084 455.762 346.894C457.937 346.704 459.931 345.562 461.018 343.659C462.831 340.424 461.018 336.238 459.206 333.003C454.313 324.439 449.238 315.686 442.532 308.645C438.908 304.839 434.739 301.413 430.209 298.559C427.671 297.037 424.953 295.514 422.053 295.705C420.603 295.705 418.972 296.275 417.703 296.846C412.448 298.94 407.554 302.365 403.567 306.551C401.392 308.835 399.399 311.499 399.58 314.734C399.761 318.73 403.023 320.443 405.198 322.917C407.554 325.581 409.004 328.245 412.266 330.148C415.891 332.241 420.422 332.812 424.409 333.573C428.396 334.335 431.115 335.857 434.558 338.331C438.908 341.566 443.62 344.04 448.694 345.752L448.513 345.562Z" fill="#1E1B1E"/>
<path d="M228.314 250.795C224.87 253.078 221.246 254.791 217.259 256.123C212.184 257.645 203.847 258.978 198.591 260.119C188.624 262.213 182.643 265.448 179.381 276.104C178.474 279.339 178.112 282.765 178.112 286C178.112 286.761 178.112 287.712 178.656 288.283C179.743 289.425 180.649 287.522 180.649 286.57C180.649 287.522 180.83 288.664 181.374 289.615C181.737 290.376 182.28 290.947 183.005 291.138C184.093 291.328 184.999 290.186 185.361 289.044C184.999 290.186 186.086 292.47 187.355 292.85C188.442 293.231 189.711 292.47 190.073 291.518C190.798 292.089 191.342 292.47 192.067 292.85C192.973 293.231 194.785 288.093 194.967 287.522C196.417 284.667 198.591 282.765 201.491 281.813C203.666 281.052 206.022 280.862 208.378 280.671C214.721 280.291 220.883 279.72 227.226 279.339C229.582 279.149 232.12 278.959 234.476 278.388C236.651 277.817 238.825 277.056 241 276.294C251.149 272.679 260.573 267.351 268.367 259.358C269.998 257.645 271.81 255.743 272.716 253.459C274.71 249.082 274.528 244.134 274.166 239.187C273.804 235.191 273.441 230.814 270.904 227.959C267.823 224.534 262.386 224.153 258.217 225.866C254.049 227.579 250.606 231.004 247.343 234.239C241.544 239.948 235.382 246.037 228.495 250.414L228.314 250.795Z" fill="#F29F85"/>
<path d="M345.391 165.923C344.666 163.449 342.854 161.356 340.679 160.404C339.773 160.024 338.685 159.833 337.779 160.024C337.779 159.643 337.598 159.263 337.598 158.882C336.148 152.222 331.798 147.464 325.999 144.99C316.031 140.804 304.794 142.707 297.364 151.08C295.552 152.983 294.283 155.266 293.196 157.74C291.927 157.36 290.658 157.36 289.39 157.74C287.396 158.501 285.765 160.214 284.859 162.117C283.771 164.21 283.59 166.684 284.315 168.777C285.04 170.68 285.946 172.583 287.577 173.725C289.208 175.057 291.202 175.057 292.833 174.106C294.827 179.053 298.633 183.05 303.163 185.523C304.251 186.094 305.519 186.665 306.788 187.046C314.4 189.329 323.643 185.714 329.442 180.576C331.255 178.863 333.067 176.96 334.336 174.867C335.242 175.628 336.329 176.199 337.598 176.389C338.685 176.58 340.135 176.009 341.041 175.438C342.129 174.677 342.854 173.725 343.579 172.774C344.847 170.871 346.116 168.397 345.21 165.923H345.391Z" fill="#F29F85"/>
<path d="M326.543 190.471C326.361 188.949 326.361 187.617 326.361 186.665C326.361 181.337 325.636 166.304 318.025 167.065C316.212 167.255 314.762 168.207 313.313 169.158C309.869 171.822 306.969 175.628 305.519 180.005C304.432 183.24 303.888 186.665 303.345 189.9C302.801 193.326 301.532 196.37 301.895 199.986C302.076 201.699 302.62 203.221 303.345 204.743C304.613 207.407 306.244 209.881 308.6 211.594C310.775 213.307 313.675 214.258 316.575 213.877C319.474 213.307 322.012 211.404 324.187 209.12C327.268 205.695 328.899 201.699 330.53 197.512C327.992 196.941 327.086 193.516 326.905 190.281L326.543 190.471Z" fill="#F29F85"/>
<path d="M279.422 293.04C278.697 296.085 278.153 299.13 277.791 301.984C274.891 320.633 272.535 339.092 271.085 357.931C268.366 395.99 269.091 434.24 273.26 472.109C273.441 473.631 296.277 471.348 298.451 470.967C306.788 469.825 311.138 470.967 311.863 462.023C313.313 444.516 311.5 425.867 310.413 408.36C309.869 399.987 309.144 391.423 310.413 383.05C311.5 375.058 314.4 367.446 316.756 359.644C321.831 343.088 324.005 326.152 325.999 309.025C326.724 302.365 327.449 295.705 326.18 289.235C324.911 282.765 321.649 276.294 316.212 273.059C308.057 268.112 295.189 271.347 287.94 277.056C283.228 280.862 280.69 286.761 279.241 292.85L279.422 293.04Z" fill="#1A69B2"/>
<path d="M341.041 273.63C347.385 278.007 347.747 279.72 349.922 287.522C353.909 301.033 361.158 321.014 364.058 334.906C370.945 328.816 377.832 322.917 384.719 316.827C389.25 312.831 401.03 301.413 407.735 304.268C409.367 304.839 410.454 306.171 411.541 307.503C416.435 313.402 420.241 320.062 422.959 327.484C423.865 329.958 424.59 332.812 423.865 335.286C423.14 337.189 421.69 338.711 420.241 340.044C405.017 354.316 381.638 378.674 359.708 378.483C340.679 378.293 326.724 357.17 319.837 341.566C315.669 331.861 312.588 323.297 308.419 313.592C306.063 308.264 306.063 301.033 305.157 295.324C304.251 289.425 305.157 283.145 308.782 278.388C313.131 272.679 320.924 270.776 327.811 270.776C331.98 270.776 336.148 271.156 339.773 273.25C340.135 273.44 340.498 273.63 340.86 274.011L341.041 273.63Z" fill="#1A69B2"/>
<path d="M469.717 211.213C468.811 209.31 467.543 210.833 466.093 210.642C466.818 210.072 466.637 208.739 465.912 208.169C465.187 207.598 464.28 207.598 463.374 207.978C456.669 210.072 451.05 213.497 445.07 217.303C433.471 224.534 422.234 229.291 408.46 227.959C399.942 227.008 391.787 224.344 383.994 220.918C379.463 219.015 355.54 211.023 350.828 210.452C340.679 208.93 351.915 222.25 352.278 233.097C352.459 237.284 353.909 242.993 356.446 246.228C358.984 249.272 362.971 250.414 366.233 251.937C370.22 253.84 374.388 255.552 378.557 256.884C392.512 261.261 407.011 261.832 421.328 258.787C432.202 256.504 442.351 251.937 452.319 246.799C454.494 245.657 456.487 244.705 458.3 243.183C459.568 242.232 462.287 240.329 461.018 238.235C460.293 237.094 457.756 237.094 456.85 237.855C461.562 233.858 466.999 230.243 469.899 224.344C470.261 223.392 470.624 222.441 470.261 221.489C469.899 220.728 468.993 220.347 468.449 220.728C469.536 219.396 471.167 217.683 470.986 215.971C470.624 214.258 469.355 213.877 468.086 214.068C469.355 213.877 470.261 212.165 469.717 210.833V211.213Z" fill="#F29F85"/>
<path d="M327.086 193.516C326.18 198.083 322.012 206.266 314.944 206.075C307.876 205.885 302.62 201.318 302.439 193.896C298.995 194.658 295.008 195.419 291.383 196.751C272.535 203.411 263.292 212.736 250.787 229.101C250.243 229.862 249.699 230.433 249.518 231.385C251.693 235.571 266.917 256.694 271.266 261.832C273.985 258.216 276.703 254.41 279.603 250.795C279.241 266.399 278.516 285.619 278.334 301.223C279.241 301.223 346.841 299.701 353.909 296.275C352.097 282.574 348.834 257.645 347.022 243.944C353.728 246.799 360.796 252.507 368.045 253.84C372.214 243.183 374.388 231.956 375.838 220.538C376.02 219.206 376.201 217.683 376.382 216.351C362.608 207.598 345.21 197.131 327.086 193.516Z" fill="#EC6F30"/>
<path d="M321.468 344.42C316.394 332.241 312.044 319.682 308.419 306.932" stroke="#1E1B1E" stroke-width="1.30602" stroke-miterlimit="10" stroke-linecap="round" stroke-linejoin="round"/>
<path d="M303.526 186.285C308.963 189.329 319.112 189.9 326.18 183.24" stroke="#1E1B1E" stroke-width="1.30602" stroke-miterlimit="10" stroke-linecap="round" stroke-linejoin="round"/>
<path d="M310.956 159.263C310.956 160.595 310.956 162.117 310.232 163.259C309.325 164.591 307.513 165.352 307.332 166.874C307.151 167.636 307.513 168.397 308.057 168.777C308.6 169.158 309.325 169.348 310.05 168.968" stroke="#1E1B1E" stroke-width="1.30602" stroke-miterlimit="10" stroke-linecap="round" stroke-linejoin="round"/>
<path d="M324.368 161.736C324.368 163.069 323.462 164.21 322.193 164.21C321.106 164.21 320.018 163.069 320.018 161.736C320.018 160.404 320.924 159.263 322.193 159.263C323.28 159.263 324.368 160.404 324.368 161.736Z" fill="#1E1B1E"/>
<path d="M303.707 160.024C303.707 161.356 302.801 162.498 301.532 162.498C300.445 162.498 299.358 161.356 299.358 160.024C299.358 158.692 300.264 157.55 301.532 157.55C302.62 157.55 303.707 158.692 303.707 160.024Z" fill="#1E1B1E"/>
<path d="M302.439 170.49C302.257 172.774 302.62 175.057 303.888 176.77C305.157 178.482 307.332 179.624 309.507 179.434C311.138 179.244 312.769 178.292 313.856 176.96C314.944 175.628 315.669 173.915 315.85 172.203L302.439 170.49Z" fill="#FEFEFE"/>
<path d="M334.879 163.449C334.698 164.02 334.698 164.591 334.517 165.162C334.336 165.733 333.792 166.113 333.248 165.923C331.073 165.352 333.067 160.024 333.248 158.692C333.611 155.837 331.255 153.173 329.08 151.841C324.368 148.416 318.387 148.035 312.588 147.655C310.232 147.464 308.057 147.464 305.701 147.464C301.532 147.464 298.633 148.987 296.095 152.602C294.827 154.315 293.739 156.218 292.652 157.931C292.652 157.36 291.927 156.979 291.564 156.408C291.021 155.837 290.477 155.076 290.296 154.315C290.115 153.363 290.115 152.412 290.84 151.841C291.383 151.46 291.927 151.651 292.652 151.651C293.558 151.841 294.464 152.031 295.37 152.412C294.102 150.89 292.108 148.416 292.108 146.513C292.108 145.371 292.833 144.039 293.92 143.658C294.464 143.468 294.827 143.658 295.37 143.658C296.82 144.039 298.089 144.42 299.358 145.181C298.633 143.468 297.726 141.946 297.001 140.233C296.639 139.472 296.277 138.711 296.095 137.759C295.914 136.047 297.183 134.524 298.814 134.524C302.438 134.144 306.063 135.666 308.782 138.33C308.238 137.188 307.694 135.856 307.694 134.524C307.694 133.192 308.419 131.67 309.507 131.289C310.594 130.909 311.863 131.289 312.95 131.86C315.85 133.382 318.206 136.237 319.474 139.472C318.75 137.759 320.199 135.666 321.831 135.476C323.462 135.095 325.274 136.047 326.361 137.569C327.449 139.091 327.811 140.804 327.811 142.707C328.717 141.565 330.349 141.375 331.798 141.755C333.067 142.326 334.154 143.468 335.061 144.61C337.235 147.845 338.142 151.841 338.323 155.647C338.504 157.169 338.867 159.072 337.779 160.214C336.692 161.356 335.242 161.356 334.879 163.449Z" fill="#1E1B1E"/>
<path d="M340.86 164.02C339.41 164.02 337.96 164.591 336.873 165.542C335.786 166.684 335.242 168.016 335.242 169.539" stroke="#1E1B1E" stroke-width="1.30602" stroke-miterlimit="10" stroke-linecap="round" stroke-linejoin="round"/>
<path d="M334.336 175.438C333.611 174.677 333.248 173.915 333.067 172.964" stroke="#1E1B1E" stroke-width="1.30602" stroke-miterlimit="10" stroke-linecap="round" stroke-linejoin="round"/>
<path d="M294.645 154.125C292.471 158.311 291.746 163.069 292.289 167.826" stroke="#1E1B1E" stroke-width="1.30602" stroke-miterlimit="10" stroke-linecap="round" stroke-linejoin="round"/>
<path d="M347.022 246.228C346.297 241.28 345.21 236.332 343.941 231.385" stroke="#1E1B1E" stroke-width="1.30602" stroke-miterlimit="10" stroke-linecap="round" stroke-linejoin="round"/>
<path d="M278.697 253.269C278.697 247.56 279.059 241.851 279.784 236.142" stroke="#1E1B1E" stroke-width="1.30602" stroke-miterlimit="10" stroke-linecap="round" stroke-linejoin="round"/>
<path d="M364.602 332.622C364.058 335.286 363.152 337.95 361.883 340.234" stroke="#1E1B1E" stroke-width="1.30602" stroke-miterlimit="10" stroke-linecap="round" stroke-linejoin="round"/>
<path d="M310.594 385.144C308.238 388.569 306.426 392.375 305.157 396.371" stroke="#1E1B1E" stroke-width="1.30602" stroke-miterlimit="10" stroke-linecap="round" stroke-linejoin="round"/>
<path d="M190.073 291.899C190.255 289.996 190.436 287.902 190.98 286C192.067 282.003 194.785 278.388 198.229 276.294" stroke="#1E1B1E" stroke-width="1.30602" stroke-miterlimit="10" stroke-linecap="round" stroke-linejoin="round"/>
<path d="M185.361 290.947C185.361 288.093 185.905 285.048 186.811 282.384C187.899 279.72 189.53 277.246 191.705 275.533" stroke="#1E1B1E" stroke-width="1.30602" stroke-miterlimit="10" stroke-linecap="round" stroke-linejoin="round"/>
<path d="M180.83 288.473C180.287 282.574 182.824 276.485 187.174 272.679" stroke="#1E1B1E" stroke-width="1.30602" stroke-miterlimit="10" stroke-linecap="round" stroke-linejoin="round"/>
<path d="M457.031 238.045C453.588 240.329 454.313 240.138 450.507 241.661" stroke="#1E1B1E" stroke-width="1.30602" stroke-miterlimit="10" stroke-linecap="round" stroke-linejoin="round"/>
<path d="M469.536 220.157C465.368 223.392 459.387 227.579 455.038 230.623" stroke="#1E1B1E" stroke-width="1.30602" stroke-miterlimit="10" stroke-linecap="round" stroke-linejoin="round"/>
<path d="M468.811 214.068C463.193 217.874 458.843 220.728 453.225 224.724" stroke="#1E1B1E" stroke-width="1.30602" stroke-miterlimit="10" stroke-linecap="round" stroke-linejoin="round"/>
<path d="M466.637 210.642C461.199 212.926 456.125 215.971 451.232 219.396" stroke="#1E1B1E" stroke-width="1.30602" stroke-miterlimit="10" stroke-linecap="round" stroke-linejoin="round"/>
<path d="M353.909 370.491C354.996 372.584 357.352 373.916 359.527 373.536" stroke="#1E1B1E" stroke-width="1.30602" stroke-miterlimit="10" stroke-linecap="round" stroke-linejoin="round"/>
<path d="M376.019 216.542C375.295 229.291 372.757 241.851 368.589 253.84" stroke="#1E1B1E" stroke-width="1.30602" stroke-miterlimit="10" stroke-linecap="round" stroke-linejoin="round"/>
<path d="M271.266 260.5C262.748 250.985 256.043 242.232 249.518 231.194" stroke="#1E1B1E" stroke-width="1.30602" stroke-miterlimit="10" stroke-linecap="round" stroke-linejoin="round"/>
<path d="M304.251 200.366C303.163 198.464 302.62 196.18 302.62 193.896" stroke="#1E1B1E" stroke-width="1.30602" stroke-miterlimit="10" stroke-linecap="round" stroke-linejoin="round"/>
<path d="M327.086 193.516C325.093 203.221 315.125 210.452 306.788 203.221" stroke="#1E1B1E" stroke-width="1.30602" stroke-miterlimit="10" stroke-linecap="round" stroke-linejoin="round"/>
<path d="M441.989 419.397C444.707 417.494 446.519 416.162 448.513 413.498C448.876 412.927 449.238 412.356 449.6 411.785C450.325 410.453 451.05 409.121 451.413 407.599C452.138 405.505 452.5 403.222 452.681 401.128C452.681 397.893 452.319 395.229 451.05 392.185C450.507 390.662 449.6 389.52 448.694 388.188C448.332 387.617 447.969 387.047 447.426 386.666C446.882 386.095 446.338 385.715 445.795 385.334C444.526 383.812 443.076 382.289 441.445 381.338C438.726 379.625 436.552 378.864 433.652 378.293C431.658 377.912 429.665 378.103 427.671 378.293C425.678 378.483 423.684 379.244 421.872 380.006C420.059 380.767 418.247 382.099 416.616 383.431C415.891 384.002 415.347 384.763 414.622 385.524C413.897 386.285 413.172 387.237 412.629 387.998C411.36 390.282 410.454 392.375 409.91 395.039C409.366 397.703 409.366 399.796 409.548 402.651C409.729 404.744 410.454 406.837 410.998 408.931C411.723 411.024 412.991 412.736 414.079 414.449C415.347 416.162 416.797 417.684 418.609 418.826C420.241 419.968 422.234 421.11 424.046 421.49C426.04 422.061 428.034 422.632 430.027 422.442C432.021 422.442 434.014 422.442 436.008 421.871C438.001 421.3 439.995 420.729 441.807 419.397H441.989Z" fill="#F3ABAD"/>
<path d="M435.464 401.128C435.464 401.89 435.102 402.461 434.377 403.031C434.014 403.222 433.652 403.412 433.108 403.602C432.565 403.793 432.202 403.983 431.658 403.983C430.208 404.363 425.678 405.315 425.315 402.651C425.134 401.89 424.228 401.319 423.503 401.319C422.597 401.509 422.234 402.08 422.415 403.031C422.778 405.125 424.771 406.837 426.765 407.218C428.577 407.598 430.39 407.408 432.202 407.028C435.102 406.457 438.364 404.934 438.364 401.509C438.364 399.606 435.283 399.035 435.283 401.128H435.464Z" fill="#1E1B1E"/>
<path d="M420.966 395.61C419.153 395.8 419.334 398.845 421.328 398.655C423.14 398.464 422.959 395.42 420.966 395.61Z" fill="#1E1B1E"/>
<path d="M436.37 392.375C434.196 392.565 434.558 396.371 436.733 395.99C438.908 395.8 438.545 391.994 436.37 392.375Z" fill="#1E1B1E"/>
<path d="M332.244 60.356C334.318 52.8614 339.675 46.4746 346.485 43.2469C352.632 40.4253 359.671 40.0164 366.293 41.2633C371.863 42.2186 377.507 44.3749 381.986 48.1766C393.94 58.7761 389.481 80.9614 377.499 89.8401C369.246 95.817 356.415 95.406 347.545 91.1734C339.681 87.4165 333.314 79.9418 331.625 71.0097C330.882 67.2605 331.236 63.619 332.115 60.1234L332.244 60.356Z" fill="#F9BA03"/>
<path d="M352.336 60.2227C352.382 60.0387 352.253 59.8061 352.078 59.7575C351.949 59.5249 351.949 59.5249 351.82 59.2923C351.645 59.2437 351.516 59.0111 351.341 58.9625C351.165 58.9139 351.165 58.9139 350.99 58.8653C350.815 58.8166 350.593 58.952 350.372 59.0874L350.15 59.2227C349.929 59.3581 349.883 59.5421 349.79 59.91L349.744 60.094C349.697 60.278 349.651 60.462 349.78 60.6946C349.734 60.8785 349.863 61.1111 350.038 61.1598C350.167 61.3924 350.167 61.3924 350.296 61.625C350.471 61.6736 350.6 61.9062 350.775 61.9548C350.95 62.0034 350.95 62.0034 351.125 62.052C351.301 62.1006 351.522 61.9653 351.744 61.8299L351.965 61.6946C352.187 61.5592 352.233 61.3752 352.326 61.0073L352.372 60.8233C352.418 60.6393 352.465 60.4553 352.336 60.2227Z" fill="#1E1B1E"/>
<path d="M370.115 65.5498C368.538 65.1122 367.844 67.8719 369.421 68.3095C370.998 68.747 371.692 65.9873 370.115 65.5498Z" fill="#1E1B1E"/>
<path d="M375.904 70.1083C373.494 72.9824 370.862 75.9919 367.373 77.1891C363.885 78.3864 360.113 77.7334 356.83 76.6256C350.218 74.5942 342.363 70.0527 342.953 61.7526C343.055 60.6001 341.211 60.4819 341.237 61.867C340.889 68.4626 345.57 73.698 350.899 76.3577C356.228 79.0174 363.541 81.2433 369.245 78.6924C372.429 77.214 375.014 74.3885 377.378 71.6984C378.182 70.7404 376.836 69.3829 376.208 70.3896L375.904 70.1083Z" fill="#1E1B1E"/>
<path d="M169.678 195.227L160.073 164.208L180.008 186.092L201.575 161.734L192.876 186.092L222.417 195.227L195.957 202.838L206.469 228.909L187.258 209.499L168.047 227.196L171.309 208.738L146.48 201.126L169.678 195.227Z" fill="#1A69B2"/>
<path d="M238.282 150.319L246.8 133.763L250.062 150.89L266.735 154.505L251.874 161.356L255.68 177.341L241.181 165.162L225.233 172.393L235.201 157.55L225.233 146.513L238.282 150.319Z" fill="#EC6F30"/>
<path d="M83.689 355.077L89.1261 344.42L91.1196 355.457L101.994 357.741L92.3883 362.308L94.7443 372.394L85.5014 364.782L75.1711 369.159L81.6955 359.644L75.3523 352.793L83.689 355.077Z" fill="#D6E5F5"/>
<path d="M353.909 442.803L351.734 415.591L365.327 434.811L394.324 423.583L380.732 441.852L397.224 465.258L372.939 459.93L357.715 484.288L357.534 464.307L330.53 461.262L351.372 454.411L334.336 436.904L353.909 442.803Z" fill="#F9BA03"/>
<path d="M386.169 148.225C387.981 147.655 389.975 146.893 391.606 145.942C399.036 142.326 405.561 136.047 413.535 134.334C417.16 133.573 421.147 133.763 424.771 134.524C429.846 135.476 434.921 137.188 438.364 140.994C443.62 147.274 442.714 157.36 438.726 164.591C433.289 175.057 420.422 173.154 410.635 174.677C403.567 175.818 397.405 179.624 390.881 182.479C384.719 185.333 378.919 189.139 371.67 188.378C363.877 187.617 355.903 179.624 356.99 170.871C358.077 162.307 364.602 155.837 371.851 152.602C376.382 150.699 381.094 149.558 385.806 147.845L386.169 148.225Z" fill="#F9BA03"/>
<path d="M70.0758 63.8922C79.8624 63.3214 90.1927 65.7952 99.0732 61.4184C103.423 59.3252 107.048 55.7095 111.76 55.1386C120.096 54.1872 126.983 64.4631 125.171 73.0264C123.359 81.5897 115.566 87.6792 107.41 89.9628C99.2544 92.2463 90.7364 91.4851 82.2185 91.1045C68.6259 90.5336 61.9202 94.5299 50.14 99.6678C43.6156 102.522 35.6413 106.899 32.3791 97.7649C26.0359 79.6868 59.2017 64.6534 70.257 63.8922H70.0758Z" stroke="#2E55A3" stroke-width="4.13573" stroke-miterlimit="10" stroke-linecap="round" stroke-linejoin="round"/>
<path d="M232.12 448.512C229.945 443.564 224.327 440.52 219.433 442.613C215.99 444.135 213.996 447.37 213.453 450.986C211.097 450.796 208.741 451.367 206.747 453.079C204.028 455.363 202.76 458.598 202.397 462.023C194.967 460.691 188.08 468.303 191.523 476.676C192.792 479.911 197.504 477.818 196.235 474.583C194.423 469.825 198.773 465.068 203.304 467.922C205.297 469.254 207.472 467.922 207.472 465.448C207.291 461.642 209.828 453.269 214.721 457.266C216.896 458.978 219.433 456.504 218.708 454.031C216.896 447.941 225.052 445.087 227.589 450.796C228.858 454.031 233.57 451.747 232.301 448.702L232.12 448.512Z" fill="#F9BA03"/>
<path d="M100.363 504.649C99.4564 500.843 99.8189 496.657 101.269 493.041C102.175 490.758 103.806 488.474 105.981 487.332C108.156 486.191 110.874 486 112.868 487.523C114.861 489.045 115.586 491.709 116.311 494.183C116.492 495.135 116.855 496.467 116.311 497.228C115.405 498.56 113.411 498.179 112.324 497.037C111.418 495.705 111.418 493.993 111.418 492.47C111.78 488.474 112.687 484.288 115.224 481.243C117.761 478.198 121.929 476.295 125.554 477.627C129.179 478.959 131.716 483.717 129.904 487.332C129.36 488.664 128.091 489.616 126.823 489.426C125.192 489.045 124.467 486.952 124.467 485.049C124.285 479.721 126.46 474.583 130.085 470.967C133.166 467.922 137.516 466.21 141.503 467.542C145.49 468.874 148.208 474.012 146.396 477.818C145.852 478.769 145.127 479.721 144.04 479.911C141.684 480.291 140.053 477.437 139.872 474.963C139.509 468.493 144.946 462.213 151.108 461.833" stroke="#2E55A3" stroke-width="4.13573" stroke-miterlimit="10" stroke-linecap="round" stroke-linejoin="round"/>
<path d="M427.49 131.86C427.49 129.767 428.396 127.293 430.39 126.532C431.477 125.961 432.383 126.532 432.927 127.674C433.652 129.006 433.471 130.718 433.108 132.05C432.564 134.334 431.658 136.617 430.39 138.52C428.577 136.998 427.309 134.714 427.49 132.05V131.86ZM408.46 136.047C408.642 133.573 409.367 130.528 411.541 129.196C413.354 128.244 415.347 128.625 415.891 130.909C416.978 135.856 412.266 140.804 409.004 143.849C409.004 143.849 409.004 143.849 408.823 143.849C407.917 141.375 408.098 138.14 408.279 135.856L408.46 136.047ZM449.238 133.763C445.976 137.759 441.264 140.994 436.189 140.614C435.283 140.614 434.377 140.423 433.652 140.043C434.921 137.949 435.827 135.666 436.552 133.192C437.277 129.767 437.277 125.771 434.377 123.487C431.477 121.394 428.215 123.106 426.221 125.771C424.228 128.625 423.865 132.431 424.953 135.666C425.678 137.949 426.946 139.662 428.577 140.994C427.852 141.946 426.946 142.707 426.04 143.468C422.597 146.322 417.341 148.606 412.81 147.464C412.085 147.274 411.541 147.084 410.998 146.703C415.347 142.897 420.059 137.379 419.516 131.099C419.153 128.054 417.16 125.2 414.079 125.009C410.998 124.819 408.098 126.912 406.648 129.767C405.198 132.811 404.836 136.808 405.017 140.233C405.198 142.136 405.379 144.229 406.286 146.132C402.48 148.796 397.768 150.509 393.78 147.845C388.162 144.039 391.243 135.666 393.237 130.528C393.599 129.576 392.874 128.625 391.968 128.435C391.062 128.054 390.156 128.815 389.975 129.767C387.437 136.237 385.081 144.99 391.062 150.319C396.318 154.696 403.023 152.793 408.098 149.367C412.629 153.934 420.784 151.46 425.315 148.606C427.49 147.274 429.665 145.371 431.296 143.468C438.726 146.703 446.52 142.707 451.413 136.808C452.863 135.095 450.507 132.621 449.057 134.334L449.238 133.763Z" fill="#EC6F30"/>
<defs>
<linearGradient id="paint0_linear_286_1242" x1="233.775" y1="0" x2="168.299" y2="226.101" gradientUnits="userSpaceOnUse">
<stop stop-color="#00A2E9"/>
<stop offset="1" stop-color="#89CAFF"/>
</linearGradient>
</defs>
</svg>
