<svg width="684" height="577" viewBox="0 0 684 577" fill="none" xmlns="http://www.w3.org/2000/svg">
<path d="M659.913 152.408C653.611 124.338 639.764 97.718 617.406 75.6084C589.343 47.8607 548.307 31.0671 505.984 30.2214C452.665 29.1743 422.532 57.9288 382.923 85.153C376.114 89.8246 369.03 94.617 360.657 96.5903C337.931 101.947 316.953 85.3543 294.963 77.9845C266.763 68.5607 234.054 74.8432 208.613 89.0594C183.173 103.276 163.989 124.58 147.244 146.568C100.78 207.702 56.8459 287.925 59.8822 362.912C62.6884 430.972 99.9057 480.588 180.459 488.924C212.432 492.227 244.773 489.77 276.975 489.045C301.588 488.481 326.246 488.924 350.72 486.83C423.682 480.548 493.241 451.108 546.605 407.05C599.97 363.033 637.279 304.92 656.003 242.86C664.882 213.461 666.584 182.089 659.867 152.327L659.913 152.408Z" fill="#CAF5FF"/>
<path d="M326.738 150.653C338.896 127.318 378.595 55.4685 422.773 68.3205C458.584 78.7399 449.782 139.172 441.169 161.225C431.353 186.376 387.471 238.605 351.661 209.378C337.889 198.115 331.816 180.102 323.893 165.951C323.068 164.459 322.106 162.967 321.282 161.475C323.131 157.855 324.842 154.233 326.738 150.612L326.738 150.653ZM111.187 122.648C125.377 114.339 141.402 108.088 158.295 104.416C185.269 98.5075 210.869 126.224 226.012 141.436C233.675 149.103 240.003 157.21 245.733 165.558C234.675 190.304 224.675 215.455 213.939 240.041C194.412 284.786 174.885 329.531 155.405 374.276C175.948 382.411 196.121 391.431 217.266 398.197C240.867 343.15 263.044 287.255 287.612 232.25C338.925 297.792 439.087 274.99 484.781 215.758C524.198 164.688 536.257 71.4803 473.248 28.3069C395.912 -24.7208 311.857 49.8218 277.446 104.284C253.447 80.3157 223.097 57.221 187.005 48.8146C129.579 35.4939 104.516 86.4706 104.46 126.783C106.626 125.338 108.883 123.933 111.141 122.608L111.187 122.648Z" fill="url(#paint0_linear_286_775)"/>
<path d="M554.656 328.842C534.276 323.928 512.332 324.25 491.262 326.022C433.895 330.855 377.31 345.112 324.406 368.027C327.81 360.496 323.21 351.233 316.217 346.884C309.27 342.534 300.714 341.89 292.525 341.568C227.015 339.232 160.769 352.481 101.976 381.679C74.4195 395.372 46.4031 415.347 39.0424 445.511C33.8899 466.533 40.1005 489.287 52.4296 507.007C64.7127 524.727 82.5163 537.896 101.47 547.964C120.148 557.911 140.205 565.2 160.907 569.51C195.778 576.799 240.678 576.678 275.641 570.315C278.678 573.174 283.416 573.899 287.786 574.423C352.744 581.672 409.881 564.757 461.314 531.935C468.628 527.264 476.219 521.706 478.749 513.37C481.28 505.033 475.345 493.918 466.788 494.885C499.865 487.354 531.332 475.997 562.385 461.942C583.961 452.196 606.595 439.228 615.197 416.998C626.376 388.123 607.837 354.173 581.016 339.071C572.69 334.359 563.811 331.097 554.656 328.882V328.842Z" fill="#98D4FF"/>
<path d="M633.689 1.85286C635.529 2.81939 637.047 4.18866 637.967 5.8801C638.795 7.37018 639.209 9.10189 640.635 10.1892C642.475 11.5585 645.19 11.2363 647.49 10.7531C655.311 9.06162 665.57 1.12795 673.252 1.40986C680.245 1.69177 684.569 9.02135 683.235 15.0219C681.901 21.0225 676.749 25.7747 671.688 29.963C648.87 48.8105 620.67 67.0136 593.849 81.1895C579.91 88.5594 548.443 106.642 531.376 96.775C524.383 92.7075 522.405 84.0891 524.613 77.0415C526.867 69.9535 532.434 64.0738 538.046 58.637C558.702 38.6619 582.256 20.9823 607.972 6.20228C612.711 3.46375 617.771 0.7655 623.43 0.121141C626.926 -0.281583 630.698 0.322504 633.689 1.89313V1.85286Z" fill="#13B3B4"/>
<path d="M274.445 520.659L318.747 549.736C319.989 550.541 321.645 550.783 323.118 550.299L405.281 523.599C408.869 522.431 409.329 518.162 406.063 516.39L359.047 491.3C357.897 490.696 356.516 490.535 355.228 490.898L275.779 513.611C272.237 514.618 271.455 518.686 274.445 520.659Z" fill="#1E1B1E"/>
<path d="M274.859 518.323L319.161 547.4C320.403 548.205 322.059 548.447 323.532 547.964L405.695 521.263C409.283 520.095 409.743 515.826 406.477 514.054L359.461 488.965C358.311 488.36 356.93 488.199 355.642 488.562L276.193 511.275C272.651 512.282 271.869 516.35 274.859 518.323Z" fill="#6C9CD2"/>
<path d="M283.278 516.873L321.599 541.923C322.243 542.366 323.118 542.446 323.9 542.205L396.402 518.645C398.288 518.041 398.564 515.786 396.816 514.86L355.964 493.354C355.366 493.032 354.63 492.952 353.94 493.153L283.968 513.168C282.128 513.692 281.714 515.826 283.278 516.873Z" fill="#1A69B2"/>
<path d="M140.849 545.95L171.534 567.294C171.902 567.536 172.362 567.617 172.776 567.496L243.254 546.071C244.129 545.789 244.635 542.849 243.853 542.366L212.754 525.411C212.432 525.21 212.018 525.169 211.604 525.25L140.987 542.084C139.975 542.366 140.021 545.386 140.849 545.95Z" fill="#1E1B1E"/>
<path d="M141.079 543.614L171.764 564.959C172.132 565.2 172.592 565.281 173.006 565.16L243.162 543.856C244.174 543.534 244.359 542.366 243.484 541.842L212.984 523.116C212.662 522.914 212.248 522.874 211.834 522.954L141.493 541.641C140.481 541.923 140.251 543.05 141.079 543.614Z" fill="#6C9CD2"/>
<path d="M223.933 533.747C223.979 534.714 222.737 535.358 221.218 535.197C219.7 534.996 218.458 534.029 218.412 533.063C218.366 532.096 219.608 531.452 221.126 531.613C222.645 531.814 223.887 532.781 223.933 533.747Z" fill="#1E1B1E"/>
<path d="M30.5776 446.719L115.961 435.563L194.398 503.221C196.192 504.751 195.41 507.409 193.018 508.054L110.625 528.995L30.5776 446.719Z" fill="#6C9CD2"/>
<path d="M126.404 442.45C125.392 443.819 124.518 445.309 123.828 446.84C123.138 448.37 122.218 450.222 120.332 450.384C118.583 450.545 117.111 448.974 116.881 447.444C116.145 442.812 120.056 437.98 121.298 433.63C121.574 432.744 121.482 431.455 120.424 431.294C119.964 431.214 119.549 431.415 119.135 431.617C112.511 434.919 106.392 439.067 101.148 443.9C98.4336 446.397 95.8574 449.095 92.4991 450.867C91.257 451.511 89.5548 451.994 88.4967 451.108C87.5306 450.343 87.7607 448.974 88.2207 447.887C89.1868 445.591 91.119 444.02 92.3611 441.926C94.2472 438.705 96.3634 435.604 98.3876 432.503C96.8695 434.073 94.2932 435.201 92.4531 436.53C90.2449 438.1 88.1287 439.832 86.3805 441.765C85.4145 442.853 84.5404 443.98 83.2983 444.866C82.1022 445.752 80.492 446.316 78.9739 445.954C78.5599 445.873 78.1458 445.672 77.8698 445.39C77.2257 444.705 77.5018 443.658 77.8698 442.812C79.4339 439.228 81.4121 435.805 83.7583 432.583C80.9981 434.637 78.0538 436.771 74.5115 437.496C74.0515 437.577 73.5454 437.657 73.1314 437.496C72.4873 437.255 72.1653 436.651 72.1653 436.047C72.1653 435.442 72.4413 434.879 72.7173 434.355C75.2936 429.442 78.8819 424.891 83.2523 421.025C87.7147 417.078 91.579 413.212 97.2835 410.393C105.334 406.366 114.535 404.312 123.69 402.983C130.36 402.016 137.215 401.412 143.794 402.741C149.728 403.949 156.491 407.171 159.113 412.286C160.309 414.622 160.079 418.85 158.423 420.904C156.537 423.2 154.329 425.294 151.798 427.106C150.694 427.912 149.498 428.636 148.21 429.16C146.738 429.764 145.174 430.086 143.61 430.529C136.525 432.543 130.314 436.812 126.358 442.329L126.404 442.45Z" fill="#F29F85"/>
<path d="M95.3514 435.805C101.47 429.241 109.337 423.884 118.077 420.3" stroke="#1E1B1E" stroke-width="1.36183" stroke-miterlimit="10" stroke-linecap="round" stroke-linejoin="round"/>
<path d="M81.8721 434.959C86.2425 427.549 94.9373 420.3 104.138 418.045" stroke="#1E1B1E" stroke-width="1.36183" stroke-miterlimit="10" stroke-linecap="round" stroke-linejoin="round"/>
<path d="M79.6179 425.213C83.7123 419.817 89.7848 415.588 96.7314 413.293" stroke="#1E1B1E" stroke-width="1.36183" stroke-miterlimit="10" stroke-linecap="round" stroke-linejoin="round"/>
<path d="M119.826 431.536C121.62 430.892 123.368 430.247 125.162 429.603" stroke="#1E1B1E" stroke-width="1.36183" stroke-miterlimit="10" stroke-linecap="round" stroke-linejoin="round"/>
<path d="M114.397 479.299C113.431 480.225 112.465 481.192 111.545 482.158C110.257 483.487 108.969 485.34 109.935 486.83C110.533 487.756 111.913 488.159 113.109 488.078C114.351 487.998 115.455 487.515 116.559 486.991C124.196 483.407 130.821 478.333 138.089 474.265C136.571 476.641 135.053 479.017 133.581 481.353C132.431 483.125 131.281 484.977 131.051 487.031C130.821 489.085 131.787 491.341 133.903 492.227C136.019 493.112 139.101 491.784 139.009 489.73C139.055 491.864 139.331 494.24 141.079 495.73C142.828 497.22 146.508 496.858 146.968 494.764C145.634 498.428 150.096 502.214 154.467 502.093C158.837 501.972 162.517 499.073 164.772 495.77C165.646 494.522 165.554 492.146 163.897 492.388C169.188 488.119 174.432 483.608 177.745 478.01C185.979 463.955 174.57 448.048 156.583 454.008C140.113 459.445 126.128 467.983 114.397 479.299Z" fill="#F29F85"/>
<path d="M138.135 491.542C139.607 489.73 141.079 487.917 142.552 486.065" stroke="#1E1B1E" stroke-width="1.36183" stroke-miterlimit="10" stroke-linecap="round" stroke-linejoin="round"/>
<path d="M146.462 495.771C147.796 494.482 149.13 493.193 150.464 491.864" stroke="#1E1B1E" stroke-width="1.36183" stroke-miterlimit="10" stroke-linecap="round" stroke-linejoin="round"/>
<path d="M153.546 498.026C158.009 495.408 162.195 492.428 166.106 489.166" stroke="#1E1B1E" stroke-width="1.36183" stroke-miterlimit="10" stroke-linecap="round" stroke-linejoin="round"/>
<path d="M133.673 477.124C135.145 475.956 136.617 474.789 138.089 473.621" stroke="#1E1B1E" stroke-width="1.36183" stroke-miterlimit="10" stroke-linecap="round" stroke-linejoin="round"/>
<path d="M540.073 271.171C545.455 281.682 557.508 289.294 570.573 290.502C573.472 290.784 576.508 290.744 579.222 289.817C588.285 286.837 590.171 276.729 594.358 269.077C595.324 267.345 596.474 265.614 598.222 264.406C600.108 263.077 602.546 262.513 604.893 261.949C612.575 260.096 620.212 258.284 627.895 256.432C630.241 255.868 632.771 255.223 634.381 253.613C636.773 251.196 636.313 247.33 634.151 244.753C632.035 242.175 628.631 240.605 625.272 239.356C603.834 231.342 579.636 232.228 556.358 233.194C553.276 233.315 550.01 233.517 547.479 235.047C545.317 236.336 543.983 238.47 542.787 240.524C539.429 246.484 536.898 252.767 535.242 259.251C533.816 264.849 537.359 265.976 540.027 271.171H540.073Z" fill="#1E1B1E"/>
<path d="M452.895 287.119C464.672 292.234 479.531 291.428 490.48 285.106C492.919 283.696 495.219 282.005 496.691 279.79C501.521 272.46 495.633 263.56 493.333 255.344C492.781 253.451 492.459 251.478 492.919 249.585C493.425 247.491 494.851 245.719 496.277 243.987C500.877 238.309 505.432 232.631 510.032 226.952C511.458 225.22 512.93 223.328 512.976 221.193C513.068 218.012 509.894 215.273 506.352 214.468C502.809 213.662 499.083 214.347 495.587 215.233C473.229 220.952 455.149 235.087 437.898 248.78C435.598 250.592 433.251 252.565 432.377 255.143C431.641 257.358 432.147 259.734 432.745 261.949C434.493 268.392 437.07 274.675 440.52 280.595C443.464 285.71 447.053 284.622 452.895 287.159V287.119Z" fill="#1E1B1E"/>
<path d="M289.121 315.632C299.149 319.74 309.362 322.237 319.437 325.982C321.553 326.747 323.67 327.553 325.464 328.761C342.807 340.44 315.113 354.978 304.67 360.133C287.142 368.792 267.959 375.316 247.947 377.047C242.426 377.531 236.492 377.571 231.661 375.195C223.335 371.087 221.219 361.462 221.219 353.085C221.219 347.769 221.725 342.373 220.758 337.097C219.654 331.258 216.572 329.486 213.122 325.015C211.006 322.237 209.027 319.297 207.693 316.156C206.727 313.9 206.865 311.685 206.175 309.43C204.151 303.107 200.195 297.429 204.105 290.864C206.589 286.636 211.512 284.058 216.342 281.924C222.323 279.266 228.579 276.97 235.158 276.125C241.782 275.279 248.821 276.004 254.479 279.145C264.738 284.824 268.511 296.744 274.491 305.443C275.779 307.336 277.113 309.269 279 310.759C280.794 312.169 283.002 313.095 285.164 314.021C286.498 314.585 287.832 315.108 289.121 315.672V315.632Z" fill="#1E1B1E"/>
<path d="M455.839 342.937C456.299 344.548 456.805 346.199 457.265 347.81C433.481 346.078 396.908 347.689 373.308 350.911C365.027 352.038 368.846 352.884 362.957 358.119C358.035 362.509 355.872 368.872 355.918 375.034C355.964 390.257 361.807 405.278 378.322 412.044C396.862 419.615 418.438 416.434 438.634 413.695C468.214 409.668 499.313 406.446 523.879 391.465C531.792 386.632 539.107 380.269 541.637 372.134C544.719 362.348 540.487 352.079 536.3 342.615C530.274 329.003 527.192 314.182 521.165 300.57C515.783 288.448 510.86 271.292 502.165 260.58C498.255 255.747 436.84 276.689 436.932 278.219C438.45 300.167 449.537 321.592 455.839 342.896V342.937Z" fill="#EC6F30"/>
<path d="M498.669 439.308C483.81 441.403 468.95 442.812 453.677 443.537C430.491 444.624 395.988 450.786 382.463 428.435C377.31 419.937 376.896 409.749 379.15 400.325C380.577 394.163 383.153 388.122 387.431 383.088C393.964 375.396 404.039 377.772 414.482 374.913C424.925 372.094 435.919 371.087 446.776 369.798C462.28 367.946 477.645 365.368 492.827 362.147C507.18 359.086 511.918 345.796 514.816 333.191C520.199 309.833 525.581 286.475 531.01 263.117C531.562 260.741 532.39 258.002 534.828 256.915C536.346 256.23 538.187 256.311 539.889 256.472C559.026 258.042 577.198 263.036 595.6 267.587C603.696 269.6 595.784 306.772 594.818 312.652C591.643 331.66 586.353 350.387 580.602 368.912C575.588 385.223 569.975 401.815 558.428 415.346C546.513 429.24 532.206 433.711 513.666 436.932C508.652 437.818 503.637 438.584 498.669 439.308Z" fill="#EC6F30"/>
<path d="M527.514 275.158C528.618 270.648 529.86 266.137 531.332 261.667" stroke="#1E1B1E" stroke-width="1.36183" stroke-miterlimit="10" stroke-linecap="round" stroke-linejoin="round"/>
<path d="M406.707 369.678C415.54 368.671 424.602 369.235 433.113 371.369C434.585 371.732 436.058 372.175 437.576 372.295C439.186 372.416 440.796 372.215 442.36 371.973C460.026 369.597 487.306 365.207 504.374 360.294C509.02 358.965 520.751 311.041 524.201 290.703" stroke="#1E1B1E" stroke-width="1.36183" stroke-miterlimit="10" stroke-linecap="round" stroke-linejoin="round"/>
<path d="M535.38 430.811C547.479 428.153 557.876 420.219 562.569 410.071" stroke="#1E1B1E" stroke-width="1.36183" stroke-miterlimit="10" stroke-linecap="round" stroke-linejoin="round"/>
<path d="M575.726 383.129C577.934 378.336 579.36 373.222 579.82 368.067" stroke="#1E1B1E" stroke-width="1.36183" stroke-miterlimit="10" stroke-linecap="round" stroke-linejoin="round"/>
<path d="M379.381 351.837C383.245 354.455 386.695 358.079 389.548 361.261C397.414 370.121 402.521 380.712 406.431 391.344C411.261 404.634 414.528 418.488 414.252 432.422C414.16 436.973 413.516 443.658 409.053 446.719C405.419 449.216 398.518 449.014 394.01 449.417C379.335 450.706 364.429 450.504 349.846 448.531C311.295 443.336 271.547 431.415 257.93 416.877C252.685 411.279 249.695 404.07 247.211 397.224C245.233 391.747 241.138 385.666 240.448 380.028C238.792 367.181 247.441 353.246 259.816 346.602C275.595 338.104 295.607 339.876 313.963 341.89C328.454 343.501 342.945 345.111 357.483 346.682C363.555 347.367 370.548 347.206 376.068 349.823C377.264 350.387 378.415 351.032 379.519 351.797L379.381 351.837Z" fill="#13B3B4"/>
<path d="M253.283 427.589C252.823 429.12 252.317 430.731 251.075 431.898C250.017 432.946 248.499 433.509 247.027 433.993C240.77 436.047 234.146 436.933 227.567 437.859C213.628 439.832 199.689 442.087 185.887 444.584C175.904 446.397 165.83 448.37 156.859 452.558C156.261 452.84 155.617 453.162 155.341 453.726C155.019 454.33 155.295 455.055 155.525 455.699C160.677 468.546 171.902 479.46 179.907 486.468C190.488 485.421 199.965 487.877 210.592 488.038C232.858 488.36 252.363 487.797 273.617 481.917C286.038 478.494 297.907 473.621 303.566 462.828C314.745 441.483 322.888 418.166 320.403 394.808C319.069 382.202 313.457 368.55 300.484 362.912C297.125 361.462 293.307 360.576 289.581 361.1C286.82 361.462 284.198 362.549 281.668 363.637C268.925 369.033 264.462 375.477 262.53 387.277C260.322 400.889 257.24 414.38 253.237 427.67L253.283 427.589Z" fill="#13B3B4"/>
<path d="M313.963 442.49C319.207 426.22 323.302 409.668 326.154 392.995" stroke="#1E1B1E" stroke-width="1.36183" stroke-miterlimit="10" stroke-linecap="round" stroke-linejoin="round"/>
<path d="M256.688 416.353C257.93 404.916 259.126 393.519 260.368 382.082" stroke="#1E1B1E" stroke-width="1.36183" stroke-miterlimit="10" stroke-linecap="round" stroke-linejoin="round"/>
<path d="M210.868 396.902C209.533 397.989 183.909 398.472 170.936 398.432C156.675 398.352 142.966 397.707 129.302 401.05C134.685 410.796 138.227 427.348 138.457 438.181C150.602 439.349 156.583 438.584 168.682 439.752C189.844 441.806 225.313 440.718 244.727 431.979C264.278 423.159 267.729 411.762 278.494 394.969C282.404 388.888 286.268 382.686 288.2 375.96C290.179 369.194 290.087 361.744 286.36 355.582C282.634 349.421 274.721 344.991 266.855 345.917C261.564 346.561 257.01 349.38 252.961 352.401C246.751 357.072 241.276 362.469 236.676 368.429C231.753 374.833 227.889 381.84 222.231 387.72C218.504 391.586 212.202 395.694 210.776 396.902H210.868Z" fill="#13B3B4"/>
<path d="M254.065 426.14C247.625 412.608 243.07 394.324 244.819 379.746" stroke="#1E1B1E" stroke-width="1.36183" stroke-miterlimit="10" stroke-linecap="round" stroke-linejoin="round"/>
<path d="M185.703 444.544C206.221 440.919 228.533 439.429 249.143 433.429C261.15 418.407 259.448 400.365 266.303 383.813C268.005 382.323 268.005 379.303 269.293 377.41" stroke="#1E1B1E" stroke-width="1.36183" stroke-miterlimit="10" stroke-linecap="round" stroke-linejoin="round"/>
<path d="M154.513 453.323C161.505 451.149 168.498 448.934 175.536 446.92" stroke="#1E1B1E" stroke-width="1.36183" stroke-miterlimit="10" stroke-linecap="round" stroke-linejoin="round"/>
<path d="M274.123 359.529C272.421 362.227 270.305 364.644 267.637 366.657C264.646 368.913 260.92 370.564 256.964 370.765C253.007 370.966 248.867 369.597 246.567 366.778C244.267 363.999 244.129 359.771 246.751 357.193C247.073 356.871 247.487 356.509 247.487 356.106C247.533 355.703 247.211 355.3 246.935 354.978C240.862 347.85 237.366 339.715 238.148 330.694C238.838 322.881 244.451 316.438 253.191 314.021C256.964 312.974 261.426 312.974 264.508 315.149C267.039 316.921 268.189 319.82 269.293 322.519C271.041 326.707 273.111 330.775 275.273 334.802C275.641 335.527 280.472 341.688 280.702 340.762C279.644 345.474 278.54 350.266 276.607 354.777C275.871 356.428 275.043 358.039 274.077 359.61L274.123 359.529Z" fill="#F29F85"/>
<path d="M260.552 304.477C258.804 302.02 256.872 299.724 254.847 297.711C247.579 290.583 234.33 287.804 223.933 288.891C218.78 289.455 213.628 290.864 209.441 293.482C202.725 297.63 198.953 304.477 198.216 311.202C197.526 317.928 199.597 324.572 202.817 330.654C206.957 338.547 213.26 345.877 222.185 350.347C231.109 354.817 239.712 356.589 247.165 351.515C255.354 345.957 263.588 338.789 266.302 332.144C267.591 329.002 270.995 330.412 270.397 327.11C269.017 319.659 265.52 311.363 260.598 304.477H260.552Z" fill="#F29F85"/>
<path d="M235.71 355.905C241.368 355.824 246.291 352.079 249.143 349.501C252.041 346.924 254.203 343.783 256.09 340.561" stroke="#1E1B1E" stroke-width="1.36183" stroke-miterlimit="10" stroke-linecap="round" stroke-linejoin="round"/>
<path d="M215.928 319.176C217.354 321.069 217.906 323.485 217.4 325.74C217.124 326.949 216.572 328.116 216.25 329.325C215.928 330.533 215.836 331.862 216.48 332.949C217.262 334.238 218.826 334.963 220.39 335.567" stroke="#1E1B1E" stroke-width="1.36183" stroke-miterlimit="10" stroke-linecap="round" stroke-linejoin="round"/>
<path d="M228.211 329.687C228.533 330.533 228.855 331.419 229.131 332.305C229.913 334.802 230.511 337.581 229.177 339.916C227.751 342.413 224.163 343.783 221.081 342.937" stroke="#1E1B1E" stroke-width="1.36183" stroke-miterlimit="10" stroke-linecap="round" stroke-linejoin="round"/>
<path d="M232.535 318.008C233.548 319.78 233.042 321.794 231.431 322.478C229.821 323.163 227.705 322.277 226.739 320.465C225.727 318.693 226.233 316.679 227.843 315.994C229.453 315.31 231.569 316.196 232.535 318.008Z" fill="#1E1B1E"/>
<path d="M208.337 328.519C209.349 330.291 208.843 332.305 207.233 332.99C205.623 333.674 203.507 332.788 202.541 330.976C201.529 329.204 202.035 327.19 203.645 326.506C205.255 325.821 207.371 326.707 208.337 328.519Z" fill="#1E1B1E"/>
<path d="M225.451 310.437C228.303 309.189 231.615 311.565 232.628 313.82" stroke="#1E1B1E" stroke-width="1.36183" stroke-miterlimit="10" stroke-linecap="round" stroke-linejoin="round"/>
<path d="M199.735 326.224C199.597 324.935 200.287 323.606 201.483 322.841C202.679 322.076 204.335 321.874 205.669 322.357" stroke="#1E1B1E" stroke-width="1.36183" stroke-miterlimit="10" stroke-linecap="round" stroke-linejoin="round"/>
<path d="M235.48 322.116C236.17 321.834 236.86 321.673 237.596 321.633C238.47 321.552 239.344 321.673 240.08 322.035C241.368 322.68 241.552 323.848 241 324.975C240.632 325.781 239.896 326.385 239.022 326.868C237.918 327.472 236.216 327.835 234.928 327.996C234.146 328.076 233.226 328.036 232.628 327.593C232.075 327.19 231.845 326.586 231.891 325.942C231.937 325.338 232.213 324.774 232.582 324.25C233.272 323.324 234.284 322.599 235.434 322.116H235.48Z" fill="#EC6F30"/>
<path d="M212.524 334.318C211.788 333.956 210.868 333.835 210.04 333.916C209.303 333.956 208.567 334.157 207.923 334.399C207.049 334.761 206.267 335.285 205.623 335.889C206.727 337.218 207.877 338.587 208.981 339.957C209.902 339.755 210.868 339.473 211.558 339.111C212.386 338.668 213.122 338.023 213.536 337.218C214.088 336.09 213.904 334.963 212.616 334.278L212.524 334.318Z" fill="#EC6F30"/>
<path d="M199.137 316.035C205.117 314.142 209.073 309.309 212.708 304.718C212.478 305.685 213.95 306.249 215.054 306.369C219.93 306.732 224.485 305.282 228.395 302.785C231.017 301.094 230.373 300.852 232.536 302.382C234.1 303.47 236.216 306.651 238.378 304.718C238.93 304.235 239.252 303.631 239.574 302.986C239.206 304.597 240.31 306.369 242.058 306.973C243.761 307.578 245.739 307.135 247.211 306.168C248.637 305.201 249.649 303.792 250.385 302.342C250.615 305.886 252.777 309.269 256.136 311.283C256.826 311.685 257.7 312.048 258.39 311.645C258.712 311.484 258.942 311.162 259.08 310.84C260.092 308.705 259.172 306.249 258.758 303.953C258.252 301.214 258.574 298.516 259.494 295.899C260.23 293.684 259.586 291.428 257.746 289.697C256.78 288.77 255.17 288.77 253.743 288.811C250.247 288.931 246.705 289.133 243.209 289.294C239.942 289.455 237.596 288.69 234.376 288.206C227.843 287.24 220.989 287.683 214.778 289.858C208.245 292.153 202.587 296.583 199.459 302.141C198.125 304.517 191.638 318.411 199.229 315.994L199.137 316.035Z" fill="#1E1B1E"/>
<path d="M243.485 287.079L241.92 296.422C241.92 296.422 248.591 301.859 258.16 300.53C267.729 299.161 270.397 295.093 270.397 295.093L263.956 287.884C263.956 287.884 259.724 291.791 255.262 291.187C250.799 290.583 243.485 287.079 243.485 287.079Z" fill="#13B3B4"/>
<path d="M186.715 322.559C189.522 323.848 192.696 324.613 195.594 323.727C205.163 320.747 205.577 305.524 219.056 309.793C220.528 310.236 221.863 311.001 223.289 311.484C228.487 313.256 234.652 311.806 238.838 308.584C243.024 305.363 245.417 300.651 246.475 295.858C247.533 291.066 247.993 284.783 247.855 279.91C247.855 279.91 242.702 273.064 238.976 273.467C232.398 274.192 222.875 283.777 216.388 285.106C212.248 285.951 208.153 286.837 204.151 288.045C198.309 289.817 192.19 291.912 187.222 295.214C180.919 299.402 179.861 303.792 178.711 310.517C178.435 312.169 178.205 313.86 178.665 315.511C179.217 317.485 180.827 319.176 182.713 320.384C183.909 321.149 185.243 321.915 186.715 322.599V322.559Z" fill="#1A69B2"/>
<path d="M179.033 315.954C181.425 317.686 184.875 318.209 187.82 317.323C197.388 314.343 197.802 299.12 211.282 303.389C212.754 303.832 214.088 304.597 215.514 305.081C220.713 306.893 226.877 305.403 231.063 302.181C235.25 298.959 237.642 294.247 238.7 289.455C239.758 284.662 239.39 277.776 239.252 272.903C228.809 272.54 218.734 276.608 208.613 278.702C204.473 279.548 200.379 280.434 196.33 281.642C190.396 283.454 173.88 288.931 174.156 295.617C174.478 302.906 173.834 309.954 178.987 315.954H179.033Z" fill="#6C9CD2"/>
<path d="M179.033 315.954C181.425 317.686 184.875 318.209 187.819 317.323C197.388 314.343 197.802 299.12 211.282 303.389C212.754 303.832 214.088 304.597 215.514 305.081C220.712 306.893 226.877 305.403 231.063 302.181C235.25 298.959 237.642 294.247 238.7 289.455C239.758 284.663 239.39 277.776 239.252 272.903" stroke="#1E1B1E" stroke-width="1.36183" stroke-miterlimit="10" stroke-linecap="round" stroke-linejoin="round"/>
<path d="M265.152 314.182C266.67 316.075 269.201 317.404 271.823 317.646" stroke="#1E1B1E" stroke-width="1.36183" stroke-miterlimit="10" stroke-linecap="round" stroke-linejoin="round"/>
<path d="M255.17 305.846C254.111 299.805 260 290.462 267.867 290.381C272.053 290.341 275.319 293.522 277.298 296.785C279.138 299.805 280.38 303.148 280.196 306.53C279.92 312.451 273.801 318.733 266.487 317.001C261.288 315.753 257.7 313.095 255.906 308.464C255.538 307.578 255.308 306.732 255.17 305.846Z" fill="#F29F85"/>
<path d="M267.637 296.865C263.956 297.107 260.92 300.49 261.518 303.711" stroke="#1E1B1E" stroke-width="1.36183" stroke-miterlimit="10" stroke-linecap="round" stroke-linejoin="round"/>
<path d="M254.433 370.685C251.351 370.322 248.407 368.993 246.567 366.778" stroke="#1E1B1E" stroke-width="1.36183" stroke-miterlimit="10" stroke-linecap="round" stroke-linejoin="round"/>
<path d="M259.908 370.362C268.281 368.389 273.755 361.462 276.653 354.696C279.322 348.454 280.794 342.896 282.22 336.332" stroke="#1E1B1E" stroke-width="1.36183" stroke-miterlimit="10" stroke-linecap="round" stroke-linejoin="round"/>
<path d="M455.333 347.326C461.406 349.058 467.202 351.474 472.539 354.535" stroke="#1E1B1E" stroke-width="1.36183" stroke-miterlimit="10" stroke-linecap="round" stroke-linejoin="round"/>
<path d="M22.3429 367.342L105.426 443.819C105.84 444.182 106.07 444.705 106.116 445.229L110.671 529.036L20.5487 446.477L19.8587 368.228C19.8587 367.06 21.4688 366.496 22.3889 367.342H22.3429Z" fill="#1A69B2"/>
<path d="M194.398 503.261C196.192 504.792 195.41 507.45 193.018 508.094L110.625 529.036L106.07 445.229" stroke="#1E1B1E" stroke-width="1.36183" stroke-miterlimit="10" stroke-linecap="round" stroke-linejoin="round"/>
<path d="M270.995 483.206C285.808 479.219 300.07 471.808 305.958 458.639" stroke="#1E1B1E" stroke-width="1.36183" stroke-miterlimit="10" stroke-linecap="round" stroke-linejoin="round"/>
<path d="M181.057 486.951C206.037 486.347 231.201 489.448 256.09 486.146" stroke="#1E1B1E" stroke-width="1.36183" stroke-miterlimit="10" stroke-linecap="round" stroke-linejoin="round"/>
<path d="M408.961 446.719C418.484 437.376 419.174 387.156 375.102 348.212" stroke="#1E1B1E" stroke-width="1.36183" stroke-miterlimit="10" stroke-linecap="round" stroke-linejoin="round"/>
<path d="M333.33 446.396C357.299 449.981 372.25 452.357 398.702 449.256" stroke="#1E1B1E" stroke-width="1.36183" stroke-miterlimit="10" stroke-linecap="round" stroke-linejoin="round"/>
<path d="M418.07 444.665C438.956 444.745 485.696 442.772 505.892 438.141" stroke="#1E1B1E" stroke-width="1.36183" stroke-miterlimit="10" stroke-linecap="round" stroke-linejoin="round"/>
<path d="M284.934 357.958C289.074 362.63 294.917 366.939 301.174 367.906C307.108 368.832 313.273 366.657 317.827 363.194C322.381 359.73 325.51 355.059 328.086 350.307C329.834 347.045 331.398 343.662 331.766 340.077C332.134 336.493 331.168 332.667 328.408 330.009C325.142 326.868 319.989 325.861 315.251 325.016C309.132 323.928 302.876 323.083 296.803 321.995C290.317 320.827 283.738 315.592 276.929 318.048C274.307 318.975 270.397 319.579 270.351 322.156C270.351 323.244 271.547 325.016 271.823 326.143C272.283 328.036 272.513 330.009 272.927 331.902C274.675 339.473 277.389 346.964 281.668 353.73C282.542 355.139 283.646 356.589 284.888 358.039L284.934 357.958Z" fill="#1E1B1E"/>
<path d="M249.051 293.402C249.051 294.972 247.855 296.221 246.383 296.221C244.911 296.221 243.715 294.972 243.715 293.402C243.715 291.831 244.911 290.583 246.383 290.583C247.855 290.583 249.051 291.831 249.051 293.402Z" fill="#1E1B1E"/>
<path d="M249.373 433.026C251.259 434.476 253.191 435.926 255.078 437.375" stroke="#1E1B1E" stroke-width="1.36183" stroke-miterlimit="10" stroke-linecap="round" stroke-linejoin="round"/>
<path d="M210.592 396.62C212.662 397.828 214.778 398.996 216.848 400.204" stroke="#1E1B1E" stroke-width="1.36183" stroke-miterlimit="10" stroke-linecap="round" stroke-linejoin="round"/>
<path d="M505.34 359.891C509.526 362.026 515.553 364.563 518.681 367.302" stroke="#1E1B1E" stroke-width="1.36183" stroke-miterlimit="10" stroke-linecap="round" stroke-linejoin="round"/>
<path d="M210.73 39.7257L209.258 100.98C209.212 103.759 211.696 106.014 214.824 106.095L329.282 108.269C332.456 108.31 335.079 106.135 335.125 103.356L336.229 41.1755C336.275 38.3967 333.745 36.1414 330.57 36.1012L216.48 34.8527C213.352 34.8125 210.776 36.9872 210.684 39.7257H210.73Z" fill="#F9BA03"/>
<path d="M296.205 63.8891C295.193 58.4523 296.297 54.0224 297.631 48.7064C298.321 46.129 298.873 43.1085 296.987 41.0546C296.803 40.8533 296.619 40.6922 296.435 40.5311C294.871 39.2826 292.479 38.9605 290.409 39.4035C288.062 39.927 286.084 41.2963 284.474 42.9072C279.506 47.7399 277.435 54.3848 276.561 60.8687C269.661 58.7342 261.61 57.5663 255.031 59.6202C252.639 60.3451 250.799 61.9157 249.971 63.8488C247.211 67.5539 250.523 72.9504 256.136 73.9169C256.182 73.9572 256.228 73.9572 256.274 73.9975C251.719 73.635 246.567 75.0043 244.589 78.3469C242.518 81.8103 246.107 86.9249 250.799 86.2C246.705 86.8847 241.736 89.9051 242.794 93.5296C243.576 96.107 246.475 97.7985 249.373 98.765C255.629 100.779 262.898 100.215 269.477 99.9329C284.106 99.2886 298.459 90.9924 299.011 78.2261C299.195 73.3128 297.171 68.6815 296.251 63.8891H296.205Z" fill="#1A69B2"/>
<path d="M252.133 73.8363C255.768 74.0377 259.448 74.1988 263.082 74.4001" stroke="#1E1B1E" stroke-width="1.36183" stroke-miterlimit="10" stroke-linecap="round" stroke-linejoin="round"/>
<path d="M246.935 87.7707C250.569 87.2875 254.249 87.1667 257.884 87.4083" stroke="#1E1B1E" stroke-width="1.36183" stroke-miterlimit="10" stroke-linecap="round" stroke-linejoin="round"/>
<path d="M275.825 60.1035C276.837 61.1908 278.264 62.0365 279.828 62.4393" stroke="#1E1B1E" stroke-width="1.36183" stroke-miterlimit="10" stroke-linecap="round" stroke-linejoin="round"/>
<path d="M296.665 53.0558C295.515 58.7745 297.079 64.614 298.229 70.3729C299.379 76.0916 298.505 81.6492 295.837 87.0054" stroke="#1E1B1E" stroke-width="1.36183" stroke-miterlimit="10" stroke-linecap="round" stroke-linejoin="round"/>
<path d="M291.145 91.8381C285.716 95.4626 279.368 98.04 272.697 99.3287" stroke="#1E1B1E" stroke-width="1.36183" stroke-miterlimit="10" stroke-linecap="round" stroke-linejoin="round"/>
<path d="M39.3644 97.1944L149.038 98.8456C152.856 98.8858 155.847 101.705 155.709 105.048L152.718 165.053C152.58 168.275 149.498 170.772 145.864 170.732L37.1562 169.483C33.3839 169.443 30.3476 166.705 30.4856 163.362L32.4638 102.953C32.5558 99.6913 35.6381 97.1139 39.3644 97.1944Z" fill="#13B3B4"/>
<path d="M66.0928 122.445C66.3228 120.955 66.6908 119.465 67.3349 118.015C68.2549 115.881 69.6811 113.867 71.8433 112.659C76.0756 110.243 82.1022 111.612 85.5525 114.834C89.0028 118.056 90.1989 122.687 90.2909 127.117C93.2352 122.768 96.0414 116.847 101.102 113.988C105.932 111.29 114.765 112.538 117.709 117.371C124.61 128.607 100.78 147.052 93.0971 153.455C91.901 154.422 90.6589 155.428 89.0948 155.791C82.7462 157.2 71.6132 141.172 69.267 137.064C66.7368 132.554 65.3567 127.399 66.0468 122.486L66.0928 122.445Z" fill="#EC6F30"/>
<path d="M97.4216 117.653C93.7873 121.559 90.797 125.909 88.5888 130.54" stroke="#1E1B1E" stroke-width="1.36183" stroke-miterlimit="10" stroke-linecap="round" stroke-linejoin="round"/>
<path d="M119.78 121.881C114.719 135.534 104.644 147.736 91.441 156.314C90.5669 156.878 89.5088 157.482 88.4047 157.402C87.4847 157.321 86.7026 156.798 85.9665 156.274C76.7657 149.387 69.9571 140.044 66.6908 129.815C65.5867 126.392 64.8966 122.727 65.9087 119.304C66.8748 115.841 69.9111 112.659 73.9134 112.015" stroke="#1E1B1E" stroke-width="1.36183" stroke-miterlimit="10" stroke-linecap="round" stroke-linejoin="round"/>
<path d="M117.617 115.72C114.535 111.894 107.91 110.726 103.356 113.142" stroke="#1E1B1E" stroke-width="1.36183" stroke-miterlimit="10" stroke-linecap="round" stroke-linejoin="round"/>
<path d="M78.7899 110.726C81.1821 110.927 83.5283 111.773 85.4605 113.062" stroke="#1E1B1E" stroke-width="1.36183" stroke-miterlimit="10" stroke-linecap="round" stroke-linejoin="round"/>
<path d="M554.196 181.082L553.644 126.472C553.644 124.821 552.08 123.452 550.194 123.412L460.946 121.922C458.968 121.881 457.357 123.291 457.357 125.023L457.587 181.726C457.587 183.418 459.198 184.787 461.13 184.787L550.7 184.183C552.632 184.183 554.196 182.773 554.196 181.082Z" fill="#1A69B2"/>
<path d="M494.437 173.43L528.342 154.502C529.078 154.099 529.078 153.133 528.342 152.69L494.299 133.44C493.471 132.997 492.412 133.48 492.412 134.326L492.596 172.544C492.596 173.39 493.655 173.913 494.483 173.43H494.437Z" fill="#FEFEFE"/>
<path d="M492.183 164.892C492.183 164.892 492.275 147.374 492.459 135.413C492.413 134.325 493.057 133.721 494.805 133.802C495.311 133.802 498.301 135.413 502.258 137.668" stroke="#1E1B1E" stroke-width="1.24834" stroke-miterlimit="10" stroke-linecap="round" stroke-linejoin="round"/>
<path d="M508.008 140.447C517.209 145.763 527.882 152.207 528.342 152.327" stroke="#1E1B1E" stroke-width="1.24834" stroke-miterlimit="10" stroke-linecap="round" stroke-linejoin="round"/>
<path d="M55.6498 312.773C53.1656 314.867 51.0034 317.404 49.1632 319.941C45.2989 325.217 41.9406 331.016 36.3281 334.882C30.7156 338.748 21.8368 339.997 16.6844 335.647C13.3261 332.788 12.406 328.237 13.2341 324.21C14.0621 320.183 16.3163 316.478 18.5705 312.853C25.6552 301.496 32.7398 290.099 39.8244 278.742C43.0907 273.467 47.1851 261.707 55.0978 260.338C59.1001 259.653 68.531 261.425 63.7005 266.58C78.7899 250.632 94.0172 234.523 112.373 221.435C116.099 218.777 120.148 216.159 124.84 215.313C129.578 214.427 135.145 215.797 137.491 219.461C140.205 223.73 137.721 229.087 134.823 233.275C130.59 239.396 125.438 244.994 119.549 249.948C123.092 248.578 126.818 247.129 130.728 247.37C134.593 247.612 138.595 250.069 138.779 253.451C138.871 255.344 137.813 257.076 136.755 258.727C131.143 267.225 124.472 270.809 116.467 277.132C112.741 280.071 66.8748 318.652 65.0347 307.98C61.4003 308.745 58.3181 310.517 55.6498 312.773Z" fill="#EC6F30"/>
<path d="M352.054 228.603C360.473 223.69 369.214 219.139 376.206 212.736C380.807 208.548 404.913 174.961 413.239 192.801C414.16 194.775 414.022 196.949 413.561 199.043C409.743 217.247 387.109 227.033 375.838 242.658C366.913 255.062 364.429 266.218 349.248 274.272C344.693 276.689 338.897 277.857 333.928 276.165C326.108 273.507 322.979 264.808 324.498 257.6C326.706 246.887 336.229 238.47 346.304 232.107C348.19 230.899 350.168 229.771 352.1 228.603H352.054Z" stroke="#2E55A3" stroke-width="4.08548" stroke-miterlimit="10" stroke-linecap="round" stroke-linejoin="round"/>
<path d="M47.3231 287.723C50.9114 285.106 53.4877 281.602 55.4198 277.897C60.2963 268.634 62.5045 256.995 53.2116 249.424C45.2069 242.9 32.6938 241.41 22.5729 244.994C12.452 248.619 4.90735 256.875 2.1011 266.097C1.27302 268.916 0.812982 271.856 1.31903 274.715C4.21728 290.502 33.9819 297.469 47.3231 287.723Z" fill="#F9BA03"/>
<path d="M16.0403 267.627C14.7982 270.527 16.4544 273.95 19.2146 275.883C21.9749 277.816 25.6552 278.501 29.1975 278.622C35.7301 278.863 41.1126 272.299 40.5145 266.862" stroke="#1E1B1E" stroke-width="1.36183" stroke-miterlimit="10" stroke-linecap="round" stroke-linejoin="round"/>
<path d="M23.033 257.599C23.033 257.237 22.941 256.875 22.757 256.552C22.6189 256.23 22.4349 255.908 22.1129 255.666C21.5148 255.183 20.7328 254.821 19.9047 254.861C19.1226 254.901 18.2025 255.103 17.6965 255.666C17.4665 255.908 17.1905 256.15 17.0524 256.432C16.9144 256.673 16.7764 256.915 16.6844 257.156C16.6844 257.197 16.6384 257.277 16.6384 257.318C16.4544 257.962 16.4544 258.647 16.6384 259.291C16.8224 259.935 17.4205 260.58 18.0645 260.942C18.4326 261.143 18.8006 261.264 19.2146 261.264C19.6287 261.345 20.0427 261.345 20.4567 261.224C21.2388 261.023 21.9749 260.58 22.3429 259.976C22.5729 259.573 22.7109 259.17 22.757 258.727C22.757 258.727 22.757 258.727 22.757 258.687C22.941 258.365 23.033 258.002 23.033 257.64V257.599Z" fill="#1E1B1E"/>
<path d="M35.27 253.773C33.6599 253.854 32.0037 254.982 32.1418 256.512C32.1418 256.673 32.1418 256.834 32.1418 256.995C32.0957 257.076 32.0957 257.197 32.0497 257.277C31.2677 258.566 31.6357 260.338 33.1998 261.063C34.672 261.747 36.6962 261.425 37.5242 260.056C38.1683 258.969 38.5823 257.76 38.4903 256.512C38.3983 255.062 37.1102 253.693 35.362 253.773H35.27Z" fill="#1E1B1E"/>
<path d="M59.6062 263.358C59.6982 258.083 57.628 253.008 53.1656 249.384" stroke="#1E1B1E" stroke-width="1.36183" stroke-miterlimit="10" stroke-linecap="round" stroke-linejoin="round"/>
<path d="M1.319 274.675C3.15916 284.703 15.2122 290.421 25.7012 291.791C39.8704 293.643 50.4974 288.005 56.0639 276.487" stroke="#1E1B1E" stroke-width="1.36183" stroke-miterlimit="10" stroke-linecap="round" stroke-linejoin="round"/>
<path d="M234.698 196.989C230.005 201.46 225.589 206.131 221.633 211.085C217.722 215.998 214.18 222.522 217.676 227.677C218.458 228.805 219.562 229.811 220.942 230.375C223.013 231.221 225.451 231.02 227.659 230.617C234.054 229.449 240.034 226.67 244.681 222.683C246.245 221.314 247.763 219.784 249.787 219.018C252.915 217.851 253.467 219.945 255.722 220.347C257.838 220.71 259.632 220.468 261.794 219.864C266.21 218.616 270.167 215.998 273.709 213.421C280.104 208.709 285.578 203.03 289.857 196.748C293.353 191.593 300.852 181.283 299.977 175.202C299.471 171.739 296.205 168.92 292.479 167.631C286.406 165.577 279.368 167.148 273.985 170.329C268.603 173.511 264.508 178.102 260.506 182.572C260.276 181.001 258.16 180.115 256.412 180.357C254.617 180.599 253.145 181.646 251.811 182.693C245.877 187.163 240.08 191.955 234.698 197.07V196.989Z" fill="#EC6F30"/>
<path d="M165.416 531.009C167.67 529.317 170.292 528.069 172.684 526.498C179.815 521.867 184.139 514.658 189.522 508.456C194.904 502.254 202.679 496.495 211.558 497.019C214.364 497.18 217.262 498.106 218.734 500.201C220.621 502.899 219.424 506.402 217.538 509.101C212.064 516.914 201.805 521.384 196.008 529.036C194.076 531.613 192.65 534.513 190.304 536.808C186.117 540.956 175.122 544.983 168.636 543.654C161.137 542.084 158.837 536.003 165.416 530.969V531.009Z" stroke="#EC6F30" stroke-width="4.08548" stroke-miterlimit="10" stroke-linecap="round" stroke-linejoin="round"/>
<path d="M231.937 499.274C231.891 499.153 231.845 499.073 231.753 498.952C228.441 492.227 245.969 480.548 250.845 477.165C252.777 475.836 255.308 474.547 257.47 475.473C258.62 475.957 259.356 476.963 259.862 478.01C261.518 481.635 260.414 486.105 257.194 488.803C252.823 492.468 238.148 511.034 231.891 499.274H231.937Z" stroke="#2E55A3" stroke-width="4.08548" stroke-miterlimit="10" stroke-linecap="round" stroke-linejoin="round"/>
<path d="M216.388 174.437L227.705 156.797L232.214 174.437L261.61 165.376L244.083 182.089L256.504 196.869L234.468 189.7L228.809 215.958L218.09 193.043L189.844 203.554L203.967 188.774L194.904 172.061L216.388 174.437Z" stroke="#2E55A3" stroke-width="4.08548" stroke-miterlimit="10" stroke-linecap="round" stroke-linejoin="round"/>
<path d="M597.118 209.273C594.587 204.963 593.759 199.929 594.817 195.177C595.508 192.116 597.026 189.096 599.694 187.042C602.362 184.988 606.365 184.062 609.631 185.27C612.667 186.398 618.372 191.996 618.602 195.016C619.016 200.735 611.885 199.406 609.493 195.942C606.18 191.23 605.536 185.19 607.745 180.035C609.999 174.719 615.611 169.644 622.236 169.483C628.492 169.322 635.807 173.833 633.967 179.994C633.461 181.646 632.035 183.297 630.103 183.377C627.572 183.498 625.916 181.042 625.272 178.867C623.386 172.665 624.72 165.738 628.861 160.422C632.265 156.032 637.969 152.609 644.042 152.972" stroke="#2E55A3" stroke-width="4.08548" stroke-miterlimit="10" stroke-linecap="round" stroke-linejoin="round"/>
<path d="M454.413 424.408C458.185 421.106 462.28 418.045 466.88 415.306C469.18 413.937 471.665 412.487 474.425 412.608C477.185 412.729 479.899 415.347 478.657 417.521C486.432 408.702 495.265 400.567 504.926 393.277C510.124 389.371 521.211 382.001 527.652 388.002C533.494 393.438 528.434 402.54 524.615 407.373C513.068 422.072 499.911 435.644 485.512 448.249C474.011 458.277 463.614 474.144 445.074 473.621C427.317 473.138 425.477 458.398 434.033 447.162C440.428 438.866 446.73 431.133 454.413 424.408Z" fill="#F9BA03"/>
<path d="M460.946 469.312C449.123 476.158 427.777 476.077 429.065 459.243" stroke="#1E1B1E" stroke-width="1.36183" stroke-miterlimit="10" stroke-linecap="round" stroke-linejoin="round"/>
<path d="M516.979 416.675C504.006 431.778 489.008 445.712 474.057 459.364" stroke="#1E1B1E" stroke-width="1.36183" stroke-miterlimit="10" stroke-linecap="round" stroke-linejoin="round"/>
<defs>
<linearGradient id="paint0_linear_286_775" x1="311.228" y1="9.9244" x2="201.981" y2="407.359" gradientUnits="userSpaceOnUse">
<stop offset="0.10806" stop-color="#59BAFF"/>
<stop offset="1" stop-color="#98D4FF"/>
</linearGradient>
</defs>
</svg>
