<svg width="460" height="315" viewBox="0 0 460 315" fill="none" xmlns="http://www.w3.org/2000/svg">
<path d="M108.852 217.018C108.852 226.146 101.45 233.549 92.3218 233.549C83.1938 233.549 75.7708 226.146 75.7708 217.018C75.7708 207.89 83.173 200.488 92.3218 200.488C101.45 200.488 108.852 207.89 108.852 217.018Z" fill="#242222"/>
<path fill-rule="evenodd" clip-rule="evenodd" d="M101.616 221.031C101.096 220.782 98.6013 219.555 98.1439 219.389C97.6864 219.222 97.333 219.139 97.0003 219.638C96.6676 220.137 95.6695 221.281 95.3784 221.613C95.0873 221.946 94.7962 221.988 94.2764 221.738C93.7774 221.489 92.1348 220.969 90.1803 219.222C88.6832 217.892 87.6435 216.249 87.3524 215.729C87.0613 215.23 87.3317 214.96 87.5812 214.689C87.8099 214.461 88.0802 214.086 88.3505 213.816C88.4129 213.733 88.4753 213.65 88.5376 213.567C88.6624 213.38 88.7456 213.213 88.8495 212.964C89.0159 212.631 88.9327 212.34 88.8079 212.09C88.6832 211.841 87.6643 209.346 87.2277 208.348C86.8118 207.329 86.3752 207.516 86.0841 207.516C85.793 207.516 85.4603 207.474 85.1068 207.474C84.7741 207.474 84.2127 207.599 83.7553 208.098C83.2979 208.597 81.9879 209.824 81.9879 212.319C81.9879 212.901 82.0919 213.483 82.2582 214.045C82.778 215.812 83.8801 217.289 84.0672 217.538C84.3167 217.871 87.5812 223.131 92.7378 225.169C97.9152 227.186 97.9152 226.5 98.8508 226.417C99.7865 226.333 101.866 225.211 102.282 224.025C102.718 222.84 102.718 221.842 102.573 221.634C102.448 221.426 102.115 221.302 101.595 221.052L101.616 221.031Z" fill="#FEFEFE"/>
<path d="M61.112 217.018H60.7377C60.7377 220.719 59.2406 224.067 56.8079 226.479C54.3751 228.912 51.0275 230.409 47.3472 230.409C43.6461 230.409 40.2985 228.912 37.8865 226.479C35.4537 224.046 33.9567 220.699 33.9567 217.018C33.9567 213.317 35.4537 209.969 37.8865 207.558C40.3192 205.125 43.6669 203.628 47.3472 203.628C51.0483 203.628 54.3959 205.125 56.8079 207.558C59.2406 209.99 60.7377 213.338 60.7377 217.018H61.4863C61.4863 209.2 55.1653 202.879 47.3472 202.879C39.5291 202.879 33.2081 209.2 33.2081 217.018C33.2081 224.836 39.5291 231.157 47.3472 231.157C55.1653 231.157 61.4863 224.836 61.4863 217.018H61.112Z" fill="#242222"/>
<path fill-rule="evenodd" clip-rule="evenodd" d="M53.585 214.107L51.3394 215.396V214.107C51.3394 213.525 50.8611 213.047 50.2789 213.047H41.5668C40.9846 213.047 40.5063 213.525 40.5063 214.107V219.929C40.5063 220.511 40.9846 220.99 41.5668 220.99H50.2789C50.8611 220.99 51.3394 220.511 51.3394 219.929V218.64L53.585 219.929C53.8345 220.075 54.1672 219.888 54.1672 219.597V214.44C54.1672 214.149 53.8553 213.962 53.585 214.107Z" fill="#242222"/>
<path d="M151.061 217.018H150.687C150.687 220.719 149.19 224.067 146.757 226.479C144.325 228.912 140.977 230.409 137.297 230.409C133.595 230.409 130.248 228.912 127.836 226.479C125.403 224.046 123.906 220.699 123.906 217.018C123.906 213.317 125.403 209.969 127.836 207.558C130.269 205.125 133.616 203.628 137.297 203.628C140.998 203.628 144.345 205.125 146.757 207.558C149.19 209.99 150.687 213.338 150.687 217.018H151.436C151.436 209.2 145.115 202.879 137.297 202.879C129.479 202.879 123.158 209.2 123.158 217.018C123.158 224.836 129.479 231.157 137.297 231.157C145.115 231.157 151.436 224.836 151.436 217.018H151.061Z" fill="#242222"/>
<path fill-rule="evenodd" clip-rule="evenodd" d="M138.482 210.115H136.091C134.136 210.115 132.577 211.695 132.577 213.629V217.996C132.577 219.95 134.157 221.51 136.091 221.51H136.195V223.693H134.926C134.635 223.693 134.406 223.921 134.406 224.213C134.406 224.504 134.635 224.732 134.926 224.732H139.646C139.937 224.732 140.166 224.504 140.166 224.213C140.166 223.921 139.937 223.693 139.646 223.693H138.378V221.51H138.482C140.436 221.51 141.996 219.929 141.996 217.996V213.629C141.996 211.675 140.416 210.115 138.482 210.115Z" fill="#242222"/>
<path d="M215.269 25.8498H440.205V102.554C440.205 102.658 440.288 102.741 440.392 102.741C440.496 102.741 440.58 102.658 440.58 102.554V25.4963H215.29C215.186 25.4963 215.103 25.5794 215.103 25.6834C215.103 25.7874 215.186 25.8705 215.29 25.8705L215.269 25.8498Z" fill="#242222"/>
<path d="M427.709 38.3462H453.076V12.9791H427.709V38.3462Z" fill="#242222"/>
<path d="M450.352 18.4475L447.608 15.7029L440.392 22.918L433.177 15.7029L430.433 18.4475L437.648 25.6626L430.433 32.8777L433.177 35.6223L440.392 28.4072L447.608 35.6223L450.352 32.8777L443.137 25.6626L450.352 18.4475Z" fill="#FEFEFE"/>
<path fill-rule="evenodd" clip-rule="evenodd" d="M180.608 195.435H40.5896L39.6331 190.383H174.994L174.911 189.946L162.622 124.927L167.176 124.345L180.629 195.435H180.608ZM174.1 189.634H39.5083L18.9235 80.8258H153.515L156.987 99.1442L148.317 100.225C145.094 100.62 142.827 103.552 143.223 106.775L145.032 121.205C145.406 124.179 147.922 126.341 150.853 126.341C151.103 126.341 151.353 126.32 151.602 126.3L161.894 125.01L174.121 189.634H174.1ZM94.9626 86.0032C93.3823 86.0032 91.7605 86.1903 90.0971 86.5438C81.3225 88.4775 69.9073 99.7888 76.1452 113.262C77.4343 116.028 80.3661 119.396 84.0672 122.411L85.689 138.879C85.689 138.879 87.4356 147.945 99.0588 148.34C99.2875 148.34 99.4954 148.361 99.7033 148.361C110.495 148.361 110.224 138.9 110.224 138.9L107.438 135.324L103.508 130.271C113.905 129.564 114.757 117.359 113.343 103.989C112.117 92.2826 104.299 86.024 94.9418 86.024L94.9626 86.0032ZM157.715 99.0403L154.263 80.8258H158.921L162.248 98.4788L157.694 99.061L157.715 99.0403Z" fill="url(#paint0_linear_333_1245)"/>
<path d="M174.536 190.008L174.911 189.946L153.182 75.0246H12.3946L34.227 190.383H174.994L174.911 189.946L174.536 190.008V189.634H34.83L13.3095 75.7731H152.558L174.183 190.092L174.536 190.008V189.634V190.008Z" fill="#242222"/>
<path d="M150.833 125.863C148.13 125.863 145.842 123.846 145.51 121.164L143.701 106.734C143.514 105.32 143.909 103.906 144.782 102.762C145.655 101.619 146.924 100.912 148.358 100.724L216.392 92.1786C216.621 92.1578 216.85 92.137 217.058 92.137C219.761 92.137 222.048 94.1539 222.381 96.8362L224.19 111.266C224.377 112.68 223.982 114.094 223.108 115.238C222.235 116.381 220.967 117.088 219.532 117.275L151.498 125.821C151.269 125.842 151.041 125.863 150.812 125.863H150.833Z" fill="#FEFEFE"/>
<path d="M217.058 91.6381C216.808 91.6381 216.559 91.6589 216.309 91.6796L148.275 100.225C145.052 100.621 142.786 103.552 143.181 106.775L144.99 121.205C145.364 124.179 147.88 126.341 150.812 126.341C151.061 126.341 151.311 126.32 151.56 126.3L219.594 117.754C222.817 117.359 225.084 114.427 224.688 111.204L222.88 96.7739C222.505 93.8005 219.989 91.6381 217.058 91.6381ZM217.058 92.6153C219.511 92.6153 221.59 94.4451 221.902 96.8986L223.711 111.329C224.044 113.99 222.152 116.444 219.47 116.776L151.436 125.322C151.228 125.343 151.02 125.364 150.812 125.364C148.358 125.364 146.279 123.534 145.967 121.081L144.158 106.65C143.992 105.361 144.345 104.072 145.156 103.053C145.946 102.014 147.111 101.369 148.4 101.203L216.434 92.6569C216.642 92.6361 216.85 92.6153 217.058 92.6153Z" fill="#242222"/>
<path d="M152.434 119.979C151.373 119.979 150.438 119.188 150.313 118.107L149.107 108.501C148.961 107.316 149.793 106.255 150.978 106.11L160.585 104.904C160.668 104.883 160.772 104.883 160.855 104.883C161.915 104.883 162.851 105.673 162.976 106.754L164.182 116.361C164.327 117.546 163.495 118.606 162.31 118.752L152.704 119.958C152.621 119.979 152.517 119.979 152.434 119.979Z" fill="#B1B6DB"/>
<path d="M167.28 106.339C166.926 106.339 166.573 105.881 166.51 105.257V105.195C166.427 104.55 166.677 103.989 167.051 103.947L213.959 98.063C213.98 98.063 214.001 98.063 214.022 98.063C214.375 98.063 214.729 98.5204 214.791 99.1442V99.2066C214.874 99.8512 214.625 100.413 214.251 100.454L167.342 106.339C167.321 106.339 167.301 106.339 167.301 106.339H167.28Z" fill="#B1B6DB"/>
<path d="M167.987 112.015C167.633 112.015 167.28 111.557 167.217 110.934V110.871C167.134 110.227 167.384 109.665 167.758 109.624L187.199 107.191C187.22 107.191 187.241 107.191 187.241 107.191C187.594 107.191 187.948 107.648 188.01 108.272V108.335C188.093 108.979 187.844 109.541 187.469 109.582L168.028 112.015C168.007 112.015 167.987 112.015 167.966 112.015H167.987Z" fill="#B1B6DB"/>
<path d="M190.214 109.208C189.861 109.208 189.507 108.75 189.445 108.127V108.064C189.362 107.42 189.611 106.858 189.985 106.817L214.666 103.719C214.687 103.719 214.708 103.719 214.708 103.719C215.062 103.719 215.415 104.176 215.477 104.8V104.862C215.561 105.507 215.311 106.068 214.937 106.11L190.256 109.208C190.235 109.208 190.214 109.208 190.193 109.208H190.214Z" fill="#B1B6DB"/>
<path d="M168.714 117.671C168.361 117.671 168.007 117.213 167.945 116.589V116.527C167.862 115.882 168.111 115.321 168.486 115.279L193.832 112.098C193.853 112.098 193.874 112.098 193.894 112.098C194.248 112.098 194.601 112.556 194.664 113.179V113.242C194.747 113.886 194.497 114.448 194.123 114.489L168.777 117.671C168.756 117.671 168.735 117.671 168.735 117.671H168.714Z" fill="#B1B6DB"/>
<path d="M184.662 122.141C184.662 122.141 183.602 127.443 182.812 128.587C181.523 131.872 174.121 137.881 174.1 137.902C173.31 141.998 173.809 170.754 168.34 189.655H144.761C135.259 180.257 126.443 165.598 126.443 165.598L141.06 152.852L153.598 164.932C156.551 156.449 160.938 143.89 163.932 135.282C163.932 135.282 164.098 131.123 164.098 125.821C164.098 123.035 165.845 119.604 169.172 116.776C170.461 115.404 173.393 114.219 173.393 117.255C173.393 118.232 172.312 119.958 171.896 120.748C170.918 122.702 170.69 123.908 170.69 123.908L184.642 122.162L184.662 122.141Z" fill="#A1565D"/>
<path fill-rule="evenodd" clip-rule="evenodd" d="M151.041 162.021C142.62 153.975 130.809 142.123 123.636 140.75H123.615H123.594C119.768 139.877 110.266 138.9 110.266 138.9H85.7306C85.7306 138.9 69.9697 141.977 66.123 145.055C62.1724 148.215 42.6272 180.673 42.6272 180.673L67.6825 182.419L67.329 189.655H144.72C144.72 189.655 142.516 184.041 139.542 176.618C151.976 167.635 151.041 162.042 151.041 162.042V162.021Z" fill="url(#paint1_linear_333_1245)"/>
<path d="M74.1075 180.652L76.062 165.494L70.2192 179.279L74.1075 180.652Z" fill="#242222"/>
<path fill-rule="evenodd" clip-rule="evenodd" d="M99.7449 148.34C99.537 148.34 99.3083 148.34 99.1003 148.319C87.4772 147.924 85.7306 138.858 85.7306 138.858L84.1088 122.391C80.3869 119.396 77.4551 116.028 76.1867 113.242C69.9489 99.768 81.3433 88.4568 90.1387 86.523C91.7813 86.1696 93.4031 85.9824 95.0042 85.9824C104.361 85.9824 112.179 92.241 113.406 103.947C114.82 117.317 113.967 129.522 103.571 130.229H103.55C103.009 130.229 95.3161 130.125 90.3258 123.908C90.3258 123.908 92.0516 133.743 107.521 135.282L110.308 138.858C110.308 138.858 110.578 148.319 99.7865 148.319L99.7449 148.34Z" fill="url(#paint2_linear_333_1245)"/>
<path d="M40.9638 181.442C42.6896 175.599 48.969 164.932 72.7559 173.457C85.8969 174.934 108.831 176.722 109.975 177.533C113.551 178.76 127.815 189.135 127.815 189.135C127.815 189.135 130.996 192.774 132.972 195.519C133.616 196.433 135.55 201.944 136.153 203.441C136.548 204.418 135.467 205.146 134.115 205.166C134.282 205.624 134.406 205.957 134.469 206.102C134.947 207.516 131.828 208.535 129.998 206.747C129.874 206.622 129.728 206.456 129.562 206.289C129.915 207.225 130.185 207.953 130.269 208.202C130.747 209.616 127.628 210.635 125.798 208.847C125.403 208.472 124.925 207.911 124.405 207.287C124.447 209.47 121.785 209.367 120.392 208.119C119.269 207.1 118.105 204.771 117.356 202.9C114.383 200.654 113.614 199.448 113.614 199.448C105.13 196.226 104.195 189.634 104.195 189.634H42.8559C42.8559 189.634 39.0093 188.012 40.9638 181.442Z" fill="#A1565D"/>
<path d="M84.088 122.411L86.0217 116.111C86.0217 116.111 81.3434 113.574 81.8008 110.019C82.279 106.463 86.1465 105.112 89.6189 108.147C89.6189 108.147 92.5714 106.318 91.4071 100.932L112.491 97.6263C112.491 97.6263 110.744 80.7426 91.9893 82.4684C74.0035 84.1319 68.1816 98.4788 73.1302 110.476C76.166 117.837 84.0672 122.411 84.0672 122.411H84.088Z" fill="#242222"/>
<path d="M143.555 173.437C142.412 174.435 141.081 175.495 139.542 176.597L131.89 158.653L143.555 173.437Z" fill="#242222"/>
<path d="M153.161 165.431C153.161 165.431 150.23 173.686 148.878 177.678C148.837 177.803 148.899 177.949 149.024 177.99C149.148 178.032 149.294 177.969 149.336 177.845C150.022 175.849 151.082 172.792 151.976 170.235C152.434 168.945 152.829 167.802 153.141 166.97C153.432 166.138 153.619 165.619 153.619 165.619C153.661 165.494 153.598 165.348 153.473 165.307C153.349 165.265 153.203 165.327 153.161 165.452V165.431Z" fill="#242222"/>
<path d="M124.176 206.081C124.176 206.081 123.802 205.104 123.345 204.002C122.887 202.879 122.347 201.632 121.993 201.029C121.64 200.405 120.787 199.407 120.039 198.554C119.269 197.702 118.604 196.974 118.604 196.974C118.521 196.87 118.354 196.87 118.271 196.974C118.167 197.057 118.167 197.224 118.271 197.307C118.271 197.307 118.438 197.494 118.708 197.764C119.103 198.18 119.706 198.845 120.288 199.532C120.85 200.197 121.39 200.862 121.619 201.278C121.931 201.84 122.492 203.087 122.95 204.189C123.407 205.291 123.781 206.268 123.781 206.268C123.823 206.393 123.968 206.456 124.093 206.414C124.218 206.372 124.28 206.227 124.239 206.102L124.176 206.081Z" fill="#242222"/>
<path d="M122.263 194.105C122.263 194.105 122.471 194.375 122.783 194.791C123.261 195.415 123.989 196.392 124.655 197.328C125.341 198.263 125.965 199.178 126.235 199.656C126.588 200.322 127.254 201.798 127.836 203.087C128.397 204.397 128.896 205.52 128.896 205.52C128.938 205.645 129.083 205.707 129.208 205.645C129.333 205.603 129.395 205.457 129.333 205.333C129.333 205.333 127.42 200.8 126.671 199.407C126.276 198.7 125.299 197.307 124.384 196.08C123.469 194.853 122.658 193.793 122.658 193.793C122.575 193.689 122.43 193.668 122.326 193.751C122.222 193.834 122.201 193.98 122.284 194.084L122.263 194.105Z" fill="#242222"/>
<path d="M126.256 192.337C126.256 192.337 126.443 192.545 126.734 192.899C127.628 193.938 129.499 196.184 130.248 197.286C130.726 197.993 131.537 199.781 132.182 201.361C132.514 202.151 132.805 202.9 133.013 203.461C133.221 204.002 133.367 204.355 133.367 204.355C133.408 204.48 133.554 204.543 133.679 204.501C133.803 204.459 133.866 204.314 133.824 204.189C133.824 204.189 133.304 202.775 132.639 201.195C131.974 199.594 131.204 197.827 130.664 197.036C129.624 195.519 126.63 192.067 126.63 192.046C126.547 191.942 126.401 191.942 126.297 192.025C126.193 192.109 126.193 192.254 126.276 192.358L126.256 192.337Z" fill="#242222"/>
<path d="M338.134 307.883H298.586L280.143 205.562H319.691L338.134 307.883Z" fill="#242222"/>
<path d="M400.387 269.291H217.411C212.795 269.291 209.302 265.091 210.154 260.538L232.423 142.788C233.297 138.151 237.351 134.783 242.071 134.783H425.047C429.663 134.783 433.157 138.983 432.304 143.537L410.035 261.286C409.162 265.923 405.107 269.291 400.387 269.291Z" fill="#242222"/>
<path fill-rule="evenodd" clip-rule="evenodd" d="M394.025 269.291H211.048C206.432 269.291 202.939 265.091 203.792 260.538L226.061 142.788C226.934 138.151 230.989 134.783 235.709 134.783H298.191C298.045 135.282 297.879 135.781 297.65 136.28C296.756 138.235 296.299 140.002 296.112 141.52H232.839C232.361 141.52 231.945 141.853 231.862 142.331L209.427 260.974C209.406 261.057 209.406 261.141 209.406 261.224C209.406 261.951 209.988 262.554 210.737 262.554H396.915C397.393 262.554 397.809 262.222 397.892 261.744L420.327 143.1C420.348 143.017 420.348 142.934 420.348 142.851C420.348 142.123 419.766 141.52 419.017 141.52H347.781C346.929 139.046 345.931 136.738 345.266 134.783H418.706C423.322 134.783 426.815 138.983 425.962 143.537L403.693 261.286C402.82 265.923 398.765 269.291 394.045 269.291H394.025ZM210.737 261.868C210.362 261.868 210.092 261.577 210.092 261.224L210.113 261.099L232.548 142.456C232.569 142.31 232.714 142.206 232.86 142.206H296.07C295.82 145.616 296.881 147.654 296.881 147.654L298.752 147.903C287.628 179.508 290.768 211.259 290.768 211.259C295.633 214.253 301.33 215.459 307.589 215.459C315.199 215.459 323.641 213.691 332.374 211.259C335.971 196.434 340.192 186.661 345.37 172.896C348.488 164.579 348.738 158.279 347.553 154.141L349.091 154.328C350.235 150.357 349.32 146.115 348.031 142.227H419.038C419.413 142.227 419.683 142.518 419.683 142.871L419.662 142.996L397.227 261.64C397.206 261.785 397.06 261.889 396.915 261.889H210.737V261.868Z" fill="url(#paint3_linear_333_1245)"/>
<path fill-rule="evenodd" clip-rule="evenodd" d="M210.737 262.201V261.868C210.362 261.868 210.092 261.577 210.092 261.224L210.113 261.099L232.548 142.456C232.569 142.31 232.715 142.206 232.86 142.206H419.038C419.413 142.206 419.683 142.497 419.683 142.851L419.662 142.975L397.227 261.619C397.206 261.764 397.06 261.889 396.915 261.868H210.737V262.554H396.915C397.393 262.554 397.809 262.222 397.892 261.744L420.327 143.1C420.348 143.017 420.348 142.934 420.348 142.851C420.348 142.123 419.766 141.52 419.018 141.52H232.839C232.361 141.52 231.945 141.853 231.862 142.331L209.427 260.974C209.406 261.057 209.406 261.141 209.406 261.224C209.406 261.951 209.988 262.554 210.737 262.554V262.222V262.201Z" fill="url(#paint4_linear_333_1245)"/>
<path fill-rule="evenodd" clip-rule="evenodd" d="M249.972 314.266V307.883L297.172 300.584H336.72L368.304 307.883V314.266H249.972Z" fill="url(#paint5_linear_333_1245)"/>
<path fill-rule="evenodd" clip-rule="evenodd" d="M297.172 300.584L296.216 294.742L328.153 300.584H297.172Z" fill="url(#paint6_linear_333_1245)"/>
<path fill-rule="evenodd" clip-rule="evenodd" d="M217.141 222.32H245.523L239.888 252.096C239.867 252.2 239.888 252.304 239.95 252.366C240.013 252.449 240.117 252.491 240.221 252.491H257.458C257.624 252.491 257.77 252.366 257.79 252.22L267.022 203.42H295.675L286.776 250.432C286.755 250.536 286.776 250.64 286.838 250.703C286.9 250.786 287.004 250.827 287.108 250.827H304.345C304.512 250.827 304.657 250.703 304.678 250.557L317.154 184.54H368.262L359.363 231.552C359.342 231.656 359.363 231.76 359.425 231.823C359.488 231.906 359.592 231.947 359.696 231.947H376.933C377.099 231.947 377.245 231.823 377.266 231.677L380.156 216.457H406.126C406.313 216.457 406.459 216.311 406.459 216.124C406.459 215.937 406.313 215.791 406.126 215.791H379.865C379.698 215.791 379.553 215.916 379.532 216.062L376.642 231.282H360.091L368.969 184.27C368.99 184.166 368.969 184.062 368.907 183.999C368.844 183.916 368.741 183.875 368.637 183.875H316.821C316.655 183.875 316.509 183.999 316.488 184.145L304.013 250.162H287.462L296.361 203.17C296.382 203.066 296.361 202.962 296.278 202.9C296.215 202.817 296.111 202.775 296.008 202.775H266.648C266.482 202.775 266.336 202.9 266.315 203.046L257.083 251.846H240.532L246.167 222.071C246.188 221.967 246.167 221.863 246.105 221.801C246.043 221.717 245.939 221.676 245.835 221.676H217.037C216.85 221.676 216.704 221.821 216.704 222.009C216.704 222.196 216.85 222.341 217.037 222.341L217.141 222.32Z" fill="url(#paint7_linear_333_1245)"/>
<path fill-rule="evenodd" clip-rule="evenodd" d="M370.924 165.161C371.381 174.497 379.095 181.941 388.535 181.941C398.266 181.941 406.168 174.04 406.168 164.309C406.168 157.26 402.03 151.168 396.021 148.34C397.913 150.856 399.036 153.995 399.036 157.385C399.036 165.743 392.257 172.522 383.899 172.522C378.388 172.522 373.565 169.569 370.924 165.161Z" fill="url(#paint8_linear_333_1245)"/>
<path d="M362.877 187.804H403.714C403.714 187.804 392.715 177.886 388.057 177.325C383.212 176.743 384.543 180.964 384.543 180.964C384.543 180.964 377.952 172.543 370.591 172.293C365.123 172.106 366.058 178.635 367.452 181.276C365.684 179.571 357.721 179.342 362.856 187.804H362.877Z" fill="#FEFEFE"/>
<path d="M222.048 241.637H256.231C256.231 241.637 247.041 233.341 243.132 232.862C239.077 232.363 240.179 235.919 240.179 235.919C240.179 235.919 234.648 228.87 228.514 228.662C223.94 228.496 224.73 233.964 225.895 236.189C224.418 234.775 217.744 234.567 222.048 241.637Z" fill="#FEFEFE"/>
<path fill-rule="evenodd" clip-rule="evenodd" d="M216.87 139.711C215.976 139.149 215.29 138.609 215.103 138.131C214.833 137.424 215.893 135.864 217.661 136.238L217.827 136.28C217.037 135.781 216.455 135.324 216.309 134.908C216.039 134.222 217.037 132.621 219.033 132.932C218.742 132.683 218.534 132.454 218.451 132.225C218.18 131.519 219.199 130.188 221.008 130.333C222.547 130.458 225.52 131.415 229.845 133.993C231.321 134.887 233.525 136.405 235.002 137.486C234.191 134.929 232.444 128.815 233.505 127.027C234.149 125.946 235.501 125.53 236.395 126.05C237.123 126.466 237.393 127.589 237.809 128.628C238.724 130.957 239.763 132.6 240.99 134.513C242.217 136.405 243.714 138.047 244.421 139.357C245.606 141.52 247.852 148.61 247.852 148.61L275.194 171.17L279.394 165.868L297.505 177.2C297.505 177.2 281.806 198.326 273.718 195.186C259.808 189.78 239.285 155.305 239.285 155.305C233.338 154.702 226.123 148.631 226.123 148.631C220.634 145.179 215.581 143.059 215.02 141.665C214.77 141.062 215.54 139.815 216.891 139.732L216.87 139.711Z" fill="url(#paint9_linear_333_1245)"/>
<path d="M217.349 139.981H217.411C217.681 140.002 218.908 140.168 220.676 141C221.528 141.395 223.275 142.352 224.792 143.225C225.562 143.661 226.269 144.057 226.768 144.368C227.288 144.66 227.62 144.867 227.62 144.867C227.745 144.93 227.891 144.888 227.953 144.784C228.015 144.66 227.974 144.514 227.87 144.452C227.87 144.452 222.651 141.395 220.883 140.584C218.804 139.628 217.432 139.524 217.39 139.524C217.266 139.524 217.141 139.607 217.141 139.752C217.141 139.877 217.224 140.002 217.369 140.002L217.349 139.981Z" fill="#242222"/>
<path d="M218.388 136.654C218.388 136.654 218.7 136.758 219.262 136.945C219.802 137.133 220.592 137.403 221.507 137.756C222.796 138.235 224.751 139.316 226.352 140.272C227.163 140.751 227.891 141.208 228.411 141.541C228.93 141.873 229.263 142.081 229.263 142.081C229.367 142.164 229.513 142.123 229.596 142.019C229.658 141.915 229.637 141.769 229.533 141.686C229.533 141.686 228.244 140.834 226.602 139.856C224.98 138.879 223.025 137.798 221.674 137.299C219.823 136.634 218.555 136.197 218.534 136.197C218.409 136.155 218.264 136.218 218.222 136.342C218.18 136.467 218.243 136.613 218.368 136.654H218.388Z" fill="#242222"/>
<path d="M219.636 133.224H219.698C220.01 133.265 221.403 133.473 223.025 134.346C224.605 135.178 226.664 136.426 228.348 137.486C229.18 138.006 229.928 138.484 230.448 138.817C230.968 139.15 231.301 139.357 231.301 139.357C231.405 139.42 231.55 139.399 231.633 139.295C231.696 139.191 231.675 139.046 231.571 138.962C231.571 138.962 226.456 135.615 223.254 133.931C221.299 132.891 219.698 132.766 219.677 132.745C219.553 132.725 219.428 132.829 219.428 132.953C219.407 133.078 219.511 133.203 219.636 133.203V133.224Z" fill="#242222"/>
<path d="M339.964 104.613C338.55 102.658 338.529 94.8401 345.287 92.0331C352.855 88.8726 358.032 100.267 354.04 104.862C351.129 108.231 342.022 107.44 339.964 104.633V104.613Z" fill="#242222"/>
<path fill-rule="evenodd" clip-rule="evenodd" d="M337.655 95.9421C337.655 95.9421 340.878 93.3846 344.143 96.6907C347.532 100.121 349.84 107.295 346.16 109.374C343.353 110.975 334.62 97.2728 337.655 95.9213V95.9421Z" fill="url(#paint10_linear_333_1245)"/>
<path fill-rule="evenodd" clip-rule="evenodd" d="M322.56 92.8648C322.56 92.8648 328.444 87.2924 334.453 89.7459C342.188 92.8856 341.96 100.205 344.226 104.363C346.472 108.522 352.98 110.206 351.608 118.045C350.672 123.305 344.6 126.424 344.476 131.061C344.351 135.698 351.587 145.699 349.092 154.349L296.881 147.675C296.881 147.675 294.511 143.162 297.671 136.301C298.794 133.847 298.836 131.04 297.754 128.566C296.112 124.844 294.386 121.309 296.673 117.65C301.206 110.372 305.073 112.951 303.181 104.342C301.289 95.7342 308.587 96.9194 310.022 94.8609C311.54 92.6777 312.746 89.9746 315.47 89.3924C320.668 88.3112 322.581 92.844 322.581 92.844L322.56 92.8648Z" fill="url(#paint11_linear_333_1245)"/>
<path fill-rule="evenodd" clip-rule="evenodd" d="M319.399 257.481L318.214 262.201H274.238C277.481 247.604 279.935 236.813 280.85 233.465C285.798 215.584 290.726 211.238 290.726 211.238H332.332C336.99 238.185 319.379 257.481 319.379 257.481H319.399Z" fill="url(#paint12_linear_333_1245)"/>
<path fill-rule="evenodd" clip-rule="evenodd" d="M342.23 262.201H297.879C304.637 236.148 311.228 211.238 311.228 211.238H332.353C332.353 211.238 344.6 222.944 346.721 238.227C348.343 249.954 344.247 258.749 342.23 262.201Z" fill="url(#paint13_linear_333_1245)"/>
<path fill-rule="evenodd" clip-rule="evenodd" d="M297.879 262.201C299.002 257.897 300.104 253.614 301.185 249.476C299.73 246.939 299.002 245.65 297.38 242.885L303.077 249.476L301.081 262.201H297.858H297.879Z" fill="url(#paint14_linear_333_1245)"/>
<path fill-rule="evenodd" clip-rule="evenodd" d="M302.287 138.983C302.287 138.983 298.794 138.526 295.051 143.142C293.492 145.075 278.251 166.804 278.251 166.804C278.251 166.804 282.763 175.121 297.962 177.408L302.287 138.983Z" fill="url(#paint15_linear_333_1245)"/>
<path fill-rule="evenodd" clip-rule="evenodd" d="M288.605 174.851C291.142 175.932 294.22 176.847 297.962 177.408L300.104 158.445L296.216 158.112C296.216 158.112 292.452 165.452 288.605 174.851Z" fill="url(#paint16_linear_333_1245)"/>
<path fill-rule="evenodd" clip-rule="evenodd" d="M307.568 215.438C301.331 215.438 295.613 214.253 290.747 211.238C290.747 211.238 287.607 179.487 298.732 147.882C299.771 144.909 300.956 141.936 302.266 138.983C302.266 138.983 306.882 139.919 313.037 141.25L311.457 151.521C312.205 151.667 313.016 151.729 313.889 151.729C320.481 151.729 329.837 148.007 329.837 148.007L329.567 144.909C336.387 146.489 342.188 147.986 343.685 148.735C345.328 149.567 346.721 151.376 347.511 154.099C348.717 158.258 348.447 164.537 345.328 172.855C340.151 186.619 335.909 196.392 332.333 211.217C323.6 213.629 315.179 215.417 307.548 215.417L307.568 215.438Z" fill="url(#paint17_linear_333_1245)"/>
<path fill-rule="evenodd" clip-rule="evenodd" d="M331.563 173.208C331.251 182.045 332.083 195.311 333.746 205.832C337.032 193.876 340.837 184.914 345.349 172.875C346.16 170.734 346.763 168.717 347.22 166.845C338.924 170.775 331.563 173.208 331.563 173.208Z" fill="url(#paint18_linear_333_1245)"/>
<path fill-rule="evenodd" clip-rule="evenodd" d="M332.852 209.221L334.162 213.172C334.162 213.172 320.314 218.599 306.092 217.559C295.529 216.769 289.479 212.777 289.479 212.777L290.56 208.556C290.56 208.556 305.447 218.224 332.852 209.221Z" fill="url(#paint19_linear_333_1245)"/>
<path fill-rule="evenodd" clip-rule="evenodd" d="M307.506 213.172L307.215 217.538C307.194 217.725 307.049 217.871 306.861 217.871C305.676 217.871 301.455 217.767 297.713 216.436C297.546 216.374 297.442 216.207 297.484 216.02L298.316 211.758C298.357 211.55 298.544 211.425 298.752 211.487C299.73 211.758 302.661 212.485 307.173 212.776C307.36 212.797 307.527 212.964 307.506 213.151V213.172Z" fill="url(#paint20_linear_333_1245)"/>
<path fill-rule="evenodd" clip-rule="evenodd" d="M313.91 151.729C313.037 151.729 312.226 151.667 311.477 151.521L313.058 141.249L313.806 136.363C306.092 136.155 298.898 130.583 303.036 117.463C305.24 110.497 308.691 103.677 311.852 100.017C312.808 100.205 313.702 100.288 314.492 100.288C318.755 100.288 320.668 97.9174 320.668 97.9174C320.668 97.9174 319.628 102.762 323.059 105.631C322.207 107.336 321.999 108.875 322.539 109.852C323.704 112.327 326.76 112.743 326.76 112.743C326.76 112.743 323.891 116.589 325.783 119.874C326.719 118.939 328.548 118.066 330.378 118.066C331.314 118.066 332.249 118.294 333.081 118.856C336.179 120.977 336.387 127.693 328.174 128.566L329.588 144.909L329.858 148.007C329.858 148.007 320.501 151.729 313.91 151.729ZM325.159 130.52C321.375 136.363 313.785 136.384 313.785 136.384L312.954 141.832C323.641 139.711 325.159 130.541 325.159 130.541V130.52Z" fill="url(#paint21_linear_333_1245)"/>
<path fill-rule="evenodd" clip-rule="evenodd" d="M353.811 177.408L333.143 180.88L335.95 198.014L298.877 211.03C298.877 211.03 294.926 208.868 293.658 208.389C292.39 207.932 287.607 205.707 287.108 205.27C285.84 204.189 284.135 204.875 283.948 206.372C283.74 208.057 285.611 210.177 286.297 210.78C287.15 211.571 288.19 212.278 288.855 212.652L288.834 212.673C288.543 212.714 283.033 213.338 282.243 213.255C281.432 213.172 275.693 212.485 274.092 213.608C272.595 214.648 272.782 216.041 274.092 216.873C273.551 216.977 273.094 217.122 272.782 217.33C271.202 218.432 271.493 219.929 273.011 220.761C273.115 220.823 273.302 220.886 273.531 220.927C272.699 221.946 272.47 223.485 273.739 224.171C274.05 224.337 275.215 224.691 276.171 224.857C275.132 225.897 275.381 227.186 276.795 227.747C278.583 228.454 283.532 229.494 287.857 228.953C291.537 228.496 302.038 222.944 302.038 222.944C302.038 222.944 339.402 219.971 351.815 215.168C361.401 211.467 353.853 177.45 353.853 177.45L353.811 177.408Z" fill="url(#paint22_linear_333_1245)"/>
<path fill-rule="evenodd" clip-rule="evenodd" d="M343.706 148.756C343.706 148.756 350.776 150.689 354.851 165.764C358.157 177.99 359.363 186.599 359.363 186.599C354.955 189.364 342.251 192.337 334.557 192.171C334.557 192.171 331.023 172.085 330.524 163.248C329.879 152.103 338.986 146.76 343.727 148.735L343.706 148.756Z" fill="url(#paint23_linear_333_1245)"/>
<path fill-rule="evenodd" clip-rule="evenodd" d="M274.508 217.268C274.508 217.268 279.269 218.12 282.596 218.12C282.804 218.12 283.012 218.12 283.199 218.12C286.505 217.996 288.522 217.289 288.543 217.268C288.668 217.226 288.73 217.081 288.689 216.956C288.647 216.831 288.501 216.769 288.377 216.81L288.294 216.831C287.878 216.956 286.027 217.517 283.179 217.621C282.991 217.621 282.783 217.621 282.596 217.621C280.974 217.621 278.958 217.413 277.377 217.205C276.587 217.101 275.88 216.997 275.381 216.914C274.882 216.831 274.591 216.79 274.591 216.79C274.466 216.769 274.342 216.852 274.321 216.977C274.3 217.101 274.383 217.226 274.508 217.247V217.268Z" fill="url(#paint24_linear_333_1245)"/>
<path fill-rule="evenodd" clip-rule="evenodd" d="M273.967 221.156C273.967 221.156 278.604 222.154 282.097 222.3C282.243 222.3 282.409 222.3 282.555 222.3C285.923 222.3 289.271 220.844 289.292 220.844C289.416 220.782 289.479 220.657 289.416 220.532C289.354 220.408 289.229 220.345 289.104 220.408C289.104 220.408 289.063 220.428 288.959 220.47C288.294 220.74 285.403 221.821 282.555 221.821C282.409 221.821 282.264 221.821 282.118 221.821C280.413 221.759 278.396 221.468 276.816 221.198C276.026 221.073 275.34 220.927 274.861 220.844C274.383 220.74 274.092 220.678 274.092 220.678C273.967 220.657 273.843 220.74 273.801 220.865C273.78 220.99 273.863 221.114 273.988 221.156H273.967Z" fill="url(#paint25_linear_333_1245)"/>
<path fill-rule="evenodd" clip-rule="evenodd" d="M276.712 225.315C276.712 225.315 279.644 225.751 282.492 225.751C282.784 225.751 283.054 225.751 283.345 225.73C286.464 225.626 289.749 224.358 289.749 224.358C289.874 224.317 289.936 224.171 289.895 224.046C289.853 223.921 289.708 223.859 289.583 223.901C289.583 223.901 289.375 223.984 289.042 224.088C287.982 224.441 285.591 225.148 283.324 225.231C283.054 225.231 282.763 225.252 282.492 225.252C281.099 225.252 279.665 225.148 278.583 225.023C278.043 224.961 277.585 224.919 277.273 224.878C276.962 224.836 276.774 224.816 276.774 224.816C276.65 224.795 276.525 224.878 276.504 225.023C276.483 225.148 276.567 225.273 276.712 225.294V225.315Z" fill="url(#paint26_linear_333_1245)"/>
<path fill-rule="evenodd" clip-rule="evenodd" d="M254.568 262.554H362.503V261.868H254.568V262.554Z" fill="url(#paint27_linear_333_1245)"/>
<path fill-rule="evenodd" clip-rule="evenodd" d="M311.124 154.557C311.124 154.557 311.685 154.598 312.663 154.598C315.927 154.598 323.87 154.099 331.002 149.795C331.106 149.733 331.147 149.587 331.085 149.463C331.023 149.359 330.877 149.317 330.752 149.379C323.745 153.621 315.885 154.12 312.663 154.12C312.184 154.12 311.81 154.099 311.561 154.099C311.311 154.079 311.165 154.079 311.165 154.079C311.041 154.079 310.916 154.162 310.916 154.307C310.895 154.432 310.999 154.557 311.145 154.557H311.124Z" fill="url(#paint28_linear_333_1245)"/>
<path fill-rule="evenodd" clip-rule="evenodd" d="M273.385 71.7393L273.302 72.4671C279.852 73.278 285.258 78.4554 286.339 84.9843C286.484 85.8576 286.547 86.7309 286.547 87.5626C286.547 90.8063 285.528 93.7797 283.823 96.254L283.553 96.6283L288.522 105.403C288.564 105.465 288.564 105.528 288.564 105.569C288.564 105.632 288.522 105.715 288.46 105.777C288.397 105.839 288.314 105.881 288.252 105.881C288.21 105.881 288.169 105.881 288.085 105.839L279.332 100.517L278.957 100.745C276.712 102.055 274.092 102.824 271.306 102.824C270.599 102.824 269.85 102.783 269.123 102.679C262.406 101.722 257 96.2332 256.189 89.4963C256.106 88.8518 256.085 88.228 256.085 87.6042C256.085 83.4041 257.79 79.599 260.535 76.8336C263.301 74.0681 267.085 72.3839 271.306 72.3631C271.95 72.3631 272.616 72.4047 273.281 72.4879L273.364 71.7601L273.447 71.0324C272.72 70.9492 271.992 70.8868 271.285 70.8868C262.074 70.8868 254.588 78.3514 254.588 87.5834C254.588 88.2696 254.63 88.9557 254.713 89.6419C255.607 97.0649 261.492 103.053 268.894 104.114C269.705 104.218 270.495 104.28 271.285 104.28C274.341 104.28 277.211 103.448 279.664 102.014L279.29 101.39L278.916 102.014L287.295 107.108C287.586 107.295 287.919 107.378 288.21 107.378C288.709 107.378 289.146 107.17 289.458 106.858C289.77 106.546 289.978 106.11 289.978 105.611C289.978 105.32 289.894 105.008 289.749 104.737L285.008 96.358L284.364 96.7114L284.967 97.1273C286.859 94.4242 287.961 91.139 287.961 87.6042C287.961 86.6685 287.878 85.7329 287.732 84.7764C286.547 77.6029 280.642 71.9473 273.427 71.0532L273.343 71.7809L273.385 71.7393Z" fill="url(#paint29_linear_333_1245)"/>
<path fill-rule="evenodd" clip-rule="evenodd" d="M281.307 83.0922H261.367C260.847 83.0922 260.431 82.6763 260.431 82.1565C260.431 81.6367 260.847 81.2208 261.367 81.2208H281.307C281.827 81.2208 282.243 81.6367 282.243 82.1565C282.243 82.6763 281.827 83.0922 281.307 83.0922Z" fill="url(#paint30_linear_333_1245)"/>
<path fill-rule="evenodd" clip-rule="evenodd" d="M281.307 88.9973H261.367C260.847 88.9973 260.431 88.5815 260.431 88.0617C260.431 87.5418 260.847 87.126 261.367 87.126H281.307C281.827 87.126 282.243 87.5418 282.243 88.0617C282.243 88.5815 281.827 88.9973 281.307 88.9973Z" fill="url(#paint31_linear_333_1245)"/>
<path fill-rule="evenodd" clip-rule="evenodd" d="M270.391 94.9025H261.346C260.826 94.9025 260.41 94.4866 260.41 93.9668C260.41 93.447 260.826 93.0311 261.346 93.0311H270.391C270.911 93.0311 271.327 93.447 271.327 93.9668C271.327 94.4866 270.911 94.9025 270.391 94.9025Z" fill="url(#paint32_linear_333_1245)"/>
<path fill-rule="evenodd" clip-rule="evenodd" d="M104.111 239.932C102.261 244.86 101.346 249.767 101.346 254.279C101.346 260.309 102.968 265.673 106.128 269.562C109.289 273.429 114.009 275.799 120.163 275.799C124.759 275.799 130.144 274.489 136.299 271.537C154.95 262.575 161.084 252.366 161.104 245.213C161.104 242.552 160.252 240.306 158.859 238.726C157.466 237.146 155.553 236.252 153.473 236.252C150.043 236.252 146.196 238.684 143.389 244.465C141.829 247.667 140.831 252.657 140.831 258.479C140.831 268.46 143.805 280.894 152.184 290.833C160.564 300.771 174.349 308.215 195.932 308.215C213.19 308.215 235.459 303.454 263.945 291.415C264.028 291.373 264.091 291.269 264.049 291.165C264.008 291.082 263.904 291.02 263.8 291.061C235.334 303.079 213.128 307.841 195.932 307.841C174.453 307.841 160.792 300.439 152.475 290.583C144.158 280.727 141.206 268.376 141.206 258.458C141.206 252.678 142.204 247.729 143.722 244.61C146.487 238.913 150.23 236.605 153.473 236.605C157.424 236.605 160.73 240.036 160.73 245.213C160.73 252.158 154.742 262.284 136.132 271.204C130.019 274.136 124.675 275.446 120.163 275.446C114.113 275.446 109.518 273.138 106.419 269.354C103.321 265.569 101.72 260.267 101.72 254.3C101.72 249.808 102.614 244.964 104.465 240.077C104.507 239.973 104.444 239.87 104.361 239.849C104.257 239.807 104.153 239.87 104.132 239.953L104.111 239.932Z" fill="url(#paint33_linear_333_1245)"/>
<path fill-rule="evenodd" clip-rule="evenodd" d="M187.137 77.2078C188.863 56.6854 206.952 41.5067 223.483 41.5275C230.344 41.5275 236.915 44.1266 241.988 50.0317C244.109 52.5061 244.941 55.0428 244.941 57.4547C244.941 60.8232 243.298 63.9421 241.136 66.2085C238.973 68.4957 236.312 69.9096 234.336 69.9096C233.442 69.9096 232.715 69.6393 232.195 69.0363C231.446 68.1838 231.093 66.9778 231.072 65.5015C231.072 60.4073 235.48 52.215 242.799 45.3326C250.118 38.4502 260.327 32.8569 271.888 32.8569C277.71 32.8569 283.885 34.2708 290.227 37.66C296.465 40.9869 299.293 47.5366 299.293 53.6705C299.293 57.1428 298.378 60.4905 296.694 63.0272C293.824 67.3313 289.125 69.3898 285.632 69.3898C283.719 69.3898 282.201 68.766 281.536 67.6224C281.245 67.1234 281.12 66.6451 281.12 66.1877C281.12 65.5223 281.411 64.8985 281.931 64.2955C283.532 62.5282 287.42 61.2806 291.932 61.2806C296.735 61.2806 302.245 62.6737 306.55 66.2293C310.854 69.7848 313.952 75.482 313.973 84.1734C313.973 84.5269 313.973 84.9012 313.952 85.2754C313.952 85.3794 314.035 85.4626 314.139 85.4626C314.243 85.4626 314.326 85.3794 314.326 85.2754C314.347 84.9012 314.347 84.5269 314.347 84.1526C314.347 75.3781 311.186 69.5561 306.799 65.9382C302.412 62.3202 296.819 60.9063 291.953 60.9063C288.896 60.9063 286.131 61.4677 284.093 62.3826C283.075 62.8401 282.264 63.4015 281.681 64.046C281.099 64.6906 280.767 65.3976 280.767 66.1877C280.767 66.7075 280.912 67.2481 281.245 67.7887C282.014 69.0987 283.678 69.7225 285.653 69.7225C289.271 69.7225 294.074 67.6224 297.026 63.1935C298.773 60.5736 299.688 57.1636 299.688 53.6289C299.688 47.391 296.819 40.7166 290.435 37.3066C284.052 33.8966 277.814 32.4619 271.93 32.4619C260.244 32.4619 249.952 38.0967 242.591 45.0415C235.23 51.9862 230.76 60.1994 230.76 65.4807C230.76 67.0194 231.134 68.3085 231.966 69.2442C232.569 69.9304 233.421 70.2423 234.378 70.2423C236.52 70.2423 239.243 68.766 241.447 66.4372C243.651 64.1084 245.336 60.9063 245.336 57.4339C245.336 54.9388 244.462 52.2981 242.279 49.7614C237.143 43.7731 230.448 41.1324 223.503 41.1324C206.765 41.1324 188.551 56.4359 186.783 77.1455C186.783 77.2494 186.846 77.3326 186.95 77.3534C187.054 77.3534 187.137 77.291 187.158 77.187L187.137 77.2078Z" fill="url(#paint34_linear_333_1245)"/>
<path fill-rule="evenodd" clip-rule="evenodd" d="M398.37 59.9291H399.119V25.6627H398.37V59.9291Z" fill="url(#paint35_linear_333_1245)"/>
<path fill-rule="evenodd" clip-rule="evenodd" d="M409.391 67.0402C402.924 64.7322 400.72 58.7231 400.72 58.7231H396.79C396.79 58.7231 394.586 64.7322 388.12 67.0402C381.653 69.3482 364.083 70.97 364.083 77.4366H433.448C433.448 70.97 415.878 69.3482 409.411 67.0402H409.391Z" fill="url(#paint36_linear_333_1245)"/>
<path fill-rule="evenodd" clip-rule="evenodd" d="M422.261 291.124C422.261 301.25 414.048 309.463 403.922 309.463C393.796 309.463 385.583 301.25 385.583 291.124C385.583 280.998 393.796 272.784 403.922 272.784C414.048 272.784 422.261 280.998 422.261 291.124Z" fill="url(#paint37_linear_333_1245)"/>
<path fill-rule="evenodd" clip-rule="evenodd" d="M416.626 291.02C416.626 301.146 408.413 309.359 398.287 309.359C388.161 309.359 379.948 301.146 379.948 291.02C379.948 280.894 388.161 272.68 398.287 272.68C408.413 272.68 416.626 280.894 416.626 291.02Z" fill="url(#paint38_linear_333_1245)"/>
<path d="M413.175 291.02C413.175 299.233 406.5 305.907 398.287 305.907C390.053 305.907 383.399 299.233 383.399 291.02C383.399 282.786 390.074 276.132 398.287 276.132C406.521 276.132 413.175 282.807 413.175 291.02Z" fill="#FEFEFE"/>
<path fill-rule="evenodd" clip-rule="evenodd" d="M400.886 291.02C400.886 292.454 399.722 293.619 398.287 293.619C396.853 293.619 395.688 292.454 395.688 291.02C395.688 289.585 396.853 288.421 398.287 288.421C399.722 288.421 400.886 289.585 400.886 291.02Z" fill="url(#paint39_linear_333_1245)"/>
<path d="M399.077 291.02C399.077 291.456 398.724 291.81 398.287 291.81C397.85 291.81 397.497 291.456 397.497 291.02C397.497 290.583 397.85 290.229 398.287 290.229C398.724 290.229 399.077 290.583 399.077 291.02Z" fill="#242222"/>
<path d="M398.287 278.44C397.871 278.44 397.518 278.107 397.518 277.671V274.614C397.518 274.198 397.851 273.845 398.287 273.845C398.703 273.845 399.056 274.198 399.056 274.614V277.671C399.056 278.087 398.724 278.44 398.287 278.44Z" fill="#FEFEFE"/>
<path d="M410.888 291.02C410.888 290.604 411.241 290.25 411.657 290.25H414.713C415.129 290.25 415.483 290.604 415.483 291.02C415.483 291.435 415.129 291.789 414.713 291.789H411.657C411.241 291.789 410.888 291.456 410.888 291.02Z" fill="#FEFEFE"/>
<path d="M398.287 303.62C398.703 303.62 399.056 303.974 399.056 304.389V307.446C399.056 307.862 398.724 308.215 398.287 308.215C397.871 308.215 397.518 307.883 397.518 307.446V304.389C397.518 303.974 397.851 303.62 398.287 303.62Z" fill="#FEFEFE"/>
<path d="M385.687 291.02C385.687 291.435 385.333 291.789 384.917 291.789H381.861C381.445 291.789 381.092 291.456 381.092 291.02C381.092 290.604 381.424 290.25 381.861 290.25H384.917C385.333 290.25 385.687 290.604 385.687 291.02Z" fill="#FEFEFE"/>
<path d="M398.474 290.77L390.386 284.387C390.24 284.283 390.053 284.304 389.949 284.449C389.845 284.595 389.866 284.782 390.012 284.886L398.1 291.269C398.246 291.373 398.433 291.352 398.537 291.207C398.641 291.061 398.62 290.874 398.474 290.77Z" fill="#242222"/>
<path d="M394.253 298.048L398.828 291.373C399.015 291.082 398.953 290.687 398.662 290.5C398.37 290.292 397.975 290.375 397.788 290.666L393.214 297.341C393.027 297.632 393.089 298.027 393.38 298.214C393.671 298.422 394.066 298.339 394.253 298.048Z" fill="#242222"/>
<path d="M389.658 314.266H385.125L388.473 306.115L394.191 307.675L389.658 314.266Z" fill="#242222"/>
<path d="M412.717 314.266H417.25L413.902 306.115L408.184 307.675L412.717 314.266Z" fill="#242222"/>
<path d="M191.129 314.266H216.205L221.258 253.759H186.076L191.129 314.266Z" fill="#FEFEFE"/>
<path d="M191.129 314.266V314.64H216.538L221.653 253.385H185.681L190.796 314.64H191.129V314.266L191.483 314.245L186.472 254.113H220.863L215.872 313.892H191.129V314.266L191.483 314.245L191.129 314.266Z" fill="#242222"/>
<path d="M220.468 263.303C219.137 263.49 217.64 263.844 216.101 264.467C214.562 265.091 212.982 266.027 211.652 267.378C210.321 268.73 209.24 270.539 208.72 272.784C208.47 273.845 208.345 274.864 208.345 275.841C208.345 277.192 208.595 278.461 209.011 279.604C209.759 281.601 211.069 283.181 212.504 284.408C214.396 286.009 216.579 287.069 218.43 287.755L218.742 283.929C218.284 283.721 217.806 283.493 217.328 283.243C215.893 282.474 214.521 281.476 213.564 280.249C213.086 279.646 212.691 278.981 212.421 278.253C212.151 277.525 212.005 276.735 212.005 275.82C212.005 275.155 212.088 274.427 212.275 273.616C212.67 271.994 213.377 270.851 214.271 269.915C215.602 268.543 217.473 267.711 219.282 267.254C219.574 267.17 219.865 267.108 220.135 267.066L220.447 263.282L220.468 263.303Z" fill="#242222"/>
<path d="M187.469 270.56C188.842 270.851 190.38 271.287 191.898 271.974C194.019 272.909 196.036 274.282 197.512 276.236C198.989 278.191 199.987 280.748 199.987 284.408C199.987 284.803 199.966 285.198 199.945 285.593C199.758 288.649 198.739 291.04 197.263 293.016C195.288 295.677 192.418 297.569 189.84 298.796L190.173 302.664C191.295 302.185 192.522 301.582 193.77 300.855C196.036 299.503 198.386 297.673 200.236 295.199C202.087 292.725 203.438 289.585 203.646 285.801C203.667 285.322 203.688 284.844 203.688 284.387C203.688 279.979 202.378 276.465 200.361 273.886C198.864 271.932 196.993 270.497 195.1 269.437C192.314 267.898 189.424 267.129 187.178 266.734L187.49 270.539L187.469 270.56Z" fill="#242222"/>
<path d="M218.076 291.831C217.952 291.831 217.806 291.831 217.66 291.831C215.997 291.831 213.939 292.018 211.735 292.662C208.428 293.619 204.748 295.656 201.754 299.545C199.134 302.934 197.034 307.695 195.974 314.266H199.696C200.319 310.773 201.234 307.945 202.336 305.637C204.478 301.146 207.264 298.692 210.03 297.278C212.795 295.864 215.602 295.511 217.681 295.511H217.785L218.097 291.851L218.076 291.831Z" fill="#242222"/>
<path d="M201.837 258.978L205.497 258.666L203.896 240.285L186.284 230.055L184.434 233.216L200.403 242.489L201.837 258.978Z" fill="#242222"/>
<path fill-rule="evenodd" clip-rule="evenodd" d="M184.288 261.619H223.046V252.012H184.288V261.619Z" fill="url(#paint40_linear_333_1245)"/>
<path fill-rule="evenodd" clip-rule="evenodd" d="M182.77 66.7075H129.749C127.649 66.7075 125.965 65.0025 125.965 62.9025V25.6419C125.965 23.5418 127.67 21.8368 129.749 21.8368H182.77C184.87 21.8368 186.555 23.5418 186.555 25.6419V62.9025C186.555 65.0025 184.85 66.7075 182.77 66.7075ZM150.521 59.742C149.481 59.742 148.629 60.5945 148.629 61.6341C148.629 62.6737 149.481 63.5262 150.521 63.5262H181.232C182.271 63.5262 183.124 62.6737 183.124 61.6341C183.124 60.5945 182.271 59.742 181.232 59.742H150.521ZM132.327 32.753C130.996 32.753 129.936 33.8342 129.936 35.1441V61.1351C129.936 62.4658 131.017 63.5262 132.327 63.5262H143.68C145.011 63.5262 146.071 62.445 146.071 61.1351V35.1441C146.071 33.8134 144.99 32.753 143.68 32.753H132.327ZM150.521 54.0448C149.481 54.0448 148.629 54.8973 148.629 55.9369C148.629 56.9765 149.481 57.829 150.521 57.829H181.232C182.271 57.829 183.124 56.9765 183.124 55.9369C183.124 54.8973 182.271 54.0448 181.232 54.0448H150.521ZM150.521 48.3475C149.481 48.3475 148.629 49.2 148.629 50.2397C148.629 51.2793 149.481 52.1318 150.521 52.1318H181.232C182.271 52.1318 183.124 51.2793 183.124 50.2397C183.124 49.2 182.271 48.3475 181.232 48.3475H150.521ZM150.895 32.753C149.627 32.753 148.608 33.7718 148.608 35.0402V43.586C148.608 44.8544 149.627 45.8732 150.895 45.8732H180.837C182.084 45.8732 183.124 44.8544 183.124 43.586V35.0402C183.124 33.7718 182.105 32.753 180.837 32.753H150.895Z" fill="url(#paint41_linear_333_1245)"/>
<path fill-rule="evenodd" clip-rule="evenodd" d="M186.555 25.6419V30.2163H125.944V25.6419C125.944 23.5418 127.649 21.8368 129.728 21.8368H182.75C184.85 21.8368 186.534 23.5418 186.534 25.6419H186.555Z" fill="url(#paint42_linear_333_1245)"/>
<path fill-rule="evenodd" clip-rule="evenodd" d="M183.124 26.4736C183.124 27.6796 182.147 28.636 180.961 28.636C179.755 28.636 178.799 27.6588 178.799 26.4736C178.799 25.2676 179.776 24.3112 180.961 24.3112C182.167 24.3112 183.124 25.2884 183.124 26.4736Z" fill="url(#paint43_linear_333_1245)"/>
<path fill-rule="evenodd" clip-rule="evenodd" d="M176.138 26.4736C176.138 27.6796 175.16 28.636 173.975 28.636C172.769 28.636 171.813 27.6588 171.813 26.4736C171.813 25.2676 172.79 24.3112 173.975 24.3112C175.181 24.3112 176.138 25.2884 176.138 26.4736Z" fill="url(#paint44_linear_333_1245)"/>
<path fill-rule="evenodd" clip-rule="evenodd" d="M169.151 26.4736C169.151 27.6796 168.174 28.636 166.989 28.636C165.783 28.636 164.826 27.6588 164.826 26.4736C164.826 25.2676 165.803 24.3112 166.989 24.3112C168.195 24.3112 169.151 25.2884 169.151 26.4736Z" fill="url(#paint45_linear_333_1245)"/>
<path fill-rule="evenodd" clip-rule="evenodd" d="M71.654 285.489H62.9834C58.1803 273.575 61.7774 258.209 61.7774 258.209L71.654 285.489Z" fill="url(#paint46_linear_333_1245)"/>
<path fill-rule="evenodd" clip-rule="evenodd" d="M97.6033 287.838C88.6 280.062 91.0328 258.209 91.0328 258.209H61.7774C61.7774 258.209 59.3654 280.062 68.3479 287.838H97.6033Z" fill="url(#paint47_linear_333_1245)"/>
<path fill-rule="evenodd" clip-rule="evenodd" d="M64.0437 274.739L64.0645 274.697C64.1685 274.489 64.6259 273.471 65.3537 272.535C65.7072 272.057 66.1438 271.62 66.6012 271.287C67.0587 270.975 67.5577 270.767 68.0775 270.767C68.3894 270.767 68.7013 270.83 69.0548 270.996C69.4499 271.183 69.7409 271.454 69.9697 271.807C70.3855 272.452 70.635 273.367 70.7598 274.406C70.9677 275.945 70.9677 277.712 71.2172 279.126C71.342 279.833 71.5291 280.478 71.9034 280.956C72.2569 281.455 72.8391 281.767 73.546 281.767H73.5876C74.1698 281.746 74.6896 281.434 75.1055 280.956C75.854 280.124 76.4778 278.793 77.0808 277.255C77.9957 274.947 78.869 272.14 79.9502 269.936C80.47 268.834 81.0522 267.877 81.676 267.233C82.2998 266.588 82.9443 266.235 83.6513 266.235C83.8384 266.235 84.0256 266.255 84.2335 266.318C84.587 266.401 84.8365 266.588 85.0652 266.838C85.4395 267.274 85.6474 268.023 85.7722 268.896C85.9385 270.206 85.8761 271.786 86.0217 273.055C86.1048 273.699 86.2296 274.281 86.4999 274.739C86.6455 274.968 86.8326 275.176 87.0613 275.3C87.29 275.446 87.5811 275.508 87.893 275.508C87.9762 275.508 88.0594 275.508 88.1425 275.487C88.3505 275.467 88.496 275.28 88.4752 275.092C88.4544 274.884 88.2673 274.739 88.0802 274.76H87.9138C87.6227 274.76 87.4564 274.677 87.29 274.51C87.0197 274.24 86.8326 273.595 86.7494 272.764C86.6247 271.537 86.687 269.957 86.4791 268.563C86.3751 267.877 86.2088 267.233 85.8969 266.692C85.585 266.151 85.1068 265.736 84.4206 265.569C84.1711 265.507 83.9008 265.465 83.6513 265.465C82.9236 265.465 82.2374 265.756 81.676 266.214C80.6571 267.025 79.867 268.356 79.1393 269.915C78.058 272.244 77.1848 275.051 76.2907 277.276C75.8332 278.378 75.3758 279.355 74.9183 280.02C74.6896 280.353 74.4609 280.602 74.2322 280.769C74.0035 280.935 73.7955 280.998 73.5876 281.018H73.546C73.151 281.018 72.9014 280.914 72.6935 280.727C72.3193 280.395 72.0697 279.708 71.9242 278.793C71.6955 277.442 71.7163 275.654 71.4667 274.053C71.342 273.242 71.1549 272.493 70.843 271.828C70.5311 271.183 70.0528 270.622 69.3667 270.31C68.93 270.102 68.4934 269.998 68.0775 269.998C67.329 269.998 66.6428 270.31 66.0814 270.726C64.3764 271.994 63.3992 274.385 63.3784 274.406C63.2952 274.593 63.3784 274.801 63.5655 274.884C63.7526 274.968 63.9606 274.884 64.0437 274.697V274.739Z" fill="url(#paint48_linear_333_1245)"/>
<path fill-rule="evenodd" clip-rule="evenodd" d="M360.32 25.9953C360.32 40.1136 348.883 51.5496 334.765 51.5496C320.647 51.5496 309.211 40.1136 309.211 25.9953C309.211 11.8771 320.647 0.44104 334.765 0.44104C348.883 0.44104 360.32 11.8771 360.32 25.9953Z" fill="url(#paint49_linear_333_1245)"/>
<path d="M356.868 25.9953C356.868 38.2214 346.971 48.1188 334.744 48.1188C322.518 48.1188 312.621 38.2214 312.621 25.9953C312.621 13.7692 322.518 3.87183 334.744 3.87183C346.971 3.87183 356.868 13.7692 356.868 25.9953Z" fill="#FEFEFE"/>
<path fill-rule="evenodd" clip-rule="evenodd" d="M315.054 24.6646C315.782 24.6646 316.384 25.2676 316.384 25.9953C316.384 26.7439 315.782 27.3261 315.054 27.3261C314.305 27.3261 313.723 26.7231 313.723 25.9953C313.723 25.2468 314.326 24.6646 315.054 24.6646Z" fill="url(#paint50_linear_333_1245)"/>
<path fill-rule="evenodd" clip-rule="evenodd" d="M336.075 6.30455C336.075 7.05309 335.472 7.63529 334.744 7.63529C333.996 7.63529 333.414 7.0323 333.414 6.30455C333.414 5.55601 334.017 4.97382 334.744 4.97382C335.493 4.97382 336.075 5.57681 336.075 6.30455Z" fill="url(#paint51_linear_333_1245)"/>
<path fill-rule="evenodd" clip-rule="evenodd" d="M354.435 27.3468C353.687 27.3468 353.104 26.7438 353.104 26.0161C353.104 25.2676 353.707 24.6854 354.435 24.6854C355.184 24.6854 355.766 25.2884 355.766 26.0161C355.766 26.7646 355.163 27.3468 354.435 27.3468Z" fill="url(#paint52_linear_333_1245)"/>
<path fill-rule="evenodd" clip-rule="evenodd" d="M333.414 45.6861C333.414 44.9583 334.017 44.3553 334.744 44.3553C335.493 44.3553 336.075 44.9583 336.075 45.6861C336.075 46.4346 335.472 47.0168 334.744 47.0168C333.996 47.0168 333.414 46.4138 333.414 45.6861Z" fill="url(#paint53_linear_333_1245)"/>
<path fill-rule="evenodd" clip-rule="evenodd" d="M334.745 29.6964C332.707 29.6964 331.064 28.0538 331.064 26.0161C331.064 23.9784 332.707 22.3358 334.745 22.3358C336.782 22.3358 338.425 23.9784 338.425 26.0161C338.425 28.0538 336.782 29.6964 334.745 29.6964Z" fill="url(#paint54_linear_333_1245)"/>
<path d="M334.744 28.4073C333.414 28.4073 332.333 27.3261 332.333 25.9953C332.333 24.6646 333.414 23.5834 334.744 23.5834C336.075 23.5834 337.156 24.6646 337.156 25.9953C337.156 27.3261 336.075 28.4073 334.744 28.4073Z" fill="#242222"/>
<path d="M324.286 17.3456L333.351 27.5964L334.745 25.9953L336.138 24.3943L324.743 16.805C324.39 16.5762 324.015 17.0337 324.286 17.3248V17.3456Z" fill="#242222"/>
<path d="M334.495 25.7458L322.518 37.7432C322.373 37.8888 322.373 38.1175 322.518 38.2631C322.664 38.4086 322.893 38.4086 323.038 38.2631L335.015 26.2656C335.16 26.1201 335.16 25.8914 335.015 25.7458C334.869 25.6003 334.641 25.6003 334.495 25.7458Z" fill="#242222"/>
<path d="M0.168457 102.7H40.8599V62.0084H0.168457V102.7Z" fill="#242222"/>
<path d="M36.4934 70.7829L32.0853 66.3956L20.5246 77.9564L8.94299 66.3956L4.55573 70.7829L16.1165 82.3645L4.55573 93.946L8.94299 98.3333L20.5246 86.7517L32.0853 98.3333L36.4934 93.946L24.9118 82.3645L36.4934 70.7829Z" fill="#FEFEFE"/>
<path d="M0.168457 160.005H47.3472V136.675H0.168457V160.005Z" fill="#242222"/>
<path d="M9.81629 150.419C10.1074 149.982 10.2529 149.317 10.2529 148.402C10.2529 147.487 10.1074 146.822 9.81629 146.385C9.52519 145.949 9.13013 145.741 8.6311 145.741C8.13207 145.741 7.73701 145.949 7.44591 146.385C7.15482 146.822 7.00927 147.487 7.00927 148.402C7.00927 149.317 7.15482 149.982 7.44591 150.419C7.73701 150.856 8.13207 151.064 8.6311 151.064C9.13013 151.064 9.52519 150.856 9.81629 150.419ZM6.78055 152.186C6.23993 151.854 5.82408 151.355 5.51219 150.71C5.2003 150.066 5.05475 149.296 5.05475 148.402C5.05475 147.508 5.2003 146.739 5.51219 146.094C5.82408 145.45 6.23993 144.951 6.78055 144.618C7.32116 144.285 7.92415 144.119 8.61031 144.119C9.29647 144.119 9.92025 144.285 10.4401 144.618C10.9807 144.951 11.3965 145.45 11.7084 146.094C12.0203 146.739 12.1659 147.508 12.1659 148.402C12.1659 149.296 12.0203 150.066 11.7084 150.71C11.3965 151.355 10.9807 151.854 10.4401 152.186C9.89946 152.519 9.29647 152.706 8.61031 152.706C7.92415 152.706 7.32116 152.54 6.78055 152.186Z" fill="#FEFEFE"/>
<path d="M15.6383 145.803C15.4096 145.99 15.2848 146.24 15.2848 146.572C15.2848 146.884 15.4096 147.134 15.6383 147.321C15.867 147.508 16.1789 147.591 16.574 147.591C16.969 147.591 17.2809 147.508 17.5304 147.321C17.7591 147.134 17.8839 146.884 17.8839 146.572C17.8839 146.24 17.7591 145.99 17.5304 145.803C17.3017 145.616 16.969 145.533 16.574 145.533C16.1789 145.533 15.867 145.616 15.6383 145.803ZM17.7176 150.96C17.9879 150.752 18.1334 150.461 18.1334 150.086C18.1334 149.733 17.9879 149.442 17.7176 149.213C17.4472 149.005 17.0522 148.901 16.574 148.901C16.0957 148.901 15.7214 149.005 15.4511 149.213C15.1808 149.421 15.0353 149.712 15.0353 150.086C15.0353 150.461 15.1808 150.752 15.4511 150.96C15.7214 151.168 16.0957 151.272 16.574 151.272C17.0522 151.272 17.4265 151.168 17.7176 150.939V150.96ZM19.7552 149.005C19.9632 149.338 20.0879 149.712 20.0879 150.149C20.0879 150.669 19.9424 151.105 19.6513 151.5C19.3602 151.875 18.9443 152.186 18.4245 152.394C17.9047 152.602 17.2809 152.706 16.5947 152.706C15.9086 152.706 15.2848 152.602 14.765 152.394C14.2452 152.186 13.8293 151.895 13.5382 151.5C13.2471 151.126 13.1016 150.669 13.1016 150.149C13.1016 149.712 13.2055 149.338 13.4342 149.005C13.6422 148.673 13.9541 148.402 14.3699 148.194C14.058 148.007 13.8293 147.758 13.663 147.487C13.4966 147.196 13.4135 146.864 13.4135 146.489C13.4135 146.011 13.5382 145.595 13.8085 145.242C14.0788 144.888 14.4531 144.618 14.9313 144.41C15.4096 144.223 15.971 144.119 16.5947 144.119C17.2185 144.119 17.7799 144.223 18.279 144.41C18.7572 144.597 19.1523 144.888 19.4018 145.242C19.6721 145.595 19.7968 146.011 19.7968 146.489C19.7968 146.864 19.7137 147.196 19.5473 147.487C19.381 147.778 19.1315 148.007 18.8196 148.194C19.2354 148.402 19.5473 148.673 19.7552 149.005Z" fill="#FEFEFE"/>
<path d="M29.6733 149.317L28.3634 146.136L27.0535 149.317H29.6941H29.6733ZM30.2763 150.773H26.4297L25.7019 152.54H23.7266L27.4277 144.244H29.3199L33.021 152.54H31.0041L30.2763 150.773Z" fill="#FEFEFE"/>
<path d="M41.4421 152.561V147.571L38.9886 151.667H38.1361L35.7033 147.674V152.561H33.8943V144.264H35.4954L38.5935 149.421L41.65 144.264H43.2303L43.2511 152.561H41.4421Z" fill="#FEFEFE"/>
<path d="M79.867 25.5171L76.4986 22.1487L79.867 18.801L83.2147 22.1487L79.867 25.5171Z" fill="#242222"/>
<path d="M68.6181 25.5171L65.2705 22.1487L68.6181 18.801L71.9866 22.1487L68.6181 25.5171Z" fill="#242222"/>
<path d="M57.3901 25.5171L54.0424 22.1487L57.3901 18.801L60.7585 22.1487L57.3901 25.5171Z" fill="#242222"/>
<path d="M46.1621 25.5171L42.7936 22.1487L46.1621 18.801L49.5097 22.1487L46.1621 25.5171Z" fill="#242222"/>
<path d="M130.747 301.042L127.399 297.694L130.747 294.346L134.115 297.694L130.747 301.042Z" fill="#242222"/>
<path d="M119.519 301.042L116.171 297.694L119.519 294.346L122.866 297.694L119.519 301.042Z" fill="#242222"/>
<path d="M108.291 301.042L104.922 297.694L108.291 294.346L111.638 297.694L108.291 301.042Z" fill="#242222"/>
<path d="M97.0418 301.042L93.6942 297.694L97.0418 294.346L100.41 297.694L97.0418 301.042Z" fill="#242222"/>
<path d="M29.6941 248.935L27.4901 246.71L29.6941 244.506L31.8982 246.71L29.6941 248.935Z" fill="#242222"/>
<path d="M22.2919 248.935L20.0879 246.71L22.2919 244.506L24.496 246.71L22.2919 248.935Z" fill="#242222"/>
<path d="M14.9105 248.935L12.6857 246.71L14.9105 244.506L17.1145 246.71L14.9105 248.935Z" fill="#242222"/>
<path d="M453.783 124.906L447.566 118.689L453.783 112.472L460 118.689L453.783 124.906Z" fill="#242222"/>
<path d="M432.969 124.906L426.752 118.689L432.969 112.472L439.187 118.689L432.969 124.906Z" fill="#242222"/>
<path d="M412.156 124.906L405.939 118.689L412.156 112.472L418.373 118.689L412.156 124.906Z" fill="#242222"/>
<path d="M391.342 124.906L385.125 118.689L391.342 112.472L397.559 118.689L391.342 124.906Z" fill="#242222"/>
<defs>
<linearGradient id="paint0_linear_333_1245" x1="99.7657" y1="75.4405" x2="99.7657" y2="184.831" gradientUnits="userSpaceOnUse">
<stop stop-color="#7094CC"/>
<stop offset="0.0117647" stop-color="#7094CC"/>
<stop offset="1" stop-color="#576CB1"/>
</linearGradient>
<linearGradient id="paint1_linear_333_1245" x1="96.3764" y1="195.664" x2="96.3764" y2="141.291" gradientUnits="userSpaceOnUse">
<stop stop-color="#F49F0A"/>
<stop offset="1" stop-color="#FCCD00"/>
</linearGradient>
<linearGradient id="paint2_linear_333_1245" x1="90.908" y1="164.641" x2="97.1666" y2="93.5094" gradientUnits="userSpaceOnUse">
<stop stop-color="#A1565D"/>
<stop offset="1" stop-color="#B27C66"/>
</linearGradient>
<linearGradient id="paint3_linear_333_1245" x1="314.867" y1="261.702" x2="314.867" y2="131.165" gradientUnits="userSpaceOnUse">
<stop stop-color="#4C4999"/>
<stop offset="0.0117647" stop-color="#4C4999"/>
<stop offset="1" stop-color="#5555A1"/>
</linearGradient>
<linearGradient id="paint4_linear_333_1245" x1="314.867" y1="261.702" x2="314.867" y2="131.165" gradientUnits="userSpaceOnUse">
<stop stop-color="#4C4999"/>
<stop offset="0.0117647" stop-color="#4C4999"/>
<stop offset="1" stop-color="#5555A1"/>
</linearGradient>
<linearGradient id="paint5_linear_333_1245" x1="314.867" y1="261.702" x2="314.867" y2="131.165" gradientUnits="userSpaceOnUse">
<stop stop-color="#4C4999"/>
<stop offset="0.0117647" stop-color="#4C4999"/>
<stop offset="1" stop-color="#5555A1"/>
</linearGradient>
<linearGradient id="paint6_linear_333_1245" x1="312.184" y1="313.996" x2="312.184" y2="278.939" gradientUnits="userSpaceOnUse">
<stop stop-color="#4C4999"/>
<stop offset="0.0117647" stop-color="#4C4999"/>
<stop offset="1" stop-color="#5555A1"/>
</linearGradient>
<linearGradient id="paint7_linear_333_1245" x1="312.184" y1="313.996" x2="312.184" y2="278.939" gradientUnits="userSpaceOnUse">
<stop stop-color="#4C4999"/>
<stop offset="0.0117647" stop-color="#4C4999"/>
<stop offset="1" stop-color="#5555A1"/>
</linearGradient>
<linearGradient id="paint8_linear_333_1245" x1="388.556" y1="188.345" x2="388.556" y2="145.762" gradientUnits="userSpaceOnUse">
<stop stop-color="#F49F0A"/>
<stop offset="1" stop-color="#FCCD00"/>
</linearGradient>
<linearGradient id="paint9_linear_333_1245" x1="235.293" y1="135.843" x2="276.962" y2="180.361" gradientUnits="userSpaceOnUse">
<stop stop-color="#FAD6C0"/>
<stop offset="1" stop-color="#F6B999"/>
</linearGradient>
<linearGradient id="paint10_linear_333_1245" x1="338.758" y1="102.325" x2="346.721" y2="102.325" gradientUnits="userSpaceOnUse">
<stop stop-color="#F09EC1"/>
<stop offset="0.988235" stop-color="#ED85B2"/>
<stop offset="1" stop-color="#ED85B2"/>
</linearGradient>
<linearGradient id="paint11_linear_333_1245" x1="336.491" y1="103.677" x2="347.054" y2="103.677" gradientUnits="userSpaceOnUse">
<stop stop-color="#F09EC1"/>
<stop offset="0.988235" stop-color="#ED85B2"/>
<stop offset="1" stop-color="#ED85B2"/>
</linearGradient>
<linearGradient id="paint12_linear_333_1245" x1="301.871" y1="215.459" x2="301.871" y2="267.17" gradientUnits="userSpaceOnUse">
<stop stop-color="#7094CC"/>
<stop offset="0.0117647" stop-color="#7094CC"/>
<stop offset="1" stop-color="#576CB1"/>
</linearGradient>
<linearGradient id="paint13_linear_333_1245" x1="321.874" y1="215.459" x2="321.874" y2="267.17" gradientUnits="userSpaceOnUse">
<stop stop-color="#7094CC"/>
<stop offset="0.0117647" stop-color="#7094CC"/>
<stop offset="1" stop-color="#576CB1"/>
</linearGradient>
<linearGradient id="paint14_linear_333_1245" x1="322.477" y1="215.459" x2="322.477" y2="267.17" gradientUnits="userSpaceOnUse">
<stop stop-color="#7094CC"/>
<stop offset="0.0117647" stop-color="#7094CC"/>
<stop offset="1" stop-color="#576CB1"/>
</linearGradient>
<linearGradient id="paint15_linear_333_1245" x1="292.785" y1="141.79" x2="283.678" y2="200.883" gradientUnits="userSpaceOnUse">
<stop stop-color="#F09EC1"/>
<stop offset="0.988235" stop-color="#ED85B2"/>
<stop offset="1" stop-color="#ED85B2"/>
</linearGradient>
<linearGradient id="paint16_linear_333_1245" x1="292.785" y1="141.374" x2="283.678" y2="201.174" gradientUnits="userSpaceOnUse">
<stop stop-color="#F09EC1"/>
<stop offset="0.988235" stop-color="#ED85B2"/>
<stop offset="1" stop-color="#ED85B2"/>
</linearGradient>
<linearGradient id="paint17_linear_333_1245" x1="324.369" y1="146.053" x2="315.74" y2="205.853" gradientUnits="userSpaceOnUse">
<stop stop-color="#F09EC1"/>
<stop offset="0.988235" stop-color="#ED85B2"/>
<stop offset="1" stop-color="#ED85B2"/>
</linearGradient>
<linearGradient id="paint18_linear_333_1245" x1="323.911" y1="146.053" x2="314.95" y2="205.853" gradientUnits="userSpaceOnUse">
<stop stop-color="#F09EC1"/>
<stop offset="0.988235" stop-color="#ED85B2"/>
<stop offset="1" stop-color="#ED85B2"/>
</linearGradient>
<linearGradient id="paint19_linear_333_1245" x1="323.558" y1="151.75" x2="314.451" y2="206.102" gradientUnits="userSpaceOnUse">
<stop stop-color="#F09EC1"/>
<stop offset="0.988235" stop-color="#ED85B2"/>
<stop offset="1" stop-color="#ED85B2"/>
</linearGradient>
<linearGradient id="paint20_linear_333_1245" x1="302.994" y1="212.485" x2="302.162" y2="218.099" gradientUnits="userSpaceOnUse">
<stop stop-color="#F4A028"/>
<stop offset="1" stop-color="#F8B600"/>
</linearGradient>
<linearGradient id="paint21_linear_333_1245" x1="316.135" y1="97.9589" x2="324.618" y2="171.149" gradientUnits="userSpaceOnUse">
<stop stop-color="#FAD6C0"/>
<stop offset="1" stop-color="#F6B999"/>
</linearGradient>
<linearGradient id="paint22_linear_333_1245" x1="283.553" y1="216.332" x2="344.579" y2="195.955" gradientUnits="userSpaceOnUse">
<stop stop-color="#FAD6C0"/>
<stop offset="1" stop-color="#F6B999"/>
</linearGradient>
<linearGradient id="paint23_linear_333_1245" x1="348.759" y1="151.334" x2="339.839" y2="208.868" gradientUnits="userSpaceOnUse">
<stop stop-color="#F09EC1"/>
<stop offset="0.988235" stop-color="#ED85B2"/>
<stop offset="1" stop-color="#ED85B2"/>
</linearGradient>
<linearGradient id="paint24_linear_333_1245" x1="348.301" y1="151.396" x2="339.215" y2="209.866" gradientUnits="userSpaceOnUse">
<stop stop-color="#F09EC1"/>
<stop offset="0.988235" stop-color="#ED85B2"/>
<stop offset="1" stop-color="#ED85B2"/>
</linearGradient>
<linearGradient id="paint25_linear_333_1245" x1="348.301" y1="151.085" x2="339.215" y2="209.886" gradientUnits="userSpaceOnUse">
<stop stop-color="#F09EC1"/>
<stop offset="0.988235" stop-color="#ED85B2"/>
<stop offset="1" stop-color="#ED85B2"/>
</linearGradient>
<linearGradient id="paint26_linear_333_1245" x1="348.301" y1="151.126" x2="339.215" y2="209.928" gradientUnits="userSpaceOnUse">
<stop stop-color="#F09EC1"/>
<stop offset="0.988235" stop-color="#ED85B2"/>
<stop offset="1" stop-color="#ED85B2"/>
</linearGradient>
<linearGradient id="paint27_linear_333_1245" x1="348.53" y1="149.858" x2="339.423" y2="209.678" gradientUnits="userSpaceOnUse">
<stop stop-color="#F09EC1"/>
<stop offset="0.988235" stop-color="#ED85B2"/>
<stop offset="1" stop-color="#ED85B2"/>
</linearGradient>
<linearGradient id="paint28_linear_333_1245" x1="348.468" y1="149.899" x2="339.381" y2="209.325" gradientUnits="userSpaceOnUse">
<stop stop-color="#F09EC1"/>
<stop offset="0.988235" stop-color="#ED85B2"/>
<stop offset="1" stop-color="#ED85B2"/>
</linearGradient>
<linearGradient id="paint29_linear_333_1245" x1="254.63" y1="89.1221" x2="290.04" y2="89.1221" gradientUnits="userSpaceOnUse">
<stop stop-color="#7598CF"/>
<stop offset="0.0117647" stop-color="#7598CF"/>
<stop offset="1" stop-color="#576CB1"/>
</linearGradient>
<linearGradient id="paint30_linear_333_1245" x1="260.41" y1="82.1565" x2="282.222" y2="82.1565" gradientUnits="userSpaceOnUse">
<stop stop-color="#7598CF"/>
<stop offset="0.0117647" stop-color="#7598CF"/>
<stop offset="1" stop-color="#576CB1"/>
</linearGradient>
<linearGradient id="paint31_linear_333_1245" x1="260.41" y1="88.0617" x2="282.222" y2="88.0617" gradientUnits="userSpaceOnUse">
<stop stop-color="#7598CF"/>
<stop offset="0.0117647" stop-color="#7598CF"/>
<stop offset="1" stop-color="#576CB1"/>
</linearGradient>
<linearGradient id="paint32_linear_333_1245" x1="260.41" y1="93.9668" x2="271.327" y2="93.9668" gradientUnits="userSpaceOnUse">
<stop stop-color="#7598CF"/>
<stop offset="0.0117647" stop-color="#7598CF"/>
<stop offset="1" stop-color="#576CB1"/>
</linearGradient>
<linearGradient id="paint33_linear_333_1245" x1="260.39" y1="93.9668" x2="271.306" y2="93.9668" gradientUnits="userSpaceOnUse">
<stop stop-color="#7598CF"/>
<stop offset="0.0117647" stop-color="#7598CF"/>
<stop offset="1" stop-color="#576CB1"/>
</linearGradient>
<linearGradient id="paint34_linear_333_1245" x1="260.41" y1="93.9668" x2="271.327" y2="93.9668" gradientUnits="userSpaceOnUse">
<stop stop-color="#7598CF"/>
<stop offset="0.0117647" stop-color="#7598CF"/>
<stop offset="1" stop-color="#576CB1"/>
</linearGradient>
<linearGradient id="paint35_linear_333_1245" x1="260.411" y1="93.9668" x2="271.327" y2="93.9668" gradientUnits="userSpaceOnUse">
<stop stop-color="#7598CF"/>
<stop offset="0.0117647" stop-color="#7598CF"/>
<stop offset="1" stop-color="#576CB1"/>
</linearGradient>
<linearGradient id="paint36_linear_333_1245" x1="398.745" y1="80.5347" x2="398.745" y2="63.6718" gradientUnits="userSpaceOnUse">
<stop stop-color="#F49F0A"/>
<stop offset="1" stop-color="#FCCD00"/>
</linearGradient>
<linearGradient id="paint37_linear_333_1245" x1="385.562" y1="291.124" x2="422.261" y2="291.124" gradientUnits="userSpaceOnUse">
<stop stop-color="#F49F0A"/>
<stop offset="1" stop-color="#FCCD00"/>
</linearGradient>
<linearGradient id="paint38_linear_333_1245" x1="385.562" y1="291.124" x2="422.261" y2="291.124" gradientUnits="userSpaceOnUse">
<stop stop-color="#F49F0A"/>
<stop offset="1" stop-color="#FCCD00"/>
</linearGradient>
<linearGradient id="paint39_linear_333_1245" x1="401.157" y1="294.243" x2="396.624" y2="289.148" gradientUnits="userSpaceOnUse">
<stop stop-color="#F49F0A"/>
<stop offset="1" stop-color="#FCCD00"/>
</linearGradient>
<linearGradient id="paint40_linear_333_1245" x1="223.046" y1="256.816" x2="184.288" y2="256.816" gradientUnits="userSpaceOnUse">
<stop stop-color="#F09EC1"/>
<stop offset="0.988235" stop-color="#ED85B2"/>
<stop offset="1" stop-color="#ED85B2"/>
</linearGradient>
<linearGradient id="paint41_linear_333_1245" x1="156.26" y1="19.8199" x2="156.26" y2="67.6432" gradientUnits="userSpaceOnUse">
<stop stop-color="#7094CC"/>
<stop offset="0.0117647" stop-color="#7094CC"/>
<stop offset="1" stop-color="#576CB1"/>
</linearGradient>
<linearGradient id="paint42_linear_333_1245" x1="156.26" y1="19.8199" x2="156.26" y2="67.6432" gradientUnits="userSpaceOnUse">
<stop stop-color="#7094CC"/>
<stop offset="0.0117647" stop-color="#7094CC"/>
<stop offset="1" stop-color="#576CB1"/>
</linearGradient>
<linearGradient id="paint43_linear_333_1245" x1="180.961" y1="29.7589" x2="180.961" y2="24.124" gradientUnits="userSpaceOnUse">
<stop stop-color="#DC252D"/>
<stop offset="1" stop-color="#E95359"/>
</linearGradient>
<linearGradient id="paint44_linear_333_1245" x1="173.975" y1="29.4054" x2="173.975" y2="23.3131" gradientUnits="userSpaceOnUse">
<stop stop-color="#F49F0A"/>
<stop offset="1" stop-color="#FCCD00"/>
</linearGradient>
<linearGradient id="paint45_linear_333_1245" x1="166.968" y1="29.4678" x2="166.968" y2="23.3963" gradientUnits="userSpaceOnUse">
<stop stop-color="#00ACB0"/>
<stop offset="1" stop-color="#24B9D0"/>
</linearGradient>
<linearGradient id="paint46_linear_333_1245" x1="150.708" y1="29.4678" x2="150.708" y2="23.3963" gradientUnits="userSpaceOnUse">
<stop stop-color="#00ACB0"/>
<stop offset="1" stop-color="#24B9D0"/>
</linearGradient>
<linearGradient id="paint47_linear_333_1245" x1="80.5324" y1="260.475" x2="80.5324" y2="286.674" gradientUnits="userSpaceOnUse">
<stop stop-color="#F49F0A"/>
<stop offset="1" stop-color="#FCCD00"/>
</linearGradient>
<linearGradient id="paint48_linear_333_1245" x1="79.5343" y1="260.496" x2="79.5343" y2="286.653" gradientUnits="userSpaceOnUse">
<stop stop-color="#F49F0A"/>
<stop offset="1" stop-color="#FCCD00"/>
</linearGradient>
<linearGradient id="paint49_linear_333_1245" x1="79.5343" y1="260.475" x2="79.5343" y2="286.674" gradientUnits="userSpaceOnUse">
<stop stop-color="#F49F0A"/>
<stop offset="1" stop-color="#FCCD00"/>
</linearGradient>
<linearGradient id="paint50_linear_333_1245" x1="315.054" y1="44.688" x2="315.054" y2="5.76401" gradientUnits="userSpaceOnUse">
<stop stop-color="#F49F0A"/>
<stop offset="1" stop-color="#FCCD00"/>
</linearGradient>
<linearGradient id="paint51_linear_333_1245" x1="334.744" y1="44.688" x2="334.744" y2="5.76394" gradientUnits="userSpaceOnUse">
<stop stop-color="#F49F0A"/>
<stop offset="1" stop-color="#FCCD00"/>
</linearGradient>
<linearGradient id="paint52_linear_333_1245" x1="354.435" y1="44.688" x2="354.435" y2="5.76397" gradientUnits="userSpaceOnUse">
<stop stop-color="#F49F0A"/>
<stop offset="1" stop-color="#FCCD00"/>
</linearGradient>
<linearGradient id="paint53_linear_333_1245" x1="334.744" y1="44.688" x2="334.744" y2="5.76401" gradientUnits="userSpaceOnUse">
<stop stop-color="#F49F0A"/>
<stop offset="1" stop-color="#FCCD00"/>
</linearGradient>
<linearGradient id="paint54_linear_333_1245" x1="334.745" y1="44.688" x2="334.745" y2="5.764" gradientUnits="userSpaceOnUse">
<stop stop-color="#F49F0A"/>
<stop offset="1" stop-color="#FCCD00"/>
</linearGradient>
</defs>
</svg>
