<svg width="453" height="310" viewBox="0 0 453 310" fill="none" xmlns="http://www.w3.org/2000/svg">
<path fill-rule="evenodd" clip-rule="evenodd" d="M189.833 91.605H185.292C184.897 91.605 184.503 91.2101 184.503 90.8153V89.6307C184.503 89.3346 184.305 88.9397 183.91 88.9397C182.134 88.5449 180.455 87.8539 178.975 86.9655C178.876 86.8668 178.679 86.8668 178.58 86.8668C178.382 86.8668 178.185 86.9655 178.086 87.0642L177.297 87.8539C177.099 88.0513 176.902 88.0513 176.704 88.0513C176.507 88.0513 176.31 87.9526 176.112 87.8539L172.953 84.6951C172.657 84.399 172.657 83.9054 172.953 83.6093L173.743 82.8196C174.039 82.5234 174.039 82.2273 173.842 81.9312C172.953 80.4505 172.262 78.7724 171.867 76.9955C171.769 76.6994 171.473 76.4033 171.176 76.4033H169.992C169.597 76.4033 169.202 76.0084 169.202 75.6136V71.0728C169.202 70.678 169.597 70.2831 169.992 70.2831H171.176C171.473 70.2831 171.867 70.0857 171.867 69.6908C172.262 67.914 172.953 66.2359 173.842 64.7552C174.039 64.4591 174.039 64.0642 173.743 63.8668L172.953 63.0771C172.657 62.781 172.657 62.2874 172.953 61.9913L176.112 58.8325C176.31 58.6351 176.507 58.6351 176.704 58.6351C176.902 58.6351 177.099 58.7338 177.297 58.8325L178.086 59.6222C178.185 59.7209 178.382 59.8196 178.58 59.8196C178.679 59.8196 178.876 59.8196 178.975 59.7209C180.455 58.8325 182.134 58.1415 183.91 57.7467C184.207 57.6479 184.503 57.3518 184.503 57.0557V55.8711C184.503 55.4763 184.897 55.0814 185.292 55.0814H189.833C190.228 55.0814 190.623 55.4763 190.623 55.8711V57.0557C190.623 57.3518 190.82 57.7467 191.215 57.7467C192.992 58.1415 194.67 58.8325 196.151 59.7209C196.249 59.8196 196.447 59.8196 196.546 59.8196C196.743 59.8196 196.94 59.7209 197.039 59.6222L197.829 58.8325C198.026 58.6351 198.224 58.6351 198.421 58.6351C198.618 58.6351 198.816 58.7338 199.013 58.8325L202.172 61.9913C202.468 62.2874 202.468 62.781 202.172 63.0771L201.382 63.8668C201.086 64.163 201.086 64.4591 201.284 64.7552C202.172 66.2359 202.863 67.914 203.258 69.6908C203.357 69.987 203.653 70.2831 203.949 70.2831H205.134C205.528 70.2831 205.923 70.678 205.923 71.0728V75.6136C205.923 76.0084 205.528 76.4033 205.134 76.4033H203.949C203.653 76.4033 203.258 76.6007 203.258 76.9955C202.863 78.7724 202.172 80.4505 201.284 81.9312C201.086 82.2273 201.086 82.6221 201.382 82.8196L202.172 83.6093C202.468 83.9054 202.468 84.399 202.172 84.6951L199.013 87.8539C198.816 88.0513 198.618 88.0513 198.421 88.0513C198.224 88.0513 198.026 87.9526 197.829 87.8539L197.039 87.0642C196.94 86.9655 196.743 86.8668 196.546 86.8668C196.447 86.8668 196.249 86.8668 196.151 86.9655C194.67 87.8539 192.992 88.5449 191.215 88.9397C190.919 89.0384 190.623 89.3346 190.623 89.6307V90.8153C190.623 91.2101 190.228 91.605 189.833 91.605ZM187.563 63.8668C182.43 63.8668 178.185 68.0127 178.185 73.2445C178.185 78.3775 182.331 82.6221 187.563 82.6221C192.696 82.6221 196.94 78.4762 196.94 73.2445C196.94 68.1114 192.794 63.8668 187.563 63.8668Z" fill="url(#paint0_linear_333_886)"/>
<path fill-rule="evenodd" clip-rule="evenodd" d="M164.267 69.3947H161.7C161.404 69.3947 161.206 69.1973 161.206 68.9011V68.2101C161.206 68.0127 161.108 67.8153 160.91 67.8153C159.923 67.6179 158.936 67.223 158.146 66.6307C158.048 66.6307 157.949 66.532 157.949 66.532C157.85 66.532 157.752 66.532 157.653 66.6307L157.159 67.1243C157.061 67.223 156.962 67.223 156.863 67.223C156.764 67.223 156.666 67.223 156.567 67.1243L154.79 65.3475C154.593 65.1501 154.593 64.8539 154.79 64.6565L155.284 64.1629C155.382 64.0642 155.481 63.7681 155.382 63.6694C154.889 62.781 154.494 61.8926 154.198 60.9054C154.198 60.708 154.001 60.6093 153.803 60.6093H153.112C152.816 60.6093 152.619 60.4119 152.619 60.1157V57.5492C152.619 57.2531 152.816 57.0557 153.112 57.0557H153.803C154.001 57.0557 154.198 56.9569 154.198 56.7595C154.395 55.7724 154.79 54.7853 155.382 53.9956C155.481 53.7982 155.481 53.6007 155.284 53.502L154.79 53.0085C154.593 52.811 154.593 52.5149 154.79 52.3175L156.567 50.5406C156.666 50.4419 156.764 50.4419 156.863 50.4419C156.962 50.4419 157.061 50.4419 157.159 50.5406L157.653 51.0342C157.752 51.1329 157.85 51.1329 157.949 51.1329C158.048 51.1329 158.146 51.1329 158.146 51.0342C159.035 50.5406 159.923 50.1458 160.91 49.8497C161.108 49.8497 161.206 49.6522 161.206 49.4548V48.7638C161.206 48.4677 161.404 48.2703 161.7 48.2703H164.267C164.563 48.2703 164.76 48.4677 164.76 48.7638V49.4548C164.76 49.6522 164.859 49.8497 165.056 49.8497C166.043 50.0471 167.031 50.4419 167.82 51.0342C167.919 51.0342 168.018 51.1329 168.018 51.1329C168.116 51.1329 168.215 51.1329 168.314 51.0342L168.807 50.5406C168.906 50.4419 169.005 50.4419 169.103 50.4419C169.202 50.4419 169.301 50.4419 169.4 50.5406L171.176 52.3175C171.374 52.5149 171.374 52.811 171.176 53.0085L170.683 53.502C170.584 53.6007 170.485 53.8969 170.584 53.9956C171.078 54.884 171.473 55.7724 171.769 56.7595C171.769 56.9569 171.966 57.0557 172.164 57.0557H172.855C173.151 57.0557 173.348 57.2531 173.348 57.5492V60.1157C173.348 60.4119 173.151 60.6093 172.855 60.6093H172.164C171.966 60.6093 171.769 60.708 171.769 60.9054C171.571 61.8926 171.176 62.8797 170.584 63.6694C170.485 63.8668 170.485 64.0642 170.683 64.1629L171.176 64.6565C171.374 64.8539 171.374 65.1501 171.176 65.3475L169.4 67.1243C169.301 67.223 169.202 67.223 169.103 67.223C169.005 67.223 168.906 67.223 168.807 67.1243L168.314 66.6307C168.215 66.532 168.116 66.532 168.018 66.532C167.919 66.532 167.82 66.532 167.82 66.6307C166.932 67.1243 166.043 67.5192 165.056 67.8153C164.859 67.8153 164.76 68.0127 164.76 68.2101V68.9011C164.76 69.1973 164.563 69.3947 164.267 69.3947ZM162.983 53.6007C160.022 53.6007 157.653 55.9698 157.653 58.9312C157.653 61.8926 160.022 64.2617 162.983 64.2617C165.945 64.2617 168.314 61.8926 168.314 58.9312C168.314 55.9698 165.945 53.6007 162.983 53.6007Z" fill="url(#paint1_linear_333_886)"/>
<path fill-rule="evenodd" clip-rule="evenodd" d="M383.408 264.648L383.112 268.3C383.013 269.09 382.421 269.682 381.631 269.682H359.914C358.138 269.682 356.657 271.064 356.558 272.841L354.189 299.789C353.992 301.665 355.472 303.244 357.348 303.244H398.708C400.189 303.244 401.472 302.06 401.571 300.579L404.73 264.648C404.828 263.858 404.236 263.167 403.348 263.167H385.086C384.296 263.167 383.605 263.858 383.507 264.648H383.408Z" fill="url(#paint2_linear_333_886)"/>
<path fill-rule="evenodd" clip-rule="evenodd" d="M398.708 303.145H360.408L352.61 272.94C352.511 272.446 352.906 271.952 353.399 271.952H390.12C390.811 271.952 391.502 272.446 391.7 273.137L399.3 302.454C399.399 302.849 399.103 303.244 398.708 303.244V303.145Z" fill="url(#paint3_linear_333_886)"/>
<path fill-rule="evenodd" clip-rule="evenodd" d="M396.931 303.145H358.927L351.919 276.197C351.721 275.308 352.313 274.42 353.301 274.42H389.232C389.824 274.42 390.416 274.815 390.515 275.407L397.524 302.356C397.622 302.75 397.326 303.145 396.931 303.145Z" fill="url(#paint4_linear_333_886)"/>
<path fill-rule="evenodd" clip-rule="evenodd" d="M394.76 300.381L394.562 299.493L389.528 280.244C389.232 279.158 388.343 278.467 387.258 278.467H350.438C349.056 278.467 348.168 279.751 348.464 281.034L353.399 299.888C353.893 301.763 355.67 303.145 357.644 303.145H398.708C396.24 303.145 395.253 301.467 394.858 300.381H394.76Z" fill="url(#paint5_linear_333_886)"/>
<path fill-rule="evenodd" clip-rule="evenodd" d="M211.55 204.236H258.932V169.686H211.55V204.236Z" fill="url(#paint6_linear_333_886)"/>
<path fill-rule="evenodd" clip-rule="evenodd" d="M215.103 200.09H221.52V171.364H215.103V200.09Z" fill="url(#paint7_linear_333_886)"/>
<path fill-rule="evenodd" clip-rule="evenodd" d="M226.357 200.09H232.773V178.669H226.357V200.09Z" fill="url(#paint8_linear_333_886)"/>
<path fill-rule="evenodd" clip-rule="evenodd" d="M237.709 200.09H244.125V163.862H237.709V200.09Z" fill="url(#paint9_linear_333_886)"/>
<path fill-rule="evenodd" clip-rule="evenodd" d="M248.962 200.09H255.378V163.862H248.962V200.09Z" fill="url(#paint10_linear_333_886)"/>
<path d="M414.404 80.2531C414.404 92.1973 404.73 101.97 392.687 101.97C380.743 101.97 370.97 92.296 370.97 80.2531C370.97 68.3089 380.644 58.5364 392.687 58.5364C404.631 58.5364 414.404 68.2102 414.404 80.2531Z" fill="#242222"/>
<path d="M411.837 80.253H411.541C411.541 85.4847 409.468 90.2229 406.013 93.5791C402.558 97.034 397.919 99.107 392.687 99.107C387.455 99.107 382.717 97.034 379.361 93.5791C375.906 90.1242 373.833 85.4847 373.833 80.253C373.833 75.0212 375.906 70.283 379.361 66.9268C382.816 63.4719 387.455 61.3989 392.687 61.3989C397.919 61.3989 402.657 63.4719 406.013 66.9268C409.468 70.3817 411.541 75.0212 411.541 80.253H412.133C412.133 69.4933 403.446 60.8066 392.687 60.8066C381.927 60.8066 373.24 69.4933 373.24 80.253C373.24 91.0126 381.927 99.6993 392.687 99.6993C403.446 99.6993 412.133 91.0126 412.133 80.253H411.837Z" fill="#FEFEFE"/>
<path d="M395.55 80.2532C395.55 81.8326 394.266 83.1158 392.687 83.1158C391.107 83.1158 389.824 81.8326 389.824 80.2532C389.824 78.6738 391.107 77.3905 392.687 77.3905C394.266 77.3905 395.55 78.6738 395.55 80.2532Z" fill="#FEFEFE"/>
<path d="M393.477 63.1758C393.477 63.6694 393.082 63.9655 392.687 63.9655C392.193 63.9655 391.897 63.5707 391.897 63.1758C391.897 62.6822 392.292 62.3861 392.687 62.3861C393.18 62.3861 393.477 62.781 393.477 63.1758Z" fill="#FEFEFE"/>
<path d="M409.665 81.0428C409.172 81.0428 408.876 80.6479 408.876 80.2531C408.876 79.7595 409.27 79.4634 409.665 79.4634C410.159 79.4634 410.455 79.8582 410.455 80.2531C410.455 80.7466 410.06 81.0428 409.665 81.0428Z" fill="#FEFEFE"/>
<path d="M391.897 97.2316C391.897 96.738 392.292 96.4419 392.687 96.4419C393.18 96.4419 393.477 96.8367 393.477 97.2316C393.477 97.7252 393.082 98.0213 392.687 98.0213C392.193 98.0213 391.897 97.6264 391.897 97.2316Z" fill="#FEFEFE"/>
<path d="M375.708 79.3646C376.202 79.3646 376.498 79.7595 376.498 80.1543C376.498 80.6479 376.103 80.944 375.708 80.944C375.215 80.944 374.919 80.5492 374.919 80.1543C374.919 79.6608 375.313 79.3646 375.708 79.3646Z" fill="#FEFEFE"/>
<path d="M379.558 71.1716L392.588 80.4505C392.687 80.5492 392.884 80.5492 392.983 80.3518C393.082 80.2531 393.082 80.0557 392.884 79.957L379.854 70.678C379.756 70.5793 379.558 70.5793 379.459 70.7767C379.361 70.8754 379.361 71.0728 379.558 71.1716Z" fill="#FEFEFE"/>
<path d="M391.996 79.7596L386.27 87.854C385.974 88.2489 386.073 88.7424 386.468 89.0386C386.863 89.3347 387.356 89.236 387.652 88.8412L393.378 80.7467C393.674 80.3519 393.575 79.8583 393.18 79.5622C392.785 79.2661 392.292 79.3648 391.996 79.7596Z" fill="#FEFEFE"/>
<path fill-rule="evenodd" clip-rule="evenodd" d="M106.125 47.5792C106.125 59.5234 96.4513 69.2959 84.4084 69.2959C72.4642 69.2959 62.6917 59.6221 62.6917 47.5792C62.6917 35.6351 72.3655 25.8625 84.4084 25.8625C96.3526 25.8625 106.125 35.5364 106.125 47.5792Z" fill="url(#paint11_linear_333_886)"/>
<path d="M84.4084 66.7294C73.8462 66.7294 65.2582 58.1415 65.2582 47.5792C65.2582 37.017 73.8462 28.4291 84.4084 28.4291C94.9706 28.4291 103.559 37.017 103.559 47.5792C103.559 58.1415 94.9706 66.7294 84.4084 66.7294ZM84.4084 25.8625C72.4642 25.8625 62.6917 35.5364 62.6917 47.5792C62.6917 59.5234 72.3655 69.2959 84.4084 69.2959C96.3526 69.2959 106.125 59.6221 106.125 47.5792C106.125 35.6351 96.4513 25.8625 84.4084 25.8625Z" fill="#242222"/>
<path d="M103.657 47.5794H103.361C103.361 52.8111 101.288 57.5493 97.8333 60.9055C94.3784 64.3605 89.7389 66.4334 84.5071 66.4334C79.2754 66.4334 74.5372 64.3605 71.181 60.9055C67.7261 57.4506 65.6531 52.8111 65.6531 47.5794C65.6531 42.3476 67.7261 37.6094 71.181 34.2532C74.6359 30.7983 79.2754 28.7253 84.5071 28.7253C89.7389 28.7253 94.4771 30.7983 97.8333 34.2532C101.288 37.7081 103.361 42.3476 103.361 47.5794H103.953C103.953 36.8197 95.2668 28.1331 84.5071 28.1331C73.7475 28.1331 65.0608 36.8197 65.0608 47.5794C65.0608 58.339 73.7475 67.0257 84.5071 67.0257C95.2668 67.0257 103.953 58.339 103.953 47.5794H103.657Z" fill="#FEFEFE"/>
<path d="M87.3698 47.5793C87.3698 49.1587 86.0865 50.442 84.5071 50.442C82.9277 50.442 81.6445 49.1587 81.6445 47.5793C81.6445 45.9999 82.9277 44.7167 84.5071 44.7167C86.0865 44.7167 87.3698 45.9999 87.3698 47.5793Z" fill="#FEFEFE"/>
<path d="M85.2968 30.5021C85.2968 30.9957 84.902 31.2918 84.5071 31.2918C84.0135 31.2918 83.7174 30.8969 83.7174 30.5021C83.7174 30.0085 84.1123 29.7124 84.5071 29.7124C85.0007 29.7124 85.2968 30.1073 85.2968 30.5021Z" fill="#FEFEFE"/>
<path d="M101.486 48.3691C100.992 48.3691 100.696 47.9742 100.696 47.5794C100.696 47.0858 101.091 46.7897 101.486 46.7897C101.979 46.7897 102.275 47.1845 102.275 47.5794C102.275 48.0729 101.88 48.3691 101.486 48.3691Z" fill="#FEFEFE"/>
<path d="M83.6187 64.5578C83.6187 64.0642 84.0135 63.7681 84.4084 63.7681C84.9019 63.7681 85.1981 64.1629 85.1981 64.5578C85.1981 65.0513 84.8032 65.3475 84.4084 65.3475C83.9148 65.3475 83.6187 64.9526 83.6187 64.5578Z" fill="#FEFEFE"/>
<path d="M67.4299 46.6909C67.9234 46.6909 68.2196 47.0858 68.2196 47.4806C68.2196 47.9742 67.8247 48.2703 67.4299 48.2703C66.9363 48.2703 66.6402 47.8755 66.6402 47.4806C66.6402 46.9871 67.035 46.6909 67.4299 46.6909Z" fill="#FEFEFE"/>
<path d="M91.9106 34.2531L84.211 47.3819C84.1123 47.4806 84.211 47.678 84.3097 47.7767C84.4084 47.8754 84.6058 47.7767 84.7046 47.678L92.4041 34.5493C92.5028 34.4506 92.4041 34.2531 92.3054 34.1544C92.2067 34.0557 92.0093 34.1544 91.9106 34.2531Z" fill="#FEFEFE"/>
<path d="M85.0007 46.8883L78.0908 41.3604C77.696 41.0643 77.2024 41.163 76.9063 41.4592C76.6101 41.854 76.7088 42.3476 77.005 42.6437L83.9148 48.1716C84.3097 48.4677 84.8032 48.369 85.0994 48.0729C85.3955 47.678 85.2968 47.1845 85.0007 46.8883Z" fill="#FEFEFE"/>
<path fill-rule="evenodd" clip-rule="evenodd" d="M56.8677 134.545V164.356C56.8677 165.244 56.078 166.034 55.1896 166.034H25.3785C24.49 166.034 23.7003 165.244 23.7003 164.356V134.545C23.7003 133.657 24.49 132.867 25.3785 132.867H55.1896C56.078 132.867 56.8677 133.657 56.8677 134.545Z" fill="url(#paint12_linear_333_886)"/>
<path fill-rule="evenodd" clip-rule="evenodd" d="M56.8677 157.644V164.257C56.8677 165.146 56.078 165.935 55.1896 165.935H25.3785C24.49 165.935 23.7003 165.146 23.7003 164.257V159.124L31.8935 146.686C32.2883 145.995 33.2754 145.995 33.6703 146.686L42.7518 160.309L49.7604 149.747C50.1552 149.056 51.1424 149.056 51.5372 149.747L56.769 157.545L56.8677 157.644Z" fill="url(#paint13_linear_333_886)"/>
<path fill-rule="evenodd" clip-rule="evenodd" d="M49.563 141.257C49.563 143.824 47.49 145.897 44.9235 145.897C42.357 145.897 40.284 143.824 40.284 141.257C40.284 138.691 42.357 136.618 44.9235 136.618C47.49 136.618 49.563 138.691 49.563 141.257Z" fill="url(#paint14_linear_333_886)"/>
<path fill-rule="evenodd" clip-rule="evenodd" d="M49.6617 171.167H30.8076C30.1167 171.167 29.5244 170.575 29.5244 169.884C29.5244 169.193 30.1167 168.601 30.8076 168.601H49.6617C50.3527 168.601 50.9449 169.193 50.9449 169.884C50.9449 170.575 50.3527 171.167 49.6617 171.167Z" fill="url(#paint15_linear_333_886)"/>
<path fill-rule="evenodd" clip-rule="evenodd" d="M49.6617 175.609H30.8076C30.1167 175.609 29.5244 175.017 29.5244 174.326C29.5244 173.635 30.1167 173.043 30.8076 173.043H49.6617C50.3527 173.043 50.9449 173.635 50.9449 174.326C50.9449 175.017 50.3527 175.609 49.6617 175.609Z" fill="url(#paint16_linear_333_886)"/>
<path fill-rule="evenodd" clip-rule="evenodd" d="M426.249 22.2102C426.249 33.266 417.266 42.2488 406.21 42.2488C395.155 42.2488 386.172 33.266 386.172 22.2102C386.172 11.1544 395.155 2.17163 406.21 2.17163C417.266 2.17163 426.249 11.1544 426.249 22.2102Z" fill="url(#paint17_linear_333_886)"/>
<path fill-rule="evenodd" clip-rule="evenodd" d="M423.88 48.5664C423.88 48.5664 435.232 37.708 430.296 32.2788C425.755 27.2445 416.674 34.9441 416.674 34.9441C416.674 34.9441 423.683 20.3347 410.85 19.9398C402.163 19.6437 393.378 28.7252 390.614 32.0814C393.082 25.8625 387.258 20.4334 379.756 25.4677C367.417 33.8582 353.301 48.4677 353.301 48.4677H423.781L423.88 48.5664Z" fill="url(#paint18_linear_333_886)"/>
<path fill-rule="evenodd" clip-rule="evenodd" d="M150.644 14.3133H115.404C115.404 14.3133 122.413 7.00857 128.631 2.76394C129.717 2.07296 130.606 1.77682 131.494 1.77682C133.666 1.77682 134.949 3.84978 134.061 6.12016C135.443 4.44205 139.687 0 144.031 0C144.129 0 144.129 0 144.228 0C150.644 0.197425 147.091 7.50213 147.091 7.50213C147.091 7.50213 149.657 5.33046 151.928 5.33046C152.619 5.33046 153.408 5.52789 153.902 6.21887C156.37 8.8841 150.644 14.412 150.644 14.412V14.3133Z" fill="url(#paint19_linear_333_886)"/>
<path fill-rule="evenodd" clip-rule="evenodd" d="M32.9793 197.523C32.9793 197.523 40.4814 194.858 47.0952 204.236C53.7089 213.613 51.3398 224.768 63.8763 231.579C63.8763 231.579 72.3655 224.867 67.035 209.764C61.4084 193.97 43.9364 191.995 33.078 197.425L32.9793 197.523Z" fill="url(#paint20_linear_333_886)"/>
<path d="M51.9321 200.485C51.9321 200.485 45.7132 196.043 39.6918 197.819C33.6703 199.596 20.5416 215.982 0.897827 209.961C0.897827 209.961 7.01799 209.961 14.1253 202.558C21.2326 195.055 25.2798 190.12 37.2239 195.352C37.2239 195.352 44.3312 193.081 51.9321 200.485Z" fill="#242222"/>
<path d="M18.1725 204.532C21.7261 203.742 24.7862 201.768 27.7476 199.892C30.8076 198.017 33.769 196.141 37.2239 195.549C38.0136 195.45 38.8033 195.352 39.4943 195.352C44.6274 195.352 49.6617 198.116 53.0179 202.064C56.9664 206.605 59.1381 212.429 60.6187 218.352C63.3827 228.815 64.5672 239.575 65.7518 250.236C65.7518 250.433 65.9492 250.532 66.0479 250.532C66.2453 250.532 66.3441 250.334 66.3441 250.236C65.1595 239.476 63.975 228.716 61.211 218.253C59.6316 212.33 57.46 206.407 53.4128 201.768C49.8591 197.721 44.7261 194.858 39.3956 194.858C38.6059 194.858 37.8162 194.957 36.9278 195.055C33.3742 195.648 30.3141 197.523 27.254 199.498C24.1939 201.373 21.2325 203.347 17.8763 204.038C17.6789 204.038 17.5802 204.236 17.6789 204.433C17.6789 204.631 17.8763 204.729 18.0738 204.631L18.1725 204.532Z" fill="#242222"/>
<path fill-rule="evenodd" clip-rule="evenodd" d="M91.2196 190.515C89.6402 195.351 87.1724 203.939 86.0865 207.987C83.3226 208.579 78.387 210.948 76.9063 213.218L76.7089 214.304C76.7089 214.304 79.1767 211.244 85.4943 210.454C82.9277 219.733 80.3612 226.545 73.7475 230.789C73.7475 230.789 63.1853 221.905 70.2926 198.609C72.7604 199.596 75.2282 201.373 77.4986 203.742C77.3999 201.373 72.563 197.326 71.0823 196.339C83.1252 164.356 100.795 156.459 111.456 155.176C106.717 159.618 97.3397 172.648 91.3183 190.515H91.2196Z" fill="url(#paint21_linear_333_886)"/>
<path fill-rule="evenodd" clip-rule="evenodd" d="M72.9578 251.42C72.9578 251.42 72.9578 250.828 72.9578 249.841C72.9578 240.562 74.3398 193.18 100.795 163.171C100.893 163.073 100.893 162.875 100.795 162.776C100.696 162.678 100.499 162.678 100.4 162.776C73.7475 192.982 72.3655 240.463 72.3655 249.841C72.3655 250.926 72.3655 251.42 72.3655 251.519C72.3655 251.716 72.4642 251.815 72.6616 251.815C72.8591 251.815 72.9578 251.716 72.9578 251.519V251.42Z" fill="url(#paint22_linear_333_886)"/>
<path fill-rule="evenodd" clip-rule="evenodd" d="M86.9749 240.957H52.1295C52.1295 240.957 50.0565 294.656 62.3956 308.772H76.8076C89.0479 294.656 87.0736 240.957 87.0736 240.957H86.9749Z" fill="url(#paint23_linear_333_886)"/>
<path d="M60.0265 256.751V259.91H52.1295C52.1295 258.824 52.0308 257.837 52.0308 256.751H59.9278H60.0265Z" fill="#FEFEFE"/>
<path d="M86.7775 263.759C86.6788 264.746 86.6788 265.832 86.5801 266.918H69.5029V263.759H86.7775Z" fill="#FEFEFE"/>
<path d="M62.2969 271.755V274.914H53.1166C53.0179 273.828 52.9192 272.841 52.8205 271.755H62.2969Z" fill="#FEFEFE"/>
<path d="M81.9406 298.21C81.6445 299.296 81.2496 300.381 80.8548 301.369H73.6488V298.21H81.9406Z" fill="#FEFEFE"/>
<path d="M64.7646 285.476H77.8934V282.317H64.7646V285.476Z" fill="#FEFEFE"/>
<path d="M59.9277 295.545H64.6659V292.386H59.9277V295.545Z" fill="#FEFEFE"/>
<path fill-rule="evenodd" clip-rule="evenodd" d="M87.0737 247.866H52.0308C52.0308 243.622 52.1295 241.055 52.1295 241.055H86.9749C86.9749 241.055 87.0737 243.622 87.0737 247.866Z" fill="url(#paint24_linear_333_886)"/>
<path d="M194.966 141.455H305.425V9.57507H194.966V141.455Z" fill="#242222"/>
<path d="M190.228 146.193H300.687V14.3132H190.228V146.193Z" fill="#FEFEFE"/>
<path d="M300.687 146.193V145.798H190.623V14.7082H300.292V146.193H300.687V145.798V146.193H301.082V13.9185H189.833V146.588H301.082V146.193H300.687Z" fill="#242222"/>
<path d="M250.541 19.2488C250.541 19.2488 263.769 18.6566 264.065 18.2617L282.919 29.1201C287.558 34.4505 281.537 39.1887 284.696 42.5449C286.67 44.6179 289.335 45.9999 290.816 48.369C292.099 50.5406 292.198 53.2059 291.605 55.575C290.914 57.9441 289.533 60.1157 288.052 62.09C277.687 71.9612 258.636 68.8024 254.49 55.4762C252.121 47.7767 259.721 44.1243 256.069 35.8325C253.799 30.6995 249.949 30.3046 249.06 25.9613C248.172 21.6179 250.541 19.1501 250.541 19.1501V19.2488Z" fill="#242222"/>
<path fill-rule="evenodd" clip-rule="evenodd" d="M246.494 118.553L291.803 117.171C291.803 117.171 296.442 127.437 297.429 146.094H239.979C242.052 134.347 245.112 123.983 246.494 118.553Z" fill="url(#paint25_linear_333_886)"/>
<path d="M275.811 47.678C271.764 50.2445 262.979 51.7252 262.979 51.7252C263.078 50.5406 262.979 48.9612 262.683 47.4805C262.88 46.4934 263.078 45.0127 263.078 43.5321C263.176 41.5578 263.176 39.4848 263.176 38.5964C263.176 38.3003 263.176 38.1029 263.176 38.1029L261.794 37.017L276.404 30.4033C272.751 40.0771 275.811 47.678 275.811 47.678Z" fill="#F9D3CD"/>
<path d="M272.751 35.7338C272.554 36.1286 270.185 43.4333 262.88 45.9998C262.979 44.0256 263.078 41.7552 263.078 40.8668L272.653 35.7338H272.751Z" fill="#F4B3AF"/>
<path d="M273.541 34.6481C268.803 40.5708 261.696 44.1244 257.451 42.6438C251.133 40.4721 252.022 22.6052 252.713 18.9528C253.404 15.5966 256.563 9.08158 265.644 10.0687C274.627 11.0558 284.992 20.3348 273.541 34.6481Z" fill="#F9D3CD"/>
<path d="M250.936 22.1116C250.936 22.1116 256.365 24.1845 262.485 19.6438C263.374 20.927 265.052 21.9141 267.322 22.8026C267.717 25.0729 268.507 26.3562 270.185 26.4549C270.382 25.7639 272.258 23 274.824 24.2832C277.391 25.4678 276.799 28.7253 274.726 31.5879C274.627 33.6609 274.331 38.5965 274.528 40.5708C276.305 40.3733 277.292 38.6952 278.674 34.7467C279.365 32.7725 280.945 32.6738 282.919 29.1201C288.644 18.7554 288.052 2.36912 271.962 6.90988C271.764 6.90988 266.927 3.45495 262.584 2.2704C258.932 1.18457 251.232 1.48071 247.777 8.29185C243.533 16.7811 250.837 22.2103 250.837 22.2103L250.936 22.1116Z" fill="#242222"/>
<path d="M262.683 47.4806C262.683 47.4806 262.387 48.6651 260.116 50.5407C258.932 51.5278 254.588 53.6995 254.588 53.6995C267.322 66.9269 284.202 53.6008 284.202 53.6008C282.228 52.8111 280.451 52.4162 278.181 51.0342C276.7 50.0471 275.713 47.678 275.713 47.678L262.584 47.4806H262.683Z" fill="#F9D3CD"/>
<path d="M251.43 80.5493C251.43 80.5493 248.962 89.236 246.494 96.1458C245.704 98.3175 239.88 111.249 235.438 110.854C227.541 110.163 210.464 97.1329 203.752 91.9012L203.061 85.4849C212.537 89.3347 230.108 95.2574 232.773 95.6523C233.365 92.3948 238.005 77.0944 238.005 77.0944L251.331 80.648L251.43 80.5493Z" fill="#F9D3CD"/>
<path d="M201.876 80.7466C201.876 80.7466 200 80.253 199.803 82.8195C199.211 89.4333 201.284 93.1843 203.653 94.2702C206.022 95.356 205.232 91.2101 205.232 91.2101L203.357 86.077L201.876 80.7466Z" fill="#F9D3CD"/>
<path fill-rule="evenodd" clip-rule="evenodd" d="M246.099 119.442C258.142 124.081 280.55 124.674 292.691 117.863C288.94 108.781 285.88 98.3175 285.88 98.3175C285.88 98.1201 286.176 96.3432 286.67 93.678C287.163 91.0128 287.854 87.3604 288.545 83.5106C290.52 72.8497 292.987 60.0171 293.086 58.9313C293.284 56.8583 281.241 52.3176 281.241 52.3176C281.241 52.3176 276.305 56.2661 271.073 57.8455C265.348 59.5236 259.327 58.6352 258.636 51.3304C258.636 51.3304 252.812 53.7983 248.172 56.5622C247.284 62.6824 246.79 74.824 246.593 81.7338C246.593 82.9184 248.468 94.2703 248.271 106.708C248.172 110.064 247.481 115.79 246 119.442H246.099Z" fill="url(#paint26_linear_333_886)"/>
<path fill-rule="evenodd" clip-rule="evenodd" d="M302.563 112.927C299.206 113.815 292.494 105.622 291.704 102.562C290.026 93.9741 288.743 86.3732 288.743 86.3732L303.254 79.1672C303.254 79.1672 307.103 95.7509 307.498 98.4161C308.683 106.214 306.215 111.841 302.464 112.828L302.563 112.927Z" fill="url(#paint27_linear_333_886)"/>
<path fill-rule="evenodd" clip-rule="evenodd" d="M232.773 87.9527C232.773 87.9527 241.163 92.3948 247.678 93.678C247.678 93.678 250.344 84.2017 252.219 76.5021C253.799 70.4806 249.06 58.4377 248.369 56.4635C239.584 61.3004 232.674 88.0514 232.674 88.0514L232.773 87.9527Z" fill="url(#paint28_linear_333_886)"/>
<path fill-rule="evenodd" clip-rule="evenodd" d="M305.82 88.1499C299.7 90.0255 290.816 91.901 287.953 91.5062C286.078 82.6221 281.241 52.3174 281.241 52.3174C281.241 52.3174 297.232 55.9697 301.477 71.1714C302.859 76.0083 304.537 82.7208 305.721 88.2487L305.82 88.1499Z" fill="url(#paint29_linear_333_886)"/>
<path fill-rule="evenodd" clip-rule="evenodd" d="M297.726 97.8238C297.726 97.8238 272.258 89.0384 267.816 87.9526C263.374 86.8668 257.155 86.1758 257.155 86.1758C257.155 86.1758 250.739 84.5964 249.258 84.3002C247.678 83.9054 247.086 85.4848 248.172 86.7681C249.85 88.6436 254.786 89.7294 254.786 89.7294C254.786 89.7294 253.108 91.9011 253.206 93.0856C253.305 94.2702 254.983 96.5406 255.97 97.2316C256.957 97.9225 258.932 98.12 259.228 97.9225C259.524 97.7251 259.82 96.738 258.636 96.2444C258.636 96.2444 259.919 97.1328 261.597 97.0341C263.374 96.9354 264.361 96.2444 265.644 96.6393C266.927 97.0341 290.125 109.965 294.962 112.236C303.155 116.184 305.326 111.15 306.314 105.425C306.314 105.425 302.266 100.39 297.726 98.0213V97.8238Z" fill="url(#paint30_linear_333_886)"/>
<path d="M261.301 104.437H210.661C209.674 104.437 208.786 103.746 208.588 102.661L201.975 63.2744C201.777 61.9912 202.764 60.8066 204.048 60.8066H254.687C255.674 60.8066 256.563 61.4976 256.76 62.5835L263.374 101.97C263.571 103.253 262.584 104.437 261.301 104.437Z" fill="#242222"/>
<path fill-rule="evenodd" clip-rule="evenodd" d="M258.438 104.437H207.799C206.812 104.437 205.923 103.746 205.726 102.661L199.112 63.2744C198.915 61.9912 199.902 60.8066 201.185 60.8066H251.824C252.811 60.8066 253.7 61.4976 253.897 62.5835L260.511 101.97C260.708 103.253 259.721 104.437 258.438 104.437Z" fill="url(#paint31_linear_333_886)"/>
<path d="M211.55 75.7122C211.352 75.7122 210.76 75.7122 209.97 75.9097C211.352 74.8238 210.76 73.6393 210.267 73.6393C208.885 73.738 206.91 73.9354 204.541 74.6264C204.245 74.7251 204.048 74.8238 203.85 75.0213C202.172 76.5019 200.395 79.3646 200.395 79.3646C200.198 79.8582 199.902 82.6221 199.902 82.6221C199.704 83.2144 202.567 91.1114 202.567 91.1114C202.567 91.1114 204.936 88.6435 205.528 86.5706C206.121 86.2745 206.614 85.8796 208.588 84.5963C211.155 83.0169 210.267 81.635 209.773 81.635C209.576 81.635 209.181 81.635 208.786 81.7337C208.885 81.7337 208.983 81.635 209.082 81.635C211.846 80.4504 210.958 78.7723 210.365 78.7723C210.168 78.7723 209.674 78.871 209.181 78.9697C209.576 78.7723 209.872 78.6736 210.267 78.4762C213.03 77.2916 212.241 75.6135 211.55 75.6135V75.7122Z" fill="#F9D3CD"/>
<path d="M209.576 75.811C209.576 75.811 208.687 75.9097 207.7 76.1072C206.713 76.3046 205.726 76.502 205.43 76.6007C205.232 76.6994 204.936 76.8969 204.64 77.193C203.752 78.0814 202.468 79.5621 202.468 79.5621V79.7595H202.666C202.666 79.7595 203.258 79.0685 203.85 78.3776C204.146 77.9827 204.541 77.6866 204.837 77.3904C205.133 77.0943 205.43 76.8969 205.528 76.8969C205.824 76.7982 206.812 76.6007 207.799 76.4033C208.786 76.2059 209.674 76.1072 209.674 76.1072C209.773 76.1072 209.773 76.0085 209.773 75.9097C209.773 75.811 209.674 75.811 209.576 75.811Z" fill="#242222"/>
<path d="M208.885 78.8711C208.885 78.8711 208.391 78.9698 207.7 79.1672C207.108 79.3647 206.417 79.5621 206.121 79.7595C205.825 79.9569 205.134 80.5492 204.443 81.1415C203.85 81.7337 203.258 82.326 203.258 82.326V82.5234H203.455C203.455 82.5234 204.048 81.9312 204.64 81.3389C205.232 80.7466 206.022 80.1544 206.219 79.9569C206.417 79.7595 207.108 79.5621 207.7 79.4634C208.292 79.2659 208.786 79.1672 208.786 79.1672C208.885 79.1672 208.885 79.0685 208.885 78.9698C208.885 78.8711 208.786 78.8711 208.687 78.8711H208.885Z" fill="#242222"/>
<path d="M208.391 81.7339C208.391 81.7339 208.095 81.8326 207.799 81.9313C207.503 82.03 207.108 82.1287 206.91 82.3262C206.713 82.4249 206.121 83.0171 205.528 83.5107C204.936 84.0043 204.443 84.4978 204.443 84.4978V84.6953H204.64C204.64 84.6953 205.133 84.2017 205.726 83.7081C206.318 83.2146 206.91 82.6223 207.108 82.5236C207.206 82.4249 207.601 82.3262 207.897 82.2274C208.194 82.1287 208.49 82.03 208.49 82.03C208.588 82.03 208.588 81.9313 208.588 81.8326C208.588 81.7339 208.49 81.7339 208.391 81.7339Z" fill="#242222"/>
<path fill-rule="evenodd" clip-rule="evenodd" d="M303.648 33.266H322.502V14.3132H303.648V33.266Z" fill="url(#paint32_linear_333_886)"/>
<path d="M305.82 30.6995H320.331V27.7382H305.82V30.6995Z" fill="#FEFEFE"/>
<path d="M164.267 43.1373H215.103V21.1245H164.267V43.1373Z" fill="#FEFEFE"/>
<path d="M215.103 43.1373V42.7424H164.661V21.5193H214.709V43.1373H215.103V42.7424V43.1373H215.498V20.7296H163.872V43.5321H215.498V43.1373H215.103Z" fill="#242222"/>
<path d="M169.4 27.1459L168.413 28.133V30.8969L169.4 31.7854L170.387 30.8969V28.133L169.4 27.1459Z" fill="#242222"/>
<path d="M174.434 26.8497L173.447 25.8625H170.683L169.794 26.8497L170.683 27.8368H173.447L174.434 26.8497Z" fill="#242222"/>
<path d="M174.434 37.4119L173.447 36.4248H170.683L169.794 37.4119L170.683 38.3991H173.447L174.434 37.4119Z" fill="#242222"/>
<path d="M169.4 32.4763L168.413 33.3647V36.1287L169.4 37.1158L170.387 36.1287V33.3647L169.4 32.4763Z" fill="#242222"/>
<path d="M174.73 27.1459L173.842 28.133V30.8969L174.73 31.7854L175.717 30.8969V28.133L174.73 27.1459Z" fill="#242222"/>
<path d="M174.73 32.4763L173.842 33.3647V36.1287L174.73 37.1158L175.717 36.1287V33.3647L174.73 32.4763Z" fill="#242222"/>
<path d="M205.331 27.5406L205.035 27.9355V28.9226L205.331 29.3175L205.726 28.9226V27.9355L205.331 27.5406Z" fill="#242222"/>
<path d="M207.206 27.442L206.812 27.1459H205.824L205.528 27.442L205.824 27.8369H206.812L207.206 27.442Z" fill="#242222"/>
<path d="M207.206 29.4163L206.812 29.1201H205.824L205.528 29.4163L205.824 29.8111H206.812L207.206 29.4163Z" fill="#242222"/>
<path d="M205.331 29.5149L205.035 29.9097V30.8969L205.331 31.193L205.726 30.8969V29.9097L205.331 29.5149Z" fill="#242222"/>
<path d="M207.305 27.5406L207.009 27.9355V28.9226L207.305 29.3175L207.7 28.9226V27.9355L207.305 27.5406Z" fill="#242222"/>
<path d="M207.305 29.5149L207.009 29.9097V30.8969L207.305 31.193L207.7 30.8969V29.9097L207.305 29.5149Z" fill="#242222"/>
<path d="M208.588 27.5406L208.194 27.9355V28.9226L208.588 29.3175L208.885 28.9226V27.9355L208.588 27.5406Z" fill="#242222"/>
<path d="M210.464 27.442L210.069 27.1459H209.082L208.687 27.442L209.082 27.8369H210.069L210.464 27.442Z" fill="#242222"/>
<path d="M208.588 29.5149L208.194 29.9097V30.8969L208.588 31.193L208.885 30.8969V29.9097L208.588 29.5149Z" fill="#242222"/>
<path d="M210.563 27.5406L210.168 27.9355V28.9226L210.563 29.3175L210.859 28.9226V27.9355L210.563 27.5406Z" fill="#242222"/>
<path d="M210.563 29.5149L210.168 29.9097V30.8969L210.563 31.193L210.859 30.8969V29.9097L210.563 29.5149Z" fill="#242222"/>
<path d="M210.563 27.5406L210.168 27.9355V28.9226L210.563 29.3175L210.859 28.9226V27.9355L210.563 27.5406Z" fill="#242222"/>
<path d="M212.438 27.442L212.043 27.1459H211.056L210.661 27.442L211.056 27.8369H212.043L212.438 27.442Z" fill="#242222"/>
<path d="M210.563 29.5149L210.168 29.9097V30.8969L210.563 31.193L210.859 30.8969V29.9097L210.563 29.5149Z" fill="#242222"/>
<path d="M212.537 27.5406L212.142 27.9355V28.9226L212.537 29.3175L212.833 28.9226V27.9355L212.537 27.5406Z" fill="#242222"/>
<path d="M212.537 29.5149L212.142 29.9097V30.8969L212.537 31.193L212.833 30.8969V29.9097L212.537 29.5149Z" fill="#242222"/>
<path d="M201.876 26.8497L200.889 25.8625H198.224L197.237 26.8497L198.224 27.8368H200.889L201.876 26.8497Z" fill="#242222"/>
<path d="M201.876 32.1801L200.889 31.193H198.224L197.237 32.1801L198.224 33.0685H200.889L201.876 32.1801Z" fill="#242222"/>
<path d="M201.876 37.4119L200.889 36.4248H198.224L197.237 37.4119L198.224 38.3991H200.889L201.876 37.4119Z" fill="#242222"/>
<path d="M202.271 27.1459L201.284 28.133V30.8969L202.271 31.7854L203.159 30.8969V28.133L202.271 27.1459Z" fill="#242222"/>
<path d="M202.271 32.4763L201.284 33.3647V36.1287L202.271 37.1158L203.159 36.1287V33.3647L202.271 32.4763Z" fill="#242222"/>
<path d="M188.846 27.1459L187.958 28.133V30.8969L188.846 31.7854L189.833 30.8969V28.133L188.846 27.1459Z" fill="#242222"/>
<path d="M193.88 26.8497L192.893 25.8625H190.228L189.241 26.8497L190.228 27.8368H192.893L193.88 26.8497Z" fill="#242222"/>
<path d="M193.88 32.1801L192.893 31.193H190.228L189.241 32.1801L190.228 33.0685H192.893L193.88 32.1801Z" fill="#242222"/>
<path d="M193.88 37.4119L192.893 36.4248H190.228L189.241 37.4119L190.228 38.3991H192.893L193.88 37.4119Z" fill="#242222"/>
<path d="M194.275 32.4763L193.288 33.3647V36.1287L194.275 37.1158L195.164 36.1287V33.3647L194.275 32.4763Z" fill="#242222"/>
<path d="M182.726 27.1459L181.837 28.133V30.8969L182.726 31.7854L183.713 30.8969V28.133L182.726 27.1459Z" fill="#242222"/>
<path d="M182.726 32.4763L181.837 33.3647V36.1287L182.726 37.1158L183.713 36.1287V33.3647L182.726 32.4763Z" fill="#242222"/>
<path d="M185.786 30.897L184.897 29.9099L185.786 29.0215L186.773 29.9099L185.786 30.897Z" fill="#242222"/>
<path d="M185.786 35.339L184.897 34.4506L185.786 33.4635L186.773 34.4506L185.786 35.339Z" fill="#242222"/>
<path fill-rule="evenodd" clip-rule="evenodd" d="M421.017 229.012H267.125V122.008H421.017V229.012ZM337.803 147.279C337.112 148.167 333.953 155.274 340.863 156.064C341.554 156.163 342.344 156.163 342.936 156.163C351.919 156.163 353.992 148.562 352.313 147.772C351.129 147.575 350.833 134.15 350.833 134.15L339.086 139.283C338.987 139.678 337.803 147.18 337.803 147.18V147.279Z" fill="url(#paint33_linear_333_886)"/>
<path fill-rule="evenodd" clip-rule="evenodd" d="M428.125 221.905V221.51H274.627V115.296H427.73V221.905H428.125V221.51V221.905H428.519V114.506H273.837V222.3H428.519V221.905H428.125Z" fill="url(#paint34_linear_333_886)"/>
<path fill-rule="evenodd" clip-rule="evenodd" d="M324.477 193.377C323.391 193.081 322.404 192.884 321.417 192.588C311.249 189.626 305.721 185.382 305.721 185.382C307.498 177.485 312.039 163.27 316.382 156.163C317.962 153.596 320.627 152.609 321.417 152.214C321.713 152.116 323.292 153.794 323.588 153.596L322.601 172.055L324.575 193.377H324.477Z" fill="url(#paint35_linear_333_886)"/>
<path fill-rule="evenodd" clip-rule="evenodd" d="M373.24 192.884C373.142 194.266 371.957 209.27 372.352 221.609H320.923C322.305 210.356 319.936 159.914 320.824 154.386C321.022 154.189 321.219 152.412 321.416 152.214C327.931 148.957 337.21 147.377 338 147.18C338 147.18 342.343 146.884 344.91 146.983C349.352 147.081 356.459 148.167 362.777 149.944H362.876C363.468 150.141 367.614 151.721 371.858 156.262C373.339 157.742 374.721 159.618 376.103 161.888C375.807 168.995 374.326 181.729 373.438 192.785L373.24 192.884Z" fill="url(#paint36_linear_333_886)"/>
<path fill-rule="evenodd" clip-rule="evenodd" d="M335.236 154.682C335.236 154.682 335.532 155.669 336.618 156.558C337.704 157.446 339.777 158.335 343.133 158.335C343.331 158.335 343.627 158.335 343.824 158.335C351.129 158.038 354.189 153.399 355.077 150.24C355.077 150.141 355.077 150.043 354.979 150.043C354.88 150.043 354.781 150.043 354.781 150.141C353.893 153.202 351.03 157.742 343.824 157.94C343.627 157.94 343.331 157.94 343.133 157.94C339.777 157.94 337.902 157.051 336.816 156.163C336.322 155.768 335.927 155.274 335.73 154.978C335.631 154.781 335.532 154.682 335.532 154.583V154.485C335.532 154.386 335.434 154.386 335.335 154.386C335.236 154.386 335.236 154.485 335.236 154.583V154.682Z" fill="url(#paint37_linear_333_886)"/>
<path fill-rule="evenodd" clip-rule="evenodd" d="M359.026 181.729L360.507 209.467L371.168 204.236L359.026 181.729Z" fill="url(#paint38_linear_333_886)"/>
<path fill-rule="evenodd" clip-rule="evenodd" d="M325.76 119.738C325.76 119.738 324.773 126.944 329.116 128.918L331.288 119.146L325.76 119.738Z" fill="url(#paint39_linear_333_886)"/>
<path fill-rule="evenodd" clip-rule="evenodd" d="M343.035 156.262C342.344 156.262 341.653 156.262 340.962 156.163C334.052 155.373 337.112 148.266 337.901 147.377C337.901 147.377 339.086 139.875 339.185 139.48L350.932 134.347C350.932 134.347 351.228 147.772 352.412 147.97C354.09 148.759 352.017 156.36 343.035 156.36V156.262ZM346.786 138.592L339.086 139.48L338.198 145.304C344.219 144.219 346.786 138.592 346.786 138.592Z" fill="url(#paint40_linear_333_886)"/>
<path fill-rule="evenodd" clip-rule="evenodd" d="M327.438 119.837C327.438 119.837 325.365 135.532 330.992 141.553C332.176 142.837 333.953 143.528 335.73 143.429C338.691 143.232 344.12 142.146 347.773 137.309C349.253 135.335 351.129 134.841 351.82 132.373C352.807 128.425 354.189 121.12 352.412 116.777C349.846 110.558 327.635 104.635 327.438 119.837Z" fill="url(#paint41_linear_333_886)"/>
<path fill-rule="evenodd" clip-rule="evenodd" d="M352.215 138.691L351.129 139.382C350.833 136.322 350.932 133.558 350.734 131.287C351.82 128.622 351.623 124.674 349.155 124.081C345.305 123.292 344.219 128.622 344.219 128.622C344.12 128.523 344.022 128.523 343.923 128.425C341.85 126.648 341.06 123.983 340.369 121.021C338.395 121.712 333.657 123.489 326.451 121.811C323.292 121.12 321.91 118.751 322.7 115.395C322.7 115.395 321.713 114.013 321.713 112.532C321.713 110.755 321.811 109.077 323.292 108.09C324.773 107.103 326.155 107.596 326.155 107.596C326.155 107.596 326.253 105.523 329.017 104.734C331.88 103.944 333.262 105.622 333.262 105.622C333.262 105.622 335.039 101.772 341.751 103.056C348.464 104.339 349.056 107.892 349.056 107.892C349.056 107.892 350.241 107.3 351.919 108.682C353.597 110.163 352.314 113.223 352.314 113.223C362.974 115.197 352.215 137.802 352.116 138.592L352.215 138.691Z" fill="url(#paint42_linear_333_886)"/>
<path fill-rule="evenodd" clip-rule="evenodd" d="M391.305 206.506C389.824 194.266 381.631 174.128 381.631 174.128L361.987 183.407C361.987 183.407 365.837 194.957 369.095 203.446L331.485 211.837C331.683 214.206 332.966 218.944 333.558 221.51H386.665C389.824 219.931 392.489 214.699 391.305 206.506Z" fill="url(#paint43_linear_333_886)"/>
<path fill-rule="evenodd" clip-rule="evenodd" d="M357.841 174.227C359.618 185.283 361.889 199.3 361.889 199.3C381.532 196.339 389.725 190.317 389.725 190.317C389.725 190.317 377.288 156.755 375.807 155.274C373.635 153.004 366.034 151.129 362.58 150.043L357.743 174.227H357.841Z" fill="url(#paint44_linear_333_886)"/>
<path d="M349.253 221.609H327.537V219.437H349.253C349.846 219.437 350.339 219.931 350.339 220.523C350.339 221.115 349.846 221.609 349.253 221.609Z" fill="#FEFEFE"/>
<path d="M337.507 221.609H285.584C284.893 221.609 284.399 221.214 284.202 220.523L273.048 180.446C272.85 179.558 273.442 178.669 274.43 178.669H324.575C325.76 178.669 326.846 179.459 327.241 180.643L338.296 220.622C338.395 221.115 338.099 221.609 337.605 221.609H337.507Z" fill="#FEFEFE"/>
<path d="M335.532 221.609H283.61C282.919 221.609 282.425 221.214 282.228 220.523L271.073 180.446C270.876 179.558 271.468 178.669 272.455 178.669H322.601C323.786 178.669 324.871 179.459 325.266 180.643L336.322 220.622C336.421 221.115 336.125 221.609 335.631 221.609H335.532Z" fill="#242222"/>
<path d="M308.485 199.103C308.485 201.965 305.03 204.236 300.687 204.236C296.344 204.236 292.889 201.965 292.889 199.103C292.889 196.24 296.344 193.969 300.687 193.969C305.03 193.969 308.485 196.24 308.485 199.103Z" fill="#FEFEFE"/>
<path d="M329.906 130.201V129.905H326.352C325.76 129.905 325.365 129.412 325.365 128.918V125.858C325.365 125.266 325.859 124.871 326.352 124.871H329.906C330.498 124.871 330.893 125.365 330.893 125.858V128.918C330.893 129.51 330.399 129.905 329.906 129.905V130.498C330.794 130.498 331.584 129.807 331.584 128.819V125.759C331.584 124.871 330.893 124.081 329.906 124.081H326.352C325.464 124.081 324.674 124.772 324.674 125.759V128.819C324.674 129.708 325.365 130.498 326.352 130.498H329.906V130.201Z" fill="#242222"/>
<path d="M339.284 130.201V129.905H334.743C334.151 129.905 333.756 129.412 333.756 128.918V125.858C333.756 125.266 334.249 124.871 334.743 124.871H339.284C339.876 124.871 340.271 125.365 340.271 125.858V128.918C340.271 129.51 339.777 129.905 339.284 129.905V130.498C340.172 130.498 340.962 129.807 340.962 128.819V125.759C340.962 124.871 340.271 124.081 339.284 124.081H334.743C333.854 124.081 333.065 124.772 333.065 125.759V128.819C333.065 129.708 333.756 130.498 334.743 130.498H339.284V130.201Z" fill="#242222"/>
<path d="M340.665 127.141H344.022V125.463H340.665V127.141Z" fill="#242222"/>
<path d="M331.288 126.45C331.387 126.45 331.781 126.253 332.275 126.253C332.571 126.253 332.867 126.352 333.262 126.45L333.558 125.858C333.163 125.661 332.67 125.562 332.275 125.562C331.485 125.562 330.992 125.858 330.992 125.858L331.288 126.45Z" fill="#242222"/>
<path d="M277.687 222.3H394.266V221.51H277.687V222.3Z" fill="#242222"/>
<path d="M417.957 125.068H438.292V104.734H417.957V125.068Z" fill="#242222"/>
<path d="M436.12 109.176L433.949 106.905L428.124 112.729L422.399 106.905L420.129 109.176L425.953 114.901L420.129 120.725L422.399 122.897L428.124 117.171L433.949 122.897L436.12 120.725L430.395 114.901L436.12 109.176Z" fill="#FEFEFE"/>
<path d="M430 158.927H393.773C390.416 158.927 387.751 156.262 387.751 152.905V140.369C387.751 137.013 390.416 134.347 393.773 134.347H430C433.356 134.347 436.022 137.013 436.022 140.369V152.905C436.022 156.262 433.356 158.927 430 158.927Z" fill="#FEFEFE"/>
<path fill-rule="evenodd" clip-rule="evenodd" d="M430 158.927V158.729V159.124V158.927ZM430 158.729H393.773C392.193 158.729 390.713 158.038 389.627 157.051C388.541 155.965 387.949 154.583 387.949 152.905V140.369C387.949 138.789 388.64 137.309 389.627 136.223C390.713 135.137 392.095 134.545 393.773 134.545H430C431.579 134.545 433.06 135.236 434.146 136.223C435.232 137.309 435.824 138.691 435.824 140.369V152.905C435.824 154.485 435.133 155.965 434.146 157.051C433.06 158.137 431.678 158.729 430 158.729ZM430 159.124C433.455 159.124 436.219 156.36 436.219 152.905V140.369C436.219 136.914 433.455 134.15 430 134.15H393.773C390.318 134.15 387.554 136.914 387.554 140.369V152.905C387.554 156.36 390.318 159.124 393.773 159.124H430Z" fill="url(#paint45_linear_333_886)"/>
<path fill-rule="evenodd" clip-rule="evenodd" d="M397.919 156.953C397.919 156.953 398.807 171.266 388.344 171.266C388.344 171.266 406.408 176.202 406.408 156.953H397.919Z" fill="url(#paint46_linear_333_886)"/>
<path fill-rule="evenodd" clip-rule="evenodd" d="M397.721 156.953C397.721 156.953 397.721 157.249 397.721 157.742C397.721 159.223 397.524 162.579 396.24 165.54C395.648 167.021 394.661 168.403 393.378 169.39C392.095 170.377 390.416 171.068 388.245 171.068C388.146 171.068 388.047 171.167 388.047 171.266C388.047 171.365 388.047 171.463 388.146 171.463C388.146 171.463 390.219 172.055 393.082 172.055C395.747 172.055 399.103 171.463 401.867 169.292C404.532 167.12 406.605 163.27 406.506 156.854C406.506 156.755 406.408 156.656 406.309 156.656C406.21 156.656 406.112 156.755 406.112 156.854C406.112 163.171 404.137 166.824 401.571 168.897C399.004 170.97 395.747 171.562 393.082 171.562C391.7 171.562 390.515 171.463 389.627 171.266C389.232 171.167 388.837 171.167 388.64 171.068C388.442 170.97 388.245 170.97 388.245 170.97L388.146 171.167V171.365C390.416 171.365 392.193 170.674 393.575 169.686C395.648 168.107 396.734 165.639 397.326 163.369C397.919 161.098 398.017 158.828 398.017 157.742C398.017 157.249 398.017 156.854 398.017 156.854C398.017 156.755 397.919 156.656 397.82 156.656C397.721 156.656 397.622 156.755 397.622 156.854L397.721 156.953Z" fill="url(#paint47_linear_333_886)"/>
<path fill-rule="evenodd" clip-rule="evenodd" d="M391.601 146.588C391.7 146.489 392.391 145.502 393.477 144.515C393.97 144.021 394.661 143.626 395.253 143.232C395.846 142.935 396.438 142.738 397.03 142.738C397.129 142.738 397.228 142.738 397.326 142.738C397.524 142.738 397.721 142.837 397.82 142.935C397.919 143.034 398.116 143.232 398.215 143.528C398.313 143.824 398.313 144.317 398.313 144.91C398.313 145.996 398.116 147.377 398.116 148.661C398.116 149.648 398.215 150.635 398.708 151.523C398.906 151.918 399.301 152.313 399.794 152.609C400.288 152.807 400.781 153.004 401.472 153.004C402.065 153.004 402.558 152.807 403.052 152.609C403.841 152.214 404.532 151.523 405.223 150.832C406.21 149.747 407.099 148.463 407.987 147.476C408.382 146.983 408.876 146.588 409.271 146.292C409.665 145.996 409.962 145.897 410.258 145.897H410.356C410.653 145.897 410.85 145.996 410.949 146.094C411.047 146.193 411.146 146.193 411.146 146.292C411.245 146.489 411.343 146.785 411.442 147.18C411.541 147.772 411.64 148.562 412.034 149.352C412.232 149.747 412.528 150.043 413.022 150.339C413.416 150.536 414.009 150.734 414.601 150.734H414.798C415.391 150.734 415.983 150.536 416.477 150.24C417.365 149.747 418.253 149.056 418.944 148.266C420.129 147.081 421.116 145.699 422.103 144.614C422.597 144.12 423.09 143.626 423.485 143.33C423.88 143.034 424.275 142.935 424.472 142.935C424.67 142.935 424.768 142.935 424.966 143.034C425.262 143.232 425.558 143.528 425.854 144.12C426.348 144.91 426.841 145.996 427.532 146.884C427.927 147.377 428.322 147.772 428.816 148.068C429.309 148.365 430 148.562 430.691 148.562C431.086 148.562 431.382 148.562 431.777 148.463C432.172 148.365 432.468 147.97 432.369 147.476C432.27 147.081 431.876 146.785 431.382 146.884C431.086 146.983 430.889 146.983 430.592 146.983C430.198 146.983 430 146.884 429.704 146.785C429.309 146.588 428.914 146.193 428.519 145.699C427.927 144.91 427.532 143.923 426.94 143.034C426.644 142.541 426.348 142.146 425.854 141.85C425.459 141.553 424.867 141.257 424.275 141.257H424.176C423.683 141.257 423.189 141.455 422.695 141.652C421.906 142.146 421.215 142.837 420.524 143.528C419.438 144.712 418.451 146.094 417.365 147.081C416.871 147.575 416.279 148.068 415.786 148.365C415.292 148.661 414.798 148.858 414.305 148.858H414.206C413.811 148.858 413.614 148.759 413.416 148.759C413.318 148.661 413.219 148.661 413.12 148.562C413.022 148.365 412.824 148.167 412.725 147.772C412.627 147.18 412.528 146.489 412.232 145.699C412.034 145.305 411.837 144.91 411.442 144.712C411.047 144.416 410.554 144.219 410.06 144.219H409.863C409.369 144.219 408.876 144.416 408.382 144.614C407.592 145.008 406.901 145.699 406.309 146.39C405.322 147.476 404.434 148.759 403.545 149.747C403.052 150.24 402.657 150.635 402.262 150.931C401.867 151.227 401.472 151.326 401.176 151.326C400.781 151.326 400.485 151.227 400.288 151.129C400.09 151.03 399.992 150.931 399.893 150.832C399.794 150.635 399.597 150.339 399.597 149.944C399.498 149.549 399.498 149.154 399.498 148.661C399.498 147.476 399.695 146.193 399.695 144.91C399.695 144.12 399.597 143.33 399.301 142.639C399.103 142.244 398.906 141.948 398.511 141.751C398.215 141.455 397.721 141.356 397.326 141.257C397.129 141.257 397.03 141.257 396.833 141.257C395.944 141.257 395.056 141.553 394.266 142.047C393.082 142.738 392.095 143.626 391.404 144.416C390.713 145.206 390.219 145.798 390.219 145.798C389.923 146.193 390.022 146.588 390.416 146.884C390.811 147.18 391.206 147.081 391.502 146.686L391.601 146.588Z" fill="url(#paint48_linear_333_886)"/>
<path d="M242.644 273.63C242.644 273.63 259.228 288.042 285.781 288.042C288.545 288.042 291.408 287.845 294.468 287.549C305.425 286.266 313.816 279.356 319.442 271.064C325.069 262.772 328.03 252.999 328.03 245.991C328.03 243.128 327.537 240.759 326.55 238.982C325.562 237.304 324.082 236.218 322.009 236.218C321.515 236.218 321.022 236.317 320.429 236.416C319.245 236.712 318.356 237.304 317.764 238.193C317.172 239.081 316.876 240.167 316.876 241.45C316.876 245.793 320.133 251.914 326.451 257.047C332.768 262.18 342.146 266.227 354.288 266.227C355.275 266.227 356.163 266.227 357.15 266.128C373.931 265.24 382.618 256.948 387.06 248.952C391.502 240.957 391.798 233.06 391.798 233.06C391.798 232.961 391.7 232.862 391.601 232.862C391.502 232.862 391.404 232.961 391.404 233.06C391.404 233.06 391.404 233.158 391.404 233.356C391.305 235.034 390.515 242.733 385.876 250.236C381.236 257.639 372.747 264.944 357.15 265.733C356.163 265.832 355.176 265.832 354.288 265.832C342.245 265.832 332.966 261.785 326.747 256.751C320.528 251.716 317.271 245.497 317.271 241.45C317.271 240.266 317.567 239.18 318.06 238.39C318.554 237.6 319.442 237.107 320.528 236.811C321.022 236.712 321.515 236.613 322.009 236.613C323.884 236.613 325.266 237.502 326.155 239.18C327.043 240.759 327.537 243.128 327.537 245.991C327.537 252.901 324.575 262.575 319.047 270.866C313.421 279.06 305.129 285.871 294.369 287.154C291.408 287.549 288.545 287.647 285.781 287.647C272.554 287.647 261.893 284.094 254.49 280.54C250.739 278.763 247.876 276.987 246 275.605C245.013 274.914 244.322 274.42 243.829 274.025C243.533 273.828 243.434 273.63 243.236 273.532C243.138 273.433 243.039 273.334 243.039 273.334C242.94 273.236 242.842 273.236 242.743 273.334C242.644 273.433 242.644 273.532 242.743 273.63H242.644Z" fill="#242222"/>
<path d="M308.781 62.4847C308.781 62.4847 308.88 62.2873 309.176 62.0899C310.953 60.2144 318.85 52.5148 328.228 52.5148C332.472 52.5148 335.631 54.6865 337.704 57.7466C339.777 60.9054 340.764 64.9526 340.764 68.8023C340.764 71.8624 340.172 74.7251 338.987 76.798C337.803 78.871 336.026 80.1542 333.756 80.1542C333.262 80.1542 332.768 80.0555 332.176 79.9568C330.498 79.562 329.314 78.7723 328.425 77.8839C327.635 76.8967 327.241 75.7122 327.241 74.4289C327.241 70.974 329.807 66.6307 334.348 63.1757C338.889 59.7208 345.305 57.0556 353.103 57.0556C353.202 57.0556 353.301 57.0556 353.301 57.0556C359.717 57.0556 363.665 60.5105 366.133 64.0641C367.318 65.841 368.107 67.5191 368.7 68.8023C368.996 69.4933 369.095 69.9869 369.292 70.3817C369.391 70.5792 369.391 70.6779 369.391 70.7766C369.391 70.8753 369.391 70.974 369.391 70.974C369.391 71.0727 369.489 71.1714 369.588 71.0727C369.687 71.0727 369.786 70.974 369.687 70.8753C369.687 70.8753 368.897 67.3216 366.429 63.8667C363.962 60.3131 359.816 56.7594 353.301 56.7594C353.202 56.7594 353.103 56.7594 353.004 56.7594C345.107 56.7594 338.592 59.4247 333.953 62.9783C329.412 66.532 326.747 70.974 326.747 74.5276C326.747 75.9096 327.142 77.1929 328.03 78.2787C328.919 79.2658 330.202 80.0555 331.979 80.5491C332.571 80.6478 333.065 80.7465 333.657 80.7465C336.125 80.7465 338 79.3645 339.185 77.1929C340.468 75.0212 341.06 72.0598 341.06 68.9998C341.06 65.0513 340.073 60.9054 337.902 57.7466C335.73 54.5878 332.472 52.3174 328.129 52.3174C317.172 52.3174 308.387 62.4847 308.387 62.4847C308.288 62.5835 308.288 62.6822 308.387 62.7809C308.485 62.8796 308.584 62.8796 308.683 62.7809L308.781 62.4847Z" fill="#242222"/>
<path d="M25.6746 24.7768H22.4171V21.5193H20.8377V24.7768H17.5802V26.4549H20.8377V29.7124H22.4171V26.4549H25.6746V24.7768Z" fill="#242222"/>
<path d="M38.3098 24.7768H35.0523V21.5193H33.3742V24.7768H30.2154V26.4549H33.3742V29.7124H35.0523V26.4549H38.3098V24.7768Z" fill="#242222"/>
<path d="M50.9449 24.7768H47.6874V21.5193H46.0093V24.7768H42.7518V26.4549H46.0093V29.7124H47.6874V26.4549H50.9449V24.7768Z" fill="#242222"/>
<path d="M416.477 240.068H412.923V244.214H408.777V247.768H412.923V251.914H416.477V247.768H420.622V244.214H416.477V240.068Z" fill="#242222"/>
<path d="M432.665 240.068H429.112V244.214H424.966V247.768H429.112V251.914H432.665V247.768H436.811V244.214H432.665V240.068Z" fill="#242222"/>
<path d="M448.854 244.214V240.068H445.3V244.214H441.056V247.768H445.3V251.914H448.854V247.768H453V244.214H448.854Z" fill="#242222"/>
<path d="M112.048 227.729H183.91V221.313H112.048V227.729Z" fill="#242222"/>
<path d="M119.254 227.63L100.696 309.068C100.696 309.266 100.795 309.463 100.992 309.562C101.189 309.562 101.387 309.463 101.486 309.266L120.043 227.828C120.043 227.63 119.945 227.433 119.747 227.334C119.55 227.334 119.353 227.433 119.254 227.63Z" fill="#242222"/>
<path d="M175.52 227.828L194.078 309.266C194.078 309.463 194.374 309.562 194.571 309.562C194.769 309.562 194.867 309.266 194.867 309.068L176.31 227.63C176.31 227.433 176.013 227.334 175.816 227.334C175.619 227.334 175.52 227.63 175.52 227.828Z" fill="#242222"/>
<path d="M105.237 291.004H190.228C190.425 291.004 190.623 290.806 190.623 290.609C190.623 290.411 190.425 290.214 190.228 290.214H105.237C105.039 290.214 104.842 290.411 104.842 290.609C104.842 290.806 105.039 291.004 105.237 291.004Z" fill="#242222"/>
<path fill-rule="evenodd" clip-rule="evenodd" d="M227.442 133.064C225.962 136.914 223.395 140.566 223.395 140.566C221.618 142.738 217.176 145.008 215.4 146.193C209.773 154.978 190.722 183.901 183.812 184.296C174.237 184.888 161.7 160.704 161.7 160.704L177.691 149.845L184.897 160.407L206.318 140.566C206.417 139.283 206.219 135.828 207.305 133.854C208.687 131.485 211.155 127.832 211.945 125.957C212.932 123.489 213.623 121.811 214.314 121.317C215.005 120.824 216.485 121.317 216.584 123.39C216.683 125.068 215.696 128.523 215.597 128.721C215.794 128.523 218.657 125.266 219.151 124.377C219.151 124.377 219.249 122.995 219.249 121.712C219.249 118.652 221.816 118.553 222.013 119.244C222.013 119.442 222.112 119.639 222.112 119.837C222.408 118.85 223.099 117.566 224.975 118.06C225.271 118.159 225.468 118.455 225.172 120.133C225.666 119.738 226.455 119.738 226.751 120.034C227.048 120.33 227.048 121.91 226.949 123.884C227.344 123.785 227.64 123.884 227.837 123.983C228.232 124.377 228.035 131.287 227.344 132.965L227.442 133.064Z" fill="url(#paint49_linear_333_886)"/>
<path fill-rule="evenodd" clip-rule="evenodd" d="M112.838 167.021L96.2539 155.077C96.2539 155.077 85.5929 174.227 84.3097 179.854C84.0135 181.433 83.9148 182.914 84.4084 184.296L106.717 179.262L112.739 167.12L112.838 167.021Z" fill="url(#paint50_linear_333_886)"/>
<path fill-rule="evenodd" clip-rule="evenodd" d="M163.082 126.056L182.528 155.373C182.528 155.373 177 163.073 161.108 166.626C145.215 170.081 163.181 126.154 163.181 126.154L163.082 126.056Z" fill="url(#paint51_linear_333_886)"/>
<path fill-rule="evenodd" clip-rule="evenodd" d="M174.039 161.888C170.782 163.665 166.537 165.343 161.009 166.528C153.013 168.305 153.606 158.038 156.074 147.476C156.172 146.983 156.271 146.588 156.37 146.094C160.516 146.292 166.833 146.094 166.833 146.094L174.039 161.888Z" fill="url(#paint52_linear_333_886)"/>
<path fill-rule="evenodd" clip-rule="evenodd" d="M121.228 128.622C121.228 128.622 113.627 126.253 110.37 128.622C106.125 131.682 89.344 166.034 89.344 166.034C92.7989 170.081 108.692 175.412 113.529 174.523L117.477 165.935C117.477 165.935 121.129 186.961 121.722 196.536C143.734 198.51 154.692 194.759 159.627 188.047L163.477 163.369C163.477 163.369 167.919 159.124 168.413 155.867C168.61 154.287 163.872 129.412 163.082 126.154C159.923 122.206 153.211 126.056 153.211 126.056L121.228 128.721V128.622Z" fill="url(#paint53_linear_333_886)"/>
<path fill-rule="evenodd" clip-rule="evenodd" d="M147.584 124.674C146.202 123.193 145.413 117.665 144.919 114.309C150.644 113.223 153.606 109.571 153.112 105.326C152.125 97.9225 143.34 87.6564 138.404 86.2744C124.091 82.1285 112.739 98.8109 124.486 109.176C124.486 109.176 127.743 111.446 132.481 113.025C132.185 117.665 131.395 124.772 130.112 126.055C129.619 126.549 121.228 128.721 121.228 128.721C121.228 128.721 130.112 139.875 140.674 138.888C151.237 137.901 153.211 126.055 153.211 126.055C153.211 126.055 148.868 126.154 147.584 124.674Z" fill="url(#paint54_linear_333_886)"/>
<path fill-rule="evenodd" clip-rule="evenodd" d="M118.464 91.1114C118.464 91.1114 110.765 85.9784 105.138 92.6908C99.2152 99.8968 101.387 125.661 101.387 125.661H115.799C115.799 125.661 112.541 105.721 112.838 99.6007C113.134 93.4805 117.181 95.5534 117.181 95.5534L118.464 91.1114Z" fill="url(#paint55_linear_333_886)"/>
<path fill-rule="evenodd" clip-rule="evenodd" d="M119.846 87.6564C119.846 87.6564 117.082 82.1285 113.232 80.5491C113.232 80.5491 112.739 82.9182 115.601 87.9525C115.601 87.9525 111.653 83.6092 106.915 82.622C106.915 82.622 106.026 86.3731 114.516 91.7036C114.516 91.7036 112.838 94.8624 114.812 96.8366C116.786 98.7121 121.129 90.6177 119.846 87.5576V87.6564Z" fill="url(#paint56_linear_333_886)"/>
<path fill-rule="evenodd" clip-rule="evenodd" d="M132.58 111.841L132.383 114.605C132.383 114.605 124.782 116.086 122.808 109.867C112.048 107.202 112.443 96.3434 116.984 93.5794C118.958 81.0429 130.014 82.3262 133.468 81.8326C136.825 79.661 139.589 77.8842 139.589 77.8842C142.747 81.1417 143.932 85.0902 143.735 89.6309C143.735 89.6309 142.353 88.3477 141.267 87.6567C139.983 91.5064 138.898 99.3047 132.679 101.279C132.679 101.279 128.138 99.3047 127.052 102.76C125.966 106.215 131.396 109.077 131.396 109.077L132.58 111.841Z" fill="url(#paint57_linear_333_886)"/>
<path fill-rule="evenodd" clip-rule="evenodd" d="M145.61 118.356C137.417 116.777 135.837 111.742 135.739 111.446C138.601 114.901 145.018 114.21 145.018 114.21C145.215 115.395 145.413 116.875 145.61 118.356Z" fill="url(#paint58_linear_333_886)"/>
<path fill-rule="evenodd" clip-rule="evenodd" d="M122.413 153.004L118.859 174.622C118.069 169.588 117.477 165.935 117.477 165.935L122.413 153.004Z" fill="url(#paint59_linear_333_886)"/>
<path fill-rule="evenodd" clip-rule="evenodd" d="M195.46 242.832L208.885 255.27C208.885 255.27 216.387 251.519 218.065 245.892C211.155 236.12 206.219 229.21 206.219 229.21L195.46 242.931V242.832Z" fill="url(#paint60_linear_333_886)"/>
<path fill-rule="evenodd" clip-rule="evenodd" d="M121.426 193.97C121.426 193.97 123.992 194.957 126.361 195.746C135.64 191.699 158.443 178.274 166.734 181.433C177.099 185.283 209.477 231.974 209.477 231.974C207.108 237.304 191.61 249.15 179.172 255.27C179.172 255.27 166.142 218.648 161.404 211.145C161.404 211.145 150.151 220.03 144.524 221.412H119.945C119.945 221.412 111.554 209.27 121.327 194.068L121.426 193.97Z" fill="url(#paint61_linear_333_886)"/>
<path fill-rule="evenodd" clip-rule="evenodd" d="M118.365 200.188C121.426 198.412 126.361 195.746 126.361 195.746C123.992 194.957 121.426 193.969 121.426 193.969C120.044 196.141 119.056 198.214 118.365 200.188Z" fill="url(#paint62_linear_333_886)"/>
<path fill-rule="evenodd" clip-rule="evenodd" d="M106.816 179.261L84.5071 184.296C85.6917 187.948 90.1337 190.712 99.4127 193.97C109.383 197.425 118.365 200.188 118.365 200.188L131.001 193.673L106.816 179.261Z" fill="url(#paint63_linear_333_886)"/>
<path fill-rule="evenodd" clip-rule="evenodd" d="M146.301 221.313H134.85C134.85 221.313 155.481 192.686 170.979 197.721C177.395 199.794 177.297 214.798 176.704 227.828C176.31 237.107 175.915 245.991 175.915 245.991L165.55 220.03L167.623 218.944L156.468 211.738L146.202 221.412L146.301 221.313Z" fill="url(#paint64_linear_333_886)"/>
<path fill-rule="evenodd" clip-rule="evenodd" d="M157.752 265.437L151.829 283.798C151.829 283.798 142.945 284.291 138.503 279.948C139.687 267.412 140.674 258.429 140.674 258.429L157.752 265.437Z" fill="url(#paint65_linear_333_886)"/>
<path fill-rule="evenodd" clip-rule="evenodd" d="M137.318 268.201C149.953 273.137 168.215 275.703 173.151 275.605C174.335 245.103 174.73 223.879 174.829 218.746C175.224 199.399 168.511 200.188 164.958 200.188C156.074 200.188 147.288 212.626 144.722 226.446C142.846 236.811 139.292 256.751 137.318 268.201Z" fill="url(#paint66_linear_333_886)"/>
<path fill-rule="evenodd" clip-rule="evenodd" d="M136.43 274.914L154.494 278.665L152.717 285.476C152.717 285.476 154.79 291.596 156.567 297.223C158.541 298.111 160.516 298.111 162.687 298.901C163.773 299.296 164.464 300.48 164.267 301.566C163.674 304.725 160.219 309.167 155.975 309.167H128.632C128.632 309.167 131.099 296.828 133.074 294.854L136.331 274.914H136.43Z" fill="url(#paint67_linear_333_886)"/>
<path d="M134.357 294.557C134.357 294.557 134.357 294.557 134.456 294.557C134.949 294.557 136.627 294.557 138.305 295.051C139.983 295.545 141.76 296.532 142.451 298.308C142.846 299.197 143.636 301.27 144.327 303.047C145.018 304.823 145.61 306.403 145.61 306.403V306.502H156.764C156.863 306.502 156.962 306.403 156.962 306.304C156.962 306.205 156.863 306.107 156.764 306.107H145.709V306.304L145.906 306.205C145.906 306.205 143.438 299.888 142.747 298.111C141.958 296.137 140.082 295.15 138.305 294.656C136.528 294.163 134.85 294.064 134.357 294.064C134.258 294.064 134.258 294.064 134.258 294.064C134.159 294.064 134.061 294.163 134.061 294.261C134.061 294.36 134.159 294.459 134.258 294.459L134.357 294.557Z" fill="#FEFEFE"/>
<path d="M139.885 295.545L138.996 308.772C138.996 308.871 139.095 308.969 139.194 308.969C139.292 308.969 139.391 308.871 139.391 308.772L140.28 295.545C140.28 295.446 140.181 295.347 140.082 295.347C139.983 295.347 139.885 295.446 139.885 295.545Z" fill="#FEFEFE"/>
<path d="M200.099 249.742L209.576 259.91C209.576 259.91 213.327 269.879 218.065 276.691L227.837 270.077L222.112 260.107C222.112 260.107 228.43 261.39 235.142 264.746L250.442 254.776C250.442 254.776 250.442 242.24 244.322 244.708C238.4 247.077 235.438 247.965 235.438 247.965L218.657 242.141L214.807 236.91L200 249.841L200.099 249.742Z" fill="#242222"/>
<path d="M211.55 259.811C211.55 259.811 211.648 259.811 211.747 259.712C212.537 259.12 216.189 256.553 220.829 256.553C221.125 256.553 221.322 256.553 221.618 256.553C224.481 256.751 228.133 258.034 231.095 259.317C232.575 259.909 233.859 260.6 234.747 261.094C235.636 261.588 236.228 261.884 236.228 261.884L236.327 261.982L249.357 253.888C249.455 253.789 249.455 253.691 249.455 253.592C249.357 253.493 249.258 253.493 249.159 253.493L236.228 261.588L236.327 261.785L236.425 261.588C236.425 261.588 234.155 260.304 231.194 259.021C228.232 257.738 224.58 256.356 221.618 256.257C221.322 256.257 221.026 256.257 220.829 256.257C215.4 256.257 211.352 259.613 211.352 259.613C211.254 259.712 211.254 259.811 211.352 259.909C211.451 260.008 211.55 260.008 211.648 259.909L211.55 259.811Z" fill="#FEFEFE"/>
<path d="M226.653 124.082C226.653 124.082 225.37 124.476 225.073 126.352C224.777 128.227 224.284 130.498 224.284 130.498H224.481L224.382 130.399L222.112 134.742C222.112 134.841 222.112 134.94 222.211 134.94C222.309 134.94 222.408 134.94 222.408 134.841L224.679 130.498C224.679 130.498 225.073 128.227 225.468 126.352C225.666 125.463 225.962 124.97 226.258 124.674C226.455 124.575 226.554 124.476 226.653 124.378L226.752 124.279C226.85 124.279 226.85 124.18 226.85 124.082C226.85 123.983 226.752 123.983 226.653 123.983V124.082Z" fill="#242222"/>
<path d="M224.975 120.231C224.975 120.231 223.988 120.824 223.593 122.206C223.494 122.699 223.099 124.476 222.902 126.154C222.606 127.832 222.408 129.412 222.408 129.412H222.606L222.507 129.313L220.138 133.459C220.138 133.558 220.138 133.656 220.236 133.656C220.335 133.656 220.434 133.656 220.434 133.558L222.803 129.412V129.313C222.803 129.313 223.099 127.734 223.297 126.055C223.593 124.377 223.889 122.601 223.988 122.107C224.185 121.515 224.481 121.021 224.777 120.725C224.876 120.528 225.073 120.429 225.073 120.429L225.172 120.33C225.271 120.33 225.271 120.231 225.172 120.133C225.172 120.034 225.073 120.034 224.975 120.133V120.231Z" fill="#242222"/>
<path d="M222.013 120.034C222.013 120.034 221.224 121.219 220.927 123.292C220.73 124.279 220.631 125.463 220.434 126.253C220.236 127.141 220.138 127.635 220.138 127.635H220.335L220.236 127.536L217.473 131.287V131.485H217.67L220.434 127.734V127.635C220.434 127.635 220.927 125.266 221.224 123.193C221.421 122.206 221.618 121.416 221.915 120.923C222.013 120.626 222.112 120.429 222.211 120.33L222.309 120.232C222.408 120.133 222.309 120.034 222.309 120.034C222.211 119.935 222.112 120.034 222.112 120.034H222.013Z" fill="#242222"/>
<path d="M46.2068 105.721H82.4342C85.7904 105.721 88.4556 103.056 88.4556 99.6995V87.1631C88.4556 83.8068 85.7904 81.1416 82.4342 81.1416H46.2068C42.8505 81.1416 40.1853 83.8068 40.1853 87.1631V99.6995C40.1853 103.056 42.8505 105.721 46.2068 105.721Z" fill="#FEFEFE"/>
<path fill-rule="evenodd" clip-rule="evenodd" d="M46.2068 105.721V105.918V105.523V105.721ZM46.2068 105.918H82.4342C85.8891 105.918 88.653 103.154 88.653 99.6994V87.163C88.653 83.708 85.8891 80.9441 82.4342 80.9441H46.2068C42.7518 80.9441 39.9879 83.708 39.9879 87.163V99.6994C39.9879 103.154 42.7518 105.918 46.2068 105.918ZM46.2068 105.523C44.6274 105.523 43.1467 104.832 42.0608 103.845C40.975 102.76 40.3827 101.378 40.3827 99.6994V87.163C40.3827 85.5836 41.0737 84.1029 42.0608 83.017C43.1467 81.9312 44.5286 81.3389 46.2068 81.3389H82.4342C84.0136 81.3389 85.4942 82.0299 86.5801 83.017C87.6659 84.1029 88.2582 85.4849 88.2582 87.163V99.6994C88.2582 101.279 87.5672 102.76 86.5801 103.845C85.4942 104.931 84.1123 105.523 82.4342 105.523H46.2068Z" fill="url(#paint68_linear_333_886)"/>
<path fill-rule="evenodd" clip-rule="evenodd" d="M78.2883 103.648C78.2883 103.648 77.3999 117.961 87.8634 117.961C87.8634 117.961 69.799 122.897 69.799 103.648H78.2883Z" fill="url(#paint69_linear_333_886)"/>
<path fill-rule="evenodd" clip-rule="evenodd" d="M78.0908 103.648C78.0908 103.648 78.0908 103.944 78.0908 104.536C78.0908 106.116 78.2883 109.472 79.5715 112.532C80.2625 114.013 81.1509 115.493 82.5329 116.481C83.9149 117.566 85.6917 118.159 87.9621 118.159V117.961L87.8634 117.764C87.8634 117.764 87.7647 117.764 87.4685 117.863C86.7775 118.06 85.0994 118.356 83.0265 118.356C80.3612 118.356 77.1037 117.863 74.5372 115.691C71.9707 113.618 69.9964 109.966 69.9964 103.648C69.9964 103.549 69.8977 103.451 69.799 103.451C69.7003 103.451 69.6016 103.549 69.6016 103.648C69.6016 110.064 71.5758 113.914 74.2411 116.086C76.9063 118.257 80.2625 118.85 83.0265 118.85C85.7904 118.85 87.9621 118.257 87.9621 118.257C88.0608 118.257 88.1595 118.159 88.0608 118.06C88.0608 117.961 87.9621 117.863 87.8634 117.863C85.6917 117.863 84.0136 117.27 82.7303 116.184C80.7561 114.704 79.769 112.335 79.1767 110.064C78.5844 107.794 78.4857 105.622 78.4857 104.536C78.4857 104.043 78.4857 103.747 78.4857 103.747C78.4857 103.648 78.387 103.549 78.2883 103.549C78.1896 103.549 78.0908 103.648 78.0908 103.747V103.648Z" fill="url(#paint70_linear_333_886)"/>
<path fill-rule="evenodd" clip-rule="evenodd" d="M85.8891 92.3946C85.8891 92.3946 85.0994 91.3088 83.9148 90.223C83.3226 89.6307 82.6316 89.1371 81.8419 88.6436C81.0522 88.2487 80.1638 87.8539 79.2754 87.8539C79.0779 87.8539 78.9792 87.8539 78.7818 87.8539C78.2882 87.9526 77.8934 88.0513 77.5973 88.3474C77.1037 88.7423 76.8076 89.2359 76.6101 89.8281C76.4127 90.4204 76.4127 91.0127 76.4127 91.6049C76.4127 92.8882 76.6101 94.1715 76.6101 95.356C76.6101 96.2444 76.5114 97.0341 76.2153 97.429C76.1166 97.6264 75.9191 97.7251 75.7217 97.8238C75.5243 97.9225 75.2282 98.0212 74.8333 98.0212C74.5372 98.0212 74.3398 97.9225 74.0436 97.8238C73.5501 97.5277 72.9578 97.0341 72.2668 96.3431C71.3784 95.356 70.49 94.0728 69.5029 92.9869C69.0093 92.4934 68.5157 91.9998 67.9235 91.6049C67.3312 91.2101 66.7389 90.914 66.0479 90.914H65.8505C65.3569 90.914 64.9621 91.1114 64.5672 91.3088C64.2711 91.5062 63.975 91.8024 63.8763 91.9998C63.5801 92.4934 63.4814 92.9869 63.3827 93.4805C63.284 94.1715 63.1853 94.8625 62.9878 95.1586C62.8891 95.356 62.7904 95.4547 62.593 95.5534C62.3956 95.6522 62.1981 95.7509 61.8033 95.7509H61.7046C61.4084 95.7509 61.0136 95.6522 60.6187 95.4547C59.9278 95.1586 59.2368 94.5663 58.5458 93.7766C57.46 92.6908 56.4728 91.3088 55.387 90.1243C54.8934 89.532 54.3012 89.0384 53.8076 88.6436C53.2153 88.2487 52.6231 87.9526 51.9321 87.9526H51.8334C51.3398 87.9526 50.9449 88.0513 50.5501 88.3474C49.8591 88.7423 49.4643 89.3346 49.0694 89.9268C48.4771 90.8152 48.0823 91.9011 47.49 92.5921C47.1939 92.9869 46.8977 93.2831 46.6016 93.4805C46.3055 93.6779 45.9106 93.7766 45.5158 93.7766C45.3183 93.7766 45.0222 93.7766 44.7261 93.6779C44.3312 93.5792 43.8377 93.8753 43.739 94.2702C43.6402 94.665 43.9364 95.1586 44.3312 95.2573C44.7261 95.356 45.1209 95.356 45.4171 95.356C46.0093 95.356 46.5029 95.2573 46.8977 95.0599C47.6874 94.665 48.2797 94.0728 48.6746 93.4805C49.3655 92.4934 49.8591 91.5062 50.3527 90.7165C50.5501 90.3217 50.8462 90.0256 51.0437 89.8281C51.2411 89.6307 51.4385 89.6307 51.7346 89.6307C51.9321 89.6307 52.2282 89.7294 52.5243 89.8281C53.0179 90.1243 53.7089 90.7165 54.3012 91.4075C55.2883 92.4934 56.3741 93.8753 57.5587 95.0599C58.1509 95.6522 58.7432 96.1457 59.4342 96.5406C60.1252 96.9354 60.8162 97.2315 61.6059 97.2315H61.8033C62.2969 97.2315 62.7904 97.1328 63.1853 96.9354C63.5801 96.738 63.8763 96.5406 64.0737 96.2444C64.4685 95.7509 64.666 95.2573 64.7647 94.7637C64.9621 94.0728 64.9621 93.3818 65.1595 92.9869C65.2582 92.7895 65.3569 92.6908 65.4556 92.5921C65.5544 92.4934 65.7518 92.3946 66.0479 92.3946H66.1466C66.3441 92.3946 66.6402 92.4934 66.8376 92.5921C67.3312 92.8882 67.9235 93.3818 68.5157 94.0728C69.4041 95.0599 70.2925 96.3431 71.2797 97.5277C71.7732 98.12 72.2668 98.6135 72.8591 98.9097C73.4513 99.3045 74.1423 99.6006 74.8333 99.6006C75.4256 99.6006 76.0179 99.5019 76.5114 99.2058C76.9063 99.0084 77.2024 98.8109 77.3998 98.5148C77.696 98.12 77.8934 97.5277 77.9921 97.0341C78.0908 96.5406 78.0908 95.9483 78.0908 95.356C78.0908 94.0728 77.8934 92.6908 77.8934 91.6049C77.8934 90.914 77.9921 90.3217 78.0908 89.9268C78.1895 89.7294 78.2882 89.6307 78.387 89.6307C78.4857 89.532 78.5844 89.532 78.8805 89.4333C78.9792 89.4333 79.0779 89.4333 79.1767 89.4333C79.7689 89.4333 80.3612 89.6307 81.0522 90.0256C82.0393 90.5191 82.9277 91.4075 83.6187 92.0985C83.9148 92.4934 84.211 92.7895 84.4084 92.9869C84.5071 93.0856 84.6058 93.1843 84.6058 93.2831L84.7045 93.3818C85.0007 93.7766 85.4942 93.7766 85.7904 93.5792C86.1852 93.2831 86.1852 92.7895 85.9878 92.4934L85.8891 92.3946Z" fill="url(#paint71_linear_333_886)"/>
<defs>
<linearGradient id="paint0_linear_333_886" x1="158.245" y1="42.8411" x2="197.335" y2="83.2144" gradientUnits="userSpaceOnUse">
<stop stop-color="#C1D2EC"/>
<stop offset="0.0117647" stop-color="#C1D2EC"/>
<stop offset="1" stop-color="#B7C0E1"/>
</linearGradient>
<linearGradient id="paint1_linear_333_886" x1="152.619" y1="48.2703" x2="191.807" y2="88.6436" gradientUnits="userSpaceOnUse">
<stop stop-color="#C1D2EC"/>
<stop offset="0.0117647" stop-color="#C1D2EC"/>
<stop offset="1" stop-color="#B7C0E1"/>
</linearGradient>
<linearGradient id="paint2_linear_333_886" x1="379.459" y1="267.017" x2="379.459" y2="233.652" gradientUnits="userSpaceOnUse">
<stop stop-color="#F49F0A"/>
<stop offset="1" stop-color="#FCCD00"/>
</linearGradient>
<linearGradient id="paint3_linear_333_886" x1="376.004" y1="252.309" x2="376.004" y2="272.347" gradientUnits="userSpaceOnUse">
<stop stop-color="#F49F0A"/>
<stop offset="1" stop-color="#FCCD00"/>
</linearGradient>
<linearGradient id="paint4_linear_333_886" x1="376.004" y1="252.308" x2="376.004" y2="272.347" gradientUnits="userSpaceOnUse">
<stop stop-color="#F49F0A"/>
<stop offset="1" stop-color="#FCCD00"/>
</linearGradient>
<linearGradient id="paint5_linear_333_886" x1="373.537" y1="304.527" x2="373.537" y2="281.133" gradientUnits="userSpaceOnUse">
<stop stop-color="#F49F0A"/>
<stop offset="1" stop-color="#FCCD00"/>
</linearGradient>
<linearGradient id="paint6_linear_333_886" x1="235.241" y1="163.369" x2="235.241" y2="207.493" gradientUnits="userSpaceOnUse">
<stop stop-color="#7094CC"/>
<stop offset="0.0117647" stop-color="#7094CC"/>
<stop offset="1" stop-color="#576CB1"/>
</linearGradient>
<linearGradient id="paint7_linear_333_886" x1="218.262" y1="198.609" x2="218.262" y2="170.081" gradientUnits="userSpaceOnUse">
<stop stop-color="#F49F0A"/>
<stop offset="1" stop-color="#FCCD00"/>
</linearGradient>
<linearGradient id="paint8_linear_333_886" x1="229.614" y1="199.004" x2="229.614" y2="177.682" gradientUnits="userSpaceOnUse">
<stop stop-color="#F49F0A"/>
<stop offset="1" stop-color="#FCCD00"/>
</linearGradient>
<linearGradient id="paint9_linear_333_886" x1="240.867" y1="198.214" x2="240.867" y2="162.184" gradientUnits="userSpaceOnUse">
<stop stop-color="#F49F0A"/>
<stop offset="1" stop-color="#FCCD00"/>
</linearGradient>
<linearGradient id="paint10_linear_333_886" x1="252.219" y1="198.214" x2="252.219" y2="162.184" gradientUnits="userSpaceOnUse">
<stop stop-color="#F49F0A"/>
<stop offset="1" stop-color="#FCCD00"/>
</linearGradient>
<linearGradient id="paint11_linear_333_886" x1="84.4084" y1="66.532" x2="84.4084" y2="26.4548" gradientUnits="userSpaceOnUse">
<stop stop-color="#F49F0A"/>
<stop offset="1" stop-color="#FCCD00"/>
</linearGradient>
<linearGradient id="paint12_linear_333_886" x1="40.284" y1="170.081" x2="40.284" y2="122.502" gradientUnits="userSpaceOnUse">
<stop stop-color="#4C4999"/>
<stop offset="0.0117647" stop-color="#4C4999"/>
<stop offset="1" stop-color="#5555A1"/>
</linearGradient>
<linearGradient id="paint13_linear_333_886" x1="40.284" y1="144.712" x2="40.284" y2="173.832" gradientUnits="userSpaceOnUse">
<stop stop-color="#7094CC"/>
<stop offset="0.0117647" stop-color="#7094CC"/>
<stop offset="1" stop-color="#576CB1"/>
</linearGradient>
<linearGradient id="paint14_linear_333_886" x1="40.284" y1="144.515" x2="40.284" y2="173.931" gradientUnits="userSpaceOnUse">
<stop stop-color="#7094CC"/>
<stop offset="0.0117647" stop-color="#7094CC"/>
<stop offset="1" stop-color="#576CB1"/>
</linearGradient>
<linearGradient id="paint15_linear_333_886" x1="40.284" y1="144.515" x2="40.284" y2="173.931" gradientUnits="userSpaceOnUse">
<stop stop-color="#7094CC"/>
<stop offset="0.0117647" stop-color="#7094CC"/>
<stop offset="1" stop-color="#576CB1"/>
</linearGradient>
<linearGradient id="paint16_linear_333_886" x1="40.284" y1="144.515" x2="40.284" y2="173.931" gradientUnits="userSpaceOnUse">
<stop stop-color="#7094CC"/>
<stop offset="0.0117647" stop-color="#7094CC"/>
<stop offset="1" stop-color="#576CB1"/>
</linearGradient>
<linearGradient id="paint17_linear_333_886" x1="425.262" y1="41.2617" x2="390.318" y2="6.31755" gradientUnits="userSpaceOnUse">
<stop stop-color="#F49F0A"/>
<stop offset="1" stop-color="#FCCD00"/>
</linearGradient>
<linearGradient id="paint18_linear_333_886" x1="390.713" y1="14.8068" x2="390.713" y2="45.3089" gradientUnits="userSpaceOnUse">
<stop stop-color="#7094CC"/>
<stop offset="0.0117647" stop-color="#7094CC"/>
<stop offset="1" stop-color="#576CB1"/>
</linearGradient>
<linearGradient id="paint19_linear_333_886" x1="133.962" y1="-2.66523" x2="133.962" y2="12.7339" gradientUnits="userSpaceOnUse">
<stop stop-color="#DCE6F5"/>
<stop offset="0.0117647" stop-color="#DCE6F5"/>
<stop offset="1" stop-color="#D7DEF0"/>
</linearGradient>
<linearGradient id="paint20_linear_333_886" x1="45.6145" y1="196.635" x2="54.3999" y2="224.965" gradientUnits="userSpaceOnUse">
<stop stop-color="#00ACB0"/>
<stop offset="1" stop-color="#24B9D0"/>
</linearGradient>
<linearGradient id="paint21_linear_333_886" x1="85.3956" y1="224.274" x2="91.0221" y2="186.665" gradientUnits="userSpaceOnUse">
<stop stop-color="#00ACB0"/>
<stop offset="1" stop-color="#24B9D0"/>
</linearGradient>
<linearGradient id="paint22_linear_333_886" x1="82.6316" y1="224.274" x2="88.8505" y2="186.665" gradientUnits="userSpaceOnUse">
<stop stop-color="#00ACB0"/>
<stop offset="1" stop-color="#24B9D0"/>
</linearGradient>
<linearGradient id="paint23_linear_333_886" x1="81.3483" y1="224.274" x2="86.9749" y2="186.665" gradientUnits="userSpaceOnUse">
<stop stop-color="#00ACB0"/>
<stop offset="1" stop-color="#24B9D0"/>
</linearGradient>
<linearGradient id="paint24_linear_333_886" x1="69.5029" y1="267.313" x2="69.5029" y2="240.858" gradientUnits="userSpaceOnUse">
<stop stop-color="#4C4999"/>
<stop offset="0.0117647" stop-color="#4C4999"/>
<stop offset="1" stop-color="#5555A1"/>
</linearGradient>
<linearGradient id="paint25_linear_333_886" x1="239.979" y1="131.682" x2="297.429" y2="131.682" gradientUnits="userSpaceOnUse">
<stop stop-color="#4C4999"/>
<stop offset="0.0117647" stop-color="#4C4999"/>
<stop offset="1" stop-color="#5555A1"/>
</linearGradient>
<linearGradient id="paint26_linear_333_886" x1="273.541" y1="120.33" x2="264.854" y2="51.7253" gradientUnits="userSpaceOnUse">
<stop stop-color="#00ACB0"/>
<stop offset="1" stop-color="#24B9D0"/>
</linearGradient>
<linearGradient id="paint27_linear_333_886" x1="274.331" y1="120.923" x2="265.94" y2="52.4162" gradientUnits="userSpaceOnUse">
<stop stop-color="#00ACB0"/>
<stop offset="1" stop-color="#24B9D0"/>
</linearGradient>
<linearGradient id="paint28_linear_333_886" x1="247.382" y1="125.167" x2="239.09" y2="54.9828" gradientUnits="userSpaceOnUse">
<stop stop-color="#00ACB0"/>
<stop offset="1" stop-color="#24B9D0"/>
</linearGradient>
<linearGradient id="paint29_linear_333_886" x1="299.601" y1="118.257" x2="290.914" y2="48.5663" gradientUnits="userSpaceOnUse">
<stop stop-color="#00ACB0"/>
<stop offset="1" stop-color="#24B9D0"/>
</linearGradient>
<linearGradient id="paint30_linear_333_886" x1="299.7" y1="115.987" x2="291.013" y2="52.0213" gradientUnits="userSpaceOnUse">
<stop stop-color="#00ACB0"/>
<stop offset="1" stop-color="#24B9D0"/>
</linearGradient>
<linearGradient id="paint31_linear_333_886" x1="229.812" y1="100.193" x2="229.812" y2="61.5963" gradientUnits="userSpaceOnUse">
<stop stop-color="#4C4999"/>
<stop offset="0.0117647" stop-color="#4C4999"/>
<stop offset="1" stop-color="#5555A1"/>
</linearGradient>
<linearGradient id="paint32_linear_333_886" x1="313.125" y1="37.4119" x2="313.125" y2="16.1888" gradientUnits="userSpaceOnUse">
<stop stop-color="#F49F0A"/>
<stop offset="1" stop-color="#FCCD00"/>
</linearGradient>
<linearGradient id="paint33_linear_333_886" x1="344.022" y1="120.133" x2="344.022" y2="226.347" gradientUnits="userSpaceOnUse">
<stop stop-color="#7094CC"/>
<stop offset="0.0117647" stop-color="#7094CC"/>
<stop offset="1" stop-color="#576CB1"/>
</linearGradient>
<linearGradient id="paint34_linear_333_886" x1="344.022" y1="120.133" x2="344.022" y2="226.347" gradientUnits="userSpaceOnUse">
<stop stop-color="#7094CC"/>
<stop offset="0.0117647" stop-color="#7094CC"/>
<stop offset="1" stop-color="#576CB1"/>
</linearGradient>
<linearGradient id="paint35_linear_333_886" x1="321.022" y1="215.588" x2="312.927" y2="157.545" gradientUnits="userSpaceOnUse">
<stop stop-color="#DC252D"/>
<stop offset="1" stop-color="#E95359"/>
</linearGradient>
<linearGradient id="paint36_linear_333_886" x1="351.425" y1="211.442" x2="343.331" y2="153.3" gradientUnits="userSpaceOnUse">
<stop stop-color="#DC252D"/>
<stop offset="1" stop-color="#E95359"/>
</linearGradient>
<linearGradient id="paint37_linear_333_886" x1="351.129" y1="211.343" x2="343.035" y2="153.3" gradientUnits="userSpaceOnUse">
<stop stop-color="#DC252D"/>
<stop offset="1" stop-color="#E95359"/>
</linearGradient>
<linearGradient id="paint38_linear_333_886" x1="351.129" y1="211.442" x2="343.035" y2="153.3" gradientUnits="userSpaceOnUse">
<stop stop-color="#DC252D"/>
<stop offset="1" stop-color="#E95359"/>
</linearGradient>
<linearGradient id="paint39_linear_333_886" x1="348.365" y1="211.442" x2="341.356" y2="153.3" gradientUnits="userSpaceOnUse">
<stop stop-color="#DC252D"/>
<stop offset="1" stop-color="#E95359"/>
</linearGradient>
<linearGradient id="paint40_linear_333_886" x1="349.451" y1="127.24" x2="343.133" y2="161.789" gradientUnits="userSpaceOnUse">
<stop stop-color="#FAD6C0"/>
<stop offset="1" stop-color="#F6B999"/>
</linearGradient>
<linearGradient id="paint41_linear_333_886" x1="340.172" y1="127.438" x2="333.163" y2="156.854" gradientUnits="userSpaceOnUse">
<stop stop-color="#FAD6C0"/>
<stop offset="1" stop-color="#F6B999"/>
</linearGradient>
<linearGradient id="paint42_linear_333_886" x1="337.112" y1="125.167" x2="330.597" y2="158.729" gradientUnits="userSpaceOnUse">
<stop stop-color="#FAD6C0"/>
<stop offset="1" stop-color="#F6B999"/>
</linearGradient>
<linearGradient id="paint43_linear_333_886" x1="258.932" y1="150.832" x2="344.417" y2="191.798" gradientUnits="userSpaceOnUse">
<stop stop-color="#FAD6C0"/>
<stop offset="1" stop-color="#F6B999"/>
</linearGradient>
<linearGradient id="paint44_linear_333_886" x1="377.386" y1="207.789" x2="369.292" y2="149.648" gradientUnits="userSpaceOnUse">
<stop stop-color="#DC252D"/>
<stop offset="1" stop-color="#E95359"/>
</linearGradient>
<linearGradient id="paint45_linear_333_886" x1="387.554" y1="146.686" x2="436.219" y2="146.686" gradientUnits="userSpaceOnUse">
<stop stop-color="#7598CF"/>
<stop offset="0.0117647" stop-color="#7598CF"/>
<stop offset="1" stop-color="#576CB1"/>
</linearGradient>
<linearGradient id="paint46_linear_333_886" x1="387.554" y1="149.056" x2="436.219" y2="149.056" gradientUnits="userSpaceOnUse">
<stop stop-color="#7598CF"/>
<stop offset="0.0117647" stop-color="#7598CF"/>
<stop offset="1" stop-color="#576CB1"/>
</linearGradient>
<linearGradient id="paint47_linear_333_886" x1="388.146" y1="164.356" x2="406.605" y2="164.356" gradientUnits="userSpaceOnUse">
<stop stop-color="#7598CF"/>
<stop offset="0.0117647" stop-color="#7598CF"/>
<stop offset="1" stop-color="#576CB1"/>
</linearGradient>
<linearGradient id="paint48_linear_333_886" x1="390.318" y1="146.983" x2="432.468" y2="146.983" gradientUnits="userSpaceOnUse">
<stop stop-color="#7598CF"/>
<stop offset="0.0117647" stop-color="#7598CF"/>
<stop offset="1" stop-color="#576CB1"/>
</linearGradient>
<linearGradient id="paint49_linear_333_886" x1="173.743" y1="172.45" x2="227.541" y2="115.098" gradientUnits="userSpaceOnUse">
<stop stop-color="#A1565D"/>
<stop offset="1" stop-color="#B27C66"/>
</linearGradient>
<linearGradient id="paint50_linear_333_886" x1="96.9448" y1="162.678" x2="101.88" y2="201.571" gradientUnits="userSpaceOnUse">
<stop stop-color="#A1565D"/>
<stop offset="1" stop-color="#B27C66"/>
</linearGradient>
<linearGradient id="paint51_linear_333_886" x1="173.348" y1="122.897" x2="170.584" y2="184.493" gradientUnits="userSpaceOnUse">
<stop stop-color="#F09EC1"/>
<stop offset="0.988235" stop-color="#ED85B2"/>
<stop offset="1" stop-color="#ED85B2"/>
</linearGradient>
<linearGradient id="paint52_linear_333_886" x1="170.584" y1="124.279" x2="167.129" y2="186.27" gradientUnits="userSpaceOnUse">
<stop stop-color="#F09EC1"/>
<stop offset="0.988235" stop-color="#ED85B2"/>
<stop offset="1" stop-color="#ED85B2"/>
</linearGradient>
<linearGradient id="paint53_linear_333_886" x1="130.902" y1="122.798" x2="127.25" y2="186.171" gradientUnits="userSpaceOnUse">
<stop stop-color="#F09EC1"/>
<stop offset="0.988235" stop-color="#ED85B2"/>
<stop offset="1" stop-color="#ED85B2"/>
</linearGradient>
<linearGradient id="paint54_linear_333_886" x1="125.275" y1="113.42" x2="152.816" y2="113.42" gradientUnits="userSpaceOnUse">
<stop stop-color="#A1565D"/>
<stop offset="1" stop-color="#B27C66"/>
</linearGradient>
<linearGradient id="paint55_linear_333_886" x1="119.55" y1="113.322" x2="150.052" y2="113.322" gradientUnits="userSpaceOnUse">
<stop stop-color="#A1565D"/>
<stop offset="1" stop-color="#B27C66"/>
</linearGradient>
<linearGradient id="paint56_linear_333_886" x1="107.606" y1="88.1499" x2="119.155" y2="88.1499" gradientUnits="userSpaceOnUse">
<stop stop-color="#F09EC1"/>
<stop offset="0.988235" stop-color="#ED85B2"/>
<stop offset="1" stop-color="#ED85B2"/>
</linearGradient>
<linearGradient id="paint57_linear_333_886" x1="109.087" y1="88.5451" x2="121.426" y2="88.5451" gradientUnits="userSpaceOnUse">
<stop stop-color="#F09EC1"/>
<stop offset="0.988235" stop-color="#ED85B2"/>
<stop offset="1" stop-color="#ED85B2"/>
</linearGradient>
<linearGradient id="paint58_linear_333_886" x1="106.816" y1="88.9398" x2="120.044" y2="88.9398" gradientUnits="userSpaceOnUse">
<stop stop-color="#F09EC1"/>
<stop offset="0.988235" stop-color="#ED85B2"/>
<stop offset="1" stop-color="#ED85B2"/>
</linearGradient>
<linearGradient id="paint59_linear_333_886" x1="106.816" y1="88.9399" x2="120.044" y2="88.9399" gradientUnits="userSpaceOnUse">
<stop stop-color="#F09EC1"/>
<stop offset="0.988235" stop-color="#ED85B2"/>
<stop offset="1" stop-color="#ED85B2"/>
</linearGradient>
<linearGradient id="paint60_linear_333_886" x1="196.644" y1="230.395" x2="218.657" y2="259.021" gradientUnits="userSpaceOnUse">
<stop stop-color="#F8CED2"/>
<stop offset="1" stop-color="#F098AE"/>
</linearGradient>
<linearGradient id="paint61_linear_333_886" x1="164.661" y1="245.497" x2="166.537" y2="193.081" gradientUnits="userSpaceOnUse">
<stop stop-color="#4C4999"/>
<stop offset="0.0117647" stop-color="#4C4999"/>
<stop offset="1" stop-color="#5555A1"/>
</linearGradient>
<linearGradient id="paint62_linear_333_886" x1="162.292" y1="245.201" x2="164.168" y2="190.909" gradientUnits="userSpaceOnUse">
<stop stop-color="#4C4999"/>
<stop offset="0.0117647" stop-color="#4C4999"/>
<stop offset="1" stop-color="#5555A1"/>
</linearGradient>
<linearGradient id="paint63_linear_333_886" x1="104.25" y1="161.296" x2="109.185" y2="200.682" gradientUnits="userSpaceOnUse">
<stop stop-color="#A1565D"/>
<stop offset="1" stop-color="#B27C66"/>
</linearGradient>
<linearGradient id="paint64_linear_333_886" x1="104.546" y1="168.304" x2="109.481" y2="204.433" gradientUnits="userSpaceOnUse">
<stop stop-color="#A1565D"/>
<stop offset="1" stop-color="#B27C66"/>
</linearGradient>
<linearGradient id="paint65_linear_333_886" x1="150.249" y1="254.776" x2="144.919" y2="291.892" gradientUnits="userSpaceOnUse">
<stop stop-color="#F8CED2"/>
<stop offset="1" stop-color="#F098AE"/>
</linearGradient>
<linearGradient id="paint66_linear_333_886" x1="154.988" y1="272.939" x2="159.331" y2="212.133" gradientUnits="userSpaceOnUse">
<stop stop-color="#4C4999"/>
<stop offset="0.0117647" stop-color="#4C4999"/>
<stop offset="1" stop-color="#5555A1"/>
</linearGradient>
<linearGradient id="paint67_linear_333_886" x1="155.086" y1="273.038" x2="159.43" y2="211.54" gradientUnits="userSpaceOnUse">
<stop stop-color="#4C4999"/>
<stop offset="0.0117647" stop-color="#4C4999"/>
<stop offset="1" stop-color="#5555A1"/>
</linearGradient>
<linearGradient id="paint68_linear_333_886" x1="88.653" y1="93.4806" x2="40.0866" y2="93.4806" gradientUnits="userSpaceOnUse">
<stop stop-color="#7598CF"/>
<stop offset="0.0117647" stop-color="#7598CF"/>
<stop offset="1" stop-color="#576CB1"/>
</linearGradient>
<linearGradient id="paint69_linear_333_886" x1="88.6531" y1="95.7508" x2="40.0866" y2="95.7508" gradientUnits="userSpaceOnUse">
<stop stop-color="#7598CF"/>
<stop offset="0.0117647" stop-color="#7598CF"/>
<stop offset="1" stop-color="#576CB1"/>
</linearGradient>
<linearGradient id="paint70_linear_333_886" x1="88.0608" y1="111.15" x2="69.6016" y2="111.15" gradientUnits="userSpaceOnUse">
<stop stop-color="#7598CF"/>
<stop offset="0.0117647" stop-color="#7598CF"/>
<stop offset="1" stop-color="#576CB1"/>
</linearGradient>
<linearGradient id="paint71_linear_333_886" x1="85.9878" y1="93.7766" x2="43.8377" y2="93.7766" gradientUnits="userSpaceOnUse">
<stop stop-color="#7598CF"/>
<stop offset="0.0117647" stop-color="#7598CF"/>
<stop offset="1" stop-color="#576CB1"/>
</linearGradient>
</defs>
</svg>
