<svg width="436" height="337" viewBox="0 0 436 337" fill="none" xmlns="http://www.w3.org/2000/svg">
<path fill-rule="evenodd" clip-rule="evenodd" d="M339.307 290.104H130.986V172.521H173.484V206.391H180.189V98.638L199.447 79.3791H215.554V126.338H218.145C216.863 127.753 216.062 129.783 216.035 132.535C216.035 132.535 213.524 151.74 221.992 154.892C221.992 154.892 222.285 154.919 222.82 154.919C223.648 154.919 224.983 154.838 226.559 154.518C226.399 155.586 226.212 156.655 226.105 157.429L225.998 158.044C225.945 158.338 225.918 158.498 225.918 158.498C225.224 159.379 222.259 166.084 228.83 166.859C229.498 166.939 230.112 166.965 230.7 166.965C239.301 166.965 241.197 159.246 239.621 158.498C238.499 158.338 238.232 146.157 238.232 146.157H238.205C238.579 145.703 238.9 145.169 239.087 144.448C240.048 140.708 241.384 133.817 239.674 129.676C238.766 127.433 235.187 125.242 231.1 124.174V58.7581H255.888L270.312 73.1821V166.965H280.489V131.226H315.08V191.967L339.307 216.194V290.131V290.104Z" fill="url(#paint0_linear_333_1396)"/>
<path fill-rule="evenodd" clip-rule="evenodd" d="M285.164 139.613H290.533V134.244H285.164V139.613Z" fill="url(#paint1_linear_333_1396)"/>
<path fill-rule="evenodd" clip-rule="evenodd" d="M295.1 139.613H300.469V134.244H295.1V139.613Z" fill="url(#paint2_linear_333_1396)"/>
<path fill-rule="evenodd" clip-rule="evenodd" d="M305.037 139.613H310.406V134.244H305.037V139.613Z" fill="url(#paint3_linear_333_1396)"/>
<path fill-rule="evenodd" clip-rule="evenodd" d="M285.164 149.71H290.533V144.341H285.164V149.71Z" fill="url(#paint4_linear_333_1396)"/>
<path fill-rule="evenodd" clip-rule="evenodd" d="M295.1 149.71H300.469V144.341H295.1V149.71Z" fill="url(#paint5_linear_333_1396)"/>
<path fill-rule="evenodd" clip-rule="evenodd" d="M305.037 149.71H310.406V144.341H305.037V149.71Z" fill="url(#paint6_linear_333_1396)"/>
<path fill-rule="evenodd" clip-rule="evenodd" d="M285.164 159.834H290.533V154.465H285.164V159.834Z" fill="url(#paint7_linear_333_1396)"/>
<path fill-rule="evenodd" clip-rule="evenodd" d="M295.1 159.834H300.469V154.465H295.1V159.834Z" fill="url(#paint8_linear_333_1396)"/>
<path fill-rule="evenodd" clip-rule="evenodd" d="M305.037 159.834H310.406V154.465H305.037V159.834Z" fill="url(#paint9_linear_333_1396)"/>
<path fill-rule="evenodd" clip-rule="evenodd" d="M285.164 169.957H290.533V164.562H285.164V169.957Z" fill="url(#paint10_linear_333_1396)"/>
<path fill-rule="evenodd" clip-rule="evenodd" d="M295.1 169.957H300.469V164.562H295.1V169.957Z" fill="url(#paint11_linear_333_1396)"/>
<path fill-rule="evenodd" clip-rule="evenodd" d="M305.037 169.957H310.406V164.562H305.037V169.957Z" fill="url(#paint12_linear_333_1396)"/>
<path fill-rule="evenodd" clip-rule="evenodd" d="M285.164 180.054H290.533V174.685H285.164V180.054Z" fill="url(#paint13_linear_333_1396)"/>
<path fill-rule="evenodd" clip-rule="evenodd" d="M295.1 180.054H300.469V174.685H295.1V180.054Z" fill="url(#paint14_linear_333_1396)"/>
<path fill-rule="evenodd" clip-rule="evenodd" d="M305.037 180.054H310.406V174.685H305.037V180.054Z" fill="url(#paint15_linear_333_1396)"/>
<path fill-rule="evenodd" clip-rule="evenodd" d="M285.164 190.178H290.533V184.809H285.164V190.178Z" fill="url(#paint16_linear_333_1396)"/>
<path fill-rule="evenodd" clip-rule="evenodd" d="M295.1 190.178H300.469V184.809H295.1V190.178Z" fill="url(#paint17_linear_333_1396)"/>
<path fill-rule="evenodd" clip-rule="evenodd" d="M305.037 190.178H310.406V184.809H305.037V190.178Z" fill="url(#paint18_linear_333_1396)"/>
<path fill-rule="evenodd" clip-rule="evenodd" d="M295.1 200.274H300.469V194.906H295.1V200.274Z" fill="url(#paint19_linear_333_1396)"/>
<path fill-rule="evenodd" clip-rule="evenodd" d="M305.037 200.274H310.406V194.906H305.037V200.274Z" fill="url(#paint20_linear_333_1396)"/>
<path fill-rule="evenodd" clip-rule="evenodd" d="M305.037 210.398H310.406V205.029H305.037V210.398Z" fill="url(#paint21_linear_333_1396)"/>
<path fill-rule="evenodd" clip-rule="evenodd" d="M182.993 102.378H212.696V99.4393H182.993V102.378Z" fill="url(#paint22_linear_333_1396)"/>
<path fill-rule="evenodd" clip-rule="evenodd" d="M182.993 108.575H212.696V105.636H182.993V108.575Z" fill="url(#paint23_linear_333_1396)"/>
<path fill-rule="evenodd" clip-rule="evenodd" d="M182.993 114.772H212.696V111.833H182.993V114.772Z" fill="url(#paint24_linear_333_1396)"/>
<path fill-rule="evenodd" clip-rule="evenodd" d="M182.993 120.969H212.696V118.057H182.993V120.969Z" fill="url(#paint25_linear_333_1396)"/>
<path fill-rule="evenodd" clip-rule="evenodd" d="M182.993 127.192H212.696V124.254H182.993V127.192Z" fill="url(#paint26_linear_333_1396)"/>
<path fill-rule="evenodd" clip-rule="evenodd" d="M182.993 133.389H212.696V130.451H182.993V133.389Z" fill="url(#paint27_linear_333_1396)"/>
<path fill-rule="evenodd" clip-rule="evenodd" d="M182.993 139.586H198.005V136.648H182.993V139.586Z" fill="url(#paint28_linear_333_1396)"/>
<path fill-rule="evenodd" clip-rule="evenodd" d="M182.993 145.783H197.845V142.872H182.993V145.783Z" fill="url(#paint29_linear_333_1396)"/>
<path fill-rule="evenodd" clip-rule="evenodd" d="M237.084 190.177H235.214V62.4977H254.873V64.3942H237.084V190.177Z" fill="url(#paint30_linear_333_1396)"/>
<path fill-rule="evenodd" clip-rule="evenodd" d="M182.993 190.178H184.97V150.191H182.993V190.178Z" fill="url(#paint31_linear_333_1396)"/>
<path fill-rule="evenodd" clip-rule="evenodd" d="M147.815 35.7865H50.3986C50.3986 35.7865 38.8593 25.8232 42.5722 17.89C43.7742 15.299 46.1782 14.4175 48.9294 14.4175C54.9662 14.4175 62.6323 18.718 62.6323 18.718C62.6323 18.718 54.6189 1.59609 70.2984 0.500932C70.6991 0.474221 71.0998 0.44751 71.5005 0.44751C87.0731 0.44751 107.828 20.5344 107.828 20.5344C107.828 20.5344 104.649 13.0285 112.048 13.0285C112.369 13.0285 112.716 13.0552 113.09 13.0819C121.824 13.8031 147.841 35.7865 147.841 35.7865H147.815Z" fill="url(#paint32_linear_333_1396)"/>
<path fill-rule="evenodd" clip-rule="evenodd" d="M389.177 94.4177H339.334C339.334 94.4177 333.431 89.3159 335.328 85.2558C335.942 83.9469 337.171 83.4928 338.586 83.4928C341.685 83.4928 345.585 85.6832 345.585 85.6832C345.585 85.6832 341.471 76.9219 349.511 76.3609C349.725 76.3342 349.912 76.3342 350.126 76.3342C358.086 76.3342 368.717 86.6181 368.717 86.6181C368.717 86.6181 367.087 82.7716 370.88 82.7716C371.041 82.7716 371.228 82.7716 371.414 82.7984C375.875 83.1723 389.177 94.4177 389.177 94.4177Z" fill="url(#paint33_linear_333_1396)"/>
<path fill-rule="evenodd" clip-rule="evenodd" d="M79.781 179.413H29.9378C29.9378 179.413 24.0346 174.311 25.9311 170.251C26.5455 168.942 27.7742 168.488 29.1899 168.488C32.2884 168.488 36.1882 170.678 36.1882 170.678C36.1882 170.678 32.0747 161.917 40.1148 161.356C40.3285 161.329 40.5154 161.329 40.7291 161.329C48.6891 161.329 59.3202 171.613 59.3202 171.613C59.3202 171.613 57.6908 167.767 61.4838 167.767C61.644 167.767 61.831 167.767 62.018 167.794C66.4788 168.168 79.781 179.413 79.781 179.413Z" fill="url(#paint34_linear_333_1396)"/>
<path fill-rule="evenodd" clip-rule="evenodd" d="M77.4166 28.7764H6.25783C6.25783 28.7764 -2.18293 21.5109 0.541616 15.7146C1.42309 13.8181 3.18603 13.177 5.18938 13.177C9.59673 13.177 15.1794 16.3289 15.1794 16.3289C15.1794 16.3289 9.32962 3.82805 20.762 3.02671C21.0559 3 21.3497 3 21.6435 3C33.0225 3 48.1945 17.6645 48.1945 17.6645C48.1945 17.6645 45.8706 12.162 51.293 12.162C51.5334 12.162 51.8005 12.162 52.0676 12.1887C58.4516 12.7229 77.4433 28.7764 77.4433 28.7764H77.4166Z" fill="url(#paint35_linear_333_1396)"/>
<path fill-rule="evenodd" clip-rule="evenodd" d="M118.886 291.68C118.886 291.68 79.4871 287.567 53.9512 244.962C53.9512 244.962 72.1148 249.423 95.7276 261.23C95.7276 261.23 81.8911 248.595 74.8928 231.607C74.8928 231.607 88.2484 237.136 102.592 255.086C102.592 255.086 90.3052 233.183 91.6408 212.588C91.6408 212.588 105.13 219.213 119.714 247.874C119.714 247.874 119.928 223.059 124.389 209.116C124.389 209.116 141.724 239.7 140.282 280.381L118.913 291.68H118.886Z" fill="url(#paint36_linear_333_1396)"/>
<path d="M358.406 330.465C358.406 330.465 367.087 286.872 394.76 270.979C394.76 270.979 391.635 294.806 365.618 330.465H358.406Z" fill="#242222"/>
<path fill-rule="evenodd" clip-rule="evenodd" d="M347.294 336.342C347.294 336.342 348.309 296.248 378.226 275.306C378.226 275.306 378.279 302.659 364.202 321.303C364.202 321.303 380.015 288.582 418.613 283.48C418.613 283.48 405.071 312.622 381.298 322.585C381.298 322.585 413.244 314.145 436.002 320.796C436.002 320.796 419.388 331.453 391.662 336.342H347.321H347.294Z" fill="url(#paint37_linear_333_1396)"/>
<path fill-rule="evenodd" clip-rule="evenodd" d="M118.619 170.385C89.2368 178.718 58.6524 161.623 50.3185 132.241C41.9846 102.859 59.0798 72.2741 88.4621 63.9402C117.845 55.6063 148.429 72.7015 156.763 102.084C165.097 131.466 148.002 162.051 118.619 170.385ZM172.79 97.543C161.785 58.7582 120.996 36.4543 82.2651 48.421C45.0296 59.9335 23.6072 99.6799 34.4253 137.129C43.6941 169.209 73.3703 189.91 105.317 189.109C110.125 188.976 114.399 192.074 115.708 196.695L145.945 303.433C147.441 308.749 152.97 311.821 158.285 310.325C163.601 308.829 166.673 303.3 165.177 297.984L134.94 191.246C133.631 186.625 135.661 181.764 139.801 179.36C167.527 163.226 181.952 129.837 172.816 97.5697L172.79 97.543Z" fill="url(#paint38_linear_333_1396)"/>
<path d="M130.986 106.491C130.986 106.491 154.305 74.678 174.072 62.4977H160.796C160.796 62.4977 137.37 79.9668 130.986 106.491Z" fill="#FEFEFE"/>
<path fill-rule="evenodd" clip-rule="evenodd" d="M58.7058 111.833C58.7058 111.833 89.9313 131.172 104.943 159.807C104.943 159.807 130.399 86.7783 178.613 52.4543C178.613 52.4543 132.589 63.406 100.99 127.139C100.99 127.139 80.9029 111.807 58.7058 111.807V111.833Z" fill="url(#paint39_linear_333_1396)"/>
<path d="M424.855 69.4275C424.855 87.3507 410.324 101.855 392.427 101.855C374.504 101.855 360 87.324 360 69.4275C360 51.5309 374.531 37 392.427 37C410.351 37 424.855 51.5309 424.855 69.4275Z" fill="#242222"/>
<path d="M420.501 69.4275C420.501 84.9201 407.947 97.5011 392.427 97.5011C376.935 97.5011 364.354 84.9468 364.354 69.4275C364.354 53.935 376.908 41.354 392.427 41.354C407.92 41.354 420.501 53.9083 420.501 69.4275Z" fill="#FEFEFE"/>
<path fill-rule="evenodd" clip-rule="evenodd" d="M367.452 67.718C368.387 67.718 369.162 68.4659 369.162 69.4008C369.162 70.3357 368.414 71.1103 367.452 71.1103C366.518 71.1103 365.743 70.3624 365.743 69.4008C365.743 68.4659 366.491 67.718 367.452 67.718Z" fill="url(#paint40_linear_333_1396)"/>
<path fill-rule="evenodd" clip-rule="evenodd" d="M394.137 44.4526C394.137 45.3875 393.389 46.1621 392.427 46.1621C391.492 46.1621 390.718 45.4142 390.718 44.4526C390.718 43.5177 391.466 42.743 392.427 42.743C393.362 42.743 394.137 43.491 394.137 44.4526Z" fill="url(#paint41_linear_333_1396)"/>
<path fill-rule="evenodd" clip-rule="evenodd" d="M417.402 71.1103C416.467 71.1103 415.719 70.3624 415.719 69.4008C415.719 68.4659 416.467 67.718 417.402 67.718C418.337 67.718 419.112 68.4659 419.112 69.4008C419.112 70.3357 418.364 71.1103 417.402 71.1103Z" fill="url(#paint42_linear_333_1396)"/>
<path fill-rule="evenodd" clip-rule="evenodd" d="M390.745 94.4026C390.745 93.4677 391.492 92.6931 392.454 92.6931C393.389 92.6931 394.164 93.441 394.164 94.4026C394.164 95.3375 393.416 96.0854 392.454 96.0854C391.519 96.0854 390.745 95.3375 390.745 94.4026Z" fill="url(#paint43_linear_333_1396)"/>
<path fill-rule="evenodd" clip-rule="evenodd" d="M392.427 74.1021C389.836 74.1021 387.753 72.0186 387.753 69.4276C387.753 66.8367 389.836 64.7532 392.427 64.7532C395.018 64.7532 397.102 66.8367 397.102 69.4276C397.102 72.0186 395.018 74.1021 392.427 74.1021Z" fill="url(#paint44_linear_333_1396)"/>
<path d="M392.427 72.4726C390.744 72.4726 389.382 71.1103 389.382 69.4275C389.382 67.7447 390.744 66.3824 392.427 66.3824C394.11 66.3824 395.472 67.7447 395.472 69.4275C395.472 71.1103 394.11 72.4726 392.427 72.4726Z" fill="#242222"/>
<path d="M379.179 58.4493L390.664 71.4577L392.427 69.4276L394.19 67.3975L379.739 57.7815C379.312 57.4877 378.805 58.0486 379.152 58.4493H379.179Z" fill="#242222"/>
<path d="M392.107 69.0804L376.908 84.3058C376.721 84.4928 376.721 84.7866 376.908 84.9736C377.095 85.1606 377.389 85.1606 377.576 84.9736L392.775 69.7482C392.962 69.5612 392.962 69.2674 392.775 69.0804C392.588 68.8934 392.294 68.8934 392.107 69.0804Z" fill="#242222"/>
<path d="M295.982 119.419H260.002C258.159 119.419 256.636 117.924 256.636 116.054V91.6664C256.636 89.8233 258.132 88.3008 260.002 88.3008H295.982C297.825 88.3008 299.348 89.7966 299.348 91.6664V116.054C299.348 117.897 297.852 119.419 295.982 119.419Z" fill="#FEFEFE"/>
<path d="M294.192 109.67L278.219 98.3442C278.085 98.264 277.925 98.264 277.818 98.3442L261.845 109.67C261.685 109.777 261.658 110.017 261.765 110.151C261.872 110.311 262.085 110.338 262.246 110.231L278.032 99.0387L293.818 110.231C293.979 110.338 294.192 110.311 294.299 110.151C294.406 109.99 294.379 109.777 294.219 109.67H294.192Z" fill="#242222"/>
<path d="M295.982 119.419V119.072H260.002C258.346 119.072 257.01 117.737 257.01 116.081V91.6932C257.01 90.0371 258.346 88.7015 260.002 88.7015H295.982C297.638 88.7015 298.974 90.0371 298.974 91.6932V116.081C298.974 117.737 297.638 119.072 295.982 119.072V119.767C298.039 119.767 299.695 118.111 299.695 116.054V91.6665C299.695 89.6097 298.039 87.9536 295.982 87.9536H260.002C257.945 87.9536 256.289 89.6097 256.289 91.6665V116.054C256.289 118.111 257.945 119.767 260.002 119.767H295.982V119.419Z" fill="#242222"/>
<path d="M256.663 92.9219L275.601 106.331C277.044 107.346 278.967 107.346 280.409 106.331L299.348 92.9219H256.663Z" fill="#FEFEFE"/>
<path d="M256.449 93.2156L275.387 106.625C276.162 107.186 277.097 107.453 278.005 107.453C278.913 107.453 279.848 107.186 280.623 106.625L299.561 93.2156C299.721 93.1088 299.748 92.8951 299.641 92.7348C299.534 92.5745 299.294 92.5478 299.16 92.6547L280.222 106.064C279.554 106.545 278.78 106.758 278.005 106.758C277.231 106.758 276.456 106.518 275.815 106.064L256.877 92.6547C256.716 92.5478 256.503 92.5745 256.396 92.7348C256.289 92.8951 256.316 93.1088 256.476 93.2156H256.449Z" fill="#242222"/>
<path fill-rule="evenodd" clip-rule="evenodd" d="M292.937 88.3009C292.937 91.2124 290.559 93.5897 287.648 93.5897C284.736 93.5897 282.359 91.2124 282.359 88.3009C282.359 85.3894 284.736 83.0121 287.648 83.0121C290.559 83.0121 292.937 85.3894 292.937 88.3009Z" fill="url(#paint45_linear_333_1396)"/>
<path d="M285.404 91.239H287.034V85.3893H285.404V91.239Z" fill="#FEFEFE"/>
<path d="M288.289 91.239H289.892V85.3893H288.289V91.239Z" fill="#FEFEFE"/>
<path d="M373.551 205.029H343.261C341.712 205.029 340.429 203.774 340.429 202.198V181.657C340.429 180.107 341.685 178.825 343.261 178.825H373.551C375.101 178.825 376.383 180.081 376.383 181.657V202.198C376.383 203.747 375.127 205.029 373.551 205.029Z" fill="#FEFEFE"/>
<path d="M372.082 196.775L358.62 187.239C358.486 187.159 358.326 187.159 358.219 187.239L344.757 196.775C344.596 196.882 344.57 197.096 344.677 197.256C344.783 197.416 345.024 197.443 345.157 197.336L358.406 187.934L371.655 197.336C371.815 197.443 372.029 197.416 372.136 197.256C372.243 197.096 372.216 196.882 372.056 196.775H372.082Z" fill="#242222"/>
<path d="M373.551 205.029V204.682H343.261C341.898 204.682 340.803 203.587 340.777 202.198V181.657C340.777 180.294 341.872 179.199 343.261 179.173H373.551C374.914 179.173 376.009 180.268 376.035 181.657V202.198C376.035 203.56 374.94 204.655 373.551 204.682V205.376C375.314 205.376 376.73 203.961 376.73 202.198V181.657C376.73 179.894 375.314 178.478 373.551 178.478H343.261C341.498 178.478 340.082 179.894 340.082 181.657V202.198C340.082 203.961 341.498 205.376 343.261 205.376H373.551V205.029Z" fill="#242222"/>
<path d="M340.429 182.725L356.376 194.024C357.578 194.879 359.207 194.879 360.436 194.024L376.383 182.725H340.456H340.429Z" fill="#FEFEFE"/>
<path d="M340.242 182.992L356.189 194.291C356.857 194.772 357.631 195.012 358.433 195.012C359.207 195.012 360.009 194.772 360.677 194.291L376.623 182.992C376.783 182.885 376.81 182.645 376.703 182.511C376.596 182.351 376.356 182.324 376.222 182.431L360.276 193.73C359.742 194.131 359.101 194.318 358.46 194.318C357.818 194.318 357.177 194.131 356.643 193.73L340.697 182.431C340.536 182.324 340.323 182.351 340.216 182.511C340.109 182.672 340.136 182.885 340.296 182.992H340.242Z" fill="#242222"/>
<path fill-rule="evenodd" clip-rule="evenodd" d="M370.987 178.825C370.987 181.283 368.984 183.286 366.526 183.286C364.069 183.286 362.066 181.283 362.066 178.825C362.066 176.368 364.069 174.365 366.526 174.365C368.984 174.365 370.987 176.368 370.987 178.825Z" fill="url(#paint46_linear_333_1396)"/>
<path d="M364.657 181.31H365.992V176.368H364.657V181.31Z" fill="#FEFEFE"/>
<path d="M367.061 181.31H368.423V176.368H367.061V181.31Z" fill="#FEFEFE"/>
<path d="M39.6073 251.133H15.5939C14.3652 251.133 13.3502 250.118 13.3502 248.889V232.622C13.3502 231.393 14.3652 230.378 15.5939 230.378H39.6073C40.836 230.378 41.8511 231.393 41.8511 232.622V248.889C41.8511 250.118 40.836 251.133 39.6073 251.133Z" fill="#FEFEFE"/>
<path d="M38.4586 244.535L27.8008 236.976C27.6673 236.896 27.507 236.896 27.4002 236.976L16.7424 244.535C16.5821 244.642 16.5554 244.856 16.6623 245.016C16.7691 245.176 16.9828 245.203 17.1431 245.096L27.6139 237.67L38.0847 245.096C38.2449 245.203 38.4586 245.176 38.5655 245.016C38.6723 244.856 38.6456 244.642 38.4853 244.535H38.4586Z" fill="#242222"/>
<path d="M39.6073 251.133V250.785H15.5939C14.5521 250.785 13.6974 249.931 13.6974 248.889V232.622C13.6974 231.58 14.5521 230.725 15.5939 230.725H39.6073C40.649 230.725 41.5038 231.58 41.5038 232.622V248.889C41.5038 249.931 40.649 250.785 39.6073 250.785V251.48C41.0497 251.48 42.1983 250.331 42.1983 248.889V232.622C42.1983 231.179 41.0497 230.031 39.6073 230.031H15.5939C14.1515 230.031 13.0029 231.179 13.0029 232.622V248.889C13.0029 250.331 14.1515 251.48 15.5939 251.48H39.6073V251.133Z" fill="#242222"/>
<path d="M13.3501 233.45L25.9845 242.398C26.9461 243.093 28.2282 243.093 29.1898 242.398L41.8243 233.45H13.3234H13.3501Z" fill="#FEFEFE"/>
<path d="M13.1364 233.744L25.7709 242.692C26.3051 243.066 26.9461 243.279 27.5872 243.279C28.2283 243.279 28.8694 243.093 29.4036 242.692L42.038 233.744C42.1983 233.637 42.225 233.423 42.1181 233.263C42.0113 233.103 41.7709 233.076 41.6373 233.183L29.0029 242.131C28.5755 242.425 28.0947 242.585 27.5872 242.585C27.1064 242.585 26.5989 242.425 26.1715 242.131L13.5371 233.183C13.3768 233.076 13.1631 233.103 13.0563 233.263C12.9494 233.423 12.9762 233.637 13.1364 233.744Z" fill="#242222"/>
<path fill-rule="evenodd" clip-rule="evenodd" d="M377.211 304.341C370.72 300.735 358.433 285.537 358.433 285.537C342.887 264.916 305.544 237.002 219.107 246.698C132.696 237.002 95.3269 264.916 79.7809 285.537C79.7809 285.537 67.4937 300.735 61.0029 304.341C54.5121 307.947 49.6239 313.236 50.2917 315.186C52.1615 320.662 71.447 317.831 84.5088 331.106C86.245 333.029 88.195 334.952 90.3319 336.902H347.855C349.992 334.979 351.942 333.029 353.678 331.106C366.74 317.857 386.025 320.662 387.895 315.186C388.563 313.236 383.675 307.974 377.184 304.341H377.211Z" fill="url(#paint47_linear_333_1396)"/>
<path d="M77.0831 288.795C81.3569 290.505 86.0314 291.707 90.8394 291.707C95.2468 291.707 99.761 290.692 104.142 288.208C108.843 285.537 111.941 282.171 113.865 278.485C115.788 274.825 116.509 270.845 116.509 266.946C116.509 263.847 116.055 260.775 115.36 257.891C115.067 258.024 114.773 258.158 114.479 258.291C115.12 261.042 115.547 263.981 115.547 266.919C115.547 270.712 114.853 274.532 113.01 278.031C111.167 281.53 108.228 284.762 103.661 287.353C99.4405 289.757 95.1132 290.719 90.8394 290.719C86.2985 290.719 81.8377 289.623 77.7242 287.994C77.5105 288.234 77.2968 288.475 77.0831 288.742V288.795Z" fill="#FEFEFE"/>
<path d="M127.861 253.003C126.045 257.624 124.629 262.859 124.629 268.095C124.629 274.639 126.846 281.183 133.177 286.312C137.851 290.105 143.087 291.627 148.215 291.627C155.481 291.627 162.586 288.609 167.901 284.602C170.546 282.599 172.763 280.382 174.312 278.138C175.861 275.894 176.77 273.65 176.77 271.594C176.77 270.552 176.529 269.59 176.022 268.709C175.514 267.827 174.739 267.079 173.698 266.492C172.522 265.824 171.347 265.504 170.199 265.504C168.569 265.504 167.073 266.145 165.738 267.293C163.761 268.976 162.158 271.727 161.01 275.146C159.888 278.539 159.247 282.599 159.247 286.926C159.247 294.031 160.983 301.831 165.15 308.562C169.344 315.293 175.995 320.929 185.798 323.654C191.487 325.23 196.99 325.924 202.172 325.924C215.341 325.924 226.613 321.41 234.599 315.267C242.586 309.096 247.314 301.297 247.314 294.512C247.314 290.211 245.337 286.338 241.09 283.827C239.114 282.652 237.11 282.091 235.134 282.091C232.115 282.091 229.23 283.347 226.586 285.484C222.606 288.689 219.187 293.817 216.73 299.854C214.272 305.864 212.803 312.756 212.803 319.407C212.803 325.737 214.139 331.881 217.264 336.903H218.386C215.154 332.015 213.738 325.844 213.738 319.407C213.738 310.699 216.329 301.564 220.309 294.619C222.312 291.146 224.663 288.235 227.174 286.205C229.711 284.175 232.409 283.026 235.134 283.026C236.95 283.026 238.766 283.534 240.609 284.629C244.589 287.006 246.352 290.505 246.379 294.512C246.379 300.816 241.838 308.482 234.012 314.519C226.185 320.555 215.127 324.989 202.172 324.989C197.07 324.989 191.648 324.295 186.038 322.746C176.449 320.101 170.012 314.626 165.951 308.081C161.865 301.537 160.182 293.898 160.182 286.926C160.182 281.29 161.304 276.108 163.12 272.395C164.028 270.525 165.123 269.029 166.325 268.014C167.527 266.999 168.81 266.465 170.172 266.465C171.133 266.465 172.148 266.732 173.217 267.347C174.152 267.881 174.793 268.495 175.194 269.216C175.621 269.938 175.808 270.739 175.808 271.62C175.808 273.383 175.007 275.494 173.511 277.63C171.294 280.836 167.581 284.121 163.12 286.605C158.659 289.063 153.451 290.719 148.188 290.719C143.22 290.719 138.225 289.25 133.738 285.617C127.648 280.676 125.564 274.478 125.537 268.148C125.537 262.806 127.06 257.383 128.983 252.655C128.582 252.789 128.208 252.923 127.808 253.029L127.861 253.003Z" fill="#FEFEFE"/>
<path d="M269.404 245.283C269.565 250.278 270.473 256.101 273.064 261.47C275.975 267.48 281.077 272.876 289.625 275.734C293.872 277.149 297.852 277.764 301.511 277.764C313.237 277.764 321.919 271.46 327.635 265.236C328.703 264.061 329.692 262.886 330.546 261.764C330.279 261.603 329.985 261.47 329.718 261.31C328.596 262.752 327.314 264.275 325.872 265.744C320.263 271.46 312.169 276.829 301.511 276.829C297.959 276.829 294.085 276.241 289.919 274.825C281.611 272.047 276.75 266.866 273.918 261.042C271.408 255.887 270.526 250.224 270.339 245.336C270.019 245.31 269.698 245.283 269.404 245.256V245.283Z" fill="#FEFEFE"/>
<path d="M283.454 336.876C283.454 336.422 283.428 335.914 283.428 335.407C283.428 331.026 283.989 324.402 286.686 318.552C288.049 315.64 289.945 312.916 292.563 310.752C295.181 308.589 298.546 306.986 302.873 306.291C304.396 306.051 305.838 305.944 307.201 305.944C313.05 305.944 317.271 308.054 320.049 310.912C322.827 313.771 324.136 317.377 324.136 320.315C324.136 321.917 323.735 323.333 323.014 324.295C322.292 325.256 321.277 325.817 319.835 325.844C319.675 325.844 319.514 325.844 319.327 325.817C318.339 325.737 317.378 325.256 316.523 324.428C315.214 323.2 314.119 321.17 313.344 318.632C312.57 316.094 312.142 313.049 312.142 309.791C312.142 304.582 313.237 298.812 315.802 293.684C318.366 288.528 322.373 284.014 328.222 281.21C333.431 278.699 338.239 277.684 342.673 277.684C346.653 277.684 350.313 278.512 353.678 279.874C353.197 279.366 352.717 278.832 352.236 278.325C349.271 277.31 346.092 276.722 342.673 276.722C338.106 276.722 333.137 277.79 327.822 280.355C321.758 283.266 317.591 287.967 314.974 293.256C312.329 298.545 311.207 304.448 311.207 309.791C311.207 314.251 311.982 318.311 313.371 321.383C314.065 322.906 314.893 324.188 315.882 325.123C316.87 326.058 317.992 326.645 319.247 326.752C319.434 326.779 319.648 326.779 319.835 326.779C321.518 326.779 322.88 326.058 323.762 324.856C324.643 323.68 325.07 322.078 325.07 320.315C325.07 317.109 323.655 313.29 320.716 310.245C317.778 307.2 313.291 304.983 307.201 304.983C305.785 304.983 304.316 305.089 302.74 305.357C298.252 306.078 294.726 307.761 291.975 310.031C287.835 313.423 285.484 318.124 284.149 322.772C282.813 327.42 282.493 332.068 282.493 335.407C282.493 335.941 282.493 336.422 282.519 336.876H283.454Z" fill="#FEFEFE"/>
<path d="M74.7859 324.188C75.7475 322.585 77.1899 320.555 79.2467 318.605C83.5739 314.438 90.5456 310.378 101.551 310.378C102.699 310.378 103.901 310.432 105.13 310.512C112.128 311.046 117.364 313.103 121.264 315.907C127.14 320.101 130.078 325.978 131.547 330.812C132.269 333.216 132.643 335.353 132.829 336.903H133.791C133.471 334.258 132.643 329.851 130.372 325.31C128.582 321.731 125.885 318.044 121.824 315.16C117.764 312.248 112.369 310.111 105.21 309.577C103.955 309.47 102.726 309.443 101.551 309.443C89.9579 309.443 82.5856 313.904 78.1783 318.365C76.2551 320.315 74.8928 322.238 73.9579 323.814C74.2517 323.948 74.5188 324.081 74.8126 324.215L74.7859 324.188Z" fill="#FEFEFE"/>
<path d="M384.263 314.145C384.263 314.145 383.915 314.225 383.221 314.385C378.466 315.427 357.738 319.567 331.535 319.567C309.898 319.567 294.54 314.145 279.314 314.145C271.701 314.145 235.347 316.923 219.107 316.923C202.867 316.923 166.539 314.145 158.926 314.145C143.701 314.145 128.342 319.567 106.706 319.567C91.7209 319.567 78.5523 318.205 69.1232 316.869C64.3953 316.201 60.629 315.507 58.0113 314.999C56.7025 314.759 55.7142 314.545 55.0197 314.385C54.3519 314.251 53.9779 314.145 53.9779 314.145C53.8711 314.118 53.7642 314.198 53.7375 314.305C53.7108 314.412 53.791 314.519 53.8978 314.545C53.8978 314.545 76.7092 319.968 106.706 319.968C128.396 319.968 143.808 314.545 158.926 314.545C166.486 314.545 202.867 317.323 219.107 317.323C235.374 317.323 271.728 314.545 279.314 314.545C294.433 314.545 309.845 319.968 331.535 319.968C361.531 319.968 384.343 314.545 384.343 314.545C384.45 314.519 384.53 314.412 384.503 314.305C384.476 314.198 384.369 314.118 384.263 314.145Z" fill="#242222"/>
<path fill-rule="evenodd" clip-rule="evenodd" d="M172.175 323.387L175.861 310.031L189.751 314.465L185.104 327.313L172.175 323.387Z" fill="url(#paint48_linear_333_1396)"/>
<path fill-rule="evenodd" clip-rule="evenodd" d="M179.387 300.442L174.766 288.609L187.374 284.228L191.247 296.943L179.387 300.442Z" fill="url(#paint49_linear_333_1396)"/>
<path fill-rule="evenodd" clip-rule="evenodd" d="M210.292 253.19L181.23 251.64C184.302 255.834 188.229 270.044 192.262 284.949C190.232 287.914 180.937 291.52 174.846 292.135C169.611 279.313 157.324 249.29 153.371 239.567C149.391 229.844 156.389 223.861 162.132 223.861H229.845C239.568 223.914 246.326 223.941 246.326 223.941L210.292 253.163V253.19Z" fill="url(#paint50_linear_333_1396)"/>
<path fill-rule="evenodd" clip-rule="evenodd" d="M190.472 252.148L218.119 232.622L197.871 252.548L190.472 252.148Z" fill="url(#paint51_linear_333_1396)"/>
<path fill-rule="evenodd" clip-rule="evenodd" d="M170.759 239.674C174.365 241.81 176.663 244.588 178.052 246.832C178.746 247.954 179.227 248.942 179.521 249.664C179.681 250.011 179.788 250.305 179.841 250.492C179.921 250.679 179.948 250.785 179.948 250.785C179.975 250.919 180.108 250.972 180.242 250.946C180.376 250.919 180.429 250.785 180.402 250.652C180.402 250.625 178.345 243.6 171 239.246C170.893 239.193 170.733 239.219 170.679 239.326C170.599 239.433 170.653 239.593 170.759 239.647V239.674Z" fill="url(#paint52_linear_333_1396)"/>
<path fill-rule="evenodd" clip-rule="evenodd" d="M184.275 278.271C181.337 268.415 173.164 245.39 171.08 239.406L170.866 239.487V239.727C177.037 239.994 185.851 240.608 193.117 241.169C196.75 241.437 199.982 241.704 202.332 241.891C204.656 242.078 206.099 242.211 206.099 242.211C206.232 242.211 206.339 242.131 206.366 241.997C206.366 241.864 206.286 241.757 206.152 241.73C206.152 241.73 183.287 239.78 170.893 239.246L170.706 239.353L170.679 239.567C172.763 245.55 180.937 268.575 183.848 278.405C183.875 278.538 184.008 278.592 184.142 278.565C184.275 278.538 184.329 278.405 184.302 278.271H184.275Z" fill="url(#paint53_linear_333_1396)"/>
<path fill-rule="evenodd" clip-rule="evenodd" d="M223.648 227.814C223.648 227.814 192.422 254.498 188.496 261.844C187.187 264.301 173.457 314.786 173.457 314.786C177.437 317.777 189.885 320.635 192.957 320.635C192.957 320.635 206.473 287.3 209.17 274.452L237.885 257.169C242.292 254.525 247.341 253.109 252.469 253.109H257.865C257.865 253.109 263.795 240.395 260.162 232.702L223.621 227.814H223.648Z" fill="url(#paint54_linear_333_1396)"/>
<path fill-rule="evenodd" clip-rule="evenodd" d="M204.656 268.415C204.656 268.415 204.71 268.442 204.79 268.522C205.404 268.976 207.968 271.059 208.529 274.024C208.556 274.158 208.663 274.238 208.796 274.211C208.93 274.185 209.01 274.051 208.983 273.944C208.289 270.311 204.923 268.041 204.923 268.041C204.816 267.961 204.656 267.988 204.603 268.094C204.523 268.201 204.549 268.362 204.656 268.415Z" fill="url(#paint55_linear_333_1396)"/>
<path fill-rule="evenodd" clip-rule="evenodd" d="M186.145 317.083C186.145 317.083 186.386 316.361 186.84 315.133C188.389 310.752 192.289 299.8 196.108 289.57C198.032 284.442 199.928 279.5 201.504 275.68C202.306 273.757 203 272.101 203.588 270.845C204.175 269.59 204.656 268.709 204.95 268.388C205.297 267.987 206.072 267.346 207.194 266.518C214.967 260.775 238.473 246.618 242.559 243.947C252.229 237.563 252.763 233.824 252.763 233.076V232.942C252.736 232.809 252.63 232.729 252.496 232.755C252.362 232.782 252.282 232.889 252.309 233.022V233.102C252.309 233.61 251.935 237.243 242.319 243.6C239.995 245.123 231.314 250.411 222.846 255.727C218.626 258.398 214.432 261.042 211.12 263.259C209.464 264.355 208.022 265.37 206.927 266.198C205.805 267.026 205.003 267.667 204.629 268.121C204.229 268.602 203.668 269.67 202.947 271.246C197.925 282.224 185.718 316.976 185.718 316.976C185.664 317.109 185.745 317.243 185.851 317.27C185.985 317.323 186.118 317.243 186.145 317.136V317.083Z" fill="url(#paint56_linear_333_1396)"/>
<path fill-rule="evenodd" clip-rule="evenodd" d="M243.254 231.366C243.227 231.393 241.945 232.301 240.636 233.85C239.354 235.4 238.018 237.563 237.992 240.074C237.992 241.73 238.579 243.52 240.102 245.283L240.823 244.669C239.434 243.039 238.953 241.517 238.953 240.074C238.953 237.911 240.129 235.907 241.357 234.465C241.972 233.744 242.586 233.156 243.04 232.755C243.281 232.542 243.468 232.408 243.601 232.301L243.761 232.194L243.815 232.168L243.254 231.393V231.366Z" fill="url(#paint57_linear_333_1396)"/>
<path fill-rule="evenodd" clip-rule="evenodd" d="M213.204 197.203C212.189 196.962 211.2 196.695 210.265 196.401C200.649 193.57 198.005 190.204 198.005 190.204C204.042 173.296 206.499 166.485 209.331 163.386C211.414 161.089 223.381 158.819 225.918 158.525C226.559 162.665 211.708 179.119 211.334 179.306L213.204 197.203Z" fill="url(#paint58_linear_333_1396)"/>
<path fill-rule="evenodd" clip-rule="evenodd" d="M210.88 177.65L207.888 190.952L215.528 201.744L210.88 177.65Z" fill="url(#paint59_linear_333_1396)"/>
<path fill-rule="evenodd" clip-rule="evenodd" d="M261.845 235.854C261.337 237.51 256.796 240.448 253.511 242.291C253.511 242.291 239.861 238.017 226.292 226.772C219.775 221.349 211.548 224.101 211.601 223.914C214.219 209.757 212.028 208.341 211.868 197.496C211.868 197.229 211.841 196.962 211.841 196.695C211.548 179.974 209.865 171.613 210.639 166.458C214.512 162.131 225.197 158.738 225.891 158.578C225.918 158.551 237.137 158.498 239.594 158.578C245.204 160.02 255.114 162.985 260.055 171.399C259.788 178.104 260.215 186.278 259.414 196.722C259.281 198.298 259.147 223.379 261.845 235.88V235.854Z" fill="url(#paint60_linear_333_1396)"/>
<path fill-rule="evenodd" clip-rule="evenodd" d="M213.952 131.199C213.952 131.199 211.761 138.839 216.543 139.693L217.611 133.256L213.952 131.199Z" fill="url(#paint61_linear_333_1396)"/>
<path fill-rule="evenodd" clip-rule="evenodd" d="M230.7 166.939C230.112 166.939 229.471 166.912 228.83 166.832C222.259 166.031 225.197 159.353 225.918 158.471C225.918 158.471 225.945 158.311 225.998 158.017C231.554 157.002 234.199 150.591 234.359 150.191C231.955 152.782 228.963 153.957 226.533 154.491L226.079 157.403C226.185 156.628 226.372 155.56 226.533 154.491C224.957 154.839 223.594 154.892 222.793 154.892C222.259 154.892 221.965 154.865 221.965 154.865C213.498 151.713 216.008 132.508 216.008 132.508C216.062 129.757 216.836 127.753 218.119 126.311C219.988 124.227 222.846 123.399 225.918 123.399C227.628 123.399 229.391 123.667 231.074 124.094C235.16 125.189 238.74 127.379 239.648 129.596C241.357 133.737 240.022 140.628 239.06 144.368C238.873 145.089 238.553 145.623 238.179 146.077H238.205C238.205 146.077 238.473 158.258 239.594 158.418C241.17 159.166 239.301 166.885 230.673 166.885L230.7 166.939Z" fill="url(#paint62_linear_333_1396)"/>
<path fill-rule="evenodd" clip-rule="evenodd" d="M239.541 150.378L238.446 151.019C238.152 147.867 238.259 145.009 238.072 142.819C238.686 140.441 238.179 137.343 236.122 137.156C232.81 136.862 232.703 141.617 232.703 141.617C229.818 141.109 229.284 136.194 229.07 134.324C227.2 134.966 211.761 137.396 212.536 128.582C212.536 128.582 211.841 127.219 211.628 125.857C209.811 114.932 221.671 119.046 221.671 119.046C221.671 119.046 223.648 114.478 229.738 116.642C233.985 118.164 236.149 121.316 236.149 121.316C236.149 121.316 237.858 119.927 239.407 122.064C240.422 123.453 239.755 126.365 239.755 126.365C249.851 128.208 239.648 149.683 239.541 150.378Z" fill="#332C2B"/>
<path fill-rule="evenodd" clip-rule="evenodd" d="M244.082 184.194L249.264 202.251C251.801 202.251 257.411 201.156 259.2 199.9L244.082 184.194Z" fill="url(#paint63_linear_333_1396)"/>
<path fill-rule="evenodd" clip-rule="evenodd" d="M224.796 213.603C224.796 213.603 220.042 214.832 219.107 215.233C218.653 215.42 213.952 219.159 213.311 219.667C212.669 220.174 213.952 221.109 215.661 220.922C217.371 220.735 221.938 217.904 221.938 217.904L224.77 214.378V213.603H224.796Z" fill="url(#paint64_linear_333_1396)"/>
<path fill-rule="evenodd" clip-rule="evenodd" d="M264.222 177.971L247.608 185.663C247.608 185.663 253.297 197.016 257.064 204.922C253.431 205.804 234.038 212.401 234.038 212.401C234.038 212.401 225.998 213.016 224.823 213.603C223.514 214.271 215.875 221.884 215.875 221.884H218.733L225.277 220.121C225.277 220.121 228.937 221.056 230.967 220.976C232.997 220.896 235.321 219.133 235.187 219.133C235.187 219.133 268.656 219.079 270.606 218.411C274.079 217.209 275.548 214.191 275.708 210.558C275.948 205.243 264.249 177.997 264.249 177.997L264.222 177.971Z" fill="url(#paint65_linear_333_1396)"/>
<path d="M230.085 223.887H209.491V221.884H230.085C230.646 221.884 231.1 222.338 231.1 222.899C231.1 223.46 230.646 223.914 230.085 223.914V223.887Z" fill="#FEFEFE"/>
<path d="M218.92 223.887H169.691C169.077 223.887 168.543 223.487 168.356 222.872L157.805 184.862C157.564 184.034 158.205 183.179 159.087 183.179H206.606C207.781 183.179 208.796 183.954 209.09 185.076L219.614 222.952C219.748 223.406 219.401 223.887 218.92 223.887Z" fill="#FEFEFE"/>
<path d="M217.05 223.887H167.821C167.207 223.887 166.673 223.487 166.486 222.872L155.935 184.862C155.694 184.034 156.335 183.179 157.217 183.179H204.736C205.911 183.179 206.927 183.954 207.22 185.076L217.745 222.952C217.878 223.406 217.531 223.887 217.05 223.887Z" fill="#7259A1"/>
<path d="M189.778 205.083H189.538C189.538 205.75 189.084 206.391 188.256 206.872C187.427 207.353 186.279 207.674 184.97 207.674C183.688 207.674 182.513 207.353 181.685 206.872C180.857 206.391 180.402 205.75 180.402 205.083C180.402 204.415 180.857 203.774 181.685 203.293C182.513 202.812 183.661 202.492 184.97 202.492C186.252 202.492 187.427 202.812 188.256 203.293C189.084 203.774 189.538 204.415 189.538 205.083H190.018C190.018 204.201 189.404 203.426 188.496 202.892C187.588 202.358 186.332 202.037 184.97 202.037C183.608 202.037 182.379 202.358 181.444 202.892C180.536 203.426 179.922 204.201 179.922 205.083C179.922 205.964 180.536 206.739 181.444 207.273C182.352 207.807 183.581 208.128 184.97 208.128C186.332 208.128 187.561 207.807 188.496 207.273C189.404 206.739 190.018 205.964 190.018 205.083H189.778Z" fill="#FEFEFE"/>
<path fill-rule="evenodd" clip-rule="evenodd" d="M242.025 179.092C247.341 192.475 249.611 197.042 249.611 197.042C262.433 195.279 270.9 189.616 270.9 189.616C267.16 179.279 261.444 166.485 258.186 163.84C254.633 160.955 240.903 158.872 240.903 158.872L242.025 179.092Z" fill="url(#paint66_linear_333_1396)"/>
<path d="M257.731 204.789C257.731 204.789 258.239 204.655 259.067 204.521C259.895 204.388 261.07 204.254 262.353 204.254C264.81 204.254 267.748 204.762 269.965 206.658H270.125V206.498C267.855 204.548 264.837 204.041 262.353 204.041C259.735 204.041 257.678 204.602 257.678 204.602L257.598 204.735L257.731 204.815V204.789Z" fill="#242222"/>
<path fill-rule="evenodd" clip-rule="evenodd" d="M169.878 318.205C168.623 318.792 166.058 322.745 166.058 322.745C166.058 322.745 161.09 324.375 156.309 326.004C145.036 326.725 146.799 336.902 146.799 336.902H187.828C187.828 336.902 189.537 328.969 185.878 325.096L177.17 323.173C177.17 323.173 177.491 319.994 176.956 319.166C176.422 318.338 171.107 317.617 169.851 318.205H169.878Z" fill="url(#paint67_linear_333_1396)"/>
<path fill-rule="evenodd" clip-rule="evenodd" d="M188.229 333.537C188.149 335.46 187.855 336.876 187.855 336.876H146.826C146.826 336.876 146.559 335.407 146.88 333.537H188.229Z" fill="url(#paint68_linear_333_1396)"/>
<path fill-rule="evenodd" clip-rule="evenodd" d="M279.368 336.742H272.877V317.991H283.134L279.368 336.742Z" fill="url(#paint69_linear_333_1396)"/>
<path fill-rule="evenodd" clip-rule="evenodd" d="M318.847 336.742H325.364V317.991H315.08L318.847 336.742Z" fill="url(#paint70_linear_333_1396)"/>
<path fill-rule="evenodd" clip-rule="evenodd" d="M270.953 320.475H327.287V256.395H270.953V320.475Z" fill="url(#paint71_linear_333_1396)"/>
<path d="M273.785 285.884H324.429V259.974H273.785V285.884Z" fill="#FEFEFE"/>
<path d="M273.785 316.869H324.429V290.959H273.785V316.869Z" fill="#FEFEFE"/>
<path fill-rule="evenodd" clip-rule="evenodd" d="M306.159 262.351H292.082L290.693 259.386H307.548L306.159 262.351Z" fill="url(#paint72_linear_333_1396)"/>
<path fill-rule="evenodd" clip-rule="evenodd" d="M306.159 293.043H292.082L290.693 290.078H307.548L306.159 293.043Z" fill="url(#paint73_linear_333_1396)"/>
<path fill-rule="evenodd" clip-rule="evenodd" d="M310.673 254.899H312.569V220.335H310.673V254.899Z" fill="url(#paint74_linear_333_1396)"/>
<path fill-rule="evenodd" clip-rule="evenodd" d="M312.169 219.186L310.7 220.361L289.892 193.971C289.571 193.57 289.651 192.956 290.052 192.635C290.453 192.315 291.04 192.395 291.388 192.795L312.196 219.186H312.169Z" fill="url(#paint75_linear_333_1396)"/>
<path fill-rule="evenodd" clip-rule="evenodd" d="M299.828 256.395H323.414V252.682H299.828V256.395Z" fill="url(#paint76_linear_333_1396)"/>
<path d="M314.092 220.068C314.092 221.43 312.997 222.525 311.635 222.525C310.273 222.525 309.177 221.43 309.177 220.068C309.177 218.705 310.273 217.61 311.635 217.61C312.997 217.61 314.092 218.705 314.092 220.068Z" fill="#242222"/>
<path fill-rule="evenodd" clip-rule="evenodd" d="M287.888 208.715C285.912 210.264 283.027 209.917 281.478 207.941C279.928 205.937 280.276 203.079 282.252 201.53C284.256 199.981 287.114 200.328 288.663 202.304C290.212 204.308 289.865 207.166 287.888 208.715Z" fill="url(#paint77_linear_333_1396)"/>
<path fill-rule="evenodd" clip-rule="evenodd" d="M294.539 203.293L298.973 199.179L294.112 192.982L289.064 196.294C283.695 193.356 278.326 197.55 278.326 197.55L284.523 205.483L290.72 213.416C290.72 213.416 296.089 209.196 294.513 203.293H294.539Z" fill="url(#paint78_linear_333_1396)"/>
<path fill-rule="evenodd" clip-rule="evenodd" d="M290.426 197.737L289.865 197.016L294.139 194.184L294.646 194.825L290.426 197.737Z" fill="url(#paint79_linear_333_1396)"/>
<path fill-rule="evenodd" clip-rule="evenodd" d="M291.655 199.286L291.067 198.565L295.207 195.547L295.715 196.188L291.655 199.286Z" fill="url(#paint80_linear_333_1396)"/>
<path fill-rule="evenodd" clip-rule="evenodd" d="M292.857 200.835L292.296 200.114L296.276 196.909L296.783 197.55L292.857 200.835Z" fill="url(#paint81_linear_333_1396)"/>
<path fill-rule="evenodd" clip-rule="evenodd" d="M294.059 202.385L293.498 201.663L297.344 198.271L297.852 198.912L294.059 202.385Z" fill="url(#paint82_linear_333_1396)"/>
<path fill-rule="evenodd" clip-rule="evenodd" d="M302.633 252.682H306.239V250.866H302.633V252.682Z" fill="url(#paint83_linear_333_1396)"/>
<path fill-rule="evenodd" clip-rule="evenodd" d="M296.329 248.194C295.875 249.717 294.433 251.32 291.895 251.052V250.972V245.443C292.643 244.802 293.898 244.001 295.18 244.588C296.543 245.203 296.73 246.885 296.329 248.194ZM295.581 243.734C294.165 243.092 292.857 243.6 291.922 244.241V243.199H275.788V250.972C275.788 252.201 276.349 253.376 277.311 254.151C277.978 254.685 278.806 254.979 279.661 255.006V256.368H288.075V255.006C288.93 254.979 289.758 254.685 290.426 254.151C291.12 253.59 291.601 252.842 291.815 251.987C292.055 252.014 292.269 252.041 292.483 252.041C295.02 252.041 296.703 250.331 297.264 248.461C297.878 246.405 297.211 244.455 295.608 243.734H295.581Z" fill="url(#paint84_linear_333_1396)"/>
<path fill-rule="evenodd" clip-rule="evenodd" d="M354.026 160.768L349.805 156.548L354.026 152.354L358.246 156.548L354.026 160.768Z" fill="url(#paint85_linear_333_1396)"/>
<path fill-rule="evenodd" clip-rule="evenodd" d="M369.758 160.768L365.565 156.548L369.758 152.354L373.979 156.548L369.758 160.768Z" fill="url(#paint86_linear_333_1396)"/>
<path fill-rule="evenodd" clip-rule="evenodd" d="M385.518 160.768L381.298 156.548L385.518 152.354L389.738 156.548L385.518 160.768Z" fill="url(#paint87_linear_333_1396)"/>
<path fill-rule="evenodd" clip-rule="evenodd" d="M401.251 160.768L397.057 156.548L401.251 152.354L405.471 156.548L401.251 160.768Z" fill="url(#paint88_linear_333_1396)"/>
<path fill-rule="evenodd" clip-rule="evenodd" d="M151.901 25.3957L149.524 23.0184L151.901 20.6411L154.279 23.0184L151.901 25.3957Z" fill="url(#paint89_linear_333_1396)"/>
<path fill-rule="evenodd" clip-rule="evenodd" d="M160.796 25.3957L158.419 23.0184L160.796 20.6411L163.2 23.0184L160.796 25.3957Z" fill="url(#paint90_linear_333_1396)"/>
<path fill-rule="evenodd" clip-rule="evenodd" d="M169.718 25.3957L167.34 23.0184L169.718 20.6411L172.095 23.0184L169.718 25.3957Z" fill="url(#paint91_linear_333_1396)"/>
<path fill-rule="evenodd" clip-rule="evenodd" d="M178.613 25.3957L176.235 23.0184L178.613 20.6411L181.017 23.0184L178.613 25.3957Z" fill="url(#paint92_linear_333_1396)"/>
<path fill-rule="evenodd" clip-rule="evenodd" d="M34.8526 285.056L32.4753 282.679L34.8526 280.301L37.2299 282.679L34.8526 285.056Z" fill="url(#paint93_linear_333_1396)"/>
<path fill-rule="evenodd" clip-rule="evenodd" d="M43.7475 285.056L41.3702 282.679L43.7475 280.301L46.1516 282.679L43.7475 285.056Z" fill="url(#paint94_linear_333_1396)"/>
<path fill-rule="evenodd" clip-rule="evenodd" d="M52.669 285.056L50.2917 282.679L52.669 280.301L55.0464 282.679L52.669 285.056Z" fill="url(#paint95_linear_333_1396)"/>
<path fill-rule="evenodd" clip-rule="evenodd" d="M61.5638 285.056L59.1865 282.679L61.5638 280.301L63.9678 282.679L61.5638 285.056Z" fill="url(#paint96_linear_333_1396)"/>
<path fill-rule="evenodd" clip-rule="evenodd" d="M337.197 245.31L334.82 242.932L337.197 240.528L339.575 242.932L337.197 245.31Z" fill="url(#paint97_linear_333_1396)"/>
<path fill-rule="evenodd" clip-rule="evenodd" d="M346.119 245.31L343.742 242.932L346.119 240.528L348.496 242.932L346.119 245.31Z" fill="url(#paint98_linear_333_1396)"/>
<path fill-rule="evenodd" clip-rule="evenodd" d="M355.014 245.31L352.636 242.932L355.014 240.528L357.391 242.932L355.014 245.31Z" fill="url(#paint99_linear_333_1396)"/>
<path fill-rule="evenodd" clip-rule="evenodd" d="M363.935 245.31L361.558 242.932L363.935 240.528L366.313 242.932L363.935 245.31Z" fill="url(#paint100_linear_333_1396)"/>
<path fill-rule="evenodd" clip-rule="evenodd" d="M16.9294 209.463L11.5604 204.121L16.9294 198.752L22.2716 204.121L16.9294 209.463Z" fill="url(#paint101_linear_333_1396)"/>
<path fill-rule="evenodd" clip-rule="evenodd" d="M36.9361 209.463L31.5939 204.121L36.9361 198.752L42.3051 204.121L36.9361 209.463Z" fill="url(#paint102_linear_333_1396)"/>
<path fill-rule="evenodd" clip-rule="evenodd" d="M56.9695 209.463L51.6273 204.121L56.9695 198.752L62.3385 204.121L56.9695 209.463Z" fill="url(#paint103_linear_333_1396)"/>
<path fill-rule="evenodd" clip-rule="evenodd" d="M302.045 102.725C302.045 102.725 302.205 102.698 302.553 102.645C303.541 102.485 305.892 102.164 308.937 102.164C313.157 102.164 318.713 102.778 323.788 105.236C328.863 107.693 333.431 112.02 335.755 119.473C336.77 122.758 337.224 125.857 337.224 128.795C337.224 136.248 334.206 142.498 329.665 146.852C325.097 151.233 318.98 153.717 312.756 153.717C309.952 153.717 307.147 153.209 304.422 152.141C298.412 149.763 296.169 146.238 296.169 143.326C296.169 140.361 298.466 138.011 301.618 138.011C304.663 138.011 308.563 140.228 312.008 146.398C314.867 151.526 316.122 156.441 316.122 160.902C316.122 167.58 313.344 173.296 308.937 177.356C304.529 181.416 298.493 183.794 292.002 183.794C285.618 183.794 278.753 181.496 272.529 176.181C272.449 176.101 272.316 176.128 272.235 176.208C272.155 176.288 272.182 176.421 272.262 176.501C278.566 181.87 285.511 184.194 292.002 184.194C298.626 184.194 304.743 181.764 309.23 177.65C313.718 173.51 316.549 167.687 316.549 160.902C316.549 156.361 315.267 151.366 312.409 146.184C308.937 139.934 304.903 137.61 301.671 137.583C299.988 137.583 298.519 138.224 297.478 139.266C296.436 140.308 295.821 141.75 295.821 143.326C295.821 146.451 298.225 150.111 304.316 152.515C307.067 153.61 309.952 154.117 312.81 154.117C319.14 154.117 325.364 151.58 330.012 147.119C334.66 142.685 337.705 136.328 337.705 128.768C337.705 125.803 337.224 122.625 336.209 119.313C333.858 111.753 329.184 107.319 324.029 104.808C318.873 102.298 313.264 101.683 308.99 101.683C304.877 101.683 302.018 102.244 302.018 102.244C301.912 102.271 301.831 102.378 301.858 102.485C301.885 102.591 301.992 102.672 302.099 102.645L302.045 102.725Z" fill="url(#paint104_linear_333_1396)"/>
<path fill-rule="evenodd" clip-rule="evenodd" d="M26.2516 254.098C22.0312 260.749 19.8141 268.201 19.8141 275.2C19.8141 282.465 22.1914 289.276 27.133 294.271C32.1013 299.266 39.6072 302.418 49.891 302.418C52.6423 302.418 55.6072 302.178 58.7592 301.697C58.866 301.67 58.9461 301.564 58.9461 301.457C58.9194 301.35 58.8126 301.27 58.7057 301.27C55.5538 301.751 52.6156 301.964 49.891 301.964C39.714 301.964 32.2883 298.839 27.4269 293.924C22.5654 289.009 20.2148 282.331 20.2148 275.146C20.2148 268.228 22.4051 260.856 26.5721 254.258C26.6255 254.151 26.5988 254.044 26.5187 253.964C26.4118 253.911 26.305 253.937 26.2248 254.017L26.2516 254.098Z" fill="url(#paint105_linear_333_1396)"/>
<defs>
<linearGradient id="paint0_linear_333_1396" x1="235.134" y1="44.8949" x2="235.134" y2="274.558" gradientUnits="userSpaceOnUse">
<stop stop-color="#F4F9FD"/>
<stop offset="1" stop-color="#E1EDF8"/>
</linearGradient>
<linearGradient id="paint1_linear_333_1396" x1="235.134" y1="44.895" x2="235.134" y2="274.558" gradientUnits="userSpaceOnUse">
<stop stop-color="#F4F9FD"/>
<stop offset="1" stop-color="#E1EDF8"/>
</linearGradient>
<linearGradient id="paint2_linear_333_1396" x1="235.134" y1="44.895" x2="235.134" y2="274.558" gradientUnits="userSpaceOnUse">
<stop stop-color="#F4F9FD"/>
<stop offset="1" stop-color="#E1EDF8"/>
</linearGradient>
<linearGradient id="paint3_linear_333_1396" x1="235.134" y1="44.895" x2="235.134" y2="274.558" gradientUnits="userSpaceOnUse">
<stop stop-color="#F4F9FD"/>
<stop offset="1" stop-color="#E1EDF8"/>
</linearGradient>
<linearGradient id="paint4_linear_333_1396" x1="235.134" y1="44.8952" x2="235.134" y2="274.559" gradientUnits="userSpaceOnUse">
<stop stop-color="#F4F9FD"/>
<stop offset="1" stop-color="#E1EDF8"/>
</linearGradient>
<linearGradient id="paint5_linear_333_1396" x1="235.134" y1="44.8952" x2="235.134" y2="274.559" gradientUnits="userSpaceOnUse">
<stop stop-color="#F4F9FD"/>
<stop offset="1" stop-color="#E1EDF8"/>
</linearGradient>
<linearGradient id="paint6_linear_333_1396" x1="235.134" y1="44.8952" x2="235.134" y2="274.559" gradientUnits="userSpaceOnUse">
<stop stop-color="#F4F9FD"/>
<stop offset="1" stop-color="#E1EDF8"/>
</linearGradient>
<linearGradient id="paint7_linear_333_1396" x1="235.134" y1="44.895" x2="235.134" y2="274.558" gradientUnits="userSpaceOnUse">
<stop stop-color="#F4F9FD"/>
<stop offset="1" stop-color="#E1EDF8"/>
</linearGradient>
<linearGradient id="paint8_linear_333_1396" x1="235.134" y1="44.895" x2="235.134" y2="274.558" gradientUnits="userSpaceOnUse">
<stop stop-color="#F4F9FD"/>
<stop offset="1" stop-color="#E1EDF8"/>
</linearGradient>
<linearGradient id="paint9_linear_333_1396" x1="235.134" y1="44.895" x2="235.134" y2="274.558" gradientUnits="userSpaceOnUse">
<stop stop-color="#F4F9FD"/>
<stop offset="1" stop-color="#E1EDF8"/>
</linearGradient>
<linearGradient id="paint10_linear_333_1396" x1="235.134" y1="44.8951" x2="235.134" y2="274.558" gradientUnits="userSpaceOnUse">
<stop stop-color="#F4F9FD"/>
<stop offset="1" stop-color="#E1EDF8"/>
</linearGradient>
<linearGradient id="paint11_linear_333_1396" x1="235.134" y1="44.8951" x2="235.134" y2="274.558" gradientUnits="userSpaceOnUse">
<stop stop-color="#F4F9FD"/>
<stop offset="1" stop-color="#E1EDF8"/>
</linearGradient>
<linearGradient id="paint12_linear_333_1396" x1="235.134" y1="44.8951" x2="235.134" y2="274.558" gradientUnits="userSpaceOnUse">
<stop stop-color="#F4F9FD"/>
<stop offset="1" stop-color="#E1EDF8"/>
</linearGradient>
<linearGradient id="paint13_linear_333_1396" x1="235.134" y1="44.8951" x2="235.134" y2="274.558" gradientUnits="userSpaceOnUse">
<stop stop-color="#F4F9FD"/>
<stop offset="1" stop-color="#E1EDF8"/>
</linearGradient>
<linearGradient id="paint14_linear_333_1396" x1="235.134" y1="44.8951" x2="235.134" y2="274.558" gradientUnits="userSpaceOnUse">
<stop stop-color="#F4F9FD"/>
<stop offset="1" stop-color="#E1EDF8"/>
</linearGradient>
<linearGradient id="paint15_linear_333_1396" x1="235.134" y1="44.8951" x2="235.134" y2="274.558" gradientUnits="userSpaceOnUse">
<stop stop-color="#F4F9FD"/>
<stop offset="1" stop-color="#E1EDF8"/>
</linearGradient>
<linearGradient id="paint16_linear_333_1396" x1="235.134" y1="44.8952" x2="235.134" y2="274.559" gradientUnits="userSpaceOnUse">
<stop stop-color="#F4F9FD"/>
<stop offset="1" stop-color="#E1EDF8"/>
</linearGradient>
<linearGradient id="paint17_linear_333_1396" x1="235.134" y1="44.8952" x2="235.134" y2="274.559" gradientUnits="userSpaceOnUse">
<stop stop-color="#F4F9FD"/>
<stop offset="1" stop-color="#E1EDF8"/>
</linearGradient>
<linearGradient id="paint18_linear_333_1396" x1="235.134" y1="44.8952" x2="235.134" y2="274.559" gradientUnits="userSpaceOnUse">
<stop stop-color="#F4F9FD"/>
<stop offset="1" stop-color="#E1EDF8"/>
</linearGradient>
<linearGradient id="paint19_linear_333_1396" x1="235.134" y1="44.8951" x2="235.134" y2="274.558" gradientUnits="userSpaceOnUse">
<stop stop-color="#F4F9FD"/>
<stop offset="1" stop-color="#E1EDF8"/>
</linearGradient>
<linearGradient id="paint20_linear_333_1396" x1="235.134" y1="44.8951" x2="235.134" y2="274.558" gradientUnits="userSpaceOnUse">
<stop stop-color="#F4F9FD"/>
<stop offset="1" stop-color="#E1EDF8"/>
</linearGradient>
<linearGradient id="paint21_linear_333_1396" x1="235.134" y1="44.8952" x2="235.134" y2="274.559" gradientUnits="userSpaceOnUse">
<stop stop-color="#F4F9FD"/>
<stop offset="1" stop-color="#E1EDF8"/>
</linearGradient>
<linearGradient id="paint22_linear_333_1396" x1="235.134" y1="44.8949" x2="235.134" y2="274.558" gradientUnits="userSpaceOnUse">
<stop stop-color="#F4F9FD"/>
<stop offset="1" stop-color="#E1EDF8"/>
</linearGradient>
<linearGradient id="paint23_linear_333_1396" x1="235.134" y1="44.895" x2="235.134" y2="274.558" gradientUnits="userSpaceOnUse">
<stop stop-color="#F4F9FD"/>
<stop offset="1" stop-color="#E1EDF8"/>
</linearGradient>
<linearGradient id="paint24_linear_333_1396" x1="235.134" y1="44.8951" x2="235.134" y2="274.558" gradientUnits="userSpaceOnUse">
<stop stop-color="#F4F9FD"/>
<stop offset="1" stop-color="#E1EDF8"/>
</linearGradient>
<linearGradient id="paint25_linear_333_1396" x1="235.134" y1="44.895" x2="235.134" y2="274.558" gradientUnits="userSpaceOnUse">
<stop stop-color="#F4F9FD"/>
<stop offset="1" stop-color="#E1EDF8"/>
</linearGradient>
<linearGradient id="paint26_linear_333_1396" x1="235.134" y1="44.895" x2="235.134" y2="274.558" gradientUnits="userSpaceOnUse">
<stop stop-color="#F4F9FD"/>
<stop offset="1" stop-color="#E1EDF8"/>
</linearGradient>
<linearGradient id="paint27_linear_333_1396" x1="235.134" y1="44.895" x2="235.134" y2="274.558" gradientUnits="userSpaceOnUse">
<stop stop-color="#F4F9FD"/>
<stop offset="1" stop-color="#E1EDF8"/>
</linearGradient>
<linearGradient id="paint28_linear_333_1396" x1="235.134" y1="44.8949" x2="235.134" y2="274.558" gradientUnits="userSpaceOnUse">
<stop stop-color="#F4F9FD"/>
<stop offset="1" stop-color="#E1EDF8"/>
</linearGradient>
<linearGradient id="paint29_linear_333_1396" x1="235.134" y1="44.8949" x2="235.134" y2="274.558" gradientUnits="userSpaceOnUse">
<stop stop-color="#F4F9FD"/>
<stop offset="1" stop-color="#E1EDF8"/>
</linearGradient>
<linearGradient id="paint30_linear_333_1396" x1="235.134" y1="44.895" x2="235.134" y2="274.558" gradientUnits="userSpaceOnUse">
<stop stop-color="#F4F9FD"/>
<stop offset="1" stop-color="#E1EDF8"/>
</linearGradient>
<linearGradient id="paint31_linear_333_1396" x1="235.134" y1="44.895" x2="235.134" y2="274.558" gradientUnits="userSpaceOnUse">
<stop stop-color="#F4F9FD"/>
<stop offset="1" stop-color="#E1EDF8"/>
</linearGradient>
<linearGradient id="paint32_linear_333_1396" x1="96.2885" y1="26.491" x2="96.2885" y2="65.1956" gradientUnits="userSpaceOnUse">
<stop stop-color="#F4F9FD"/>
<stop offset="1" stop-color="#E1EDF8"/>
</linearGradient>
<linearGradient id="paint33_linear_333_1396" x1="336.449" y1="85.3893" x2="389.177" y2="85.3893" gradientUnits="userSpaceOnUse">
<stop stop-color="#F4F9FD"/>
<stop offset="1" stop-color="#E1EDF8"/>
</linearGradient>
<linearGradient id="paint34_linear_333_1396" x1="27.0263" y1="170.385" x2="79.781" y2="170.385" gradientUnits="userSpaceOnUse">
<stop stop-color="#F4F9FD"/>
<stop offset="1" stop-color="#E1EDF8"/>
</linearGradient>
<linearGradient id="paint35_linear_333_1396" x1="2.11758" y1="15.8748" x2="77.4166" y2="15.8748" gradientUnits="userSpaceOnUse">
<stop stop-color="#F4F9FD"/>
<stop offset="1" stop-color="#E1EDF8"/>
</linearGradient>
<linearGradient id="paint36_linear_333_1396" x1="124.362" y1="265.049" x2="82.6391" y2="223.62" gradientUnits="userSpaceOnUse">
<stop stop-color="#00ACB0"/>
<stop offset="1" stop-color="#24B9D0"/>
</linearGradient>
<linearGradient id="paint37_linear_333_1396" x1="372.857" y1="336.288" x2="408.97" y2="294.405" gradientUnits="userSpaceOnUse">
<stop stop-color="#00ACB0"/>
<stop offset="1" stop-color="#24B9D0"/>
</linearGradient>
<linearGradient id="paint38_linear_333_1396" x1="349.084" y1="334.312" x2="381.912" y2="293.897" gradientUnits="userSpaceOnUse">
<stop stop-color="#00ACB0"/>
<stop offset="1" stop-color="#24B9D0"/>
</linearGradient>
<linearGradient id="paint39_linear_333_1396" x1="118.673" y1="61.1622" x2="118.673" y2="181.79" gradientUnits="userSpaceOnUse">
<stop stop-color="#8EBBE4"/>
<stop offset="1" stop-color="#2C5CA8"/>
</linearGradient>
<linearGradient id="paint40_linear_333_1396" x1="367.452" y1="93.1204" x2="367.452" y2="43.7313" gradientUnits="userSpaceOnUse">
<stop stop-color="#F49F0A"/>
<stop offset="1" stop-color="#FCCD00"/>
</linearGradient>
<linearGradient id="paint41_linear_333_1396" x1="392.427" y1="93.1205" x2="392.427" y2="43.7581" gradientUnits="userSpaceOnUse">
<stop stop-color="#F49F0A"/>
<stop offset="1" stop-color="#FCCD00"/>
</linearGradient>
<linearGradient id="paint42_linear_333_1396" x1="417.402" y1="93.1204" x2="417.402" y2="43.758" gradientUnits="userSpaceOnUse">
<stop stop-color="#F49F0A"/>
<stop offset="1" stop-color="#FCCD00"/>
</linearGradient>
<linearGradient id="paint43_linear_333_1396" x1="392.427" y1="93.1205" x2="392.427" y2="43.7581" gradientUnits="userSpaceOnUse">
<stop stop-color="#F49F0A"/>
<stop offset="1" stop-color="#FCCD00"/>
</linearGradient>
<linearGradient id="paint44_linear_333_1396" x1="392.427" y1="93.1205" x2="392.427" y2="43.7314" gradientUnits="userSpaceOnUse">
<stop stop-color="#F49F0A"/>
<stop offset="1" stop-color="#FCCD00"/>
</linearGradient>
<linearGradient id="paint45_linear_333_1396" x1="287.648" y1="93.4028" x2="287.648" y2="84.588" gradientUnits="userSpaceOnUse">
<stop stop-color="#DC252D"/>
<stop offset="1" stop-color="#E95359"/>
</linearGradient>
<linearGradient id="paint46_linear_333_1396" x1="366.526" y1="183.099" x2="366.526" y2="175.7" gradientUnits="userSpaceOnUse">
<stop stop-color="#00ACB0"/>
<stop offset="1" stop-color="#24B9D0"/>
</linearGradient>
<linearGradient id="paint47_linear_333_1396" x1="219.134" y1="256.074" x2="219.134" y2="338.104" gradientUnits="userSpaceOnUse">
<stop stop-color="#7094CC"/>
<stop offset="0.0117647" stop-color="#7094CC"/>
<stop offset="1" stop-color="#576CB1"/>
</linearGradient>
<linearGradient id="paint48_linear_333_1396" x1="184.249" y1="309.497" x2="176.663" y2="327.901" gradientUnits="userSpaceOnUse">
<stop stop-color="#FAD6C0"/>
<stop offset="1" stop-color="#F6B999"/>
</linearGradient>
<linearGradient id="paint49_linear_333_1396" x1="180.322" y1="282.332" x2="185.744" y2="303.46" gradientUnits="userSpaceOnUse">
<stop stop-color="#FAD6C0"/>
<stop offset="1" stop-color="#F6B999"/>
</linearGradient>
<linearGradient id="paint50_linear_333_1396" x1="200.623" y1="333.751" x2="200.623" y2="247.714" gradientUnits="userSpaceOnUse">
<stop stop-color="#4C4999"/>
<stop offset="0.0117647" stop-color="#4C4999"/>
<stop offset="1" stop-color="#5555A1"/>
</linearGradient>
<linearGradient id="paint51_linear_333_1396" x1="199.287" y1="333.751" x2="199.287" y2="247.714" gradientUnits="userSpaceOnUse">
<stop stop-color="#4C4999"/>
<stop offset="0.0117647" stop-color="#4C4999"/>
<stop offset="1" stop-color="#5555A1"/>
</linearGradient>
<linearGradient id="paint52_linear_333_1396" x1="199.127" y1="333.297" x2="199.127" y2="247.687" gradientUnits="userSpaceOnUse">
<stop stop-color="#4C4999"/>
<stop offset="0.0117647" stop-color="#4C4999"/>
<stop offset="1" stop-color="#5555A1"/>
</linearGradient>
<linearGradient id="paint53_linear_333_1396" x1="199.26" y1="333.671" x2="199.26" y2="247.714" gradientUnits="userSpaceOnUse">
<stop stop-color="#4C4999"/>
<stop offset="0.0117647" stop-color="#4C4999"/>
<stop offset="1" stop-color="#5555A1"/>
</linearGradient>
<linearGradient id="paint54_linear_333_1396" x1="216.222" y1="320.475" x2="216.222" y2="233.076" gradientUnits="userSpaceOnUse">
<stop stop-color="#4C4999"/>
<stop offset="0.0117647" stop-color="#4C4999"/>
<stop offset="1" stop-color="#5555A1"/>
</linearGradient>
<linearGradient id="paint55_linear_333_1396" x1="217.291" y1="320.075" x2="217.291" y2="233.396" gradientUnits="userSpaceOnUse">
<stop stop-color="#4C4999"/>
<stop offset="0.0117647" stop-color="#4C4999"/>
<stop offset="1" stop-color="#5555A1"/>
</linearGradient>
<linearGradient id="paint56_linear_333_1396" x1="217.424" y1="320.448" x2="217.424" y2="233.102" gradientUnits="userSpaceOnUse">
<stop stop-color="#4C4999"/>
<stop offset="0.0117647" stop-color="#4C4999"/>
<stop offset="1" stop-color="#5555A1"/>
</linearGradient>
<linearGradient id="paint57_linear_333_1396" x1="217.424" y1="320.475" x2="217.424" y2="233.076" gradientUnits="userSpaceOnUse">
<stop stop-color="#4C4999"/>
<stop offset="0.0117647" stop-color="#4C4999"/>
<stop offset="1" stop-color="#5555A1"/>
</linearGradient>
<linearGradient id="paint58_linear_333_1396" x1="211.654" y1="233.797" x2="211.654" y2="140.869" gradientUnits="userSpaceOnUse">
<stop stop-color="#F49F0A"/>
<stop offset="1" stop-color="#FCCD00"/>
</linearGradient>
<linearGradient id="paint59_linear_333_1396" x1="211.975" y1="233.797" x2="211.975" y2="140.869" gradientUnits="userSpaceOnUse">
<stop stop-color="#F49F0A"/>
<stop offset="1" stop-color="#FCCD00"/>
</linearGradient>
<linearGradient id="paint60_linear_333_1396" x1="236.442" y1="233.797" x2="236.442" y2="140.922" gradientUnits="userSpaceOnUse">
<stop stop-color="#F49F0A"/>
<stop offset="1" stop-color="#FCCD00"/>
</linearGradient>
<linearGradient id="paint61_linear_333_1396" x1="230.78" y1="233.797" x2="230.78" y2="140.869" gradientUnits="userSpaceOnUse">
<stop stop-color="#F49F0A"/>
<stop offset="1" stop-color="#FCCD00"/>
</linearGradient>
<linearGradient id="paint62_linear_333_1396" x1="228.643" y1="128.688" x2="228.643" y2="158.765" gradientUnits="userSpaceOnUse">
<stop stop-color="#FAD6C0"/>
<stop offset="1" stop-color="#F6B999"/>
</linearGradient>
<linearGradient id="paint63_linear_333_1396" x1="228.082" y1="128.688" x2="228.082" y2="158.765" gradientUnits="userSpaceOnUse">
<stop stop-color="#FAD6C0"/>
<stop offset="1" stop-color="#F6B999"/>
</linearGradient>
<linearGradient id="paint64_linear_333_1396" x1="219.214" y1="220.708" x2="219.214" y2="215.5" gradientUnits="userSpaceOnUse">
<stop stop-color="#FAD6C0"/>
<stop offset="1" stop-color="#F6B999"/>
</linearGradient>
<linearGradient id="paint65_linear_333_1396" x1="245.658" y1="221.35" x2="245.658" y2="189.483" gradientUnits="userSpaceOnUse">
<stop stop-color="#FAD6C0"/>
<stop offset="1" stop-color="#F6B999"/>
</linearGradient>
<linearGradient id="paint66_linear_333_1396" x1="255.888" y1="233.797" x2="255.888" y2="140.868" gradientUnits="userSpaceOnUse">
<stop stop-color="#F49F0A"/>
<stop offset="1" stop-color="#FCCD00"/>
</linearGradient>
<linearGradient id="paint67_linear_333_1396" x1="167.661" y1="336.849" x2="167.661" y2="319.407" gradientUnits="userSpaceOnUse">
<stop stop-color="#F49F0A"/>
<stop offset="1" stop-color="#FCCD00"/>
</linearGradient>
<linearGradient id="paint68_linear_333_1396" x1="167.581" y1="336.849" x2="167.581" y2="319.059" gradientUnits="userSpaceOnUse">
<stop stop-color="#F49F0A"/>
<stop offset="1" stop-color="#FCCD00"/>
</linearGradient>
<linearGradient id="paint69_linear_333_1396" x1="167.501" y1="336.849" x2="167.501" y2="319.059" gradientUnits="userSpaceOnUse">
<stop stop-color="#F49F0A"/>
<stop offset="1" stop-color="#FCCD00"/>
</linearGradient>
<linearGradient id="paint70_linear_333_1396" x1="167.501" y1="336.849" x2="167.501" y2="319.059" gradientUnits="userSpaceOnUse">
<stop stop-color="#F49F0A"/>
<stop offset="1" stop-color="#FCCD00"/>
</linearGradient>
<linearGradient id="paint71_linear_333_1396" x1="167.501" y1="336.849" x2="167.501" y2="319.059" gradientUnits="userSpaceOnUse">
<stop stop-color="#F49F0A"/>
<stop offset="1" stop-color="#FCCD00"/>
</linearGradient>
<linearGradient id="paint72_linear_333_1396" x1="299.107" y1="257.463" x2="299.107" y2="261.897" gradientUnits="userSpaceOnUse">
<stop stop-color="#4C4999"/>
<stop offset="0.0117647" stop-color="#4C4999"/>
<stop offset="1" stop-color="#5555A1"/>
</linearGradient>
<linearGradient id="paint73_linear_333_1396" x1="299.107" y1="288.154" x2="299.107" y2="292.615" gradientUnits="userSpaceOnUse">
<stop stop-color="#4C4999"/>
<stop offset="0.0117647" stop-color="#4C4999"/>
<stop offset="1" stop-color="#5555A1"/>
</linearGradient>
<linearGradient id="paint74_linear_333_1396" x1="311.608" y1="250.492" x2="311.608" y2="220.789" gradientUnits="userSpaceOnUse">
<stop stop-color="#DC252D"/>
<stop offset="1" stop-color="#E95359"/>
</linearGradient>
<linearGradient id="paint75_linear_333_1396" x1="308.75" y1="216.328" x2="290.426" y2="193.089" gradientUnits="userSpaceOnUse">
<stop stop-color="#DC252D"/>
<stop offset="1" stop-color="#E95359"/>
</linearGradient>
<linearGradient id="paint76_linear_333_1396" x1="299.828" y1="254.525" x2="323.414" y2="254.525" gradientUnits="userSpaceOnUse">
<stop stop-color="#DC252D"/>
<stop offset="1" stop-color="#E95359"/>
</linearGradient>
<linearGradient id="paint77_linear_333_1396" x1="288.075" y1="202.759" x2="281.985" y2="207.513" gradientUnits="userSpaceOnUse">
<stop stop-color="#F49F0A"/>
<stop offset="1" stop-color="#FCCD00"/>
</linearGradient>
<linearGradient id="paint78_linear_333_1396" x1="296.196" y1="196.348" x2="284.763" y2="205.296" gradientUnits="userSpaceOnUse">
<stop stop-color="#DC252D"/>
<stop offset="1" stop-color="#E95359"/>
</linearGradient>
<linearGradient id="paint79_linear_333_1396" x1="296.196" y1="196.348" x2="284.763" y2="205.296" gradientUnits="userSpaceOnUse">
<stop stop-color="#DC252D"/>
<stop offset="1" stop-color="#E95359"/>
</linearGradient>
<linearGradient id="paint80_linear_333_1396" x1="296.196" y1="196.348" x2="284.763" y2="205.296" gradientUnits="userSpaceOnUse">
<stop stop-color="#DC252D"/>
<stop offset="1" stop-color="#E95359"/>
</linearGradient>
<linearGradient id="paint81_linear_333_1396" x1="296.195" y1="196.348" x2="284.763" y2="205.296" gradientUnits="userSpaceOnUse">
<stop stop-color="#DC252D"/>
<stop offset="1" stop-color="#E95359"/>
</linearGradient>
<linearGradient id="paint82_linear_333_1396" x1="296.196" y1="196.348" x2="284.763" y2="205.296" gradientUnits="userSpaceOnUse">
<stop stop-color="#DC252D"/>
<stop offset="1" stop-color="#E95359"/>
</linearGradient>
<linearGradient id="paint83_linear_333_1396" x1="296.196" y1="196.348" x2="284.763" y2="205.296" gradientUnits="userSpaceOnUse">
<stop stop-color="#DC252D"/>
<stop offset="1" stop-color="#E95359"/>
</linearGradient>
<linearGradient id="paint84_linear_333_1396" x1="295.822" y1="196.855" x2="284.603" y2="205.723" gradientUnits="userSpaceOnUse">
<stop stop-color="#DC252D"/>
<stop offset="1" stop-color="#E95359"/>
</linearGradient>
<linearGradient id="paint85_linear_333_1396" x1="296.196" y1="196.348" x2="284.763" y2="205.296" gradientUnits="userSpaceOnUse">
<stop stop-color="#DC252D"/>
<stop offset="1" stop-color="#E95359"/>
</linearGradient>
<linearGradient id="paint86_linear_333_1396" x1="296.196" y1="196.348" x2="284.763" y2="205.296" gradientUnits="userSpaceOnUse">
<stop stop-color="#DC252D"/>
<stop offset="1" stop-color="#E95359"/>
</linearGradient>
<linearGradient id="paint87_linear_333_1396" x1="296.196" y1="196.348" x2="284.763" y2="205.296" gradientUnits="userSpaceOnUse">
<stop stop-color="#DC252D"/>
<stop offset="1" stop-color="#E95359"/>
</linearGradient>
<linearGradient id="paint88_linear_333_1396" x1="296.196" y1="196.348" x2="284.763" y2="205.296" gradientUnits="userSpaceOnUse">
<stop stop-color="#DC252D"/>
<stop offset="1" stop-color="#E95359"/>
</linearGradient>
<linearGradient id="paint89_linear_333_1396" x1="296.196" y1="196.348" x2="284.763" y2="205.296" gradientUnits="userSpaceOnUse">
<stop stop-color="#DC252D"/>
<stop offset="1" stop-color="#E95359"/>
</linearGradient>
<linearGradient id="paint90_linear_333_1396" x1="296.196" y1="196.348" x2="284.763" y2="205.296" gradientUnits="userSpaceOnUse">
<stop stop-color="#DC252D"/>
<stop offset="1" stop-color="#E95359"/>
</linearGradient>
<linearGradient id="paint91_linear_333_1396" x1="296.195" y1="196.348" x2="284.763" y2="205.296" gradientUnits="userSpaceOnUse">
<stop stop-color="#DC252D"/>
<stop offset="1" stop-color="#E95359"/>
</linearGradient>
<linearGradient id="paint92_linear_333_1396" x1="296.196" y1="196.348" x2="284.763" y2="205.296" gradientUnits="userSpaceOnUse">
<stop stop-color="#DC252D"/>
<stop offset="1" stop-color="#E95359"/>
</linearGradient>
<linearGradient id="paint93_linear_333_1396" x1="296.196" y1="196.348" x2="284.763" y2="205.296" gradientUnits="userSpaceOnUse">
<stop stop-color="#DC252D"/>
<stop offset="1" stop-color="#E95359"/>
</linearGradient>
<linearGradient id="paint94_linear_333_1396" x1="296.196" y1="196.348" x2="284.763" y2="205.296" gradientUnits="userSpaceOnUse">
<stop stop-color="#DC252D"/>
<stop offset="1" stop-color="#E95359"/>
</linearGradient>
<linearGradient id="paint95_linear_333_1396" x1="296.196" y1="196.348" x2="284.763" y2="205.296" gradientUnits="userSpaceOnUse">
<stop stop-color="#DC252D"/>
<stop offset="1" stop-color="#E95359"/>
</linearGradient>
<linearGradient id="paint96_linear_333_1396" x1="296.195" y1="196.348" x2="284.763" y2="205.296" gradientUnits="userSpaceOnUse">
<stop stop-color="#DC252D"/>
<stop offset="1" stop-color="#E95359"/>
</linearGradient>
<linearGradient id="paint97_linear_333_1396" x1="296.196" y1="196.348" x2="284.763" y2="205.296" gradientUnits="userSpaceOnUse">
<stop stop-color="#DC252D"/>
<stop offset="1" stop-color="#E95359"/>
</linearGradient>
<linearGradient id="paint98_linear_333_1396" x1="296.196" y1="196.348" x2="284.763" y2="205.296" gradientUnits="userSpaceOnUse">
<stop stop-color="#DC252D"/>
<stop offset="1" stop-color="#E95359"/>
</linearGradient>
<linearGradient id="paint99_linear_333_1396" x1="296.196" y1="196.348" x2="284.763" y2="205.296" gradientUnits="userSpaceOnUse">
<stop stop-color="#DC252D"/>
<stop offset="1" stop-color="#E95359"/>
</linearGradient>
<linearGradient id="paint100_linear_333_1396" x1="296.196" y1="196.348" x2="284.763" y2="205.296" gradientUnits="userSpaceOnUse">
<stop stop-color="#DC252D"/>
<stop offset="1" stop-color="#E95359"/>
</linearGradient>
<linearGradient id="paint101_linear_333_1396" x1="296.196" y1="196.348" x2="284.763" y2="205.296" gradientUnits="userSpaceOnUse">
<stop stop-color="#DC252D"/>
<stop offset="1" stop-color="#E95359"/>
</linearGradient>
<linearGradient id="paint102_linear_333_1396" x1="296.196" y1="196.348" x2="284.763" y2="205.296" gradientUnits="userSpaceOnUse">
<stop stop-color="#DC252D"/>
<stop offset="1" stop-color="#E95359"/>
</linearGradient>
<linearGradient id="paint103_linear_333_1396" x1="296.196" y1="196.348" x2="284.763" y2="205.296" gradientUnits="userSpaceOnUse">
<stop stop-color="#DC252D"/>
<stop offset="1" stop-color="#E95359"/>
</linearGradient>
<linearGradient id="paint104_linear_333_1396" x1="296.222" y1="196.348" x2="284.79" y2="205.296" gradientUnits="userSpaceOnUse">
<stop stop-color="#DC252D"/>
<stop offset="1" stop-color="#E95359"/>
</linearGradient>
<linearGradient id="paint105_linear_333_1396" x1="296.089" y1="196.401" x2="284.656" y2="205.35" gradientUnits="userSpaceOnUse">
<stop stop-color="#DC252D"/>
<stop offset="1" stop-color="#E95359"/>
</linearGradient>
</defs>
</svg>
