<svg width="59" height="62" viewBox="0 0 59 62" fill="none" xmlns="http://www.w3.org/2000/svg">
<mask id="mask0_669_3426" style="mask-type:luminance" maskUnits="userSpaceOnUse" x="49" y="8" width="10" height="10">
<path d="M49.104 8.43042H58.2951V17.4438H49.104V8.43042Z" fill="white"/>
</mask>
<g mask="url(#mask0_669_3426)">
<path fill-rule="evenodd" clip-rule="evenodd" d="M57.7987 13.9089L52.6459 9.14873C52.1882 8.72623 51.4753 8.75263 51.0545 9.21034L49.6902 10.6821C49.2695 11.1415 49.2959 11.8545 49.7536 12.2752L54.8993 17.0372C55.357 17.4579 56.0699 17.4315 56.4924 16.9738L57.855 15.5021C58.2757 15.0426 58.2511 14.3314 57.7934 13.9089H57.7987Z" fill="#008CFF"/>
</g>
<mask id="mask1_669_3426" style="mask-type:luminance" maskUnits="userSpaceOnUse" x="0" y="0" width="59" height="62">
<path d="M0.835083 0H58.1173V61.516H0.835083V0Z" fill="white"/>
</mask>
<g mask="url(#mask1_669_3426)">
<path fill-rule="evenodd" clip-rule="evenodd" d="M57.9482 37.8138C58.7351 29.9095 56.003 22.1883 50.3925 16.5638C46.3136 12.4726 41.0218 9.82489 35.2934 9.05382L34.7882 8.98693V3.96974H38.3882C39.0079 3.96974 39.5132 3.46626 39.5132 2.84659V1.12491C39.5132 0.50524 39.0079 0 38.3882 0H25.6763C25.0584 0 24.5531 0.50524 24.5531 1.12491V2.84659C24.5531 3.46626 25.0584 3.96974 25.6763 3.96974H29.0017V8.94996L28.4912 9.01333C24.3806 9.52209 20.469 10.985 17.0344 13.3052C15.6754 14.2206 15.3796 16.0955 16.383 17.3912C17.3301 18.6129 19.1152 18.722 20.3581 17.8999C23.7521 15.6519 27.6902 14.4759 31.755 14.4759C37.2493 14.4759 42.4742 16.6518 46.3559 20.5335C51.1636 25.3412 53.2444 32.0589 52.1054 38.7503C50.6214 47.4291 43.5604 54.293 34.8551 55.5728C31.5614 56.057 28.2324 55.777 25.083 54.6944C22.1079 53.6733 19.4022 51.9833 17.1752 49.7617C13.9906 46.5824 11.9186 42.4665 11.2937 38.0056L11.2004 37.3455H14.172C15.3268 37.3455 16.0556 36.0868 15.4782 35.0869L9.56143 24.8412C8.97873 23.8378 7.53167 23.8378 6.94897 24.8412L1.03397 35.0869C0.456551 36.0868 1.1836 37.3455 2.3402 37.3455H5.50895L5.56 37.8666C6.18495 43.8819 8.86958 49.4748 13.1421 53.7473C18.7191 59.319 26.3681 62.067 34.2213 61.3488C46.6411 60.2098 56.7054 50.23 57.9324 37.8138H57.9482Z" fill="#008CFF"/>
</g>
<path fill-rule="evenodd" clip-rule="evenodd" d="M32.3889 39.1621C32.3114 39.1674 32.234 39.1727 32.1547 39.1727C31.3802 39.1727 30.6355 38.8646 30.0898 38.3189C29.4859 37.715 29.1744 36.8718 29.2413 36.018C29.3081 35.166 29.7412 34.379 30.4383 33.8756L39.1647 27.5627C39.6383 27.2194 40.2984 27.2775 40.7104 27.6877C41.1258 28.1049 41.1839 28.7598 40.8406 29.2386L34.5278 37.9597C34.0225 38.6569 33.248 39.0934 32.3889 39.1621ZM47.9263 26.0118C49.5459 28.8373 50.3874 32.0166 50.3874 35.2751C50.3874 38.5372 49.5459 41.7165 47.921 44.5472C47.9105 44.5789 47.8964 44.6141 47.8753 44.6405C47.8594 44.6669 47.8383 44.6933 47.8172 44.718C46.1941 47.4871 43.8791 49.7968 41.11 51.4199C41.0801 51.4463 41.0431 51.4727 41.0061 51.4885C40.9797 51.5044 40.9551 51.5149 40.9234 51.5255C38.149 53.1116 35.033 53.9549 31.8379 53.9813C31.8167 53.9813 31.7956 53.9866 31.7763 53.9866C31.7604 53.9866 31.7446 53.9866 31.7287 53.9866C31.7076 53.9866 31.6865 53.9866 31.6653 53.9866C30.2552 53.9866 28.8399 53.8193 27.4668 53.5077C26.8224 53.3616 26.4158 52.712 26.5672 52.066C26.7168 51.4252 27.3629 51.0203 28.009 51.1664C28.8504 51.3635 29.7148 51.4833 30.5792 51.5396V50.765C30.5792 50.0996 31.1143 49.5626 31.7798 49.5626C32.447 49.5626 32.9769 50.1048 32.9769 50.765V51.5308C34.9908 51.3688 36.9484 50.8372 38.7633 49.9535L38.3778 49.288C38.0451 48.7141 38.244 47.9765 38.8162 47.6491C39.3883 47.3146 40.1277 47.5135 40.4604 48.0909L40.8406 48.7511C42.5306 47.5963 43.9988 46.1281 45.1537 44.4381L44.4882 44.0578C43.9143 43.7251 43.7172 42.991 44.0446 42.4189C44.3738 41.8415 45.1114 41.6443 45.6888 41.977L46.356 42.3608C47.2503 40.5141 47.7872 38.516 47.9369 36.4669H47.1623C46.5004 36.4669 45.9599 35.9247 45.9599 35.2645C45.9599 34.6026 46.5004 34.0622 47.1623 34.0622H47.9369C47.7872 32.0113 47.2503 30.0185 46.356 28.1718L45.6835 28.5626L45.6783 28.5679C45.4969 28.6665 45.2945 28.7175 45.0903 28.7175C44.6643 28.7175 44.2682 28.4887 44.0552 28.119C43.7224 27.5469 43.9196 26.8093 44.4935 26.4748L45.1589 26.0963C44.0041 24.4045 42.5359 22.9363 40.8459 21.7815L40.4657 22.4487C40.2527 22.8166 39.8566 23.0455 39.4253 23.0455C39.2158 23.0455 39.0133 22.9944 38.8373 22.8958L38.8267 22.8853C38.2581 22.5526 38.0609 21.8185 38.3884 21.2463L38.7739 20.5739C36.9589 19.6954 35.0013 19.1585 32.9927 19.0036V19.7676C32.9927 20.4295 32.4523 20.97 31.7903 20.97C31.1302 20.97 30.5897 20.4295 30.5897 19.7676V18.9983C30.5739 18.9983 30.5528 19.0036 30.5369 19.0036L29.8239 19.0599C29.2201 19.1338 28.6163 19.2324 28.0178 19.368C27.3734 19.5176 26.7274 19.1127 26.583 18.4666C26.4316 17.8223 26.8365 17.1763 27.4826 17.0266C28.222 16.8541 28.9701 16.7291 29.7201 16.6569C31.1038 16.5214 32.4927 16.5214 33.8782 16.6833C36.3745 16.9685 38.7739 17.7695 40.9551 19.0194C40.985 19.03 41.0167 19.0441 41.0484 19.0652C41.0801 19.081 41.1047 19.1022 41.1311 19.1233C41.911 19.581 42.6609 20.0915 43.3633 20.6584L43.3686 20.6636C44.997 21.9804 46.3719 23.5507 47.5161 25.2988L47.5214 25.3094C47.6306 25.4872 47.7397 25.6632 47.8436 25.8463C47.8541 25.8569 47.8647 25.871 47.87 25.8815L47.8911 25.9079L47.9069 25.9396C47.921 25.966 47.9316 25.9907 47.9369 26.0171L47.9263 26.0118ZM32.2023 36.7732C32.3589 36.7574 32.498 36.6799 32.5878 36.5602L34.5119 33.8949L31.8484 35.8208C31.7234 35.9088 31.646 36.055 31.6354 36.2064C31.6249 36.356 31.6812 36.5074 31.7903 36.6165C31.8995 36.7257 32.0509 36.7785 32.2076 36.7679L32.2023 36.7732Z" fill="#008CFF"/>
</svg>
