<svg width="59" height="63" viewBox="0 0 59 63" fill="none" xmlns="http://www.w3.org/2000/svg">
<mask id="mask0_669_3425" style="mask-type:luminance" maskUnits="userSpaceOnUse" x="49" y="9" width="10" height="10">
<path d="M49.104 9.12256H58.2951V18.1359H49.104V9.12256Z" fill="white"/>
</mask>
<g mask="url(#mask0_669_3425)">
<path fill-rule="evenodd" clip-rule="evenodd" d="M57.7987 14.601L52.6459 9.84087C52.1882 9.41837 51.4753 9.44477 51.0545 9.90248L49.6902 11.3742C49.2695 11.8337 49.2959 12.5466 49.7536 12.9674L54.8993 17.7293C55.357 18.15 56.0699 18.1236 56.4924 17.6659L57.855 16.1942C58.2757 15.7347 58.2511 15.0235 57.7934 14.601H57.7987Z" fill="white"/>
</g>
<mask id="mask1_669_3425" style="mask-type:luminance" maskUnits="userSpaceOnUse" x="0" y="0" width="59" height="63">
<path d="M0.835083 0.692139H58.1173V62.2081H0.835083V0.692139Z" fill="white"/>
</mask>
<g mask="url(#mask1_669_3425)">
<path fill-rule="evenodd" clip-rule="evenodd" d="M57.9482 38.5059C58.7351 30.6016 56.003 22.8804 50.3925 17.2559C46.3136 13.1647 41.0218 10.517 35.2934 9.74596L34.7882 9.67907V4.66188H38.3882C39.0079 4.66188 39.5132 4.1584 39.5132 3.53873V1.81704C39.5132 1.19738 39.0079 0.692139 38.3882 0.692139H25.6763C25.0584 0.692139 24.5531 1.19738 24.5531 1.81704V3.53873C24.5531 4.1584 25.0584 4.66188 25.6763 4.66188H29.0017V9.6421L28.4912 9.70547C24.3806 10.2142 20.469 11.6771 17.0344 13.9974C15.6754 14.9128 15.3796 16.7876 16.383 18.0833C17.3301 19.305 19.1152 19.4142 20.3581 18.5921C23.7521 16.344 27.6902 15.168 31.755 15.168C37.2493 15.168 42.4742 17.3439 46.3559 21.2256C51.1636 26.0333 53.2444 32.7511 52.1054 39.4424C50.6214 48.1213 43.5604 54.9852 34.8551 56.265C31.5614 56.7491 28.2324 56.4692 25.083 55.3865C22.1079 54.3655 19.4022 52.6755 17.1752 50.4538C13.9906 47.2745 11.9186 43.1587 11.2937 38.6978L11.2004 38.0376H14.172C15.3268 38.0376 16.0556 36.7789 15.4782 35.779L9.56143 25.5334C8.97873 24.5299 7.53167 24.5299 6.94897 25.5334L1.03397 35.779C0.456551 36.7789 1.1836 38.0376 2.3402 38.0376H5.50895L5.56 38.5587C6.18495 44.574 8.86958 50.1669 13.1421 54.4394C18.7191 60.0111 26.3681 62.7592 34.2213 62.0409C46.6411 60.9019 56.7054 50.9221 57.9324 38.5059H57.9482Z" fill="#008CFF"/>
</g>
<path fill-rule="evenodd" clip-rule="evenodd" d="M32.3889 39.8542C32.3114 39.8595 32.234 39.8648 32.1547 39.8648C31.3802 39.8648 30.6355 39.5567 30.0898 39.011C29.4859 38.4072 29.1744 37.5639 29.2413 36.7101C29.3081 35.8581 29.7412 35.0712 30.4383 34.5677L39.1647 28.2549C39.6383 27.9116 40.2984 27.9697 40.7104 28.3798C41.1258 28.7971 41.1839 29.4519 40.8406 29.9308L34.5278 38.6519C34.0225 39.349 33.248 39.7856 32.3889 39.8542ZM47.9263 26.7039C49.5459 29.5294 50.3874 32.7087 50.3874 35.9672C50.3874 39.2293 49.5459 42.4086 47.921 45.2394C47.9105 45.271 47.8964 45.3062 47.8753 45.3327C47.8594 45.3591 47.8383 45.3855 47.8172 45.4101C46.1941 48.1792 43.8791 50.4889 41.11 52.112C41.0801 52.1384 41.0431 52.1648 41.0061 52.1807C40.9797 52.1965 40.9551 52.2071 40.9234 52.2176C38.149 53.8038 35.033 54.647 31.8379 54.6734C31.8167 54.6734 31.7956 54.6787 31.7763 54.6787C31.7604 54.6787 31.7446 54.6787 31.7287 54.6787C31.7076 54.6787 31.6865 54.6787 31.6653 54.6787C30.2552 54.6787 28.8399 54.5115 27.4668 54.1999C26.8224 54.0538 26.4158 53.4042 26.5672 52.7581C26.7168 52.1173 27.3629 51.7124 28.009 51.8585C28.8504 52.0557 29.7148 52.1754 30.5792 52.2317V51.4571C30.5792 50.7917 31.1143 50.2548 31.7798 50.2548C32.447 50.2548 32.9769 50.797 32.9769 51.4571V52.2229C34.9908 52.061 36.9484 51.5293 38.7633 50.6456L38.3778 49.9802C38.0451 49.4063 38.244 48.6686 38.8162 48.3412C39.3883 48.0067 40.1277 48.2057 40.4604 48.7831L40.8406 49.4432C42.5306 48.2884 43.9988 46.8202 45.1537 45.1302L44.4882 44.75C43.9143 44.4172 43.7172 43.6831 44.0446 43.111C44.3738 42.5336 45.1114 42.3364 45.6888 42.6691L46.356 43.0529C47.2503 41.2062 47.7872 39.2082 47.9369 37.159H47.1623C46.5004 37.159 45.9599 36.6168 45.9599 35.9567C45.9599 35.2948 46.5004 34.7543 47.1623 34.7543H47.9369C47.7872 32.7034 47.2503 30.7106 46.356 28.864L45.6835 29.2548L45.6783 29.2601C45.4969 29.3586 45.2945 29.4097 45.0903 29.4097C44.6643 29.4097 44.2682 29.1808 44.0552 28.8111C43.7224 28.239 43.9196 27.5014 44.4935 27.1669L45.1589 26.7884C44.0041 25.0967 42.5359 23.6285 40.8459 22.4736L40.4657 23.1408C40.2527 23.5088 39.8566 23.7376 39.4253 23.7376C39.2158 23.7376 39.0133 23.6866 38.8373 23.588L38.8267 23.5774C38.2581 23.2447 38.0609 22.5106 38.3884 21.9385L38.7739 21.266C36.9589 20.3876 35.0013 19.8506 32.9927 19.6957V20.4597C32.9927 21.1216 32.4523 21.6621 31.7903 21.6621C31.1302 21.6621 30.5897 21.1216 30.5897 20.4597V19.6904C30.5739 19.6904 30.5528 19.6957 30.5369 19.6957L29.8239 19.752C29.2201 19.826 28.6163 19.9246 28.0178 20.0601C27.3734 20.2097 26.7274 19.8049 26.583 19.1588C26.4316 18.5145 26.8365 17.8684 27.4826 17.7188C28.222 17.5462 28.9701 17.4212 29.7201 17.3491C31.1038 17.2135 32.4927 17.2135 33.8782 17.3755C36.3745 17.6607 38.7739 18.4617 40.9551 19.7116C40.985 19.7221 41.0167 19.7362 41.0484 19.7573C41.0801 19.7732 41.1047 19.7943 41.1311 19.8154C41.911 20.2731 42.6609 20.7836 43.3633 21.3505L43.3686 21.3558C44.997 22.6726 46.3719 24.2429 47.5161 25.991L47.5214 26.0015C47.6306 26.1793 47.7397 26.3554 47.8436 26.5384C47.8541 26.549 47.8647 26.5631 47.87 26.5737L47.8911 26.6001L47.9069 26.6317C47.921 26.6582 47.9316 26.6828 47.9369 26.7092L47.9263 26.7039ZM32.2023 37.4654C32.3589 37.4495 32.498 37.3721 32.5878 37.2523L34.5119 34.5871L31.8484 36.513C31.7234 36.601 31.646 36.7471 31.6354 36.8985C31.6249 37.0481 31.6812 37.1995 31.7903 37.3087C31.8995 37.4178 32.0509 37.4706 32.2076 37.4601L32.2023 37.4654Z" fill="white"/>
</svg>
