<svg width="58" height="62" viewBox="0 0 58 62" fill="none" xmlns="http://www.w3.org/2000/svg">
<mask id="mask0_286_1360" style="mask-type:luminance" maskUnits="userSpaceOnUse" x="48" y="8" width="10" height="10">
<path d="M48.2689 8.43042H57.46V17.4438H48.2689V8.43042Z" fill="white"/>
</mask>
<g mask="url(#mask0_286_1360)">
<path fill-rule="evenodd" clip-rule="evenodd" d="M56.9636 13.9089L51.8108 9.14873C51.3531 8.72623 50.6402 8.75263 50.2194 9.21034L48.8551 10.6821C48.4344 11.1415 48.4608 11.8545 48.9185 12.2752L54.0642 17.0372C54.5219 17.4579 55.2348 17.4315 55.6573 16.9738L57.0199 15.5021C57.4406 15.0426 57.416 14.3314 56.9583 13.9089H56.9636Z" fill="white"/>
</g>
<mask id="mask1_286_1360" style="mask-type:luminance" maskUnits="userSpaceOnUse" x="0" y="0" width="58" height="62">
<path d="M0 0H57.2822V61.516H0V0Z" fill="white"/>
</mask>
<g mask="url(#mask1_286_1360)">
<path fill-rule="evenodd" clip-rule="evenodd" d="M57.1131 37.8138C57.9 29.9095 55.1679 22.1883 49.5574 16.5638C45.4785 12.4726 40.1867 9.82489 34.4583 9.05382L33.9531 8.98693V3.96974H37.5532C38.1728 3.96974 38.6781 3.46626 38.6781 2.84659V1.12491C38.6781 0.50524 38.1728 0 37.5532 0H24.8412C24.2233 0 23.718 0.50524 23.718 1.12491V2.84659C23.718 3.46626 24.2233 3.96974 24.8412 3.96974H28.1666V8.94996L27.6561 9.01333C23.5455 9.52209 19.6339 10.985 16.1993 13.3052C14.8403 14.2206 14.5445 16.0955 15.5479 17.3912C16.495 18.6129 18.2801 18.722 19.523 17.8999C22.917 15.6519 26.8551 14.4759 30.9199 14.4759C36.4142 14.4759 41.6391 16.6518 45.5208 20.5335C50.3285 25.3412 52.4093 32.0589 51.2703 38.7503C49.7863 47.4291 42.7253 54.293 34.02 55.5728C30.7263 56.057 27.3973 55.777 24.2479 54.6944C21.2728 53.6733 18.5671 51.9833 16.3401 49.7617C13.1555 46.5824 11.0835 42.4665 10.4586 38.0056L10.3653 37.3455H13.3369C14.4917 37.3455 15.2205 36.0868 14.6431 35.0869L8.72633 24.8412C8.14363 23.8378 6.69657 23.8378 6.11387 24.8412L0.198869 35.0869C-0.378547 36.0868 0.348505 37.3455 1.5051 37.3455H4.67385L4.7249 37.8666C5.34985 43.8819 8.03448 49.4748 12.307 53.7473C17.884 59.319 25.533 62.067 33.3862 61.3488C45.806 60.2098 55.8703 50.23 57.0973 37.8138H57.1131Z" fill="white"/>
</g>
<path fill-rule="evenodd" clip-rule="evenodd" d="M31.5537 39.1621C31.4762 39.1674 31.3988 39.1727 31.3196 39.1727C30.545 39.1727 29.8003 38.8646 29.2546 38.3189C28.6508 37.715 28.3392 36.8718 28.4061 36.018C28.473 35.166 28.906 34.379 29.6032 33.8756L38.3295 27.5627C38.8031 27.2194 39.4633 27.2775 39.8752 27.6877C40.2906 28.1049 40.3487 28.7598 40.0055 29.2386L33.6926 37.9597C33.1874 38.6569 32.4128 39.0934 31.5537 39.1621ZM47.0911 26.0118C48.7107 28.8373 49.5522 32.0166 49.5522 35.2751C49.5522 38.5372 48.7107 41.7165 47.0859 44.5472C47.0753 44.5789 47.0612 44.6141 47.0401 44.6405C47.0242 44.6669 47.0031 44.6933 46.982 44.718C45.3589 47.4871 43.0439 49.7968 40.2748 51.4199C40.2449 51.4463 40.2079 51.4727 40.1709 51.4885C40.1445 51.5044 40.1199 51.5149 40.0882 51.5255C37.3138 53.1116 34.1978 53.9549 31.0027 53.9813C30.9816 53.9813 30.9604 53.9866 30.9411 53.9866C30.9252 53.9866 30.9094 53.9866 30.8935 53.9866C30.8724 53.9866 30.8513 53.9866 30.8302 53.9866C29.4201 53.9866 28.0047 53.8193 26.6316 53.5077C25.9873 53.3616 25.5806 52.712 25.732 52.066C25.8816 51.4252 26.5277 51.0203 27.1738 51.1664C28.0153 51.3635 28.8796 51.4833 29.744 51.5396V50.765C29.744 50.0996 30.2792 49.5626 30.9446 49.5626C31.6118 49.5626 32.1417 50.1049 32.1417 50.765V51.5308C34.1556 51.3688 36.1132 50.8372 37.9282 49.9535L37.5426 49.288C37.2099 48.7141 37.4088 47.9765 37.981 47.6491C38.5531 47.3146 39.2925 47.5135 39.6252 48.0909L40.0055 48.7511C41.6955 47.5963 43.1636 46.1281 44.3185 44.4381L43.653 44.0578C43.0791 43.7251 42.882 42.991 43.2094 42.4189C43.5386 41.8415 44.2762 41.6443 44.8536 41.977L45.5208 42.3608C46.4151 40.5141 46.9521 38.516 47.1017 36.4669H46.3271C45.6652 36.4669 45.1248 35.9247 45.1248 35.2645C45.1248 34.6026 45.6652 34.0622 46.3271 34.0622H47.1017C46.9521 32.0113 46.4151 30.0185 45.5208 28.1718L44.8484 28.5626L44.8431 28.5679C44.6618 28.6665 44.4593 28.7175 44.2551 28.7175C43.8291 28.7175 43.433 28.4887 43.22 28.119C42.8873 27.5469 43.0844 26.8093 43.6583 26.4748L44.3238 26.0963C43.1689 24.4045 41.7007 22.9363 40.0107 21.7815L39.6305 22.4487C39.4175 22.8166 39.0214 23.0455 38.5901 23.0455C38.3806 23.0455 38.1781 22.9944 38.0021 22.8958L37.9915 22.8853C37.4229 22.5526 37.2258 21.8185 37.5532 21.2463L37.9387 20.5739C36.1237 19.6954 34.1662 19.1585 32.1575 19.0036V19.7676C32.1575 20.4295 31.6171 20.97 30.9552 20.97C30.295 20.97 29.7546 20.4295 29.7546 19.7676V18.9983C29.7387 18.9983 29.7176 19.0036 29.7017 19.0036L28.9888 19.0599C28.385 19.1338 27.7811 19.2324 27.1826 19.368C26.5383 19.5176 25.8922 19.1127 25.7478 18.4666C25.5965 17.8223 26.0013 17.1763 26.6474 17.0266C27.3868 16.8541 28.135 16.7291 28.8849 16.6569C30.2686 16.5214 31.6576 16.5214 33.043 16.6833C35.5393 16.9685 37.9387 17.7695 40.1199 19.0194C40.1498 19.03 40.1815 19.0441 40.2132 19.0652C40.2449 19.081 40.2695 19.1022 40.2959 19.1233C41.0758 19.581 41.8257 20.0915 42.5281 20.6584L42.5334 20.6636C44.1618 21.9804 45.5367 23.5507 46.681 25.2988L46.6862 25.3094C46.7954 25.4872 46.9045 25.6632 47.0084 25.8463C47.019 25.8569 47.0295 25.871 47.0348 25.8815L47.0559 25.9079L47.0718 25.9396C47.0859 25.966 47.0964 25.9907 47.1017 26.0171L47.0911 26.0118ZM31.3671 36.7732C31.5238 36.7574 31.6628 36.6799 31.7526 36.5602L33.6768 33.8949L31.0133 35.8208C30.8883 35.9088 30.8108 36.055 30.8002 36.2064C30.7897 36.356 30.846 36.5074 30.9552 36.6165C31.0643 36.7257 31.2157 36.7785 31.3724 36.7679L31.3671 36.7732Z" fill="white"/>
</svg>
